<?xml version="1.0" standalone="no"?>
<!DOCTYPE svg PUBLIC "-//W3C//DTD SVG 1.1//EN" "http://www.w3.org/Graphics/SVG/1.1/DTD/svg11.dtd" >
<svg xmlns="http://www.w3.org/2000/svg" xmlns:xlink="http://www.w3.org/1999/xlink" version="1.1">
<metadata>
Created by FontForge 20200427 at Fri Oct 18 23:14:25 2013
 By www
2013 published by FontShop International GmbH
</metadata>
<defs>
<font id="MarkOT-Heavy" horiz-adv-x="1" >
  <font-face 
    font-family="MarkOT-Heavy"
    font-weight="800"
    font-stretch="normal"
    units-per-em="2000"
    panose-1="2 11 9 4 2 1 1 1 1 2"
    ascent="1580"
    descent="-420"
    x-height="981"
    cap-height="1400"
    bbox="-1361 -492 3054 2015"
    underline-thickness="236"
    underline-position="-496"
    unicode-range="U+000D-FEFF"
  />
<missing-glyph horiz-adv-x="1153" 
d="M110 0v1400h933v-1400h-933zM346 236h461v928h-461v-928z" />
    <glyph glyph-name=".notdef" horiz-adv-x="1153" 
d="M110 0v1400h933v-1400h-933zM346 236h461v928h-461v-928z" />
    <glyph glyph-name=".null" horiz-adv-x="0" 
 />
    <glyph glyph-name=".null" horiz-adv-x="0" 
 />
    <glyph glyph-name="nonmarkingreturn" horiz-adv-x="666" 
 />
    <glyph glyph-name="CR" unicode="&#xd;" horiz-adv-x="449" 
 />
    <glyph glyph-name="space" unicode=" " horiz-adv-x="449" 
 />
    <glyph glyph-name="exclam" unicode="!" horiz-adv-x="580" 
d="M475 1400l-38 -899h-293l-38 899h369zM291 387q83 0 144 -61.5t61 -143.5q0 -84 -61 -146t-144 -62t-145 62t-62 146q0 82 62 143.5t145 61.5z" />
    <glyph glyph-name="quotedbl" unicode="&#x22;" horiz-adv-x="1133" 
d="M178 1440h313v-650h-313v650zM642 1440h313v-650h-313v650z" />
    <glyph glyph-name="numbersign" unicode="#" horiz-adv-x="1461" 
d="M243 1096h182l65 304h284l-65 -304h209l65 304h285l-65 -304h182l-56 -262h-182l-55 -261h181l-55 -262h-182l-66 -311h-285l66 311h-209l-66 -311h-284l66 311h-182l55 262h183l55 261h-182zM653 834l-55 -261h209l55 261h-209z" />
    <glyph glyph-name="dollar" unicode="$" horiz-adv-x="1400" 
d="M1259 1240l-141 -254q-194 113 -388 113q-106 0 -169.5 -30t-64.5 -88q-1 -31 18.5 -52.5t60.5 -36t84.5 -23.5t111.5 -20q5 -1 8 -1l66 -11q203 -34 316 -126t113 -244q0 -183 -117.5 -295.5t-311.5 -142.5v-193h-251v188q-296 26 -482 162l157 252q211 -139 442 -139
q102 0 165.5 31t64.5 92q1 57 -61.5 83t-214.5 50l-70 11q-214 33 -324.5 129.5t-106.5 265.5q4 166 121 276t309 137v183h251v-183q209 -22 414 -134z" />
    <glyph glyph-name="percent" unicode="%" horiz-adv-x="1974" 
d="M448 1426q169 0 281.5 -110t112.5 -276t-112 -276t-282 -110q-169 0 -281 110t-112 276t112 276t281 110zM448 1192q-63 0 -104 -43.5t-41 -108.5q0 -66 41 -109.5t104 -43.5t104.5 43.5t41.5 109.5t-41.5 109t-104.5 43zM1633 1400l-995 -1400h-305l996 1400h304z
M1525 746q170 0 282 -110t112 -276t-112 -276t-282 -110q-169 0 -281 110t-112 276q0 164 112.5 275t280.5 111zM1525 513q-63 0 -104.5 -44t-41.5 -109t41.5 -108.5t104.5 -43.5t104.5 43t41.5 109t-41 109.5t-105 43.5z" />
    <glyph glyph-name="ampersand" unicode="&#x26;" horiz-adv-x="1492" 
d="M1480 0h-419l-128 123q-183 -149 -404 -149q-215 0 -336.5 102.5t-121.5 273.5q0 111 63 203t172 176q-84 89 -122 163t-38 166q0 163 120 265.5t315 102.5q194 0 313.5 -101t119.5 -265q0 -98 -69 -181t-191 -170l177 -173l209 263l226 -165l-233 -296zM560 252
q87 0 173 65l-226 218q-101 -83 -101 -154q0 -59 41.5 -94t112.5 -35zM459 1047q0 -31 20 -60.5t80 -87.5q72 48 108.5 84.5t36.5 71.5q0 43 -33.5 70.5t-89.5 27.5q-58 0 -90 -28t-32 -78z" />
    <glyph glyph-name="quotesingle" unicode="'" horiz-adv-x="669" 
d="M178 1440h313v-650h-313v650z" />
    <glyph glyph-name="parenleft" unicode="(" horiz-adv-x="838" 
d="M694 1456l93 -273q-189 -90 -283 -249.5t-94 -365.5t94 -365.5t283 -249.5l-93 -273q-275 99 -443 337t-168 551t168 551t443 337z" />
    <glyph glyph-name="parenright" unicode=")" horiz-adv-x="838" 
d="M144 -319l-93 273q189 90 283 249.5t94 365.5t-94 365.5t-283 249.5l93 273q275 -99 443 -337t168 -551t-168 -551t-443 -337z" />
    <glyph glyph-name="asterisk" unicode="*" horiz-adv-x="949" 
d="M140 1285l220 -81l-8 236h245l-9 -236l221 81l76 -232l-227 -65l146 -185l-198 -143l-132 195l-130 -195l-199 143l145 185l-226 65z" />
    <glyph glyph-name="plus" unicode="+" horiz-adv-x="1200" 
d="M731 60h-262v343h-340v257h340v343h262v-343h340v-257h-340v-343z" />
    <glyph glyph-name="comma" unicode="," horiz-adv-x="565" 
d="M147 363h342l-160 -650h-261z" />
    <glyph glyph-name="hyphen" unicode="-" horiz-adv-x="779" 
d="M690 665v-267h-601v267h601z" />
    <glyph glyph-name="period" unicode="." horiz-adv-x="580" 
d="M291 402q86 0 149.5 -63.5t63.5 -148.5q0 -87 -63.5 -151.5t-149.5 -64.5t-150.5 64.5t-64.5 151.5q0 85 64.5 148.5t150.5 63.5z" />
    <glyph glyph-name="slash" unicode="/" horiz-adv-x="1067" 
d="M1122 1540l-849 -1740h-324l849 1740h324z" />
    <glyph glyph-name="zero" unicode="0" horiz-adv-x="1401" 
d="M700 1425q129 0 241.5 -50t196 -141.5t131.5 -229.5t48 -304t-48 -303.5t-131.5 -229.5t-196 -142t-241.5 -50t-241 50t-195.5 142t-131.5 229.5t-48 303.5t48 304t131.5 229.5t195.5 141.5t241 50zM700 1115q-123 0 -201 -109t-78 -306t78 -306t201 -109t201.5 109
t78.5 306t-78.5 306t-201.5 109z" />
    <glyph glyph-name="one" unicode="1" horiz-adv-x="814" 
d="M679 1422v-1422h-324v975l-313 -119v319z" />
    <glyph glyph-name="two" unicode="2" horiz-adv-x="1142" 
d="M247 959l-192 220q202 246 511 246q221 0 353.5 -124t132.5 -328q0 -121 -48 -212.5t-162 -205.5l-254 -254h495v-301h-956v254l485 475q103 100 103 211q0 78 -51.5 126.5t-131.5 48.5q-86 0 -151.5 -41t-133.5 -115z" />
    <glyph glyph-name="three" unicode="3" horiz-adv-x="1149" 
d="M531 1425q229 0 373 -111t144 -293q0 -108 -53 -189t-150 -127q111 -45 171.5 -126.5t60.5 -190.5q0 -82 -29.5 -150.5t-80 -116.5t-119.5 -81t-147 -49t-162 -16q-159 0 -286.5 53t-210.5 152l185 211q121 -126 296 -126q95 0 156 38.5t61 111.5q0 71 -69 110t-174 39
h-158v285h160q94 0 154.5 38t60.5 107q0 67 -54.5 104t-142.5 37q-171 0 -283 -133l-186 211q182 212 483 212z" />
    <glyph glyph-name="four" unicode="4" horiz-adv-x="1185" 
d="M975 908v-368h176v-301h-176v-239h-324v239h-617v227l457 933h356l-426 -859h230v144l108 224h216z" />
    <glyph glyph-name="five" unicode="5" horiz-adv-x="1169" 
d="M1009 1400v-298h-548l-6 -220h138q238 0 369 -115.5t131 -306.5q0 -221 -149.5 -353.5t-382.5 -132.5q-156 0 -286.5 53t-219.5 142l161 238q57 -55 152.5 -96t190.5 -41q96 0 147 45.5t51 122.5q0 158 -247 158h-346l18 804h827z" />
    <glyph glyph-name="six" unicode="6" horiz-adv-x="1195" 
d="M952 1400l-336 -472q8 1 23 1q115 0 210 -36.5t158.5 -99.5t98 -148t34.5 -182q0 -139 -71.5 -251t-196 -174.5t-278.5 -62.5q-153 0 -277.5 61.5t-195.5 171.5t-71 246q0 182 140 390l372 556h390zM594 655q-89 0 -146.5 -55t-57.5 -140q0 -86 57.5 -141t146.5 -55
q90 0 148 55t58 141q0 85 -58.5 140t-147.5 55z" />
    <glyph glyph-name="seven" unicode="7" horiz-adv-x="1105" 
d="M1063 1400v-254l-552 -1146h-386l552 1099h-627v301h1013z" />
    <glyph glyph-name="eight" unicode="8" horiz-adv-x="1265" 
d="M632 1425q146 0 264.5 -47.5t190 -140.5t71.5 -216q0 -216 -211 -314q246 -99 246 -326q0 -124 -76.5 -217.5t-203 -141t-281.5 -47.5t-281.5 47.5t-203 141t-76.5 217.5q0 228 245 326q-210 98 -210 314q0 123 71.5 216t190 140.5t264.5 47.5zM632 582q-88 0 -148 -44
t-60 -121q0 -76 59.5 -118t148.5 -42q88 0 147.5 42t59.5 118q0 77 -59.5 121t-147.5 44zM632 1138q-78 0 -129 -39t-51 -109q0 -71 51 -111.5t129 -40.5q77 0 128 40.5t51 111.5q0 70 -51 109t-128 39z" />
    <glyph glyph-name="nine" unicode="9" horiz-adv-x="1195" 
d="M243 0l335 471h-22q-115 0 -210 36.5t-158.5 99.5t-98 148t-34.5 182q0 139 71 251t195.5 174.5t278.5 62.5q153 0 277.5 -61.5t196 -171.5t71.5 -246q0 -181 -141 -390l-372 -556h-389zM600 745q89 0 146.5 55t57.5 140q0 86 -57.5 141t-146.5 55t-147 -55t-58 -141
q0 -85 58 -140t147 -55z" />
    <glyph glyph-name="colon" unicode=":" horiz-adv-x="580" 
d="M291 1008q85 0 149 -64t64 -149q0 -87 -63.5 -151t-149.5 -64t-150.5 64t-64.5 151q0 85 64.5 149t150.5 64zM291 402q86 0 149.5 -63.5t63.5 -148.5q0 -87 -63.5 -151.5t-149.5 -64.5t-150.5 64.5t-64.5 151.5q0 85 64.5 148.5t150.5 63.5z" />
    <glyph glyph-name="semicolon" unicode=";" horiz-adv-x="565" 
d="M300 1008q86 0 149.5 -64t63.5 -149q0 -87 -63.5 -151t-149.5 -64t-150.5 64t-64.5 151q0 85 64.5 149t150.5 64zM147 363h342l-160 -650h-261z" />
    <glyph glyph-name="less" unicode="&#x3c;" horiz-adv-x="1200" 
d="M1012 306v-297l-823 381v284l823 380v-297l-542 -225z" />
    <glyph glyph-name="equal" unicode="=" horiz-adv-x="1200" 
d="M1071 436v-258h-942v258h942zM1071 885v-258h-942v258h942z" />
    <glyph glyph-name="greater" unicode="&#x3e;" horiz-adv-x="1200" 
d="M189 757v297l823 -381v-284l-823 -380v297l542 225z" />
    <glyph glyph-name="question" unicode="?" horiz-adv-x="891" 
d="M445 494h-293v358h102q259 0 259 131q0 126 -257 128q-79 0 -145 -8l-18 312q98 13 216 13q258 0 403.5 -111t145.5 -302q0 -165 -105 -272.5t-301 -145.5zM298 388q82 0 143.5 -61t61.5 -144q0 -84 -61.5 -146.5t-143.5 -62.5q-83 0 -145 62t-62 146q0 83 62 144.5
t145 61.5z" />
    <glyph glyph-name="at" unicode="@" horiz-adv-x="1895" 
d="M1320 873v-440q0 -123 82 -123q65 0 102 58.5t37 178.5q0 240 -165.5 396t-423.5 156q-261 0 -425.5 -166.5t-164.5 -432.5t160.5 -433t414.5 -167q210 0 343 101l143 -189q-198 -145 -486 -145q-182 0 -338.5 63t-266.5 173t-172.5 264.5t-62.5 332.5q0 177 63.5 331.5
t175.5 264.5t271.5 173t344.5 63q184 0 342.5 -60.5t269 -165.5t173 -249.5t62.5 -308.5q0 -207 -112 -336t-297 -129q-197 0 -275 135q-80 -113 -231 -113q-155 0 -250.5 113t-95.5 282q0 166 95.5 280t242.5 114q130 0 203 -97v76h241zM938 660q-62 0 -102 -45.5
t-40 -115.5q0 -69 40 -115t102 -46q61 0 100.5 45.5t39.5 115.5t-39.5 115.5t-100.5 45.5z" />
    <glyph glyph-name="A" unicode="A" horiz-adv-x="1497" 
d="M948 1400l537 -1400h-356l-106 294h-556l-106 -294h-349l537 1400h399zM745 1068l-170 -472h340z" />
    <glyph glyph-name="B" unicode="B" horiz-adv-x="1365" 
d="M127 1400h602q265 0 401.5 -101.5t136.5 -294.5q0 -101 -53 -179t-140 -117q96 -34 159 -118t63 -189q0 -195 -134 -298t-398 -103h-637v1400zM747 564h-286v-284h286q101 0 152.5 33.5t51.5 109.5q0 141 -204 141zM721 1119h-260v-276h260q198 0 198 139q0 137 -198 137
z" />
    <glyph glyph-name="C" unicode="C" horiz-adv-x="1488" 
d="M806 1426q201 0 367 -89.5t255 -247.5l-293 -168q-55 90 -140 137.5t-193 47.5q-167 0 -276 -113.5t-109 -292.5q0 -126 54 -219.5t140.5 -140t191.5 -46.5q214 0 338 184l274 -194q-98 -146 -255 -228t-354 -82q-160 0 -297 54t-233.5 149.5t-151.5 230.5t-55 292
t55 292t151.5 230.5t233.5 149.5t297 54z" />
    <glyph glyph-name="D" unicode="D" horiz-adv-x="1522" 
d="M127 1400h599q329 0 528 -192t199 -508t-199 -508t-528 -192h-599v1400zM719 1091h-258v-782h258q188 0 286.5 107t98.5 284q0 178 -98 284.5t-287 106.5z" />
    <glyph glyph-name="E" unicode="E" horiz-adv-x="1300" 
d="M1199 301v-301h-1072v1400h1068v-301h-734v-242h691v-300h-691v-256h738z" />
    <glyph glyph-name="F" unicode="F" horiz-adv-x="1261" 
d="M1137 837v-302h-676v-535h-334v1400h1058v-301h-724v-262h676z" />
    <glyph glyph-name="G" unicode="G" horiz-adv-x="1560" 
d="M814 1426q326 0 521 -203l-238 -234q-115 123 -299 123q-169 0 -277 -115t-108 -297q0 -194 111.5 -307t274.5 -113q294 0 354 253h-341v258h672q7 -52 7 -105q0 -163 -55.5 -299t-149.5 -225t-216.5 -138t-258.5 -49q-155 0 -291.5 52.5t-236 145.5t-157 229.5
t-57.5 297.5q0 210 95 375.5t265 258t385 92.5z" />
    <glyph glyph-name="H" unicode="H" horiz-adv-x="1511" 
d="M461 1400v-539h589v539h334v-1400h-334v552h-589v-552h-334v1400h334z" />
    <glyph glyph-name="I" unicode="I" horiz-adv-x="588" 
d="M461 1400v-1400h-334v1400h334z" />
    <glyph glyph-name="J" unicode="J" horiz-adv-x="1108" 
d="M988 1400v-874q0 -269 -140 -410.5t-377 -141.5q-151 0 -264.5 50t-181.5 124l174 253q102 -106 247 -106q208 0 208 260v845h334z" />
    <glyph glyph-name="K" unicode="K" horiz-adv-x="1423" 
d="M1020 0l-441 554h-118v-554h-334v1400h334v-545h121l402 545h411l-543 -683l588 -717h-420z" />
    <glyph glyph-name="L" unicode="L" horiz-adv-x="1190" 
d="M1165 310v-310h-1038v1400h334v-1090h704z" />
    <glyph glyph-name="M" unicode="M" horiz-adv-x="1837" 
d="M1710 1400v-1400h-334v958l-280 -826h-355l-280 823v-955h-334v1400h473l319 -889l317 889h474z" />
    <glyph glyph-name="N" unicode="N" horiz-adv-x="1547" 
d="M1420 1400v-1400h-321l-638 854v-854h-334v1400h320l638 -854v854h335z" />
    <glyph glyph-name="O" unicode="O" horiz-adv-x="1614" 
d="M807 1426q159 0 297 -55t234.5 -151t151.5 -230.5t55 -289.5t-55 -289.5t-151.5 -230.5t-234.5 -151t-297 -55t-297 55t-234.5 151t-151.5 230.5t-55 289.5t55 289.5t151.5 230.5t234.5 151t297 55zM807 1106q-171 0 -280.5 -113t-109.5 -293t109.5 -293t280.5 -113
t280.5 113t109.5 293t-109.5 293t-280.5 113z" />
    <glyph glyph-name="P" unicode="P" horiz-adv-x="1317" 
d="M730 473h-269v-473h-334v1400h600q255 0 392 -126t137 -341q0 -211 -137 -335.5t-389 -124.5zM722 1097h-261v-326h261q91 0 142.5 42t51.5 120q0 79 -51.5 121.5t-142.5 42.5z" />
    <glyph glyph-name="Q" unicode="Q" horiz-adv-x="1636" 
d="M807 1426q159 0 297 -55t234.5 -151t151.5 -230.5t55 -289.5q0 -224 -124 -400l221 -300h-393l-62 82q-172 -108 -380 -108q-159 0 -297 55t-234.5 151t-151.5 230.5t-55 289.5t55 289.5t151.5 230.5t234.5 151t297 55zM807 1106q-171 0 -280.5 -113t-109.5 -293
t109.5 -293t280.5 -113q101 0 185 42l-221 296h364l45 -61q17 62 17 129q0 180 -109.5 293t-280.5 113z" />
    <glyph glyph-name="R" unicode="R" horiz-adv-x="1347" 
d="M127 1400h609q256 0 393 -119t137 -329q0 -168 -102 -278t-289 -140l402 -534h-398l-369 524h-49v-524h-334v1400zM732 1097h-271v-292h271q92 0 143 37t51 110q0 72 -51.5 108.5t-142.5 36.5z" />
    <glyph glyph-name="S" unicode="S" horiz-adv-x="1355" 
d="M1260 1277l-149 -274q-197 118 -401 118q-99 0 -159.5 -33t-60.5 -93q0 -31 19 -53t66.5 -37.5t81.5 -23t110 -20.5q7 -1 11 -2l58 -10q211 -37 327 -136.5t116 -266.5q0 -97 -32.5 -176.5t-87.5 -133.5t-130.5 -91t-160 -54t-176.5 -17q-178 0 -340 46t-276 132l167 272
q215 -147 452 -147q99 0 160.5 33.5t61.5 96.5q0 59 -62.5 86t-214.5 50l-70 11q-221 35 -332 138.5t-107 288.5q4 202 160 323t404 121q151 0 282.5 -32t282.5 -116z" />
    <glyph glyph-name="T" unicode="T" horiz-adv-x="1213" 
d="M1188 1400v-310h-414v-1090h-334v1090h-415v310h1163z" />
    <glyph glyph-name="U" unicode="U" horiz-adv-x="1453" 
d="M1339 1400v-835q0 -284 -162 -437.5t-451 -153.5t-450.5 153t-161.5 438v835h335v-822q0 -140 74 -211.5t203 -71.5q130 0 204 71.5t74 211.5v822h335z" />
    <glyph glyph-name="V" unicode="V" horiz-adv-x="1457" 
d="M1445 1400l-517 -1400h-398l-518 1400h355l364 -1056l366 1056h348z" />
    <glyph glyph-name="W" unicode="W" horiz-adv-x="2178" 
d="M2159 1400l-408 -1400h-398l-264 903l-264 -903h-398l-408 1400h345l267 -1003l280 1003h361l280 -1005l267 1005h340z" />
    <glyph glyph-name="X" unicode="X" horiz-adv-x="1356" 
d="M1334 1400l-453 -693l458 -707h-383l-280 455l-280 -455h-379l458 707l-452 693h383l274 -446l274 446h380z" />
    <glyph glyph-name="Y" unicode="Y" horiz-adv-x="1398" 
d="M1394 1400l-523 -861v-539h-335v537l-532 863h387l314 -559l313 559h376z" />
    <glyph glyph-name="Z" unicode="Z" horiz-adv-x="1284" 
d="M1208 1400v-262l-688 -837h688v-301h-1132v262l687 837h-686v301h1131z" />
    <glyph glyph-name="bracketleft" unicode="[" horiz-adv-x="756" 
d="M705 17v-280h-578v1663h578v-280h-262v-1103h262z" />
    <glyph glyph-name="backslash" unicode="\" horiz-adv-x="1067" 
d="M794 -200l-849 1740h324l849 -1740h-324z" />
    <glyph glyph-name="bracketright" unicode="]" horiz-adv-x="756" 
d="M51 1120v280h578v-1663h-578v280h262v1103h-262z" />
    <glyph glyph-name="asciicircum" unicode="^" horiz-adv-x="1200" 
d="M401 635h-300l357 765h284l357 -765h-307l-196 467z" />
    <glyph glyph-name="underscore" unicode="_" horiz-adv-x="940" 
d="M945 -92v-236h-950v236h950z" />
    <glyph glyph-name="grave" unicode="`" horiz-adv-x="1000" 
d="M786 1105h-293l-278 332h359z" />
    <glyph glyph-name="a" unicode="a" horiz-adv-x="1208" 
d="M1099 981v-981h-303v106q-101 -132 -282 -132q-195 0 -325.5 149.5t-130.5 368.5q0 143 59 261t164 186.5t234 68.5q179 0 281 -133v106h303zM589 716q-93 0 -151 -64t-58 -161t58 -161t151 -64q92 0 151 63.5t59 161.5t-59 161.5t-151 63.5z" />
    <glyph glyph-name="b" unicode="b" horiz-adv-x="1208" 
d="M693 1008q195 0 326 -149.5t131 -366.5q0 -219 -131 -368.5t-326 -149.5q-181 0 -281 131v-105h-302v1440h312v-553q101 121 271 121zM618 716q-92 0 -150.5 -63.5t-58.5 -161.5t58.5 -161.5t150.5 -63.5q93 0 151.5 64t58.5 161t-58.5 161t-151.5 64z" />
    <glyph glyph-name="c" unicode="c" horiz-adv-x="1038" 
d="M587 1008q134 0 240.5 -56t178.5 -159l-245 -171q-73 94 -181 94q-85 0 -143.5 -61.5t-58.5 -163.5q0 -103 57.5 -164t142.5 -61q110 0 185 95l244 -174q-72 -102 -179 -157.5t-241 -55.5q-234 0 -381.5 145.5t-147.5 371.5t147.5 371.5t381.5 145.5z" />
    <glyph glyph-name="d" unicode="d" horiz-adv-x="1207" 
d="M515 1008q170 0 271 -121v553h312v-1440h-302v106q-101 -132 -282 -132q-195 0 -325.5 149.5t-130.5 368.5q0 143 59 261t164 186.5t234 68.5zM589 716q-93 0 -151 -64t-58 -161t58 -161t151 -64q92 0 151 63.5t59 161.5t-59 161.5t-151 63.5z" />
    <glyph glyph-name="e" unicode="e" horiz-adv-x="1110" 
d="M561 1008q218 0 354 -143.5t137 -373.5q0 -65 -6 -97h-665q38 -157 210 -157q119 0 214 86l202 -188q-161 -161 -432 -161q-231 0 -374 141t-143 370q0 232 140 377.5t363 145.5zM562 742q-143 0 -180 -150h357q-38 150 -177 150z" />
    <glyph glyph-name="f" unicode="f" horiz-adv-x="855" 
d="M790 981v-277h-275v-704h-313v704h-169v277h169v76q0 196 100 302.5t274 106.5q193 0 331 -104l-136 -231q-84 43 -153 43q-103 0 -103 -124v-69h275z" />
    <glyph glyph-name="g" unicode="g" horiz-adv-x="1199" 
d="M513 1008q176 0 274 -129v102h303v-887q0 -239 -144.5 -376.5t-387.5 -137.5q-126 0 -244 32t-204 93l111 249q141 -100 315 -100q104 0 175.5 58t71.5 168v61q-97 -124 -270 -124q-196 0 -325.5 142.5t-129.5 352.5t129.5 353t325.5 143zM587 722q-91 0 -148.5 -59.5
t-57.5 -150.5q0 -90 57.5 -150t148.5 -60q88 0 144 59.5t56 150.5t-56 150.5t-144 59.5z" />
    <glyph glyph-name="h" unicode="h" horiz-adv-x="1153" 
d="M423 1441v-563q91 130 279 130q151 0 249.5 -99t98.5 -265v-644h-313v533q0 87 -41 134t-114 47q-69 0 -114 -47.5t-45 -138.5v-528h-313v1441h313z" />
    <glyph glyph-name="i" unicode="i" horiz-adv-x="532" 
d="M423 981v-981h-313v981h313zM265 1471q79 0 133 -54.5t54 -133.5t-54 -132.5t-133 -53.5t-133 53.5t-54 132.5q0 80 54 134t133 54z" />
    <glyph glyph-name="j" unicode="j" horiz-adv-x="533" 
d="M424 981v-1046q0 -169 -87 -264t-234 -95q-88 0 -150 24l30 277q32 -10 63 -10q66 0 66 88v1026h312zM266 1471q79 0 133 -54.5t54 -133.5t-54 -132.5t-133 -53.5t-133 53.5t-54 132.5q0 80 54 134t133 54z" />
    <glyph glyph-name="k" unicode="k" horiz-adv-x="1105" 
d="M423 1440v-784h75l232 325h379l-363 -463l364 -518h-378l-242 379h-67v-379h-313v1440h313z" />
    <glyph glyph-name="l" unicode="l" horiz-adv-x="532" 
d="M423 1440v-1440h-313v1440h313z" />
    <glyph glyph-name="m" unicode="m" horiz-adv-x="1781" 
d="M1312 1008q169 0 267.5 -97.5t98.5 -266.5v-644h-313v533q0 87 -41 134t-115 47q-69 0 -114 -47.5t-45 -138.5v-528h-313v533q0 87 -41 134t-114 47q-69 0 -114 -47.5t-45 -138.5v-528h-313v981h300v-123q90 150 292 150q97 0 175.5 -43t123.5 -121q96 164 311 164z" />
    <glyph glyph-name="n" unicode="n" horiz-adv-x="1153" 
d="M702 1008q151 0 249.5 -99t98.5 -265v-644h-313v533q0 87 -41 134t-114 47q-69 0 -114 -47.5t-45 -138.5v-528h-313v981h300v-123q90 150 292 150z" />
    <glyph glyph-name="o" unicode="o" horiz-adv-x="1181" 
d="M590 1008q230 0 381.5 -147t151.5 -370t-151.5 -370t-381.5 -147q-229 0 -380.5 147t-151.5 370t151.5 370t380.5 147zM590 716q-92 0 -152 -63t-60 -162t60 -162t152 -63q93 0 153 63t60 162t-60 162t-153 63z" />
    <glyph glyph-name="p" unicode="p" horiz-adv-x="1208" 
d="M693 1008q195 0 326 -149.5t131 -366.5q0 -219 -131 -368.5t-326 -149.5q-171 0 -271 119v-493h-312v1381h302v-106q102 133 281 133zM618 716q-92 0 -150.5 -63.5t-58.5 -161.5t58.5 -161.5t150.5 -63.5q93 0 151.5 64t58.5 161t-58.5 161t-151.5 64z" />
    <glyph glyph-name="q" unicode="q" horiz-adv-x="1207" 
d="M515 1008q179 0 281 -133v106h302v-1381h-312v493q-100 -119 -272 -119q-195 0 -325.5 149.5t-130.5 368.5q0 143 59 261t164 186.5t234 68.5zM589 716q-93 0 -151 -64t-58 -161t58 -161t151 -64q92 0 151 63.5t59 161.5t-59 161.5t-151 63.5z" />
    <glyph glyph-name="r" unicode="r" horiz-adv-x="821" 
d="M678 1008q59 0 110 -15l-29 -312q-78 26 -157 26q-86 0 -132.5 -44t-46.5 -133v-530h-313v981h300v-113q84 140 268 140z" />
    <glyph glyph-name="s" unicode="s" horiz-adv-x="1017" 
d="M935 923l-87 -244q-176 75 -323 76q-114 0 -114 -60q0 -15 9.5 -25.5t35 -18.5t47 -12t66.5 -11l72 -11q158 -24 239.5 -99.5t81.5 -198.5q0 -162 -120 -253t-334 -91q-295 0 -453 103l109 242q155 -92 346 -92q137 0 137 64q0 28 -34 42.5t-121 27.5l-57 8
q-177 26 -261.5 101.5t-84.5 207.5q0 156 111.5 242t312.5 86q118 0 208.5 -18.5t213.5 -65.5z" />
    <glyph glyph-name="t" unicode="t" horiz-adv-x="959" 
d="M864 981v-277h-335v-287q0 -151 139 -151q67 0 170 61l108 -244q-77 -54 -157.5 -81.5t-190.5 -27.5q-192 0 -287 106.5t-95 296.5v327h-183v277h183v286h313v-286h335z" />
    <glyph glyph-name="u" unicode="u" horiz-adv-x="1153" 
d="M1050 981v-561q0 -112 -37 -198.5t-102 -140t-149.5 -80.5t-184.5 -27t-185 27t-150 80.5t-102 140.5t-37 199v560h313v-533q0 -90 43.5 -136t117.5 -46q73 0 117 46t44 136v533h312z" />
    <glyph glyph-name="v" unicode="v" horiz-adv-x="1138" 
d="M1125 981l-375 -981h-357l-380 981h341l219 -640l221 640h331z" />
    <glyph glyph-name="w" unicode="w" horiz-adv-x="1793" 
d="M1053 981l200 -626l191 626h329l-338 -981h-349l-191 587l-189 -587h-347l-339 981h333l189 -623l198 623h313z" />
    <glyph glyph-name="x" unicode="x" horiz-adv-x="1148" 
d="M1121 981l-341 -486l346 -495h-364l-193 282l-187 -282h-360l349 495l-338 486h366l182 -279l180 279h360z" />
    <glyph glyph-name="y" unicode="y" horiz-adv-x="1159" 
d="M1152 981l-724 -1383h-342l336 618l-413 765h359l223 -441l219 441h342z" />
    <glyph glyph-name="z" unicode="z" horiz-adv-x="1039" 
d="M952 981v-231l-433 -473h443v-277h-885v224l443 480h-426v277h858z" />
    <glyph glyph-name="braceleft" unicode="{" horiz-adv-x="881" 
d="M830 1129h-82q-73 0 -113.5 -42.5t-36.5 -119.5l3 -80q4 -80 -13 -138.5t-66.5 -106t-134.5 -73.5q125 -39 172.5 -118t41.5 -201l-3 -80q-4 -77 36.5 -119t113.5 -42h82v-272h-125q-213 0 -321.5 118.5t-100.5 324.5l4 87q4 81 -52 125t-159 44v265q103 0 159 44t52 125
l-4 87q-8 207 100.5 325t321.5 118h125v-271z" />
    <glyph glyph-name="bar" unicode="|" horiz-adv-x="669" 
d="M491 1400v-1665h-313v1665h313z" />
    <glyph glyph-name="braceright" unicode="}" horiz-adv-x="881" 
d="M51 8h82q73 0 113.5 42.5t36.5 119.5l-3 80q-4 80 13 138.5t66.5 106t134.5 73.5q-125 39 -172.5 118t-41.5 201l3 80q4 77 -36.5 119t-113.5 42h-82v272h125q213 0 321.5 -118.5t100.5 -324.5l-4 -87q-4 -81 52 -125t159 -44v-265q-103 0 -159 -44t-52 -125l4 -87
q8 -207 -100.5 -325t-321.5 -118h-125v271z" />
    <glyph glyph-name="asciitilde" unicode="~" horiz-adv-x="1200" 
d="M960 709l138 -187q-57 -78 -140 -121t-174 -43q-60 0 -119 16t-97 34.5t-81.5 34.5t-77.5 16q-77 0 -168 -99l-138 186q56 78 139 121t174 43q60 0 119.5 -15.5t97.5 -34.5t81.5 -34.5t76.5 -15.5q78 0 169 99z" />
    <glyph glyph-name="uni00A0" unicode="&#xa0;" horiz-adv-x="449" 
 />
    <glyph glyph-name="exclamdown" unicode="&#xa1;" horiz-adv-x="580" 
d="M105 -418l38 899h293l38 -899h-369zM289 595q-83 0 -144 61.5t-61 143.5q0 84 61 146t144 62t145 -62t62 -146q0 -82 -62 -143.5t-145 -61.5z" />
    <glyph glyph-name="cent" unicode="&#xa2;" horiz-adv-x="1400" 
d="M221 700q0 189 108 324t289 176v200h251v-195q193 -37 311 -199l-235 -169q-81 96 -193 96q-93 0 -156.5 -63.5t-63.5 -169.5t62.5 -169.5t155.5 -63.5q117 0 198 97l232 -171q-117 -161 -311 -198v-195h-251v200q-181 41 -289 176t-108 324z" />
    <glyph glyph-name="sterling" unicode="&#xa3;" horiz-adv-x="1400" 
d="M1219 301v-301h-1075v301h154v275h-154v248h154v46q0 136 44 243.5t121 174.5t176 102t214 35q119 0 223 -37.5t177 -110.5l-215 -230q-73 68 -185 68q-102 0 -166.5 -62t-64.5 -189v-40h466v-248h-466v-275h597z" />
    <glyph glyph-name="currency" unicode="&#xa4;" horiz-adv-x="1400" 
d="M112 1116l172 172l160 -160q118 71 257 71q137 0 256 -70l159 159l173 -172l-159 -159q71 -118 71 -257t-71 -257l160 -159l-173 -172l-160 158q-117 -70 -256 -70t-257 71l-159 -159l-172 172l159 160q-70 117 -70 256q0 137 70 255zM701 444q107 0 181.5 74.5
t74.5 181.5t-74.5 181t-181.5 74q-108 0 -181.5 -74t-73.5 -181q0 -108 73.5 -182t181.5 -74z" />
    <glyph glyph-name="yen" unicode="&#xa5;" horiz-adv-x="1400" 
d="M1223 455v-198h-354v-257h-324v257h-355v198h355v112h-355v198h271l-426 635h374l298 -470l294 470h364l-418 -635h276v-198h-354v-112h354z" />
    <glyph glyph-name="brokenbar" unicode="&#xa6;" horiz-adv-x="669" 
d="M491 1400v-694h-313v694h313zM491 429v-694h-313v694h313z" />
    <glyph glyph-name="section" unicode="&#xa7;" horiz-adv-x="1299" 
d="M1182 1300l-135 -256q-181 100 -361 100q-86 0 -139.5 -25.5t-53.5 -72.5q0 -14 5 -25.5t17 -21.5t23.5 -17.5t34 -14.5t38.5 -11.5t46.5 -10t48 -8.5l52.5 -9l52 -8q191 -32 294.5 -116.5t103.5 -214.5q0 -172 -133 -271q106 -88 106 -229q0 -110 -45 -194.5
t-121.5 -134t-169.5 -74t-198 -24.5q-162 0 -307.5 38.5t-248.5 111.5l152 255q199 -125 409 -125q87 0 140 26t53 77q0 47 -62 70q-39 15 -186 41l-61 11q-195 35 -299 118t-104 232q0 156 136 253q-110 87 -110 246q0 184 143 296.5t372 112.5q134 0 251.5 -26.5
t256.5 -98.5zM623 650l-71 11q-85 -31 -85 -102q0 -26 16.5 -44.5t48 -30t72.5 -20t94 -17.5q6 0 9 -1q23 -4 95 -16q70 32 70 101q0 53 -54.5 75t-194.5 44z" />
    <glyph glyph-name="dieresis" unicode="&#xa8;" horiz-adv-x="1121" 
d="M325 1449q79 0 133.5 -54t54.5 -133t-54 -133t-134 -54q-79 0 -132.5 54t-53.5 133t53.5 133t132.5 54zM789 1449q79 0 133 -54t54 -133t-54 -133t-133 -54t-133 53.5t-54 133.5q0 79 54 133t133 54z" />
    <glyph glyph-name="copyright" unicode="&#xa9;" horiz-adv-x="1818" 
d="M909 1515q225 0 415 -108t300.5 -293t110.5 -403q0 -164 -65.5 -313t-176 -257t-263.5 -172t-321 -64t-321 64t-263.5 172t-176 257t-65.5 313q0 218 110.5 403t300.5 293t415 108zM909 1258q-151 0 -279 -73t-202.5 -199t-74.5 -275t74.5 -275.5t202.5 -200t279 -73.5
t279 73.5t202 199.5t74 276q0 112 -44 213t-118 174.5t-177 116.5t-216 43zM1294 890l-223 -107q-48 99 -155 99q-67 0 -109.5 -47.5t-42.5 -124.5q0 -86 45 -128t107 -42q104 0 162 99l206 -133q-56 -93 -149.5 -145t-214.5 -52q-182 0 -297 111.5t-115 289.5
q0 179 114.5 290.5t297.5 111.5q125 0 226 -59t148 -163z" />
    <glyph glyph-name="ordfeminine" unicode="&#xaa;" horiz-adv-x="797" 
d="M379 1293q155 0 245.5 -78t90.5 -235v-412h-206v65q-83 -83 -206 -83q-115 0 -182.5 61t-67.5 163q0 103 79 161t222 58h143q-12 111 -140 111q-101 0 -191 -63l-83 162q119 90 296 90zM359 716q84 0 145 68v73h-119q-55 0 -83 -20t-28 -51q0 -30 22 -50t63 -20z" />
    <glyph glyph-name="guillemotleft" unicode="&#xab;" horiz-adv-x="1112" 
d="M846 532l197 -402h-303l-197 402l197 401h303zM373 532l197 -402h-303l-197 402l197 401h303z" />
    <glyph glyph-name="logicalnot" unicode="&#xac;" horiz-adv-x="1200" 
d="M129 660h942v-572h-263v315h-679v257z" />
    <glyph glyph-name="uni00AD" unicode="&#xad;" horiz-adv-x="779" 
d="M690 665v-267h-601v267h601z" />
    <glyph glyph-name="registered" unicode="&#xae;" horiz-adv-x="999" 
d="M500 1445q197 0 334 -134.5t137 -324.5q0 -124 -62.5 -229.5t-171 -167.5t-237.5 -62q-199 0 -335.5 134.5t-136.5 324.5q0 191 136.5 325t335.5 134zM500 668q129 0 222 94t93 224t-93 223.5t-222 93.5q-132 0 -225 -93t-93 -224q0 -130 93.5 -224t224.5 -94zM320 1194
h202q84 0 129.5 -38.5t45.5 -103.5q0 -49 -31 -82.5t-88 -44.5l124 -147h-143l-109 143h-9v-143h-121v416zM520 1088h-79v-68h79q53 0 53 32q0 36 -53 36z" />
    <glyph glyph-name="macron" unicode="&#xaf;" horiz-adv-x="1110" 
d="M203 1136v250h704v-250h-704z" />
    <glyph glyph-name="degree" unicode="&#xb0;" horiz-adv-x="875" 
d="M438 616q-170 0 -290 118t-120 284q0 169 120 288.5t290 119.5q169 0 289 -119.5t120 -288.5q0 -166 -120 -284t-289 -118zM438 857q65 0 112 47.5t47 113.5t-47 113t-112 47q-66 0 -113 -47t-47 -113q0 -67 47 -114t113 -47z" />
    <glyph glyph-name="plusminus" unicode="&#xb1;" horiz-adv-x="1200" 
d="M731 352h-262v252h-340v258h340v319h262v-319h340v-258h-340v-252zM1071 258v-258h-942v258h942z" />
    <glyph glyph-name="twosuperior" unicode="&#xb2;" horiz-adv-x="730" 
d="M170 1112l-126 153q128 150 324 150q135 0 217 -73.5t82 -196.5q0 -74 -31 -133t-109 -129l-123 -110h281v-205h-593v174l288 265q58 53 58 110q0 38 -28 62t-69 24q-49 0 -88.5 -24t-82.5 -67z" />
    <glyph glyph-name="threesuperior" unicode="&#xb3;" horiz-adv-x="731" 
d="M335 1415q142 0 232 -66t90 -175q0 -129 -120 -187q66 -26 101.5 -74.5t35.5 -112.5q0 -61 -28 -109t-75.5 -77.5t-106.5 -45t-125 -15.5q-198 0 -305 123l122 142q74 -72 171 -72q51 0 83.5 19t32.5 56q0 36 -37.5 56t-94.5 20h-93v182h96q50 0 82.5 20t32.5 54
q0 68 -103 68q-102 0 -173 -75l-117 145q119 124 299 124z" />
    <glyph glyph-name="acute" unicode="&#xb4;" horiz-adv-x="1000" 
d="M508 1105h-293l212 332h359z" />
    <glyph glyph-name="mu" unicode="&#xb5;" horiz-adv-x="1152" 
d="M404 -400h-301v1381h313v-533q0 -87 41 -134t114 -47q69 0 114 47.5t45 138.5v528h313v-981h-300v123q-90 -150 -292 -150q-25 0 -47 3v-376z" />
    <glyph glyph-name="paragraph" unicode="&#xb6;" horiz-adv-x="1309" 
d="M547 0v559q-222 4 -342 118t-120 306q0 188 120 300t342 116v1h239v-1400h-239zM892 0v1400h239v-1400h-239z" />
    <glyph glyph-name="periodcentered" unicode="&#xb7;" horiz-adv-x="686" 
d="M344 745q86 0 149.5 -63.5t63.5 -149.5q0 -87 -63.5 -151.5t-149.5 -64.5t-150.5 64.5t-64.5 151.5q0 85 64.5 149t150.5 64z" />
    <glyph glyph-name="cedilla" unicode="&#xb8;" horiz-adv-x="723" 
d="M557 7l-103 -328h-287l111 328h279z" />
    <glyph glyph-name="onesuperior" unicode="&#xb9;" horiz-adv-x="541" 
d="M435 1413v-845h-222v544l-179 -62v215z" />
    <glyph glyph-name="ordmasculine" unicode="&#xba;" horiz-adv-x="871" 
d="M435 1293q165 0 274 -106t109 -266t-109 -265.5t-274 -105.5t-273.5 105.5t-108.5 265.5t108.5 266t273.5 106zM435 1091q-70 0 -116 -47.5t-46 -122.5t46 -122.5t116 -47.5t116.5 48t46.5 122t-46.5 122t-116.5 48z" />
    <glyph glyph-name="guillemotright" unicode="&#xbb;" horiz-adv-x="1112" 
d="M266 531l-197 402h303l197 -402l-197 -401h-303zM739 531l-197 402h303l197 -402l-197 -401h-303z" />
    <glyph glyph-name="onequarter" unicode="&#xbc;" horiz-adv-x="1717" 
d="M1387 1400l-883 -1400h-273l883 1400h273zM1593 554v-224h97v-197h-97v-133h-222v133h-370v152l260 546h241l-241 -501h110v86l66 138h156zM435 1413v-845h-222v544l-179 -62v215z" />
    <glyph glyph-name="onehalf" unicode="&#xbd;" horiz-adv-x="1784" 
d="M1387 1400l-883 -1400h-273l883 1400h273zM1224 544l-126 153q128 150 324 150q135 0 217 -73.5t82 -196.5q0 -74 -31 -133t-109 -129l-123 -110h281v-205h-593v174l288 265q58 53 58 110q0 38 -28 62t-69 24q-49 0 -88.5 -24t-82.5 -67zM435 1413v-845h-222v544
l-179 -62v215z" />
    <glyph glyph-name="threequarters" unicode="&#xbe;" horiz-adv-x="1883" 
d="M1554 1400l-883 -1400h-273l883 1400h273zM1760 554v-224h97v-197h-97v-133h-222v133h-370v152l260 546h241l-241 -501h110v86l66 138h156zM335 1415q142 0 232 -66t90 -175q0 -129 -120 -187q66 -26 101.5 -74.5t35.5 -112.5q0 -61 -28 -109t-75.5 -77.5t-106.5 -45
t-125 -15.5q-198 0 -305 123l122 142q74 -72 171 -72q51 0 83.5 19t32.5 56q0 36 -37.5 56t-94.5 20h-93v182h96q50 0 82.5 20t32.5 54q0 68 -103 68q-102 0 -173 -75l-117 145q119 124 299 124z" />
    <glyph glyph-name="questiondown" unicode="&#xbf;" horiz-adv-x="891" 
d="M446 488h293v-358h-102q-259 0 -259 -131q0 -126 257 -128q79 0 145 8l18 -312q-97 -13 -216 -13q-258 0 -403.5 111t-145.5 302q0 165 104.5 272t300.5 145zM593 594q-83 0 -144 61t-61 144q0 84 61.5 146.5t143.5 62.5q83 0 145 -62t62 -146q0 -83 -62 -144.5
t-145 -61.5z" />
    <glyph glyph-name="Agrave" unicode="&#xc0;" horiz-adv-x="1497" 
d="M948 1400l537 -1400h-356l-106 294h-556l-106 -294h-349l537 1400h399zM745 1068l-170 -472h340zM652 1509l-278 332h359l212 -332h-293z" />
    <glyph glyph-name="Aacute" unicode="&#xc1;" horiz-adv-x="1497" 
d="M948 1400l537 -1400h-356l-106 294h-556l-106 -294h-349l537 1400h399zM745 1068l-170 -472h340zM833 1509h-293l212 332h359z" />
    <glyph glyph-name="Acircumflex" unicode="&#xc2;" horiz-adv-x="1497" 
d="M948 1400l537 -1400h-356l-106 294h-556l-106 -294h-349l537 1400h399zM745 1068l-170 -472h340zM1147 1499h-284l-113 144l-114 -144h-284l225 332h344z" />
    <glyph glyph-name="Atilde" unicode="&#xc3;" horiz-adv-x="1497" 
d="M948 1400l537 -1400h-356l-106 294h-556l-106 -294h-349l537 1400h399zM745 1068l-170 -472h340zM506 1514l-171 165q107 152 287 152q62 0 113 -18t85.5 -36t55.5 -18q49 0 115 69l171 -166q-106 -152 -287 -152q-61 0 -112 18t-86 36t-56 18q-49 0 -115 -68z" />
    <glyph glyph-name="Adieresis" unicode="&#xc4;" horiz-adv-x="1497" 
d="M948 1400l537 -1400h-356l-106 294h-556l-106 -294h-349l537 1400h399zM745 1068l-170 -472h340zM517 1853q79 0 133.5 -54t54.5 -133t-54 -133t-134 -54q-79 0 -132.5 54t-53.5 133t53.5 133t132.5 54zM981 1853q79 0 133 -54t54 -133t-54 -133t-133 -54t-133 53.5
t-54 133.5q0 79 54 133t133 54z" />
    <glyph glyph-name="Aring" unicode="&#xc5;" horiz-adv-x="1497" 
d="M948 1400l537 -1400h-356l-106 294h-556l-106 -294h-349l537 1400h399zM745 1068l-170 -472h340zM748 1472q-114 0 -194.5 79.5t-80.5 192.5q0 112 81 191.5t194 79.5q115 0 196 -79.5t81 -191.5q0 -113 -81 -192.5t-196 -79.5zM748 1639q42 0 72.5 30.5t30.5 74.5
q0 43 -30.5 74t-72.5 31q-41 0 -71.5 -31t-30.5 -74q0 -44 30.5 -74.5t71.5 -30.5z" />
    <glyph glyph-name="AE" unicode="&#xc6;" horiz-adv-x="2288" 
d="M2187 301v-301h-1072v265h-532l-178 -265h-395l968 1400h1205v-301h-734v-242h691v-300h-691v-256h738zM786 567h329v488z" />
    <glyph glyph-name="Ccedilla" unicode="&#xc7;" horiz-adv-x="1488" 
d="M806 1426q201 0 367 -89.5t255 -247.5l-293 -168q-55 90 -140 137.5t-193 47.5q-167 0 -276 -113.5t-109 -292.5q0 -126 54 -219.5t140.5 -140t191.5 -46.5q214 0 338 184l274 -194q-80 -119 -200 -196.5t-270 -102.5l-96 -306h-307l105 310q-261 48 -419.5 241.5
t-158.5 469.5q0 157 55 292t151.5 230.5t233.5 149.5t297 54z" />
    <glyph glyph-name="Egrave" unicode="&#xc8;" horiz-adv-x="1300" 
d="M1199 301v-301h-1072v1400h1068v-301h-734v-242h691v-300h-691v-256h738zM563 1509l-278 332h359l212 -332h-293z" />
    <glyph glyph-name="Eacute" unicode="&#xc9;" horiz-adv-x="1300" 
d="M1199 301v-301h-1072v1400h1068v-301h-734v-242h691v-300h-691v-256h738zM744 1509h-293l212 332h359z" />
    <glyph glyph-name="Ecircumflex" unicode="&#xca;" horiz-adv-x="1300" 
d="M1199 301v-301h-1072v1400h1068v-301h-734v-242h691v-300h-691v-256h738zM1058 1499h-284l-113 144l-114 -144h-284l225 332h344z" />
    <glyph glyph-name="Edieresis" unicode="&#xcb;" horiz-adv-x="1300" 
d="M1199 301v-301h-1072v1400h1068v-301h-734v-242h691v-300h-691v-256h738zM428 1853q79 0 133.5 -54t54.5 -133t-54 -133t-134 -54q-79 0 -132.5 54t-53.5 133t53.5 133t132.5 54zM892 1853q79 0 133 -54t54 -133t-54 -133t-133 -54q-80 0 -133.5 53.5t-53.5 133.5
q0 79 54 133t133 54z" />
    <glyph glyph-name="Igrave" unicode="&#xcc;" horiz-adv-x="588" 
d="M461 1400v-1400h-334v1400h334zM197 1509l-278 332h359l212 -332h-293z" />
    <glyph glyph-name="Iacute" unicode="&#xcd;" horiz-adv-x="588" 
d="M461 1400v-1400h-334v1400h334zM378 1509h-293l212 332h359z" />
    <glyph glyph-name="Icircumflex" unicode="&#xce;" horiz-adv-x="588" 
d="M461 1400v-1400h-334v1400h334zM692 1499h-284l-113 144l-114 -144h-284l225 332h344z" />
    <glyph glyph-name="Idieresis" unicode="&#xcf;" horiz-adv-x="588" 
d="M461 1400v-1400h-334v1400h334zM62 1853q79 0 133.5 -54t54.5 -133t-54 -133t-134 -54q-79 0 -132.5 54t-53.5 133t53.5 133t132.5 54zM526 1853q79 0 133 -54t54 -133t-54 -133t-133 -54q-80 0 -133.5 53.5t-53.5 133.5q0 79 54 133t133 54z" />
    <glyph glyph-name="Eth" unicode="&#xd0;" horiz-adv-x="1621" 
d="M226 1400h599q329 0 528 -192t199 -508t-199 -508t-528 -192h-599v563h-150v288h150v549zM880 851v-288h-320v-254h258q188 0 286.5 107t98.5 284q0 178 -98 284.5t-287 106.5h-258v-240h320z" />
    <glyph glyph-name="Ntilde" unicode="&#xd1;" horiz-adv-x="1547" 
d="M1420 1400v-1400h-321l-638 854v-854h-334v1400h320l638 -854v854h335zM542 1514l-171 165q107 152 287 152q62 0 113 -18t85.5 -36t55.5 -18q49 0 115 69l171 -166q-106 -152 -287 -152q-61 0 -112 18t-86 36t-56 18q-49 0 -115 -68z" />
    <glyph glyph-name="Ograve" unicode="&#xd2;" horiz-adv-x="1614" 
d="M807 1426q159 0 297 -55t234.5 -151t151.5 -230.5t55 -289.5t-55 -289.5t-151.5 -230.5t-234.5 -151t-297 -55t-297 55t-234.5 151t-151.5 230.5t-55 289.5t55 289.5t151.5 230.5t234.5 151t297 55zM807 1106q-171 0 -280.5 -113t-109.5 -293t109.5 -293t280.5 -113
t280.5 113t109.5 293t-109.5 293t-280.5 113zM710 1509l-278 332h359l212 -332h-293z" />
    <glyph glyph-name="Oacute" unicode="&#xd3;" horiz-adv-x="1614" 
d="M807 1426q159 0 297 -55t234.5 -151t151.5 -230.5t55 -289.5t-55 -289.5t-151.5 -230.5t-234.5 -151t-297 -55t-297 55t-234.5 151t-151.5 230.5t-55 289.5t55 289.5t151.5 230.5t234.5 151t297 55zM807 1106q-171 0 -280.5 -113t-109.5 -293t109.5 -293t280.5 -113
t280.5 113t109.5 293t-109.5 293t-280.5 113zM891 1509h-293l212 332h359z" />
    <glyph glyph-name="Ocircumflex" unicode="&#xd4;" horiz-adv-x="1614" 
d="M807 1426q159 0 297 -55t234.5 -151t151.5 -230.5t55 -289.5t-55 -289.5t-151.5 -230.5t-234.5 -151t-297 -55t-297 55t-234.5 151t-151.5 230.5t-55 289.5t55 289.5t151.5 230.5t234.5 151t297 55zM807 1106q-171 0 -280.5 -113t-109.5 -293t109.5 -293t280.5 -113
t280.5 113t109.5 293t-109.5 293t-280.5 113zM1205 1499h-284l-113 144l-114 -144h-284l225 332h344z" />
    <glyph glyph-name="Otilde" unicode="&#xd5;" horiz-adv-x="1614" 
d="M807 1426q159 0 297 -55t234.5 -151t151.5 -230.5t55 -289.5t-55 -289.5t-151.5 -230.5t-234.5 -151t-297 -55t-297 55t-234.5 151t-151.5 230.5t-55 289.5t55 289.5t151.5 230.5t234.5 151t297 55zM807 1106q-171 0 -280.5 -113t-109.5 -293t109.5 -293t280.5 -113
t280.5 113t109.5 293t-109.5 293t-280.5 113zM564 1514l-171 165q107 152 287 152q62 0 113 -18t85.5 -36t55.5 -18q49 0 115 69l171 -166q-106 -152 -287 -152q-61 0 -112 18t-86 36t-56 18q-49 0 -115 -68z" />
    <glyph glyph-name="Odieresis" unicode="&#xd6;" horiz-adv-x="1614" 
d="M807 1426q159 0 297 -55t234.5 -151t151.5 -230.5t55 -289.5t-55 -289.5t-151.5 -230.5t-234.5 -151t-297 -55t-297 55t-234.5 151t-151.5 230.5t-55 289.5t55 289.5t151.5 230.5t234.5 151t297 55zM807 1106q-171 0 -280.5 -113t-109.5 -293t109.5 -293t280.5 -113
t280.5 113t109.5 293t-109.5 293t-280.5 113zM575 1853q79 0 133.5 -54t54.5 -133t-54 -133t-134 -54q-79 0 -132.5 54t-53.5 133t53.5 133t132.5 54zM1039 1853q79 0 133 -54t54 -133t-54 -133t-133 -54t-133 53.5t-54 133.5q0 79 54 133t133 54z" />
    <glyph glyph-name="multiply" unicode="&#xd7;" horiz-adv-x="1200" 
d="M328 76l-183 184l269 269l-271 273l187 187l272 -272l270 270l183 -183l-270 -270l272 -272l-187 -188l-273 272z" />
    <glyph glyph-name="Oslash" unicode="&#xd8;" horiz-adv-x="1628" 
d="M807 1426q239 0 424 -120l120 120l189 -189l-119 -118q124 -184 124 -419q0 -155 -55 -289.5t-151.5 -230.5t-234.5 -151t-297 -55q-236 0 -416 115l-115 -115l-188 188l110 110q-129 186 -129 428q0 155 55 289.5t151.5 230.5t234.5 151t297 55zM807 1106
q-171 0 -280.5 -113t-109.5 -293q0 -94 33 -176l540 540q-84 42 -183 42zM1197 700q0 86 -30 165l-534 -534q79 -37 174 -37q171 0 280.5 113t109.5 293z" />
    <glyph glyph-name="Ugrave" unicode="&#xd9;" horiz-adv-x="1453" 
d="M1339 1400v-835q0 -284 -162 -437.5t-451 -153.5t-450.5 153t-161.5 438v835h335v-822q0 -140 74 -211.5t203 -71.5q130 0 204 71.5t74 211.5v822h335zM629 1509l-278 332h359l212 -332h-293z" />
    <glyph glyph-name="Uacute" unicode="&#xda;" horiz-adv-x="1453" 
d="M1339 1400v-835q0 -284 -162 -437.5t-451 -153.5t-450.5 153t-161.5 438v835h335v-822q0 -140 74 -211.5t203 -71.5q130 0 204 71.5t74 211.5v822h335zM810 1509h-293l212 332h359z" />
    <glyph glyph-name="Ucircumflex" unicode="&#xdb;" horiz-adv-x="1453" 
d="M1339 1400v-835q0 -284 -162 -437.5t-451 -153.5t-450.5 153t-161.5 438v835h335v-822q0 -140 74 -211.5t203 -71.5q130 0 204 71.5t74 211.5v822h335zM1124 1499h-284l-113 144l-114 -144h-284l225 332h344z" />
    <glyph glyph-name="Udieresis" unicode="&#xdc;" horiz-adv-x="1453" 
d="M1339 1400v-835q0 -284 -162 -437.5t-451 -153.5t-450.5 153t-161.5 438v835h335v-822q0 -140 74 -211.5t203 -71.5q130 0 204 71.5t74 211.5v822h335zM494 1853q79 0 133.5 -54t54.5 -133t-54 -133t-134 -54q-79 0 -132.5 54t-53.5 133t53.5 133t132.5 54zM958 1853
q79 0 133 -54t54 -133t-54 -133t-133 -54q-80 0 -133.5 53.5t-53.5 133.5q0 79 54 133t133 54z" />
    <glyph glyph-name="Yacute" unicode="&#xdd;" horiz-adv-x="1398" 
d="M1394 1400l-523 -861v-539h-335v537l-532 863h387l314 -559l313 559h376zM789 1509h-293l212 332h359z" />
    <glyph glyph-name="Thorn" unicode="&#xde;" horiz-adv-x="1317" 
d="M461 1400v-220h266q254 0 391.5 -125.5t137.5 -340.5q0 -212 -137 -336.5t-389 -124.5h-269v-253h-334v1400h334zM722 877h-261v-326h261q91 0 142.5 42t51.5 121t-51.5 121t-142.5 42z" />
    <glyph glyph-name="germandbls" unicode="&#xdf;" horiz-adv-x="1228" 
d="M104 0v986q0 74 15.5 141t53.5 130t95.5 108.5t147.5 73t203 27.5q120 0 218.5 -34.5t161.5 -92.5t97 -134t34 -160q0 -120 -52.5 -205t-140.5 -123q100 -32 166.5 -122t66.5 -200q0 -191 -126.5 -306t-343.5 -115q-118 0 -193 24l28 259q53 -19 117 -19q91 0 144.5 45
t53.5 125q0 173 -229 173h-45v261h19q216 0 216 170q0 76 -55 122.5t-144 46.5q-94 0 -144.5 -56t-50.5 -149v-976h-313z" />
    <glyph glyph-name="agrave" unicode="&#xe0;" horiz-adv-x="1208" 
d="M1099 981v-981h-303v106q-101 -132 -282 -132q-195 0 -325.5 149.5t-130.5 368.5q0 143 59 261t164 186.5t234 68.5q179 0 281 -133v106h303zM589 716q-93 0 -151 -64t-58 -161t58 -161t151 -64q92 0 151 63.5t59 161.5t-59 161.5t-151 63.5zM523 1105l-278 332h359
l212 -332h-293z" />
    <glyph glyph-name="aacute" unicode="&#xe1;" horiz-adv-x="1208" 
d="M1099 981v-981h-303v106q-101 -132 -282 -132q-195 0 -325.5 149.5t-130.5 368.5q0 143 59 261t164 186.5t234 68.5q179 0 281 -133v106h303zM589 716q-93 0 -151 -64t-58 -161t58 -161t151 -64q92 0 151 63.5t59 161.5t-59 161.5t-151 63.5zM709 1105h-293l212 332h359z
" />
    <glyph glyph-name="acircumflex" unicode="&#xe2;" horiz-adv-x="1208" 
d="M1099 981v-981h-303v106q-101 -132 -282 -132q-195 0 -325.5 149.5t-130.5 368.5q0 143 59 261t164 186.5t234 68.5q179 0 281 -133v106h303zM589 716q-93 0 -151 -64t-58 -161t58 -161t151 -64q92 0 151 63.5t59 161.5t-59 161.5t-151 63.5zM1010 1095h-284l-113 144
l-114 -144h-284l225 332h344z" />
    <glyph glyph-name="atilde" unicode="&#xe3;" horiz-adv-x="1208" 
d="M1099 981v-981h-303v106q-101 -132 -282 -132q-195 0 -325.5 149.5t-130.5 368.5q0 143 59 261t164 186.5t234 68.5q179 0 281 -133v106h303zM589 716q-93 0 -151 -64t-58 -161t58 -161t151 -64q92 0 151 63.5t59 161.5t-59 161.5t-151 63.5zM365 1110l-171 165
q107 152 287 152q62 0 113 -18t85.5 -36t55.5 -18q49 0 115 69l171 -166q-106 -152 -287 -152q-61 0 -112 18t-86 36t-56 18q-49 0 -115 -68z" />
    <glyph glyph-name="adieresis" unicode="&#xe4;" horiz-adv-x="1208" 
d="M1099 981v-981h-303v106q-101 -132 -282 -132q-195 0 -325.5 149.5t-130.5 368.5q0 143 59 261t164 186.5t234 68.5q179 0 281 -133v106h303zM589 716q-93 0 -151 -64t-58 -161t58 -161t151 -64q92 0 151 63.5t59 161.5t-59 161.5t-151 63.5zM378 1449q79 0 133.5 -54
t54.5 -133t-54 -133t-134 -54q-79 0 -132.5 54t-53.5 133t53.5 133t132.5 54zM842 1449q79 0 133 -54t54 -133t-54 -133t-133 -54q-80 0 -133.5 53.5t-53.5 133.5q0 79 54 133t133 54z" />
    <glyph glyph-name="aring" unicode="&#xe5;" horiz-adv-x="1208" 
d="M1099 981v-981h-303v106q-101 -132 -282 -132q-195 0 -325.5 149.5t-130.5 368.5q0 143 59 261t164 186.5t234 68.5q179 0 281 -133v106h303zM589 716q-93 0 -151 -64t-58 -161t58 -161t151 -64q92 0 151 63.5t59 161.5t-59 161.5t-151 63.5zM612 1068
q-114 0 -194.5 79.5t-80.5 192.5q0 112 81 191.5t194 79.5q115 0 196 -79.5t81 -191.5q0 -113 -81 -192.5t-196 -79.5zM612 1235q42 0 72.5 30.5t30.5 74.5q0 43 -30.5 74t-72.5 31q-41 0 -71.5 -31t-30.5 -74q0 -44 30.5 -74.5t71.5 -30.5z" />
    <glyph glyph-name="ae" unicode="&#xe6;" horiz-adv-x="1732" 
d="M1198 1008q214 0 344.5 -142.5t131.5 -374.5q0 -55 -6 -97h-666q38 -157 210 -157q120 0 214 86l203 -188q-164 -161 -441 -161q-239 0 -375 139q-68 -62 -153 -100.5t-212 -38.5q-181 0 -285.5 83.5t-104.5 227.5q0 143 112.5 223t317.5 80h190q-17 147 -187 147
q-66 0 -141 -24t-129 -57l-104 244q70 46 184 78t235 32q221 0 324 -128q118 128 338 128zM503 213q118 0 202 88q-14 46 -20 93h-151q-77 0 -117 -24.5t-40 -65.5t32.5 -66t93.5 -25zM1183 742q-150 0 -182 -157h362q-36 157 -180 157z" />
    <glyph glyph-name="ccedilla" unicode="&#xe7;" horiz-adv-x="1038" 
d="M587 1008q134 0 240.5 -56t178.5 -159l-245 -171q-73 94 -181 94q-85 0 -143.5 -61.5t-58.5 -163.5q0 -103 57.5 -164t142.5 -61q110 0 185 95l244 -174q-112 -158 -297 -200l-97 -308h-287l106 314q-171 44 -272.5 178.5t-101.5 319.5q0 226 147.5 371.5t381.5 145.5z
" />
    <glyph glyph-name="egrave" unicode="&#xe8;" horiz-adv-x="1110" 
d="M561 1008q218 0 354 -143.5t137 -373.5q0 -65 -6 -97h-665q38 -157 210 -157q119 0 214 86l202 -188q-161 -161 -432 -161q-231 0 -374 141t-143 370q0 232 140 377.5t363 145.5zM562 742q-143 0 -180 -150h357q-38 150 -177 150zM470 1105l-278 332h359l212 -332h-293z
" />
    <glyph glyph-name="eacute" unicode="&#xe9;" horiz-adv-x="1110" 
d="M561 1008q218 0 354 -143.5t137 -373.5q0 -65 -6 -97h-665q38 -157 210 -157q119 0 214 86l202 -188q-161 -161 -432 -161q-231 0 -374 141t-143 370q0 232 140 377.5t363 145.5zM562 742q-143 0 -180 -150h357q-38 150 -177 150zM656 1105h-293l212 332h359z" />
    <glyph glyph-name="ecircumflex" unicode="&#xea;" horiz-adv-x="1110" 
d="M561 1008q218 0 354 -143.5t137 -373.5q0 -65 -6 -97h-665q38 -157 210 -157q119 0 214 86l202 -188q-161 -161 -432 -161q-231 0 -374 141t-143 370q0 232 140 377.5t363 145.5zM562 742q-143 0 -180 -150h357q-38 150 -177 150zM957 1095h-284l-113 144l-114 -144h-284
l225 332h344z" />
    <glyph glyph-name="edieresis" unicode="&#xeb;" horiz-adv-x="1110" 
d="M561 1008q218 0 354 -143.5t137 -373.5q0 -65 -6 -97h-665q38 -157 210 -157q119 0 214 86l202 -188q-161 -161 -432 -161q-231 0 -374 141t-143 370q0 232 140 377.5t363 145.5zM562 742q-143 0 -180 -150h357q-38 150 -177 150zM325 1449q79 0 133.5 -54t54.5 -133
t-54 -133t-134 -54q-79 0 -132.5 54t-53.5 133t53.5 133t132.5 54zM789 1449q79 0 133 -54t54 -133t-54 -133t-133 -54t-133 53.5t-54 133.5q0 79 54 133t133 54z" />
    <glyph glyph-name="igrave" unicode="&#xec;" horiz-adv-x="532" 
d="M423 981v-981h-313v981h313zM175 1105l-278 332h359l212 -332h-293z" />
    <glyph glyph-name="iacute" unicode="&#xed;" horiz-adv-x="532" 
d="M423 981v-981h-313v981h313zM361 1105h-293l212 332h359z" />
    <glyph glyph-name="icircumflex" unicode="&#xee;" horiz-adv-x="532" 
d="M423 981v-981h-313v981h313zM662 1095h-284l-113 144l-114 -144h-284l225 332h344z" />
    <glyph glyph-name="idieresis" unicode="&#xef;" horiz-adv-x="532" 
d="M423 981v-981h-313v981h313zM30 1449q79 0 133.5 -54t54.5 -133t-54 -133t-134 -54q-79 0 -132.5 54t-53.5 133t53.5 133t132.5 54zM494 1449q79 0 133 -54t54 -133t-54 -133t-133 -54q-80 0 -133.5 53.5t-53.5 133.5q0 79 54 133t133 54z" />
    <glyph glyph-name="eth" unicode="&#xf0;" horiz-adv-x="1173" 
d="M843 1448l97 -152l-135 -84q146 -138 228 -324.5t82 -382.5q0 -231 -148 -381t-384 -150q-148 0 -268.5 62.5t-188.5 172.5t-68 245q0 204 131.5 339t324.5 135q130 0 223 -68q-62 115 -177 207l-211 -131l-97 152l144 89q-40 23 -147 78l184 203q122 -53 225 -124z
M590 664q-92 0 -152 -59t-60 -151q0 -91 60 -150t152 -59t152.5 59t60.5 150q0 93 -60 151.5t-153 58.5z" />
    <glyph glyph-name="ntilde" unicode="&#xf1;" horiz-adv-x="1153" 
d="M702 1008q151 0 249.5 -99t98.5 -265v-644h-313v533q0 87 -41 134t-114 47q-69 0 -114 -47.5t-45 -138.5v-528h-313v981h300v-123q90 150 292 150zM341 1110l-171 165q107 152 287 152q62 0 113 -18t85.5 -36t55.5 -18q49 0 115 69l171 -166q-106 -152 -287 -152
q-61 0 -112 18t-86 36t-56 18q-49 0 -115 -68z" />
    <glyph glyph-name="ograve" unicode="&#xf2;" horiz-adv-x="1181" 
d="M590 1008q230 0 381.5 -147t151.5 -370t-151.5 -370t-381.5 -147q-229 0 -380.5 147t-151.5 370t151.5 370t380.5 147zM590 716q-92 0 -152 -63t-60 -162t60 -162t152 -63q93 0 153 63t60 162t-60 162t-153 63zM500 1105l-278 332h359l212 -332h-293z" />
    <glyph glyph-name="oacute" unicode="&#xf3;" horiz-adv-x="1181" 
d="M590 1008q230 0 381.5 -147t151.5 -370t-151.5 -370t-381.5 -147q-229 0 -380.5 147t-151.5 370t151.5 370t380.5 147zM590 716q-92 0 -152 -63t-60 -162t60 -162t152 -63q93 0 153 63t60 162t-60 162t-153 63zM686 1105h-293l212 332h359z" />
    <glyph glyph-name="ocircumflex" unicode="&#xf4;" horiz-adv-x="1181" 
d="M590 1008q230 0 381.5 -147t151.5 -370t-151.5 -370t-381.5 -147q-229 0 -380.5 147t-151.5 370t151.5 370t380.5 147zM590 716q-92 0 -152 -63t-60 -162t60 -162t152 -63q93 0 153 63t60 162t-60 162t-153 63zM987 1095h-284l-113 144l-114 -144h-284l225 332h344z" />
    <glyph glyph-name="otilde" unicode="&#xf5;" horiz-adv-x="1181" 
d="M590 1008q230 0 381.5 -147t151.5 -370t-151.5 -370t-381.5 -147q-229 0 -380.5 147t-151.5 370t151.5 370t380.5 147zM590 716q-92 0 -152 -63t-60 -162t60 -162t152 -63q93 0 153 63t60 162t-60 162t-153 63zM342 1110l-171 165q107 152 287 152q62 0 113 -18t85.5 -36
t55.5 -18q49 0 115 69l171 -166q-106 -152 -287 -152q-61 0 -112 18t-86 36t-56 18q-49 0 -115 -68z" />
    <glyph glyph-name="odieresis" unicode="&#xf6;" horiz-adv-x="1181" 
d="M590 1008q230 0 381.5 -147t151.5 -370t-151.5 -370t-381.5 -147q-229 0 -380.5 147t-151.5 370t151.5 370t380.5 147zM590 716q-92 0 -152 -63t-60 -162t60 -162t152 -63q93 0 153 63t60 162t-60 162t-153 63zM355 1449q79 0 133.5 -54t54.5 -133t-54 -133t-134 -54
q-79 0 -132.5 54t-53.5 133t53.5 133t132.5 54zM819 1449q79 0 133 -54t54 -133t-54 -133t-133 -54t-133 53.5t-54 133.5q0 79 54 133t133 54z" />
    <glyph glyph-name="divide" unicode="&#xf7;" horiz-adv-x="1200" 
d="M1071 681v-257h-942v257h942zM602 1105q74 0 127.5 -54t53.5 -128t-54 -129t-127 -55q-75 0 -129.5 55t-54.5 129t54.5 128t129.5 54zM602 366q74 0 127.5 -54t53.5 -127q0 -75 -54 -130t-127 -55q-75 0 -129.5 55t-54.5 130q0 74 54.5 127.5t129.5 53.5z" />
    <glyph glyph-name="oslash" unicode="&#xf8;" horiz-adv-x="1181" 
d="M591 1008q152 0 276 -70l99 100l174 -171l-96 -96q79 -126 79 -280q0 -223 -151.5 -370t-380.5 -147q-150 0 -275 68l-98 -98l-175 170l95 95q-80 125 -80 282q0 223 151.5 370t381.5 147zM591 729q-97 0 -161 -67t-64 -171q0 -34 8 -69l294 293q-37 14 -77 14zM816 491
q0 33 -8 67l-293 -293q35 -12 76 -12q97 0 161 67t64 171z" />
    <glyph glyph-name="ugrave" unicode="&#xf9;" horiz-adv-x="1153" 
d="M1050 981v-561q0 -112 -37 -198.5t-102 -140t-149.5 -80.5t-184.5 -27t-185 27t-150 80.5t-102 140.5t-37 199v560h313v-533q0 -90 43.5 -136t117.5 -46q73 0 117 46t44 136v533h312zM487 1105l-278 332h359l212 -332h-293z" />
    <glyph glyph-name="uacute" unicode="&#xfa;" horiz-adv-x="1153" 
d="M1050 981v-561q0 -112 -37 -198.5t-102 -140t-149.5 -80.5t-184.5 -27t-185 27t-150 80.5t-102 140.5t-37 199v560h313v-533q0 -90 43.5 -136t117.5 -46q73 0 117 46t44 136v533h312zM673 1105h-293l212 332h359z" />
    <glyph glyph-name="ucircumflex" unicode="&#xfb;" horiz-adv-x="1153" 
d="M1050 981v-561q0 -112 -37 -198.5t-102 -140t-149.5 -80.5t-184.5 -27t-185 27t-150 80.5t-102 140.5t-37 199v560h313v-533q0 -90 43.5 -136t117.5 -46q73 0 117 46t44 136v533h312zM974 1095h-284l-113 144l-114 -144h-284l225 332h344z" />
    <glyph glyph-name="udieresis" unicode="&#xfc;" horiz-adv-x="1153" 
d="M1050 981v-561q0 -112 -37 -198.5t-102 -140t-149.5 -80.5t-184.5 -27t-185 27t-150 80.5t-102 140.5t-37 199v560h313v-533q0 -90 43.5 -136t117.5 -46q73 0 117 46t44 136v533h312zM342 1449q79 0 133.5 -54t54.5 -133t-54 -133t-134 -54q-79 0 -132.5 54t-53.5 133
t53.5 133t132.5 54zM806 1449q79 0 133 -54t54 -133t-54 -133t-133 -54q-80 0 -133.5 53.5t-53.5 133.5q0 79 54 133t133 54z" />
    <glyph glyph-name="yacute" unicode="&#xfd;" horiz-adv-x="1159" 
d="M1152 981l-724 -1383h-342l336 618l-413 765h359l223 -441l219 441h342zM685 1105h-293l212 332h359z" />
    <glyph glyph-name="thorn" unicode="&#xfe;" horiz-adv-x="1208" 
d="M693 1008q195 0 326 -149.5t131 -366.5q0 -219 -131 -368.5t-326 -149.5q-170 0 -270 117v-491h-313v1840h313v-552q100 120 270 120zM618 716q-92 0 -150.5 -63.5t-58.5 -161.5t58.5 -161.5t150.5 -63.5q93 0 151.5 64t58.5 161t-58.5 161t-151.5 64z" />
    <glyph glyph-name="ydieresis" unicode="&#xff;" horiz-adv-x="1159" 
d="M1152 981l-724 -1383h-342l336 618l-413 765h359l223 -441l219 441h342zM354 1449q79 0 133.5 -54t54.5 -133t-54 -133t-134 -54q-79 0 -132.5 54t-53.5 133t53.5 133t132.5 54zM818 1449q79 0 133 -54t54 -133t-54 -133t-133 -54q-80 0 -133.5 53.5t-53.5 133.5
q0 79 54 133t133 54z" />
    <glyph glyph-name="dotlessi" unicode="&#x131;" horiz-adv-x="532" 
d="M423 981v-981h-313v981h313z" />
    <glyph glyph-name="IJ" unicode="&#x132;" horiz-adv-x="1696" 
d="M461 1400v-1400h-334v1400h334zM1576 1400v-874q0 -269 -140 -410.5t-377 -141.5q-151 0 -264.5 50t-181.5 124l174 253q102 -106 247 -106q208 0 208 260v845h334z" />
    <glyph glyph-name="ij" unicode="&#x133;" horiz-adv-x="1066" 
d="M956 981v-1046q0 -169 -87 -264t-234 -95q-88 0 -150 24l30 277q32 -10 63 -10q66 0 66 88v1026h312zM798 1471q79 0 133 -54.5t54 -133.5t-54 -132.5t-133 -53.5t-133 53.5t-54 132.5q0 80 54 134t133 54zM423 981v-981h-313v981h313zM265 1471q79 0 133 -54.5
t54 -133.5t-54 -132.5t-133 -53.5t-133 53.5t-54 132.5q0 80 54 134t133 54z" />
    <glyph glyph-name="Lslash" unicode="&#x141;" horiz-adv-x="1289" 
d="M1264 310v-310h-1038v393l-150 -83v322l150 83v685h334v-498l412 230v-322l-412 -230v-270h704z" />
    <glyph glyph-name="lslash" unicode="&#x142;" horiz-adv-x="745" 
d="M529 1440v-453l183 108v-307l-183 -108v-680h-313v496l-183 -108v307l183 108v637h313z" />
    <glyph glyph-name="OE" unicode="&#x152;" horiz-adv-x="2183" 
d="M2082 301v-301h-1287q-328 0 -527 191.5t-199 508.5t199 508.5t527 191.5h1283v-301h-734v-242h691v-300h-691v-256h738zM417 700q0 -178 98.5 -284.5t286.5 -106.5h208v782h-208q-188 0 -286.5 -107.5t-98.5 -283.5z" />
    <glyph glyph-name="oe" unicode="&#x153;" horiz-adv-x="1856" 
d="M1307 1008q218 0 354 -143t137 -374q0 -55 -6 -97h-666q38 -157 210 -157q120 0 214 86l202 -188q-163 -161 -440 -161q-224 0 -358 150q-144 -150 -364 -150q-229 0 -380.5 147t-151.5 370t151.5 370t380.5 147q220 0 365 -151q134 151 352 151zM590 716q-92 0 -152 -63
t-60 -162t60 -162t152 -63q93 0 153 63t60 162t-60 162t-153 63zM1307 742q-143 0 -180 -150h358q-40 150 -178 150z" />
    <glyph glyph-name="Scaron" unicode="&#x160;" horiz-adv-x="1355" 
d="M1260 1277l-149 -274q-197 118 -401 118q-99 0 -159.5 -33t-60.5 -93q0 -31 19 -53t66.5 -37.5t81.5 -23t110 -20.5q7 -1 11 -2l58 -10q211 -37 327 -136.5t116 -266.5q0 -97 -32.5 -176.5t-87.5 -133.5t-130.5 -91t-160 -54t-176.5 -17q-178 0 -340 46t-276 132l167 272
q215 -147 452 -147q99 0 160.5 33.5t61.5 96.5q0 59 -62.5 86t-214.5 50l-70 11q-221 35 -332 138.5t-107 288.5q4 202 160 323t404 121q151 0 282.5 -32t282.5 -116zM319 1831h284l114 -144l113 144h284l-226 -332h-344z" />
    <glyph glyph-name="scaron" unicode="&#x161;" horiz-adv-x="1017" 
d="M935 923l-87 -244q-176 75 -323 76q-114 0 -114 -60q0 -15 9.5 -25.5t35 -18.5t47 -12t66.5 -11l72 -11q158 -24 239.5 -99.5t81.5 -198.5q0 -162 -120 -253t-334 -91q-295 0 -453 103l109 242q155 -92 346 -92q137 0 137 64q0 28 -34 42.5t-121 27.5l-57 8
q-177 26 -261.5 101.5t-84.5 207.5q0 156 111.5 242t312.5 86q118 0 208.5 -18.5t213.5 -65.5zM133 1427h284l114 -144l113 144h284l-226 -332h-344z" />
    <glyph glyph-name="Ydieresis" unicode="&#x178;" horiz-adv-x="1398" 
d="M1394 1400l-523 -861v-539h-335v537l-532 863h387l314 -559l313 559h376zM473 1853q79 0 133.5 -54t54.5 -133t-54 -133t-134 -54q-79 0 -132.5 54t-53.5 133t53.5 133t132.5 54zM937 1853q79 0 133 -54t54 -133t-54 -133t-133 -54t-133 53.5t-54 133.5q0 79 54 133
t133 54z" />
    <glyph glyph-name="Zcaron" unicode="&#x17d;" horiz-adv-x="1284" 
d="M1208 1400v-262l-688 -837h688v-301h-1132v262l687 837h-686v301h1131zM245 1831h284l114 -144l113 144h284l-226 -332h-344z" />
    <glyph glyph-name="zcaron" unicode="&#x17e;" horiz-adv-x="1039" 
d="M952 981v-231l-433 -473h443v-277h-885v224l443 480h-426v277h858zM126 1427h284l114 -144l113 144h284l-226 -332h-344z" />
    <glyph glyph-name="longs" unicode="&#x17f;" horiz-adv-x="681" 
d="M477 1466q195 0 331 -104l-135 -231q-84 43 -153 43q-103 0 -103 -124v-1050h-313v1057q0 195 100 302t273 107z" />
    <glyph glyph-name="florin" unicode="&#x192;" horiz-adv-x="1400" 
d="M1093 850v-250h-250l-23 -244q-37 -381 -364 -381q-173 0 -304 89l131 226q69 -33 133 -33q50 0 72 30t28 97l20 216h-218v250h242l19 201q35 374 365 374q173 0 304 -89l-131 -226q-69 33 -133 33q-50 0 -71.5 -29.5t-28.5 -97.5l-16 -166h225z" />
    <glyph glyph-name="uni0237" unicode="&#x237;" horiz-adv-x="533" 
d="M424 981v-1046q0 -169 -87 -264t-234 -95q-88 0 -150 24l30 277q32 -10 63 -10q66 0 66 88v1026h312z" />
    <glyph glyph-name="uni02BB" unicode="&#x2bb;" horiz-adv-x="565" 
d="M418 790h-342l160 650h261z" />
    <glyph glyph-name="afii57929" unicode="&#x2bc;" horiz-adv-x="565" 
d="M147 1440h342l-160 -650h-261z" />
    <glyph glyph-name="uni02BE" unicode="&#x2be;" horiz-adv-x="527" 
d="M89 638v254q62 0 107.5 46.5t45.5 110.5q0 66 -45 112t-108 46v247q170 0 290 -118.5t120 -286.5q0 -170 -120 -290.5t-290 -120.5z" />
    <glyph glyph-name="uni02BF" unicode="&#x2bf;" horiz-adv-x="527" 
d="M438 1454v-254q-62 0 -107.5 -46.5t-45.5 -110.5q0 -66 45 -112t108 -46v-247q-170 0 -290 118.5t-120 286.5q0 170 120 290.5t290 120.5z" />
    <glyph glyph-name="circumflex" unicode="&#x2c6;" horiz-adv-x="1141" 
d="M970 1096h-283l-114 144l-114 -144h-283l225 332h344z" />
    <glyph glyph-name="caron" unicode="&#x2c7;" horiz-adv-x="1141" 
d="M176 1427h283l114 -144l114 144h283l-225 -332h-344z" />
    <glyph glyph-name="breve" unicode="&#x2d8;" horiz-adv-x="1141" 
d="M173 1414l232 65q44 -154 165 -154q122 0 166 154l232 -65q-39 -158 -142.5 -244.5t-255.5 -86.5t-255 86.5t-142 244.5z" />
    <glyph glyph-name="dotaccent" unicode="&#x2d9;" horiz-adv-x="593" 
d="M297 1471q79 0 133 -54.5t54 -133.5t-54 -132.5t-133 -53.5t-133 53.5t-54 132.5q0 80 54 134t133 54z" />
    <glyph glyph-name="ring" unicode="&#x2da;" horiz-adv-x="1000" 
d="M500 1068q-114 0 -194.5 79.5t-80.5 192.5q0 112 81 191.5t194 79.5q114 0 195 -79.5t81 -191.5q0 -113 -81 -192.5t-195 -79.5zM500 1235q42 0 72.5 30.5t30.5 74.5q0 43 -30.5 74t-72.5 31q-41 0 -71.5 -31t-30.5 -74q0 -44 30 -74.5t72 -30.5z" />
    <glyph glyph-name="ogonek" unicode="&#x2db;" horiz-adv-x="1101" 
d="M801 -144l162 -160q-122 -116 -299 -116q-128 0 -210.5 64.5t-82.5 173.5q0 97 66 160t186 113l201 -78q-100 -42 -142 -75t-42 -69q0 -24 17 -38t48 -14q51 0 96 39z" />
    <glyph glyph-name="tilde" unicode="&#x2dc;" horiz-adv-x="1141" 
d="M328 1110l-171 165q107 152 287 152q62 0 113 -18t85.5 -36t55.5 -18q49 0 115 69l171 -166q-106 -152 -287 -152q-61 0 -112 18t-86 36t-56 18q-49 0 -115 -68z" />
    <glyph glyph-name="hungarumlaut" unicode="&#x2dd;" horiz-adv-x="1141" 
d="M802 1105h-293l212 332h359zM353 1105h-293l212 332h359z" />
    <glyph glyph-name="gravecomb" unicode="&#x300;" 
d="M-681 1105l-278 332h359l212 -332h-293z" />
    <glyph glyph-name="acutecomb" unicode="&#x301;" 
d="M-495 1105h-293l212 332h359z" />
    <glyph glyph-name="uni0302" unicode="&#x302;" 
d="M-194 1095h-284l-113 144l-114 -144h-284l225 332h344z" />
    <glyph glyph-name="tildecomb" unicode="&#x303;" 
d="M-839 1110l-171 165q107 152 287 152q62 0 113 -18t85.5 -36t55.5 -18q49 0 115 69l171 -166q-106 -152 -287 -152q-61 0 -112 18t-86 36t-56 18q-49 0 -115 -68z" />
    <glyph glyph-name="uni0304" unicode="&#x304;" 
d="M-943 1136v250h704v-250h-704z" />
    <glyph glyph-name="uni0306" unicode="&#x306;" 
d="M-988 1414l231 65q44 -154 166 -154t166 154l231 -65q-38 -158 -141.5 -244.5t-255.5 -86.5t-255 86.5t-142 244.5z" />
    <glyph glyph-name="uni0307" unicode="&#x307;" 
d="M-591 1471q79 0 133 -54.5t54 -133.5t-54 -132.5t-133 -53.5t-133 53.5t-54 132.5q0 80 54 134t133 54z" />
    <glyph glyph-name="uni0308" unicode="&#x308;" 
d="M-826 1449q79 0 133.5 -54t54.5 -133t-54 -133t-134 -54q-79 0 -132.5 54t-53.5 133t53.5 133t132.5 54zM-362 1449q79 0 133 -54t54 -133t-54 -133t-133 -54q-80 0 -133.5 53.5t-53.5 133.5q0 79 54 133t133 54z" />
    <glyph glyph-name="uni030A" unicode="&#x30a;" 
d="M-592 1068q-114 0 -194.5 79.5t-80.5 192.5q0 112 81 191.5t194 79.5q115 0 196 -79.5t81 -191.5q0 -113 -81 -192.5t-196 -79.5zM-592 1235q42 0 72.5 30.5t30.5 74.5q0 43 -30.5 74t-72.5 31q-41 0 -71.5 -31t-30.5 -74q0 -44 30.5 -74.5t71.5 -30.5z" />
    <glyph glyph-name="uni030B" unicode="&#x30b;" 
d="M-241 1105h-300l235 332h324zM-655 1105h-291l208 332h319z" />
    <glyph glyph-name="uni030C" unicode="&#x30c;" 
d="M-988 1427h284l114 -144l113 144h284l-226 -332h-344z" />
    <glyph glyph-name="uni0312" unicode="&#x312;" 
d="M-440 1105h-301l102 412h248z" />
    <glyph glyph-name="dotbelowcomb" unicode="&#x323;" 
d="M-590 -82q79 0 133 -54.5t54 -133.5t-54 -132.5t-133 -53.5t-133 53.5t-54 132.5q0 80 54 134t133 54z" />
    <glyph glyph-name="uni0326" unicode="&#x326;" 
d="M-719 -80h301l-102 -412h-248z" />
    <glyph glyph-name="uni0327" unicode="&#x327;" 
d="M-395 7l-103 -328h-287l111 328h279z" />
    <glyph glyph-name="uni0328" unicode="&#x328;" 
d="M-451 -144l162 -160q-122 -116 -299 -116q-133 0 -217.5 59.5t-84.5 158.5q0 55 23 100t69 80t96 60t121 51l113 -50q-144 -79 -144 -166q0 -26 18 -41t49 -15q50 0 94 39z" />
    <glyph glyph-name="uni032E" unicode="&#x32e;" 
d="M-987 -134l231 66q43 -154 166 -154q121 0 166 154l231 -66q-39 -157 -142 -243.5t-255 -86.5t-255.5 86.5t-141.5 243.5z" />
    <glyph glyph-name="uni0331" unicode="&#x331;" 
d="M-942 -384v250h704v-250h-704z" />
    <glyph glyph-name="uni0335" unicode="&#x335;" 
d="M-214 644v-246h-751v246h751z" />
    <glyph glyph-name="uni0336" unicode="&#x336;" 
d="M182 644v-246h-1543v246h1543z" />
    <glyph glyph-name="uni0394" unicode="&#x394;" horiz-adv-x="1373" 
d="M886 1400l436 -1138v-262h-1271v262l436 1138h399zM687 1073l-277 -764h553z" />
    <glyph glyph-name="uni03A9" unicode="&#x3a9;" horiz-adv-x="1682" 
d="M51 296h236q-184 182 -184 450q0 194 93.5 349t262.5 243t382 88q160 0 297.5 -51.5t234 -141.5t151.5 -216t55 -271q0 -266 -184 -450h236v-296h-666v270q121 39 193 148t72 261q0 190 -108.5 308.5t-280.5 118.5t-281 -118.5t-109 -308.5q0 -152 72 -261t193 -148v-270
h-665v296z" />
    <glyph glyph-name="uni03BC" unicode="&#x3bc;" horiz-adv-x="1152" 
d="M404 -400h-301v1381h313v-533q0 -87 41 -134t114 -47q69 0 114 47.5t45 138.5v528h313v-981h-300v123q-90 -150 -292 -150q-25 0 -47 3v-376z" />
    <glyph glyph-name="pi" unicode="&#x3c0;" horiz-adv-x="1160" 
d="M1057 981v-981h-313v704h-321v-704h-313v981h947z" />
    <glyph glyph-name="uni1E9E" unicode="&#x1e9e;" horiz-adv-x="1431" 
d="M664 542v230l229 305q-69 46 -183 46q-125 0 -193 -65t-68 -175v-883h-335v893q0 82 19 156.5t64.5 144t113 120.5t172 81.5t234.5 30.5q380 0 594 -268l-285 -369q158 -43 247 -141.5t89 -239.5q0 -199 -150.5 -316t-401.5 -117q-151 0 -242 22l46 294q71 -16 145 -16
q257 0 257 133q0 134 -271 134h-81z" />
    <glyph glyph-name="uni2007" unicode="&#x2007;" horiz-adv-x="1401" 
 />
    <glyph glyph-name="uni2008" unicode="&#x2008;" horiz-adv-x="580" 
 />
    <glyph glyph-name="uni2009" unicode="&#x2009;" horiz-adv-x="150" 
 />
    <glyph glyph-name="uni200B" unicode="&#x200b;" horiz-adv-x="0" 
 />
    <glyph glyph-name="uni2010" unicode="&#x2010;" horiz-adv-x="779" 
d="M690 665v-267h-601v267h601z" />
    <glyph glyph-name="uni2011" unicode="&#x2011;" horiz-adv-x="779" 
d="M690 665v-267h-601v267h601z" />
    <glyph glyph-name="figuredash" unicode="&#x2012;" horiz-adv-x="1200" 
d="M1092 660v-257h-985v257h985z" />
    <glyph glyph-name="endash" unicode="&#x2013;" horiz-adv-x="1137" 
d="M1061 660v-257h-985v257h985z" />
    <glyph glyph-name="emdash" unicode="&#x2014;" horiz-adv-x="1576" 
d="M1538 660v-257h-1500v257h1500z" />
    <glyph glyph-name="quoteleft" unicode="&#x2018;" horiz-adv-x="565" 
d="M418 790h-342l160 650h261z" />
    <glyph glyph-name="quoteright" unicode="&#x2019;" horiz-adv-x="565" 
d="M147 1440h342l-160 -650h-261z" />
    <glyph glyph-name="quotesinglbase" unicode="&#x201a;" horiz-adv-x="565" 
d="M147 363h342l-160 -650h-261z" />
    <glyph glyph-name="quotedblleft" unicode="&#x201c;" horiz-adv-x="1043" 
d="M418 790h-342l160 650h261zM896 790h-342l160 650h261z" />
    <glyph glyph-name="quotedblright" unicode="&#x201d;" horiz-adv-x="1043" 
d="M625 1440h342l-160 -650h-261zM147 1440h342l-160 -650h-261z" />
    <glyph glyph-name="quotedblbase" unicode="&#x201e;" horiz-adv-x="1043" 
d="M625 363h342l-160 -650h-261zM147 363h342l-160 -650h-261z" />
    <glyph glyph-name="dagger" unicode="&#x2020;" horiz-adv-x="801" 
d="M519 576h-236v414h-219v229h219v221h236v-221h218v-229h-218v-414z" />
    <glyph glyph-name="daggerdbl" unicode="&#x2021;" horiz-adv-x="801" 
d="M519 1440v-158h218v-215h-218v-132h218v-215h-218v-158h-236v158h-219v215h219v132h-219v215h219v158h236z" />
    <glyph glyph-name="bullet" unicode="&#x2022;" horiz-adv-x="922" 
d="M460 877q144 0 246 -101t102 -245t-102 -245.5t-246 -101.5q-143 0 -244.5 101.5t-101.5 245.5t101.5 245t244.5 101z" />
    <glyph glyph-name="uni2023" unicode="&#x2023;" horiz-adv-x="954" 
d="M905 532l-768 -445v890z" />
    <glyph glyph-name="ellipsis" unicode="&#x2026;" horiz-adv-x="1694" 
d="M291 402q85 0 148.5 -63t63.5 -149q0 -87 -63.5 -151.5t-148.5 -64.5q-87 0 -151 64.5t-64 151.5q0 86 64 149t151 63zM848 402q86 0 149.5 -63.5t63.5 -148.5q0 -87 -63.5 -151.5t-149.5 -64.5q-87 0 -151 64.5t-64 151.5q0 86 64 149t151 63zM1405 402
q86 0 149.5 -63.5t63.5 -148.5q0 -87 -63.5 -151.5t-149.5 -64.5q-87 0 -151 64.5t-64 151.5q0 86 64 149t151 63z" />
    <glyph glyph-name="perthousand" unicode="&#x2030;" horiz-adv-x="2834" 
d="M448 1426q169 0 281.5 -110t112.5 -276t-112 -276t-282 -110q-169 0 -281 110t-112 276t112 276t281 110zM448 1192q-63 0 -104 -43.5t-41 -108.5q0 -66 41 -109.5t104 -43.5t104.5 43.5t41.5 109.5t-41.5 109t-104.5 43zM1633 1400l-995 -1400h-305l996 1400h304z
M1525 746q169 0 281.5 -110.5t112.5 -275.5q0 -166 -112 -276t-282 -110q-169 0 -281 110t-112 276q0 164 112.5 275t280.5 111zM1525 513q-63 0 -104.5 -44t-41.5 -109t41.5 -108.5t104.5 -43.5t104.5 43t41.5 109t-41 109.5t-105 43.5zM2385 746q170 0 282 -110t112 -276
t-112 -276t-282 -110q-169 0 -281 110t-112 276q0 164 112.5 275t280.5 111zM2385 513q-63 0 -104 -43.5t-41 -109.5q0 -65 41 -108.5t104 -43.5t104.5 43t41.5 109t-41 109.5t-105 43.5z" />
    <glyph glyph-name="minute" unicode="&#x2032;" horiz-adv-x="590" 
d="M218 1400h296l-150 -705h-296z" />
    <glyph glyph-name="second" unicode="&#x2033;" horiz-adv-x="1007" 
d="M635 1400h296l-150 -705h-296zM218 1400h296l-150 -705h-296z" />
    <glyph glyph-name="uni2034" unicode="&#x2034;" horiz-adv-x="1385" 
d="M615 1400h296l-150 -705h-296zM1013 1400h296l-150 -705h-296zM218 1400h296l-150 -705h-296z" />
    <glyph glyph-name="guilsinglleft" unicode="&#x2039;" horiz-adv-x="639" 
d="M373 532l197 -402h-303l-197 402l197 401h303z" />
    <glyph glyph-name="guilsinglright" unicode="&#x203a;" horiz-adv-x="639" 
d="M266 531l-197 402h303l197 -402l-197 -401h-303z" />
    <glyph glyph-name="fraction" unicode="&#x2044;" horiz-adv-x="490" 
d="M823 1400l-883 -1400h-273l883 1400h273z" />
    <glyph glyph-name="uni2070" unicode="&#x2070;" horiz-adv-x="892" 
d="M446 1415q164 0 271.5 -117t107.5 -314t-107.5 -314t-271.5 -117t-271.5 117t-107.5 314t107.5 314t271.5 117zM446 1203q-66 0 -107 -57t-41 -162t41 -162t107 -57t107.5 57.5t41.5 161.5t-41.5 161.5t-107.5 57.5z" />
    <glyph glyph-name="uni2071" unicode="&#x2071;" horiz-adv-x="390" 
d="M303 1273v-705h-216v705h216zM194 1625q56 0 94 -37.5t38 -92.5q0 -56 -38 -93.5t-94 -37.5q-55 0 -92.5 37.5t-37.5 93.5q0 55 37.5 92.5t92.5 37.5z" />
    <glyph glyph-name="uni2074" unicode="&#x2074;" horiz-adv-x="742" 
d="M619 1122v-224h97v-197h-97v-133h-222v133h-370v152l260 546h241l-241 -501h110v86l66 138h156z" />
    <glyph glyph-name="uni2075" unicode="&#x2075;" horiz-adv-x="744" 
d="M632 1400v-202h-323l-2 -104h61q150 0 233.5 -66t83.5 -181q0 -132 -92 -213.5t-239 -81.5q-94 0 -175 30t-135 78l102 168q35 -28 92.5 -52t114.5 -24q50 0 76.5 21t26.5 58q0 76 -133 76h-213l12 493h510z" />
    <glyph glyph-name="uni2076" unicode="&#x2076;" horiz-adv-x="760" 
d="M611 1400l-201 -274q145 -1 225.5 -80t80.5 -198q0 -128 -96.5 -211.5t-241.5 -83.5t-241.5 81.5t-96.5 206.5q0 112 88 242l217 317h266zM378 944q-45 0 -74.5 -28t-29.5 -70q0 -43 29 -70.5t75 -27.5q45 0 75 27.5t30 70.5q0 42 -30 70t-75 28z" />
    <glyph glyph-name="uni2077" unicode="&#x2077;" horiz-adv-x="698" 
d="M664 1400v-174l-320 -658h-265l322 627h-361v205h624z" />
    <glyph glyph-name="uni2078" unicode="&#x2078;" horiz-adv-x="805" 
d="M402 1415q139 0 231.5 -65.5t92.5 -175.5q0 -126 -126 -186q148 -57 148 -193q0 -111 -99.5 -176.5t-246.5 -65.5t-246 65.5t-99 176.5q0 136 147 193q-126 60 -126 186q0 110 93 175.5t231 65.5zM402 906q-45 0 -73.5 -23t-28.5 -61t28.5 -61t73.5 -23t74 23t29 61
t-29 61t-74 23zM402 1229q-39 0 -63.5 -21t-24.5 -56q0 -34 24.5 -54.5t63.5 -20.5t64 20.5t25 54.5q0 35 -25 56t-64 21z" />
    <glyph glyph-name="uni2079" unicode="&#x2079;" horiz-adv-x="760" 
d="M149 568l199 274q-144 1 -224 79.5t-80 197.5q0 128 96 212t241 84t241.5 -81.5t96.5 -206.5q0 -115 -87 -242l-218 -317h-265zM381 1023q46 0 75.5 28t29.5 71t-29.5 70.5t-75.5 27.5t-75.5 -27.5t-29.5 -70.5t29.5 -71t75.5 -28z" />
    <glyph glyph-name="uni207F" unicode="&#x207f;" horiz-adv-x="843" 
d="M495 1293q117 0 191 -75t74 -197v-453h-216v385q0 66 -30.5 101.5t-86.5 35.5q-55 0 -90 -35.5t-35 -102.5v-384h-215v705h208v-80q66 100 200 100z" />
    <glyph glyph-name="uni2080" unicode="&#x2080;" horiz-adv-x="892" 
d="M446 462q164 0 271.5 -117t107.5 -314t-107.5 -314t-271.5 -117t-271.5 117t-107.5 314t107.5 314t271.5 117zM446 250q-66 0 -107 -57t-41 -162t41 -162t107 -57t107.5 57.5t41.5 161.5t-41.5 161.5t-107.5 57.5z" />
    <glyph glyph-name="uni2081" unicode="&#x2081;" horiz-adv-x="541" 
d="M435 460v-845h-222v544l-179 -62v215z" />
    <glyph glyph-name="uni2082" unicode="&#x2082;" horiz-adv-x="730" 
d="M170 159l-126 153q128 150 324 150q135 0 217 -73.5t82 -196.5q0 -74 -31 -133t-109 -129l-123 -110h281v-205h-593v174l288 265q58 53 58 110q0 38 -28 62t-69 24q-49 0 -88.5 -24t-82.5 -67z" />
    <glyph glyph-name="uni2083" unicode="&#x2083;" horiz-adv-x="731" 
d="M335 462q142 0 232 -66t90 -175q0 -129 -120 -187q66 -26 101.5 -74.5t35.5 -112.5q0 -61 -28 -109t-75.5 -77.5t-106.5 -45t-125 -15.5q-198 0 -305 123l122 142q74 -72 171 -72q51 0 83.5 19t32.5 56q0 36 -37.5 56t-94.5 20h-93v182h96q50 0 82.5 20t32.5 54
q0 68 -103 68q-102 0 -173 -75l-117 145q119 124 299 124z" />
    <glyph glyph-name="uni2084" unicode="&#x2084;" horiz-adv-x="742" 
d="M619 169v-224h97v-197h-97v-133h-222v133h-370v152l260 546h241l-241 -501h110v86l66 138h156z" />
    <glyph glyph-name="uni2085" unicode="&#x2085;" horiz-adv-x="744" 
d="M632 447v-202h-323l-2 -104h61q150 0 233.5 -66t83.5 -181q0 -132 -92 -213.5t-239 -81.5q-94 0 -175 30t-135 78l102 168q35 -28 92.5 -52t114.5 -24q50 0 76.5 21t26.5 58q0 76 -133 76h-213l12 493h510z" />
    <glyph glyph-name="uni2086" unicode="&#x2086;" horiz-adv-x="760" 
d="M611 447l-201 -274q145 -1 225.5 -80t80.5 -198q0 -128 -96.5 -211.5t-241.5 -83.5t-241.5 81.5t-96.5 206.5q0 112 88 242l217 317h266zM378 -9q-45 0 -74.5 -28t-29.5 -70q0 -43 29 -70.5t75 -27.5q45 0 75 27.5t30 70.5q0 42 -30 70t-75 28z" />
    <glyph glyph-name="uni2087" unicode="&#x2087;" horiz-adv-x="698" 
d="M664 447v-174l-320 -658h-265l322 627h-361v205h624z" />
    <glyph glyph-name="uni2088" unicode="&#x2088;" horiz-adv-x="805" 
d="M402 462q139 0 231.5 -65.5t92.5 -175.5q0 -127 -126 -186q148 -57 148 -193q0 -111 -99.5 -176.5t-246.5 -65.5t-246 65.5t-99 176.5q0 136 147 193q-126 59 -126 186q0 110 93 175.5t231 65.5zM402 -47q-45 0 -73.5 -23t-28.5 -61t28.5 -61t73.5 -23t74 23t29 61
t-29 61t-74 23zM402 276q-39 0 -63.5 -21t-24.5 -56q0 -34 24.5 -54.5t63.5 -20.5t64 20.5t25 54.5q0 35 -25 56t-64 21z" />
    <glyph glyph-name="uni2089" unicode="&#x2089;" horiz-adv-x="760" 
d="M149 -385l199 274q-144 1 -224 79.5t-80 197.5q0 128 96 212t241 84t241.5 -81.5t96.5 -206.5q0 -115 -87 -242l-218 -317h-265zM381 70q46 0 75.5 28t29.5 71t-29.5 70.5t-75.5 27.5t-75.5 -27.5t-29.5 -70.5t29.5 -71t75.5 -28z" />
    <glyph glyph-name="Euro" unicode="&#x20ac;" horiz-adv-x="1400" 
d="M1045 644v-198h-455q48 -87 125 -134t171 -47q160 0 277 112l159 -243q-180 -159 -432 -159q-240 0 -411 124.5t-235 346.5h-167v198h134q-1 18 -1 56q0 37 1 56h-134v198h167q64 222 235 346.5t411 124.5q255 0 435 -160l-164 -244q-116 114 -276 114q-96 0 -173 -47.5
t-123 -133.5h456v-198h-512q-2 -18 -2 -56q0 -20 2 -56h512z" />
    <glyph glyph-name="uni20BA" unicode="&#x20ba;" horiz-adv-x="1400" 
d="M993 887v-209l-375 -168v-205h136q100 0 175.5 49t134.5 152l253 -157q-190 -349 -584 -349h-440v364l-151 -67v208l151 68v110l-151 -68v209l151 68v512h325v-366l375 168v-209l-375 -168v-110z" />
    <glyph glyph-name="uni2100" unicode="&#x2100;" horiz-adv-x="2000" 
d="M489 1425q155 0 245.5 -78t90.5 -235v-412h-206v65q-83 -83 -206 -83q-115 0 -182.5 61t-67.5 163q0 103 79 161t222 58h143q-12 111 -140 111q-101 0 -191 -63l-83 162q119 90 296 90zM469 848q84 0 145 68v73h-119q-55 0 -83 -20t-28 -51q0 -30 22 -50t63 -20z
M1617 1400l-883 -1400h-273l883 1400h273zM1541 718q191 0 296 -149l-166 -121q-56 68 -135 68q-65 0 -109.5 -46.5t-44.5 -123.5t44 -123.5t109 -46.5q82 0 138 69l164 -122q-107 -148 -296 -148q-168 0 -273.5 104.5t-105.5 266.5q0 163 105.5 267.5t273.5 104.5z" />
    <glyph glyph-name="uni2101" unicode="&#x2101;" horiz-adv-x="2000" 
d="M491 1425q155 0 245.5 -78t90.5 -235v-412h-206v65q-83 -83 -206 -83q-115 0 -182.5 61t-67.5 163q0 103 79 161t222 58h143q-12 111 -140 111q-101 0 -191 -63l-83 162q119 90 296 90zM471 848q84 0 145 68v73h-119q-55 0 -83 -20t-28 -51q0 -30 22 -50t63 -20z
M1618 1400l-883 -1400h-273l883 1400h273zM1814 655l-63 -168q-127 55 -230 55q-89 0 -89 -48q0 -13 7.5 -21.5t26.5 -14.5t33 -8.5t46 -7.5l55 -8q233 -37 233 -213q0 -115 -86.5 -180.5t-239.5 -65.5q-208 0 -322 77l77 166q108 -67 246 -67q107 0 107 51q0 21 -25.5 33
t-86.5 21l-46 7q-248 36 -248 219q0 112 80 174t223 62q83 0 150 -14.5t152 -48.5z" />
    <glyph glyph-name="afii61248" unicode="&#x2105;" horiz-adv-x="2000" 
d="M517 1425q191 0 296 -149l-166 -121q-56 68 -135 68q-65 0 -109.5 -46.5t-44.5 -123.5t44 -123.5t109 -46.5q82 0 138 69l164 -122q-107 -148 -296 -148q-168 0 -273.5 104.5t-105.5 266.5q0 163 105.5 267.5t273.5 104.5zM1561 1400l-883 -1400h-273l883 1400h273z
M1480 718q165 0 274 -106t109 -266t-109 -265.5t-274 -105.5t-273.5 105.5t-108.5 265.5t108.5 266t273.5 106zM1480 516q-70 0 -116 -47.5t-46 -122.5t46 -122.5t116 -47.5t116.5 48t46.5 122t-46.5 122t-116.5 48z" />
    <glyph glyph-name="uni2106" unicode="&#x2106;" horiz-adv-x="2000" 
d="M503 1425q191 0 296 -149l-166 -121q-56 68 -135 68q-65 0 -109.5 -46.5t-44.5 -123.5t44 -123.5t109 -46.5q82 0 138 69l164 -122q-107 -148 -296 -148q-168 0 -273.5 104.5t-105.5 266.5q0 163 105.5 267.5t273.5 104.5zM1548 1400l-883 -1400h-273l883 1400h273z
M1877 698v-403q0 -158 -95.5 -239t-243.5 -81t-243 81t-95 239v403h215v-384q0 -69 34 -103.5t89 -34.5q57 0 90.5 34.5t33.5 103.5v384h215z" />
    <glyph glyph-name="afii61289" unicode="&#x2113;" horiz-adv-x="1032" 
d="M161 366l-77 261q80 25 154 56l1 387q0 179 102.5 287.5t271.5 108.5q150 0 249 -96.5t99 -248.5q0 -197 -115 -343.5t-327 -259.5v-145q0 -53 32 -82t83 -29q84 0 178 63l123 -229q-145 -103 -320 -103q-179 0 -278 94.5t-99 270.5v35zM519 1049v-213q167 127 167 264
q0 48 -20 76t-55 28q-43 0 -67.5 -39t-24.5 -116z" />
    <glyph glyph-name="afii61352" unicode="&#x2116;" horiz-adv-x="2415" 
d="M2343 577v-244h-726v244h726zM1980 1419q165 0 273.5 -105.5t108.5 -265.5q0 -159 -108.5 -265t-273.5 -106t-273.5 106t-108.5 265q0 160 108.5 265.5t273.5 105.5zM1980 1207q-65 0 -108 -44.5t-43 -114.5q0 -69 43 -113.5t108 -44.5t108 44.5t43 113.5t-43 114
t-108 45zM1420 1400v-1400h-321l-638 854v-854h-334v1400h320l638 -854v854h335z" />
    <glyph glyph-name="uni2117" unicode="&#x2117;" horiz-adv-x="1818" 
d="M909 1515q225 0 415 -108t300.5 -293t110.5 -403q0 -164 -65.5 -313t-176 -257t-263.5 -172t-321 -64t-321 64t-263.5 172t-176 257t-65.5 313q0 218 110.5 403t300.5 293t415 108zM909 1258q-151 0 -279 -73t-202.5 -199t-74.5 -275t74.5 -275.5t202.5 -200t279 -73.5
t279 73.5t202 199.5t74 276q0 112 -44 213t-118 174.5t-177 116.5t-216 43zM979 1103q166 0 256.5 -77.5t90.5 -206.5q0 -124 -90 -200t-254 -76h-138v-230h-244v790h379zM976 896h-132v-151h132q50 0 76.5 19.5t26.5 54.5q0 36 -26.5 56.5t-76.5 20.5z" />
    <glyph glyph-name="uni2120" unicode="&#x2120;" horiz-adv-x="1662" 
d="M650 1350l-74 -148q-110 49 -195 49q-105 0 -105 -43q0 -6 2.5 -11.5t7.5 -9.5t10.5 -7t15.5 -6t17.5 -5t20.5 -4t21.5 -3t24.5 -3l24 -3l26 -3q107 -13 165.5 -62t58.5 -125q0 -61 -25.5 -107.5t-69.5 -73t-96 -39.5t-111 -13q-189 0 -304 73l85 148q115 -62 221 -62
t106 46q0 25 -29 34t-106 18l-32 4q-227 24 -227 195q0 99 80 160.5t210 61.5q87 0 149 -15t129 -46zM1611 746h-207v393l-119 -335h-197l-123 338v-396h-203v654h283l142 -365l139 365h285v-654z" />
    <glyph glyph-name="trademark" unicode="&#x2122;" horiz-adv-x="1661" 
d="M1610 746h-207v393l-118 -335h-198l-122 338v-396h-204v654h283l142 -365l140 365h284v-654zM461 746h-205v467h-205v187h615v-187h-205v-467z" />
    <glyph glyph-name="Omega" unicode="&#x2126;" horiz-adv-x="1682" 
d="M51 296h236q-184 182 -184 450q0 194 93.5 349t262.5 243t382 88q160 0 297.5 -51.5t234 -141.5t151.5 -216t55 -271q0 -266 -184 -450h236v-296h-666v270q121 39 193 148t72 261q0 190 -108.5 308.5t-280.5 118.5t-281 -118.5t-109 -308.5q0 -152 72 -261t193 -148v-270
h-665v296z" />
    <glyph glyph-name="estimated" unicode="&#x212e;" horiz-adv-x="2000" 
d="M531 639v-281q0 -106 37 -178.5t123 -113.5q146 -70 309 -70q182 0 335 79.5t246 220.5l97 -76q-111 -163 -289.5 -254.5t-388.5 -91.5q-168 0 -318 60t-261 166.5t-176 262.5t-65 337t65 337t176 262.5t261 166.5t318 60t318 -60t261 -166.5t176 -262.5t65 -337
q0 -21 -2 -61h-1287zM531 761h947v274q0 215 -157 293q-152 76 -321 76q-163 0 -309 -70q-86 -41 -123 -113.5t-37 -178.5v-281z" />
    <glyph glyph-name="uni214D" unicode="&#x214d;" horiz-adv-x="2107" 
d="M1932 701l-86 -172q-118 58 -221 58q-52 0 -84 -12.5t-32 -37.5q0 -12 7.5 -21t27.5 -14.5t34 -8.5t47 -8t48 -7l30 -5q251 -42 251 -216q0 -71 -29 -125t-79 -84.5t-109 -45.5t-126 -15q-214 0 -345 85l97 171q129 -72 251 -72q115 0 115 53q0 28 -32 39t-119 21l-34 4
q-132 17 -195 73t-63 155q0 114 90.5 185t236.5 71q100 0 171 -17.5t148 -53.5zM637 1400l266 -758h-228l-36 121h-260l-36 -121h-225l265 758h254zM508 1202l-73 -247h147zM1692 1400l-883 -1400h-273l883 1400h273z" />
    <glyph glyph-name="uni2150" unicode="&#x2150;" horiz-adv-x="1789" 
d="M1387 1400l-883 -1400h-273l883 1400h273zM1755 832v-174l-320 -658h-265l322 627h-361v205h624zM435 1413v-845h-222v544l-179 -62v215z" />
    <glyph glyph-name="uni2151" unicode="&#x2151;" horiz-adv-x="1814" 
d="M1387 1400l-883 -1400h-273l883 1400h273zM1203 0l199 274q-144 1 -224 79.5t-80 197.5q0 128 96 212t241 84t241.5 -81.5t96.5 -206.5q0 -115 -87 -242l-218 -317h-265zM1435 455q46 0 75.5 28t29.5 71t-29.5 70.5t-75.5 27.5t-75.5 -27.5t-29.5 -70.5t29.5 -71
t75.5 -28zM435 1413v-845h-222v544l-179 -62v215z" />
    <glyph glyph-name="uni2152" unicode="&#x2152;" horiz-adv-x="2507" 
d="M1387 1400l-883 -1400h-273l883 1400h273zM1509 845v-845h-222v544l-179 -62v215zM2061 847q164 0 271.5 -117t107.5 -314t-107.5 -314t-271.5 -117t-271.5 117t-107.5 314t107.5 314t271.5 117zM2061 635q-66 0 -107 -57t-41 -162t41 -162t107 -57t107.5 57.5
t41.5 161.5t-41.5 161.5t-107.5 57.5zM435 1413v-845h-222v544l-179 -62v215z" />
    <glyph glyph-name="onethird" unicode="&#x2153;" horiz-adv-x="1785" 
d="M1387 1400l-883 -1400h-273l883 1400h273zM1389 847q142 0 232 -66t90 -175q0 -129 -120 -187q66 -26 101.5 -74.5t35.5 -112.5q0 -61 -28 -109t-75.5 -77.5t-106.5 -45t-125 -15.5q-198 0 -305 123l122 142q74 -72 171 -72q51 0 83.5 19t32.5 56q0 36 -37.5 56t-94.5 20
h-93v182h96q50 0 82.5 20t32.5 54q0 68 -103 68q-102 0 -173 -75l-117 145q119 124 299 124zM435 1413v-845h-222v544l-179 -62v215z" />
    <glyph glyph-name="twothirds" unicode="&#x2154;" horiz-adv-x="1981" 
d="M1583 1400l-883 -1400h-273l883 1400h273zM1585 847q142 0 232 -66t90 -175q0 -129 -120 -187q66 -26 101.5 -74.5t35.5 -112.5q0 -61 -28 -109t-75.5 -77.5t-106.5 -45t-125 -15.5q-198 0 -305 123l122 142q74 -72 171 -72q51 0 83.5 19t32.5 56q0 36 -37.5 56t-94.5 20
h-93v182h96q50 0 82.5 20t32.5 54q0 68 -103 68q-102 0 -173 -75l-117 145q119 124 299 124zM170 1112l-126 153q128 150 324 150q135 0 217 -73.5t82 -196.5q0 -74 -31 -133t-109 -129l-123 -110h281v-205h-593v174l288 265q58 53 58 110q0 38 -28 62t-69 24
q-49 0 -88.5 -24t-82.5 -67z" />
    <glyph glyph-name="uni2155" unicode="&#x2155;" horiz-adv-x="1798" 
d="M1387 1400l-883 -1400h-273l883 1400h273zM1686 832v-202h-323l-2 -104h61q150 0 233.5 -66t83.5 -181q0 -132 -92 -213.5t-239 -81.5q-94 0 -175 30t-135 78l102 168q35 -28 92.5 -52t114.5 -24q50 0 76.5 21t26.5 58q0 76 -133 76h-213l12 493h510zM435 1413v-845h-222
v544l-179 -62v215z" />
    <glyph glyph-name="uni2156" unicode="&#x2156;" horiz-adv-x="1994" 
d="M1583 1400l-883 -1400h-273l883 1400h273zM1882 832v-202h-323l-2 -104h61q150 0 233.5 -66t83.5 -181q0 -132 -92 -213.5t-239 -81.5q-94 0 -175 30t-135 78l102 168q35 -28 92.5 -52t114.5 -24q50 0 76.5 21t26.5 58q0 76 -133 76h-213l12 493h510zM170 1112l-126 153
q128 150 324 150q135 0 217 -73.5t82 -196.5q0 -74 -31 -133t-109 -129l-123 -110h281v-205h-593v174l288 265q58 53 58 110q0 38 -28 62t-69 24q-49 0 -88.5 -24t-82.5 -67z" />
    <glyph glyph-name="uni2157" unicode="&#x2157;" horiz-adv-x="1965" 
d="M1554 1400l-883 -1400h-273l883 1400h273zM1853 832v-202h-323l-2 -104h61q150 0 233.5 -66t83.5 -181q0 -132 -92 -213.5t-239 -81.5q-94 0 -175 30t-135 78l102 168q35 -28 92.5 -52t114.5 -24q50 0 76.5 21t26.5 58q0 76 -133 76h-213l12 493h510zM335 1415
q142 0 232 -66t90 -175q0 -129 -120 -187q66 -26 101.5 -74.5t35.5 -112.5q0 -61 -28 -109t-75.5 -77.5t-106.5 -45t-125 -15.5q-198 0 -305 123l122 142q74 -72 171 -72q51 0 83.5 19t32.5 56q0 36 -37.5 56t-94.5 20h-93v182h96q50 0 82.5 20t32.5 54q0 68 -103 68
q-102 0 -173 -75l-117 145q119 124 299 124z" />
    <glyph glyph-name="uni2158" unicode="&#x2158;" horiz-adv-x="1984" 
d="M1572 1400l-883 -1400h-273l883 1400h273zM1871 832v-202h-323l-2 -104h61q150 0 233.5 -66t83.5 -181q0 -132 -92 -213.5t-239 -81.5q-94 0 -175 30t-135 78l102 168q35 -28 92.5 -52t114.5 -24q50 0 76.5 21t26.5 58q0 76 -133 76h-213l12 493h510zM619 1122v-224h97
v-197h-97v-133h-222v133h-370v152l260 546h241l-241 -501h110v86l66 138h156z" />
    <glyph glyph-name="uni2159" unicode="&#x2159;" horiz-adv-x="1731" 
d="M1387 1400l-883 -1400h-273l883 1400h273zM1582 832l-201 -274q145 -1 225.5 -80t80.5 -198q0 -128 -96.5 -211.5t-241.5 -83.5t-241.5 81.5t-96.5 206.5q0 112 88 242l217 317h266zM1349 376q-45 0 -74.5 -28t-29.5 -70q0 -43 29 -70.5t75 -27.5q45 0 75 27.5t30 70.5
q0 42 -30 70t-75 28zM435 1413v-845h-222v544l-179 -62v215z" />
    <glyph glyph-name="uni215A" unicode="&#x215a;" horiz-adv-x="1908" 
d="M1564 1400l-883 -1400h-273l883 1400h273zM1759 832l-201 -274q145 -1 225.5 -80t80.5 -198q0 -128 -96.5 -211.5t-241.5 -83.5t-241.5 81.5t-96.5 206.5q0 112 88 242l217 317h266zM1526 376q-45 0 -74.5 -28t-29.5 -70q0 -43 29 -70.5t75 -27.5q45 0 75 27.5t30 70.5
q0 42 -30 70t-75 28zM632 1400v-202h-323l-2 -104h61q150 0 233.5 -66t83.5 -181q0 -132 -92 -213.5t-239 -81.5q-94 0 -175 30t-135 78l102 168q35 -28 92.5 -52t114.5 -24q50 0 76.5 21t26.5 58q0 76 -133 76h-213l12 493h510z" />
    <glyph glyph-name="oneeighth" unicode="&#x215b;" horiz-adv-x="1850" 
d="M1387 1400l-883 -1400h-273l883 1400h273zM1447 847q139 0 231.5 -65.5t92.5 -175.5q0 -126 -126 -186q148 -57 148 -193q0 -111 -99.5 -176.5t-246.5 -65.5t-246 65.5t-99 176.5q0 136 147 193q-126 60 -126 186q0 110 93 175.5t231 65.5zM1447 338q-45 0 -73.5 -23
t-28.5 -61t28.5 -61t73.5 -23t74 23t29 61t-29 61t-74 23zM1447 661q-39 0 -63.5 -21t-24.5 -56q0 -34 24.5 -54.5t63.5 -20.5t64 20.5t25 54.5q0 35 -25 56t-64 21zM435 1413v-845h-222v544l-179 -62v215z" />
    <glyph glyph-name="threeeighths" unicode="&#x215c;" horiz-adv-x="2017" 
d="M1554 1400l-883 -1400h-273l883 1400h273zM1614 847q139 0 231.5 -65.5t92.5 -175.5q0 -126 -126 -186q148 -57 148 -193q0 -111 -99.5 -176.5t-246.5 -65.5t-246 65.5t-99 176.5q0 136 147 193q-126 60 -126 186q0 110 93 175.5t231 65.5zM1614 338q-45 0 -73.5 -23
t-28.5 -61t28.5 -61t73.5 -23t74 23t29 61t-29 61t-74 23zM1614 661q-39 0 -63.5 -21t-24.5 -56q0 -34 24.5 -54.5t63.5 -20.5t64 20.5t25 54.5q0 35 -25 56t-64 21zM335 1415q142 0 232 -66t90 -175q0 -129 -120 -187q66 -26 101.5 -74.5t35.5 -112.5q0 -61 -28 -109
t-75.5 -77.5t-106.5 -45t-125 -15.5q-198 0 -305 123l122 142q74 -72 171 -72q51 0 83.5 19t32.5 56q0 36 -37.5 56t-94.5 20h-93v182h96q50 0 82.5 20t32.5 54q0 68 -103 68q-102 0 -173 -75l-117 145q119 124 299 124z" />
    <glyph glyph-name="fiveeighths" unicode="&#x215d;" horiz-adv-x="2027" 
d="M1564 1400l-883 -1400h-273l883 1400h273zM1624 847q139 0 231.5 -65.5t92.5 -175.5q0 -126 -126 -186q148 -57 148 -193q0 -111 -99.5 -176.5t-246.5 -65.5t-246 65.5t-99 176.5q0 136 147 193q-126 60 -126 186q0 110 93 175.5t231 65.5zM1624 338q-45 0 -73.5 -23
t-28.5 -61t28.5 -61t73.5 -23t74 23t29 61t-29 61t-74 23zM1624 661q-39 0 -63.5 -21t-24.5 -56q0 -34 24.5 -54.5t63.5 -20.5t64 20.5t25 54.5q0 35 -25 56t-64 21zM632 1400v-202h-323l-2 -104h61q150 0 233.5 -66t83.5 -181q0 -132 -92 -213.5t-239 -81.5q-94 0 -175 30
t-135 78l102 168q35 -28 92.5 -52t114.5 -24q50 0 76.5 21t26.5 58q0 76 -133 76h-213l12 493h510z" />
    <glyph glyph-name="seveneighths" unicode="&#x215e;" horiz-adv-x="1852" 
d="M1389 1400l-883 -1400h-273l883 1400h273zM1449 847q139 0 231.5 -65.5t92.5 -175.5q0 -126 -126 -186q148 -57 148 -193q0 -111 -99.5 -176.5t-246.5 -65.5t-246 65.5t-99 176.5q0 136 147 193q-126 60 -126 186q0 110 93 175.5t231 65.5zM1449 338q-45 0 -73.5 -23
t-28.5 -61t28.5 -61t73.5 -23t74 23t29 61t-29 61t-74 23zM1449 661q-39 0 -63.5 -21t-24.5 -56q0 -34 24.5 -54.5t63.5 -20.5t64 20.5t25 54.5q0 35 -25 56t-64 21zM664 1400v-174l-320 -658h-265l322 627h-361v205h624z" />
    <glyph glyph-name="uni215F" unicode="&#x215f;" horiz-adv-x="1054" 
d="M1387 1400l-883 -1400h-273l883 1400h273zM435 1413v-845h-222v544l-179 -62v215z" />
    <glyph glyph-name="uni2189" unicode="&#x2189;" horiz-adv-x="2060" 
d="M1662 1400l-883 -1400h-273l883 1400h273zM1664 847q142 0 232 -66t90 -175q0 -129 -120 -187q66 -26 101.5 -74.5t35.5 -112.5q0 -61 -28 -109t-75.5 -77.5t-106.5 -45t-125 -15.5q-198 0 -305 123l122 142q74 -72 171 -72q51 0 83.5 19t32.5 56q0 36 -37.5 56t-94.5 20
h-93v182h96q50 0 82.5 20t32.5 54q0 68 -103 68q-102 0 -173 -75l-117 145q119 124 299 124zM446 1415q164 0 271.5 -117t107.5 -314t-107.5 -314t-271.5 -117t-271.5 117t-107.5 314t107.5 314t271.5 117zM446 1203q-66 0 -107 -57t-41 -162t41 -162t107 -57t107.5 57.5
t41.5 161.5t-41.5 161.5t-107.5 57.5z" />
    <glyph glyph-name="arrowleft" unicode="&#x2190;" horiz-adv-x="2000" 
d="M1843 524h-921q-182 0 -289 9q113 -94 257 -233l124 -122l-189 -188l-668 668l668 668l189 -188l-124 -122q-144 -139 -257 -233q107 9 289 9h921v-268z" />
    <glyph glyph-name="arrowup" unicode="&#x2191;" horiz-adv-x="2000" 
d="M866 -138v921q0 182 9 289q-94 -113 -233 -257l-122 -124l-188 189l668 668l668 -668l-188 -189l-122 124q-139 144 -233 257q9 -107 9 -289v-921h-268z" />
    <glyph glyph-name="arrowright" unicode="&#x2192;" horiz-adv-x="2000" 
d="M157 792h921q182 0 289 -9q-113 94 -257 233l-124 122l189 188l668 -668l-668 -668l-189 188l124 122q144 139 257 233q-107 -9 -289 -9h-921v268z" />
    <glyph glyph-name="arrowdown" unicode="&#x2193;" horiz-adv-x="2000" 
d="M1134 1548v-921q0 -182 -9 -289q94 113 233 257l122 124l188 -189l-668 -668l-668 668l188 189l122 -124q139 -144 233 -257q-9 107 -9 289v921h268z" />
    <glyph glyph-name="uni2196" unicode="&#x2196;" horiz-adv-x="2000" 
d="M1454 -14l-651 652q-129 129 -199 211q16 -155 17 -347l2 -173h-267v945h945v-267l-173 2q-188 1 -347 16q82 -69 211 -198l651 -652z" />
    <glyph glyph-name="uni2197" unicode="&#x2197;" horiz-adv-x="2000" 
d="M309 157l652 651q144 142 210 198q-158 -15 -346 -16l-174 -2v267h946v-946h-268l2 174q3 194 17 346q-70 -82 -198 -210l-652 -651z" />
    <glyph glyph-name="uni2198" unicode="&#x2198;" horiz-adv-x="2000" 
d="M499 1349l651 -652q143 -145 199 -210q-16 154 -17 346l-2 174h267v-946h-946v268l174 -2q194 -3 346 -17q-88 76 -210 198l-651 652z" />
    <glyph glyph-name="uni2199" unicode="&#x2199;" horiz-adv-x="2000" 
d="M1644 1140l-652 -651q-145 -143 -210 -199q152 14 346 17l174 2v-267h-946v945h268l-2 -174q-3 -192 -17 -346q70 82 198 210l652 652z" />
    <glyph glyph-name="partialdiff" unicode="&#x2202;" horiz-adv-x="1172" 
d="M245 1255l183 203q304 -130 492 -384.5t188 -568.5q0 -231 -148 -381t-386 -150q-223 0 -372 135.5t-149 338.5q0 207 131.5 343.5t328.5 136.5q119 0 208 -57q-68 115 -186.5 207t-289.5 177zM586 664q-92 0 -152.5 -59t-60.5 -151q0 -91 60.5 -150t152.5 -59t152.5 59
t60.5 150q0 92 -60.5 151t-152.5 59z" />
    <glyph glyph-name="uni2300" unicode="&#x2205;" horiz-adv-x="1348" 
d="M1039 1067l182 -182l-107 -107q70 -121 70 -258q0 -104 -40.5 -198.5t-108.5 -162.5t-162.5 -108.5t-198.5 -40.5q-139 0 -258 70l-107 -107l-182 182l106 106q-70 121 -70 259q0 139 68 256.5t186 186t257 68.5q138 0 258 -71zM420 520q0 -47 15 -88l325 325
q-43 16 -86 16q-106 0 -180 -74t-74 -179zM674 268q104 0 178 73.5t74 178.5q0 42 -14 84l-323 -322q42 -14 85 -14z" />
    <glyph glyph-name="uni2300" unicode="&#x2300;" horiz-adv-x="1348" 
d="M1039 1067l182 -182l-107 -107q70 -121 70 -258q0 -104 -40.5 -198.5t-108.5 -162.5t-162.5 -108.5t-198.5 -40.5q-139 0 -258 70l-107 -107l-182 182l106 106q-70 121 -70 259q0 139 68 256.5t186 186t257 68.5q138 0 258 -71zM420 520q0 -47 15 -88l325 325
q-43 16 -86 16q-106 0 -180 -74t-74 -179zM674 268q104 0 178 73.5t74 178.5q0 42 -14 84l-323 -322q42 -14 85 -14z" />
    <glyph glyph-name="Delta" unicode="&#x2206;" horiz-adv-x="1373" 
d="M886 1400l436 -1138v-262h-1271v262l436 1138h399zM687 1073l-277 -764h553z" />
    <glyph glyph-name="product" unicode="&#x220f;" horiz-adv-x="1460" 
d="M1333 1400v-1665h-334v1356h-538v-1356h-334v1665h1206z" />
    <glyph glyph-name="summation" unicode="&#x2211;" horiz-adv-x="1235" 
d="M1158 1400v-310h-602l381 -416v-200l-390 -429h612v-310h-1083v262l519 572l-518 569v262h1081z" />
    <glyph glyph-name="minus" unicode="&#x2212;" horiz-adv-x="1200" 
d="M1071 660v-257h-942v257h942z" />
    <glyph glyph-name="uni2219" unicode="&#x2219;" horiz-adv-x="1200" 
d="M599 877q144 0 246 -101t102 -245t-102 -245.5t-246 -101.5q-143 0 -244.5 101.5t-101.5 245.5t101.5 245t244.5 101z" />
    <glyph glyph-name="radical" unicode="&#x221a;" horiz-adv-x="1351" 
d="M1339 1440l-557 -1705h-399l-370 1000h356l215 -623l402 1328h353z" />
    <glyph glyph-name="infinity" unicode="&#x221e;" horiz-adv-x="1742" 
d="M34 528q0 196 125.5 317.5t303.5 121.5q60 0 113.5 -17.5t105.5 -55.5t92.5 -76.5t96.5 -99.5q57 62 97 100t92 76t105.5 55.5t113.5 17.5q178 0 303.5 -121.5t125.5 -317.5t-125.5 -317.5t-303.5 -121.5q-60 0 -113.5 17.5t-105.5 55t-92 75.5t-97 100
q-56 -61 -96.5 -99.5t-92 -76t-105.5 -55t-114 -17.5q-178 0 -303.5 121.5t-125.5 317.5zM309 528q0 -86 43.5 -133.5t110.5 -47.5q44 0 89.5 37t142.5 143v1q-98 107 -143 144t-89 37q-67 0 -110.5 -47.5t-43.5 -133.5zM1434 528q0 86 -43.5 133.5t-111.5 47.5
q-43 0 -88 -37t-144 -144q98 -107 143.5 -144t88.5 -37q68 0 111.5 47.5t43.5 133.5z" />
    <glyph glyph-name="integral" unicode="&#x222b;" horiz-adv-x="664" 
d="M706 1406l-62 -278q-26 6 -54 6q-103 0 -103 -124v-892q0 -195 -100 -302t-273 -107q-88 0 -159 20l63 278q24 -6 54 -6q102 0 102 124v892q0 195 100 302t273 107q88 0 159 -20z" />
    <glyph glyph-name="congruent" unicode="&#x2245;" horiz-adv-x="1200" 
d="M1071 436v-258h-942v258h942zM1071 885v-258h-942v258h942zM960 1378l138 -187q-57 -78 -140 -121t-174 -43q-76 0 -148 25.5t-129 50.5t-98 25q-77 0 -168 -99l-138 186q56 78 139 121t174 43q60 0 119.5 -15.5t97.5 -34.5t81.5 -34.5t76.5 -15.5q78 0 169 99z" />
    <glyph glyph-name="approxequal" unicode="&#x2248;" horiz-adv-x="1200" 
d="M960 926l138 -187q-57 -78 -140 -121t-174 -43q-76 0 -148 25.5t-129 50.5t-98 25q-77 0 -168 -99l-138 186q56 78 139 121t174 43q60 0 119.5 -15.5t97.5 -34.5t81.5 -34.5t76.5 -15.5q78 0 169 99zM960 482l138 -187q-57 -78 -140 -121t-174 -43q-76 0 -148 25.5
t-129 50.5t-98 25q-77 0 -168 -99l-138 186q56 78 139 121t174 43q60 0 119.5 -15.5t97.5 -34.5t81.5 -34.5t76.5 -15.5q78 0 169 99z" />
    <glyph glyph-name="uni2259" unicode="&#x2259;" horiz-adv-x="1200" 
d="M1071 436v-258h-942v258h942zM1071 885v-258h-942v258h942zM998 1032h-284l-113 144l-114 -144h-284l225 332h344z" />
    <glyph glyph-name="notequal" unicode="&#x2260;" horiz-adv-x="1200" 
d="M1071 436v-258h-488l-77 -178h-267l77 178h-187v258h299l83 191h-382v258h494l78 179h267l-78 -179h181v-258h-293l-83 -191h376z" />
    <glyph glyph-name="lessequal" unicode="&#x2264;" horiz-adv-x="1200" 
d="M1012 1240v-295l-510 -178l510 -178v-295l-823 331v284zM189 0v258h823v-258h-823z" />
    <glyph glyph-name="greaterequal" unicode="&#x2265;" horiz-adv-x="1200" 
d="M189 945v295l823 -331v-284l-823 -331v295l510 178zM1012 258v-258h-823v258h823z" />
    <glyph glyph-name="dotmath" unicode="&#x22c5;" horiz-adv-x="1200" 
d="M601 745q86 0 149.5 -63.5t63.5 -149.5q0 -87 -63.5 -151.5t-149.5 -64.5t-150.5 64.5t-64.5 151.5q0 85 64.5 149t150.5 64z" />
    <glyph glyph-name="uni2460" unicode="&#x2460;" horiz-adv-x="2050" 
d="M1026 1615q191 0 364.5 -72.5t298.5 -195t199 -291.5t74 -354q0 -186 -74 -355.5t-199 -292.5t-298.5 -196t-364.5 -73t-364.5 73t-299 196t-199.5 292.5t-74 355.5q0 185 74 354t199.5 291.5t299 195t364.5 72.5zM1026 1337q-131 0 -250.5 -50t-205.5 -135t-137 -203
t-51 -247q0 -130 51 -248.5t137 -203.5t205.5 -135.5t250.5 -50.5q175 0 323 85t234.5 232t86.5 321q0 173 -86.5 319t-234.5 231t-323 85zM1170 1142v-857h-225v551l-189 -65v219z" />
    <glyph glyph-name="uni2461" unicode="&#x2461;" horiz-adv-x="2050" 
d="M1026 1615q191 0 364.5 -72.5t298.5 -195t199 -291.5t74 -354q0 -186 -74 -355.5t-199 -292.5t-298.5 -196t-364.5 -73t-364.5 73t-299 196t-199.5 292.5t-74 355.5q0 185 74 354t199.5 291.5t299 195t364.5 72.5zM1026 1337q-131 0 -250.5 -50t-205.5 -135t-137 -203
t-51 -247q0 -130 51 -248.5t137 -203.5t205.5 -135.5t250.5 -50.5q175 0 323 85t234.5 232t86.5 321q0 173 -86.5 319t-234.5 231t-323 85zM821 836l-128 156q129 153 331 153q138 0 221.5 -75t83.5 -200q0 -75 -32.5 -135.5t-111.5 -130.5l-125 -111h286v-208h-605v177
l295 268q59 54 59 111q0 40 -28.5 64t-70.5 24q-50 0 -89.5 -24t-85.5 -69z" />
    <glyph glyph-name="uni2462" unicode="&#x2462;" horiz-adv-x="2050" 
d="M1026 1615q191 0 364.5 -72.5t298.5 -195t199 -291.5t74 -354q0 -186 -74 -355.5t-199 -292.5t-298.5 -196t-364.5 -73t-364.5 73t-299 196t-199.5 292.5t-74 355.5q0 185 74 354t199.5 291.5t299 195t364.5 72.5zM1026 1337q-131 0 -250.5 -50t-205.5 -135t-137 -203
t-51 -247q0 -130 51 -248.5t137 -203.5t205.5 -135.5t250.5 -50.5q175 0 323 85t234.5 232t86.5 321q0 173 -86.5 319t-234.5 231t-323 85zM1016 1145q145 0 236.5 -67.5t91.5 -178.5q0 -131 -122 -189q140 -57 140 -189q0 -82 -49.5 -140.5t-125.5 -85t-167 -26.5
q-202 0 -311 125l123 145q76 -74 176 -74q52 0 86 19.5t34 55.5q0 37 -39 58t-97 21h-95v184h97q52 0 85.5 20.5t33.5 55.5q0 33 -28.5 50.5t-77.5 17.5q-104 0 -176 -76l-120 148q121 126 305 126z" />
    <glyph glyph-name="uni2463" unicode="&#x2463;" horiz-adv-x="2050" 
d="M1026 1615q191 0 364.5 -72.5t298.5 -195t199 -291.5t74 -354q0 -186 -74 -355.5t-199 -292.5t-298.5 -196t-364.5 -73t-364.5 73t-299 196t-199.5 292.5t-74 355.5q0 185 74 354t199.5 291.5t299 195t364.5 72.5zM1026 1337q-131 0 -250.5 -50t-205.5 -135t-137 -203
t-51 -247q0 -130 51 -248.5t137 -203.5t205.5 -135.5t250.5 -50.5q175 0 323 85t234.5 232t86.5 321q0 173 -86.5 319t-234.5 231t-323 85zM1262 847v-226h99v-201h-99v-135h-226v135h-379v153l266 556h246l-246 -508h113v80l70 146h156z" />
    <glyph glyph-name="uni2464" unicode="&#x2464;" horiz-adv-x="2050" 
d="M1026 1615q191 0 364.5 -72.5t298.5 -195t199 -291.5t74 -354q0 -186 -74 -355.5t-199 -292.5t-298.5 -196t-364.5 -73t-364.5 73t-299 196t-199.5 292.5t-74 355.5q0 185 74 354t199.5 291.5t299 195t364.5 72.5zM1026 1337q-131 0 -250.5 -50t-205.5 -135t-137 -203
t-51 -247q0 -130 51 -248.5t137 -203.5t205.5 -135.5t250.5 -50.5q175 0 323 85t234.5 232t86.5 321q0 173 -86.5 319t-234.5 231t-323 85zM1308 1129v-206h-329l-3 -105h67q152 0 236 -67t84 -183q0 -134 -94 -216.5t-244 -82.5q-96 0 -178.5 30.5t-137.5 78.5l103 171
q36 -29 95 -53t117 -24q105 0 105 80q0 77 -137 77h-216l12 500h520z" />
    <glyph glyph-name="uni2465" unicode="&#x2465;" horiz-adv-x="2050" 
d="M1026 1615q191 0 364.5 -72.5t298.5 -195t199 -291.5t74 -354q0 -186 -74 -355.5t-199 -292.5t-298.5 -196t-364.5 -73t-364.5 73t-299 196t-199.5 292.5t-74 355.5q0 185 74 354t199.5 291.5t299 195t364.5 72.5zM1026 1337q-131 0 -250.5 -50t-205.5 -135t-137 -203
t-51 -247q0 -130 51 -248.5t137 -203.5t205.5 -135.5t250.5 -50.5q175 0 323 85t234.5 232t86.5 321q0 173 -86.5 319t-234.5 231t-323 85zM1258 1129l-204 -278q146 -1 228.5 -81t82.5 -200q0 -130 -98.5 -215.5t-245.5 -85.5t-245.5 83t-98.5 210q0 115 90 246l221 321
h270zM1021 666q-46 0 -76 -28.5t-30 -70.5q0 -43 30 -71t76 -28t76.5 28t30.5 71q0 42 -30.5 70.5t-76.5 28.5z" />
    <glyph glyph-name="uni2466" unicode="&#x2466;" horiz-adv-x="2050" 
d="M1026 1615q191 0 364.5 -72.5t298.5 -195t199 -291.5t74 -354q0 -186 -74 -355.5t-199 -292.5t-298.5 -196t-364.5 -73t-364.5 73t-299 196t-199.5 292.5t-74 355.5q0 185 74 354t199.5 291.5t299 195t364.5 72.5zM1026 1337q-131 0 -250.5 -50t-205.5 -135t-137 -203
t-51 -247q0 -130 51 -248.5t137 -203.5t205.5 -135.5t250.5 -50.5q175 0 323 85t234.5 232t86.5 321q0 173 -86.5 319t-234.5 231t-323 85zM1369 1129v-177l-328 -667h-270l330 636h-370v208h638z" />
    <glyph glyph-name="uni2467" unicode="&#x2467;" horiz-adv-x="2050" 
d="M1026 1615q191 0 364.5 -72.5t298.5 -195t199 -291.5t74 -354q0 -186 -74 -355.5t-199 -292.5t-298.5 -196t-364.5 -73t-364.5 73t-299 196t-199.5 292.5t-74 355.5q0 185 74 354t199.5 291.5t299 195t364.5 72.5zM1026 1337q-131 0 -250.5 -50t-205.5 -135t-137 -203
t-51 -247q0 -130 51 -248.5t137 -203.5t205.5 -135.5t250.5 -50.5q175 0 323 85t234.5 232t86.5 321q0 173 -86.5 319t-234.5 231t-323 85zM1026 1145q140 0 235 -67t95 -179q0 -128 -129 -188q151 -59 151 -196q0 -112 -101 -179t-251 -67q-149 0 -250.5 67t-101.5 179
q0 137 151 196q-129 59 -129 188q0 112 95 179t235 67zM1026 628q-46 0 -75 -23t-29 -62q0 -38 29 -61t75 -23t75.5 23t29.5 61q0 39 -29.5 62t-75.5 23zM1026 954q-40 0 -65 -20.5t-25 -55.5t25 -56t65 -21t65.5 21t25.5 56t-25.5 55.5t-65.5 20.5z" />
    <glyph glyph-name="uni2468" unicode="&#x2468;" horiz-adv-x="2050" 
d="M1026 1615q191 0 364.5 -72.5t298.5 -195t199 -291.5t74 -354q0 -186 -74 -355.5t-199 -292.5t-298.5 -196t-364.5 -73t-364.5 73t-299 196t-199.5 292.5t-74 355.5q0 185 74 354t199.5 291.5t299 195t364.5 72.5zM1026 1337q-131 0 -250.5 -50t-205.5 -135t-137 -203
t-51 -247q0 -130 51 -248.5t137 -203.5t205.5 -135.5t250.5 -50.5q175 0 323 85t234.5 232t86.5 321q0 173 -86.5 319t-234.5 231t-323 85zM801 285l203 278q-146 1 -228 80.5t-82 200.5q0 130 98.5 215.5t245.5 85.5t245.5 -83t98.5 -210q0 -118 -90 -247l-221 -320h-270z
M1038 748q46 0 76 28t30 71t-30 70.5t-76 27.5q-47 0 -77 -27.5t-30 -70.5t30.5 -71t76.5 -28z" />
    <glyph glyph-name="uni24EA" unicode="&#x24ea;" horiz-adv-x="2050" 
d="M1026 1615q191 0 364.5 -72.5t298.5 -195t199 -291.5t74 -354q0 -186 -74 -355.5t-199 -292.5t-298.5 -196t-364.5 -73t-364.5 73t-299 196t-199.5 292.5t-74 355.5q0 185 74 354t199.5 291.5t299 195t364.5 72.5zM1026 1337q-131 0 -250.5 -50t-205.5 -135t-137 -203
t-51 -247q0 -130 51 -248.5t137 -203.5t205.5 -135.5t250.5 -50.5q175 0 323 85t234.5 232t86.5 321q0 173 -86.5 319t-234.5 231t-323 85zM1025 1145q167 0 277.5 -119t110.5 -319t-110.5 -319t-277.5 -119t-277 119t-110 319t110 319t277 119zM1025 928q-68 0 -110 -58
t-42 -164t42 -163.5t110 -57.5t110.5 58t42.5 163q0 106 -42.5 164t-110.5 58z" />
    <glyph glyph-name="uni24FF" unicode="&#x24ff;" horiz-adv-x="2050" 
d="M1025 1145q-167 0 -277 -119t-110 -319t110 -319t277 -119t277.5 119t110.5 319t-110.5 319t-277.5 119zM1025 928q68 0 110.5 -58t42.5 -164q0 -105 -42.5 -163t-110.5 -58t-110 57.5t-42 163.5t42 164t110 58zM1026 1591q186 0 355 -70.5t290.5 -190t193.5 -284
t72 -344.5q0 -181 -72 -346.5t-193.5 -285t-290.5 -190.5t-355 -71t-355 71t-291 190.5t-194 285t-72 346.5q0 180 72 344.5t194 284t291 190t355 70.5z" />
    <glyph glyph-name="uni2715" unicode="&#x2573;" horiz-adv-x="2205" 
d="M1316 700l923 -923l-213 -214l-923 924l-924 -924l-213 214l923 923l-923 923l213 214l924 -924l923 924l213 -214z" />
    <glyph glyph-name="uni2715" unicode="&#x2715;" horiz-adv-x="2205" 
d="M1316 700l923 -923l-213 -214l-923 924l-924 -924l-213 214l923 923l-923 923l213 214l924 -924l923 924l213 -214z" />
    <glyph glyph-name="uni25AE" unicode="&#x258c;" horiz-adv-x="1800" 
d="M200 1400h700v-1400h-700v1400z" />
    <glyph glyph-name="uni25AE" unicode="&#x25ae;" horiz-adv-x="1800" 
d="M200 1400h700v-1400h-700v1400z" />
    <glyph glyph-name="filledbox" unicode="&#x25a0;" horiz-adv-x="1800" 
d="M200 1400h1400v-1400h-1400v1400z" />
    <glyph glyph-name="H22073" unicode="&#x25a1;" horiz-adv-x="1800" 
d="M200 1400h1400v-1400h-1400v1400zM483 1117v-834h834v834h-834z" />
    <glyph glyph-name="triagup" unicode="&#x25b2;" horiz-adv-x="1800" 
d="M900 1420l820 -1420h-1640z" />
    <glyph glyph-name="uni25B3" unicode="&#x25b3;" horiz-adv-x="1800" 
d="M900 1420l820 -1420h-1640zM900 855l-331 -572h662z" />
    <glyph glyph-name="uni25B4" unicode="&#x25b4;" horiz-adv-x="1200" 
d="M601 1070l475 -822h-951z" />
    <glyph glyph-name="uni25B8" unicode="&#x25b8;" horiz-adv-x="1200" 
d="M1073 658l-822 -476v952z" />
    <glyph glyph-name="triagdn" unicode="&#x25bc;" horiz-adv-x="1800" 
d="M900 -20l-820 1420h1640z" />
    <glyph glyph-name="uni25BD" unicode="&#x25bd;" horiz-adv-x="1800" 
d="M900 -20l-820 1420h1640zM900 545l331 572h-662z" />
    <glyph glyph-name="uni25BE" unicode="&#x25be;" horiz-adv-x="1200" 
d="M599 247l-475 822h951z" />
    <glyph glyph-name="uni25C2" unicode="&#x25c2;" horiz-adv-x="1200" 
d="M127 658l822 476v-952z" />
    <glyph glyph-name="uni25C6" unicode="&#x25c6;" horiz-adv-x="1800" 
d="M900 1438l738 -738l-738 -738l-738 738z" />
    <glyph glyph-name="uni25C7" unicode="&#x25c7;" horiz-adv-x="1800" 
d="M900 1438l738 -738l-738 -738l-738 738zM900 1038l-338 -338l338 -338l338 338z" />
    <glyph glyph-name="lozenge" unicode="&#x25ca;" horiz-adv-x="1528" 
d="M1464 700l-558 -700h-285l-557 700l558 700h285zM1077 697l-318 396l-306 -391l317 -396z" />
    <glyph glyph-name="circle" unicode="&#x25cb;" horiz-adv-x="1800" 
d="M900 -39q-151 0 -287.5 58.5t-235.5 157.5t-157.5 236t-58.5 287t58.5 287t157.5 236t235.5 157.5t287.5 58.5q150 0 287 -58.5t236 -157.5t157.5 -236t58.5 -287t-58.5 -287t-157.5 -236t-236 -157.5t-287 -58.5zM900 244q189 0 322.5 133.5t133.5 322.5t-133.5 322.5
t-322.5 133.5q-124 0 -229 -61t-166 -166t-61 -229t61 -229t166 -166t229 -61z" />
    <glyph glyph-name="H18533" unicode="&#x25cf;" horiz-adv-x="1800" 
d="M900 -39q-151 0 -287.5 58.5t-235.5 157.5t-157.5 236t-58.5 287t58.5 287t157.5 236t235.5 157.5t287.5 58.5q150 0 287 -58.5t236 -157.5t157.5 -236t58.5 -287t-58.5 -287t-157.5 -236t-236 -157.5t-287 -58.5z" />
    <glyph glyph-name="uni25D0" unicode="&#x25d0;" horiz-adv-x="1800" 
d="M900 -39q-151 0 -287.5 58.5t-235.5 157.5t-157.5 236t-58.5 287t58.5 287t157.5 236t235.5 157.5t287.5 58.5q150 0 287 -58.5t236 -157.5t157.5 -236t58.5 -287t-58.5 -287t-157.5 -236t-236 -157.5t-287 -58.5zM900 1156v-912q189 0 322.5 133.5t133.5 322.5
t-133.5 322.5t-322.5 133.5z" />
    <glyph glyph-name="uni25D6" unicode="&#x25d6;" horiz-adv-x="1800" 
d="M900 1439v-1478q-151 0 -287.5 58.5t-235.5 157.5t-157.5 236t-58.5 287t58.5 287t157.5 236t235.5 157.5t287.5 58.5z" />
    <glyph glyph-name="uni25E7" unicode="&#x25e7;" horiz-adv-x="1800" 
d="M200 1400h1400v-1400h-1400v1400zM900 1117v-834h417v834h-417z" />
    <glyph glyph-name="uni2610" unicode="&#x2610;" horiz-adv-x="2200" 
d="M253 1547h1694v-1694h-1694v1694zM483 1317v-1234h1234v1234h-1234z" />
    <glyph glyph-name="uni2611" unicode="&#x2611;" horiz-adv-x="2200" 
d="M253 1547h1694v-1694h-1694v1694zM483 1317v-1234h1234v1234h-1234zM1453 1206l177 -125l-638 -899l-414 430l153 151l234 -245z" />
    <glyph glyph-name="uni2612" unicode="&#x2612;" horiz-adv-x="2200" 
d="M1947 1547v-1694h-1694v1694h1694zM1717 1317h-1234v-1234h1234v1234zM630 383l317 317l-317 317l153 153l317 -317l317 317l153 -153l-317 -317l317 -317l-153 -153l-317 317l-317 -317z" />
    <glyph glyph-name="heart" unicode="&#x2665;" horiz-adv-x="1800" 
d="M1223 1275q142 0 235.5 -96t93.5 -240q0 -102 -52 -216.5t-143.5 -224.5t-206.5 -213.5t-250 -198.5q-135 95 -250 198.5t-206.5 213.5t-143.5 224.5t-52 216.5q0 144 93.5 240t235.5 96q128 0 225.5 -76t97.5 -178q0 102 97.5 178t225.5 76z" />
    <glyph glyph-name="uni2713" unicode="&#x2713;" horiz-adv-x="2200" 
d="M1543 1333l215 -160l-814 -1096l-501 545l197 181l283 -307z" />
    <glyph glyph-name="uni2717" unicode="&#x2717;" horiz-adv-x="2200" 
d="M1289 700l397 -397l-189 -189l-397 397l-397 -397l-189 189l397 397l-397 397l189 189l397 -397l397 397l189 -189z" />
    <glyph glyph-name="uni278A" unicode="&#x2776;" horiz-adv-x="2050" 
d="M1170 1142l-414 -152v-219l189 65v-551h225v857zM1026 1591q186 0 355 -70.5t290.5 -190t193.5 -284t72 -344.5q0 -181 -72 -346.5t-193.5 -285t-290.5 -190.5t-355 -71t-355 71t-291 190.5t-194 285t-72 346.5q0 180 72 344.5t194 284t291 190t355 70.5z" />
    <glyph glyph-name="uni278A" unicode="&#x278a;" horiz-adv-x="2050" 
d="M1170 1142l-414 -152v-219l189 65v-551h225v857zM1026 1591q186 0 355 -70.5t290.5 -190t193.5 -284t72 -344.5q0 -181 -72 -346.5t-193.5 -285t-290.5 -190.5t-355 -71t-355 71t-291 190.5t-194 285t-72 346.5q0 180 72 344.5t194 284t291 190t355 70.5z" />
    <glyph glyph-name="uni278B" unicode="&#x2777;" horiz-adv-x="2050" 
d="M693 992l128 -156q46 45 85.5 69t89.5 24q42 0 70.5 -24t28.5 -64q0 -57 -59 -111l-295 -268v-177h605v208h-286l125 111q79 70 111.5 130.5t32.5 135.5q0 125 -83.5 200t-221.5 75q-202 0 -331 -153zM1026 1591q186 0 355 -70.5t290.5 -190t193.5 -284t72 -344.5
q0 -181 -72 -346.5t-193.5 -285t-290.5 -190.5t-355 -71t-355 71t-291 190.5t-194 285t-72 346.5q0 180 72 344.5t194 284t291 190t355 70.5z" />
    <glyph glyph-name="uni278B" unicode="&#x278b;" horiz-adv-x="2050" 
d="M693 992l128 -156q46 45 85.5 69t89.5 24q42 0 70.5 -24t28.5 -64q0 -57 -59 -111l-295 -268v-177h605v208h-286l125 111q79 70 111.5 130.5t32.5 135.5q0 125 -83.5 200t-221.5 75q-202 0 -331 -153zM1026 1591q186 0 355 -70.5t290.5 -190t193.5 -284t72 -344.5
q0 -181 -72 -346.5t-193.5 -285t-290.5 -190.5t-355 -71t-355 71t-291 190.5t-194 285t-72 346.5q0 180 72 344.5t194 284t291 190t355 70.5z" />
    <glyph glyph-name="uni278C" unicode="&#x2778;" horiz-adv-x="2050" 
d="M1026 1591q186 0 355 -70.5t290.5 -190t193.5 -284t72 -344.5q0 -181 -72 -346.5t-193.5 -285t-290.5 -190.5t-355 -71t-355 71t-291 190.5t-194 285t-72 346.5q0 180 72 344.5t194 284t291 190t355 70.5zM1016 1145q-184 0 -305 -126l120 -148q72 76 176 76
q49 0 77.5 -17.5t28.5 -50.5q0 -35 -33.5 -55.5t-85.5 -20.5h-97v-184h95q58 0 97 -21t39 -58q0 -36 -34 -55.5t-86 -19.5q-100 0 -176 74l-123 -145q109 -125 311 -125q91 0 167 26.5t125.5 85t49.5 140.5q0 132 -140 189q122 58 122 189q0 111 -91.5 178.5t-236.5 67.5z
" />
    <glyph glyph-name="uni278C" unicode="&#x278c;" horiz-adv-x="2050" 
d="M1026 1591q186 0 355 -70.5t290.5 -190t193.5 -284t72 -344.5q0 -181 -72 -346.5t-193.5 -285t-290.5 -190.5t-355 -71t-355 71t-291 190.5t-194 285t-72 346.5q0 180 72 344.5t194 284t291 190t355 70.5zM1016 1145q-184 0 -305 -126l120 -148q72 76 176 76
q49 0 77.5 -17.5t28.5 -50.5q0 -35 -33.5 -55.5t-85.5 -20.5h-97v-184h95q58 0 97 -21t39 -58q0 -36 -34 -55.5t-86 -19.5q-100 0 -176 74l-123 -145q109 -125 311 -125q91 0 167 26.5t125.5 85t49.5 140.5q0 132 -140 189q122 58 122 189q0 111 -91.5 178.5t-236.5 67.5z
" />
    <glyph glyph-name="uni278D" unicode="&#x2779;" horiz-adv-x="2050" 
d="M1026 1591q186 0 355 -70.5t290.5 -190t193.5 -284t72 -344.5q0 -181 -72 -346.5t-193.5 -285t-290.5 -190.5t-355 -71t-355 71t-291 190.5t-194 285t-72 346.5q0 180 72 344.5t194 284t291 190t355 70.5zM1262 847h-156l-70 -146v-80h-113l246 508h-246l-266 -556v-153
h379v-135h226v135h99v201h-99v226z" />
    <glyph glyph-name="uni278D" unicode="&#x278d;" horiz-adv-x="2050" 
d="M1026 1591q186 0 355 -70.5t290.5 -190t193.5 -284t72 -344.5q0 -181 -72 -346.5t-193.5 -285t-290.5 -190.5t-355 -71t-355 71t-291 190.5t-194 285t-72 346.5q0 180 72 344.5t194 284t291 190t355 70.5zM1262 847h-156l-70 -146v-80h-113l246 508h-246l-266 -556v-153
h379v-135h226v135h99v201h-99v226z" />
    <glyph glyph-name="uni278E" unicode="&#x277a;" horiz-adv-x="2050" 
d="M1308 1129h-520l-12 -500h216q137 0 137 -77q0 -80 -105 -80q-58 0 -117 24t-95 53l-103 -171q55 -48 137.5 -78.5t178.5 -30.5q150 0 244 82.5t94 216.5q0 116 -84 183t-236 67h-67l3 105h329v206zM1026 1591q186 0 355 -70.5t290.5 -190t193.5 -284t72 -344.5
q0 -181 -72 -346.5t-193.5 -285t-290.5 -190.5t-355 -71t-355 71t-291 190.5t-194 285t-72 346.5q0 180 72 344.5t194 284t291 190t355 70.5z" />
    <glyph glyph-name="uni278E" unicode="&#x278e;" horiz-adv-x="2050" 
d="M1308 1129h-520l-12 -500h216q137 0 137 -77q0 -80 -105 -80q-58 0 -117 24t-95 53l-103 -171q55 -48 137.5 -78.5t178.5 -30.5q150 0 244 82.5t94 216.5q0 116 -84 183t-236 67h-67l3 105h329v206zM1026 1591q186 0 355 -70.5t290.5 -190t193.5 -284t72 -344.5
q0 -181 -72 -346.5t-193.5 -285t-290.5 -190.5t-355 -71t-355 71t-291 190.5t-194 285t-72 346.5q0 180 72 344.5t194 284t291 190t355 70.5z" />
    <glyph glyph-name="uni278F" unicode="&#x277b;" horiz-adv-x="2050" 
d="M1026 1591q186 0 355 -70.5t290.5 -190t193.5 -284t72 -344.5q0 -181 -72 -346.5t-193.5 -285t-290.5 -190.5t-355 -71t-355 71t-291 190.5t-194 285t-72 346.5q0 180 72 344.5t194 284t291 190t355 70.5zM1258 1129h-270l-221 -321q-90 -131 -90 -246q0 -127 98.5 -210
t245.5 -83t245.5 85.5t98.5 215.5q0 120 -82.5 200t-228.5 81zM1021 666q46 0 76.5 -28.5t30.5 -70.5q0 -43 -30.5 -71t-76.5 -28t-76 28t-30 71q0 42 30 70.5t76 28.5z" />
    <glyph glyph-name="uni278F" unicode="&#x278f;" horiz-adv-x="2050" 
d="M1026 1591q186 0 355 -70.5t290.5 -190t193.5 -284t72 -344.5q0 -181 -72 -346.5t-193.5 -285t-290.5 -190.5t-355 -71t-355 71t-291 190.5t-194 285t-72 346.5q0 180 72 344.5t194 284t291 190t355 70.5zM1258 1129h-270l-221 -321q-90 -131 -90 -246q0 -127 98.5 -210
t245.5 -83t245.5 85.5t98.5 215.5q0 120 -82.5 200t-228.5 81zM1021 666q46 0 76.5 -28.5t30.5 -70.5q0 -43 -30.5 -71t-76.5 -28t-76 28t-30 71q0 42 30 70.5t76 28.5z" />
    <glyph glyph-name="uni2790" unicode="&#x277c;" horiz-adv-x="2050" 
d="M1369 1129h-638v-208h370l-330 -636h270l328 667v177zM1026 1591q186 0 355 -70.5t290.5 -190t193.5 -284t72 -344.5q0 -181 -72 -346.5t-193.5 -285t-290.5 -190.5t-355 -71t-355 71t-291 190.5t-194 285t-72 346.5q0 180 72 344.5t194 284t291 190t355 70.5z" />
    <glyph glyph-name="uni2790" unicode="&#x2790;" horiz-adv-x="2050" 
d="M1369 1129h-638v-208h370l-330 -636h270l328 667v177zM1026 1591q186 0 355 -70.5t290.5 -190t193.5 -284t72 -344.5q0 -181 -72 -346.5t-193.5 -285t-290.5 -190.5t-355 -71t-355 71t-291 190.5t-194 285t-72 346.5q0 180 72 344.5t194 284t291 190t355 70.5z" />
    <glyph glyph-name="uni2791" unicode="&#x277d;" horiz-adv-x="2050" 
d="M1026 1591q186 0 355 -70.5t290.5 -190t193.5 -284t72 -344.5q0 -181 -72 -346.5t-193.5 -285t-290.5 -190.5t-355 -71t-355 71t-291 190.5t-194 285t-72 346.5q0 180 72 344.5t194 284t291 190t355 70.5zM1026 1145q-140 0 -235 -67t-95 -179q0 -129 129 -188
q-151 -59 -151 -196q0 -112 101.5 -179t250.5 -67q150 0 251 67t101 179q0 137 -151 196q129 60 129 188q0 112 -95 179t-235 67zM1026 628q46 0 75.5 -23t29.5 -62q0 -38 -29.5 -61t-75.5 -23t-75 23t-29 61q0 39 29 62t75 23zM1026 954q40 0 65.5 -20.5t25.5 -55.5
t-25.5 -56t-65.5 -21t-65 21t-25 56t25 55.5t65 20.5z" />
    <glyph glyph-name="uni2791" unicode="&#x2791;" horiz-adv-x="2050" 
d="M1026 1591q186 0 355 -70.5t290.5 -190t193.5 -284t72 -344.5q0 -181 -72 -346.5t-193.5 -285t-290.5 -190.5t-355 -71t-355 71t-291 190.5t-194 285t-72 346.5q0 180 72 344.5t194 284t291 190t355 70.5zM1026 1145q-140 0 -235 -67t-95 -179q0 -129 129 -188
q-151 -59 -151 -196q0 -112 101.5 -179t250.5 -67q150 0 251 67t101 179q0 137 -151 196q129 60 129 188q0 112 -95 179t-235 67zM1026 628q46 0 75.5 -23t29.5 -62q0 -38 -29.5 -61t-75.5 -23t-75 23t-29 61q0 39 29 62t75 23zM1026 954q40 0 65.5 -20.5t25.5 -55.5
t-25.5 -56t-65.5 -21t-65 21t-25 56t25 55.5t65 20.5z" />
    <glyph glyph-name="uni2792" unicode="&#x277e;" horiz-adv-x="2050" 
d="M1026 1591q186 0 355 -70.5t290.5 -190t193.5 -284t72 -344.5q0 -181 -72 -346.5t-193.5 -285t-290.5 -190.5t-355 -71t-355 71t-291 190.5t-194 285t-72 346.5q0 180 72 344.5t194 284t291 190t355 70.5zM801 285h270l221 320q90 129 90 247q0 127 -98.5 210t-245.5 83
t-245.5 -85.5t-98.5 -215.5q0 -121 82 -200.5t228 -80.5zM1038 748q-46 0 -76.5 28t-30.5 71t30 70.5t77 27.5q46 0 76 -27.5t30 -70.5t-30 -71t-76 -28z" />
    <glyph glyph-name="uni2792" unicode="&#x2792;" horiz-adv-x="2050" 
d="M1026 1591q186 0 355 -70.5t290.5 -190t193.5 -284t72 -344.5q0 -181 -72 -346.5t-193.5 -285t-290.5 -190.5t-355 -71t-355 71t-291 190.5t-194 285t-72 346.5q0 180 72 344.5t194 284t291 190t355 70.5zM801 285h270l221 320q90 129 90 247q0 127 -98.5 210t-245.5 83
t-245.5 -85.5t-98.5 -215.5q0 -121 82 -200.5t228 -80.5zM1038 748q-46 0 -76.5 28t-30.5 71t30 70.5t77 27.5q46 0 76 -27.5t30 -70.5t-30 -71t-76 -28z" />
    <glyph glyph-name="uni2B51" unicode="&#x2b51;" horiz-adv-x="1800" 
d="M1094 912h627l-507 -369l195 -598l-508 370l-507 -370l194 598l-509 369h629l193 598z" />
    <glyph glyph-name="uni2B52" unicode="&#x2b52;" horiz-adv-x="1800" 
d="M1094 912h627l-507 -369l195 -598l-508 370l-507 -370l194 598l-509 369h629l193 598zM984 761l-83 259l-83 -259h-275l221 -160l-84 -261l221 161l221 -161l-84 261l221 160h-275z" />
    <glyph glyph-name="uni2E17" unicode="&#x2e17;" horiz-adv-x="838" 
d="M722 978v-246l-606 -221v246zM722 600v-246l-606 -221v246z" />
    <glyph glyph-name="uni2E38" unicode="&#x2e38;" horiz-adv-x="801" 
d="M282 1440h236v-414h219v-229h-219v-221h-236v221h-218v229h218v414z" />
    <glyph glyph-name="uniEA00" unicode="&#xea00;" horiz-adv-x="1800" 
d="M1094 912h627l-507 -369l195 -598l-508 370l-507 -370l194 598l-509 369h629l193 598zM984 761l-83 259v-519l221 -161l-84 261l221 160h-275z" />
    <glyph glyph-name="uniEA01" unicode="&#xea01;" horiz-adv-x="1800" 
d="M901 315l-507 -370l194 598l-509 369h629l193 598v-1195z" />
    <glyph glyph-name="uniFB00" unicode="&#xfb00;" horiz-adv-x="1683" 
d="M790 981v-277h-275v-704h-313v704h-169v277h169v76q0 196 100 302.5t274 106.5q193 0 331 -104l-136 -231q-84 43 -153 43q-103 0 -103 -124v-69h275zM1618 981v-277h-275v-704h-313v704h-169v277h169v76q0 196 100 302.5t274 106.5q193 0 331 -104l-136 -231
q-84 43 -153 43q-103 0 -103 -124v-69h275z" />
    <glyph glyph-name="fi" unicode="&#xfb01;" horiz-adv-x="1387" 
d="M790 981v-277h-275v-704h-313v704h-169v277h169v76q0 196 100 302.5t274 106.5q193 0 331 -104l-136 -231q-84 43 -153 43q-103 0 -103 -124v-69h275zM1278 981v-981h-313v981h313zM1120 1471q79 0 133 -54.5t54 -133.5t-54 -132.5t-133 -53.5t-133 53.5t-54 132.5
q0 80 54 134t133 54z" />
    <glyph glyph-name="fl" unicode="&#xfb02;" horiz-adv-x="1387" 
d="M790 981v-277h-275v-704h-313v704h-169v277h169v76q0 196 100 302.5t274 106.5q193 0 331 -104l-136 -231q-84 43 -153 43q-103 0 -103 -124v-69h275zM1278 1440v-1440h-313v1440h313z" />
    <glyph glyph-name="uniFB03" unicode="&#xfb03;" horiz-adv-x="2215" 
d="M790 981v-277h-275v-704h-313v704h-169v277h169v76q0 196 100 302.5t274 106.5q193 0 331 -104l-136 -231q-84 43 -153 43q-103 0 -103 -124v-69h275zM1618 981v-277h-275v-704h-313v704h-169v277h169v76q0 196 100 302.5t274 106.5q193 0 331 -104l-136 -231
q-84 43 -153 43q-103 0 -103 -124v-69h275zM2106 981v-981h-313v981h313zM1948 1471q79 0 133 -54.5t54 -133.5t-54 -132.5t-133 -53.5t-133 53.5t-54 132.5q0 80 54 134t133 54z" />
    <glyph glyph-name="uniFB04" unicode="&#xfb04;" horiz-adv-x="2215" 
d="M790 981v-277h-275v-704h-313v704h-169v277h169v76q0 196 100 302.5t274 106.5q193 0 331 -104l-136 -231q-84 43 -153 43q-103 0 -103 -124v-69h275zM1618 981v-277h-275v-704h-313v704h-169v277h169v76q0 196 100 302.5t274 106.5q193 0 331 -104l-136 -231
q-84 43 -153 43q-103 0 -103 -124v-69h275zM2106 1440v-1440h-313v1440h313z" />
    <glyph glyph-name="uniFB05" unicode="&#xfb05;" horiz-adv-x="1441" 
d="M1346 981v-277h-335v-287q0 -151 139 -151q67 0 170 61l108 -244q-77 -54 -157.5 -81.5t-190.5 -27.5q-192 0 -287 106.5t-95 296.5v327h-135v277h135v40q0 82 -38 123.5t-103 41.5q-64 0 -102 -41.5t-38 -123.5v-555h-1v-466h-312v1028q0 146 61.5 246.5t161.5 146
t230 45.5q97 0 178.5 -26.5t143.5 -79t97 -137.5t35 -195v-47h335z" />
    <glyph glyph-name="uniFB06" unicode="&#xfb06;" horiz-adv-x="1962" 
d="M935 923l-87 -244q-176 75 -323 76q-114 0 -114 -60q0 -15 9.5 -25.5t35 -18.5t47 -12t66.5 -11l72 -11q158 -24 239.5 -99.5t81.5 -198.5q0 -162 -120 -253t-334 -91q-295 0 -453 103l109 242q155 -92 346 -92q137 0 137 64q0 28 -34 42.5t-121 27.5l-57 8
q-177 26 -261.5 101.5t-84.5 207.5q0 156 111.5 242t312.5 86q118 0 208.5 -18.5t213.5 -65.5zM1867 981v-277h-335v-287q0 -151 139 -151q67 0 170 61l108 -244q-77 -54 -157.5 -81.5t-190.5 -27.5q-192 0 -287 106.5t-95 296.5v327h-183v277h183v286h313v-286h335z" />
    <glyph glyph-name="uniFEFF" unicode="&#xfeff;" horiz-adv-x="0" 
 />
    <glyph glyph-name="uni030C.alt001" 
d="M-502 973h-238v467h299z" />
    <glyph glyph-name="uni0328.alt001" 
d="M-468 -153l144 -171q-45 -41 -116 -68.5t-154 -27.5q-112 0 -186.5 54.5t-74.5 148.5q0 53 25 100t70 83.5t87 62t96 50.5l95 -73q-118 -60 -118 -137q0 -52 59 -52q34 0 73 30z" />
    <glyph glyph-name="uni0328.alt002" 
d="M-581 89l135 -62q-97 -43 -131.5 -80.5t-34.5 -73.5q0 -26 18 -41t49 -15q50 0 94 39l162 -160q-122 -116 -299 -116q-133 0 -217.5 59.5t-84.5 158.5q0 55 23 100t69 80t96 60t121 51z" />
    <glyph glyph-name="uni0328.alt003" 
d="M-468 -153l144 -171q-45 -41 -115.5 -68.5t-154.5 -27.5q-112 0 -186.5 56t-74.5 154q0 52 27.5 97.5t77.5 81.5t96.5 60t108.5 50l95 -73q-150 -61 -150 -137q0 -52 60 -52q33 0 72 30z" />
    <glyph glyph-name="uni0328.alt004" 
d="M-451 -144l162 -160q-122 -116 -299 -116q-133 0 -217.5 59.5t-84.5 158.5q0 55 23 100t69 80t96 60t121 51l135 -62q-97 -43 -131.5 -80.5t-34.5 -73.5q0 -26 18 -41t49 -15q50 0 94 39z" />
    <glyph glyph-name="j.latn_NLD" horiz-adv-x="533" 
d="M424 981v-1046q0 -169 -87 -264t-234 -95q-88 0 -150 24l30 277q32 -10 63 -10q66 0 66 88v1026h312zM362 1105h-293l212 332h359z" />
    <glyph glyph-name="zero.numr" horiz-adv-x="892" 
d="M446 1415q164 0 271.5 -117t107.5 -314t-107.5 -314t-271.5 -117t-271.5 117t-107.5 314t107.5 314t271.5 117zM446 1203q-66 0 -107 -57t-41 -162t41 -162t107 -57t107.5 57.5t41.5 161.5t-41.5 161.5t-107.5 57.5z" />
    <glyph glyph-name="one.numr" horiz-adv-x="541" 
d="M435 1413v-845h-222v544l-179 -62v215z" />
    <glyph glyph-name="two.numr" horiz-adv-x="730" 
d="M170 1112l-126 153q128 150 324 150q135 0 217 -73.5t82 -196.5q0 -74 -31 -133t-109 -129l-123 -110h281v-205h-593v174l288 265q58 53 58 110q0 38 -28 62t-69 24q-49 0 -88.5 -24t-82.5 -67z" />
    <glyph glyph-name="three.numr" horiz-adv-x="731" 
d="M335 1415q142 0 232 -66t90 -175q0 -129 -120 -187q66 -26 101.5 -74.5t35.5 -112.5q0 -61 -28 -109t-75.5 -77.5t-106.5 -45t-125 -15.5q-198 0 -305 123l122 142q74 -72 171 -72q51 0 83.5 19t32.5 56q0 36 -37.5 56t-94.5 20h-93v182h96q50 0 82.5 20t32.5 54
q0 68 -103 68q-102 0 -173 -75l-117 145q119 124 299 124z" />
    <glyph glyph-name="four.numr" horiz-adv-x="742" 
d="M619 1122v-224h97v-197h-97v-133h-222v133h-370v152l260 546h241l-241 -501h110v86l66 138h156z" />
    <glyph glyph-name="five.numr" horiz-adv-x="744" 
d="M632 1400v-202h-323l-2 -104h61q150 0 233.5 -66t83.5 -181q0 -132 -92 -213.5t-239 -81.5q-94 0 -175 30t-135 78l102 168q35 -28 92.5 -52t114.5 -24q50 0 76.5 21t26.5 58q0 76 -133 76h-213l12 493h510z" />
    <glyph glyph-name="six.numr" horiz-adv-x="760" 
d="M611 1400l-201 -274q145 -1 225.5 -80t80.5 -198q0 -128 -96.5 -211.5t-241.5 -83.5t-241.5 81.5t-96.5 206.5q0 112 88 242l217 317h266zM378 944q-45 0 -74.5 -28t-29.5 -70q0 -43 29 -70.5t75 -27.5q45 0 75 27.5t30 70.5q0 42 -30 70t-75 28z" />
    <glyph glyph-name="seven.numr" horiz-adv-x="698" 
d="M664 1400v-174l-320 -658h-265l322 627h-361v205h624z" />
    <glyph glyph-name="eight.numr" horiz-adv-x="805" 
d="M402 1415q139 0 231.5 -65.5t92.5 -175.5q0 -126 -126 -186q148 -57 148 -193q0 -111 -99.5 -176.5t-246.5 -65.5t-246 65.5t-99 176.5q0 136 147 193q-126 60 -126 186q0 110 93 175.5t231 65.5zM402 906q-45 0 -73.5 -23t-28.5 -61t28.5 -61t73.5 -23t74 23t29 61
t-29 61t-74 23zM402 1229q-39 0 -63.5 -21t-24.5 -56q0 -34 24.5 -54.5t63.5 -20.5t64 20.5t25 54.5q0 35 -25 56t-64 21z" />
    <glyph glyph-name="nine.numr" horiz-adv-x="760" 
d="M149 568l199 274q-144 1 -224 79.5t-80 197.5q0 128 96 212t241 84t241.5 -81.5t96.5 -206.5q0 -115 -87 -242l-218 -317h-265zM381 1023q46 0 75.5 28t29.5 71t-29.5 70.5t-75.5 27.5t-75.5 -27.5t-29.5 -70.5t29.5 -71t75.5 -28z" />
    <glyph glyph-name="zero.dnom" horiz-adv-x="892" 
d="M446 847q164 0 271.5 -117t107.5 -314t-107.5 -314t-271.5 -117t-271.5 117t-107.5 314t107.5 314t271.5 117zM446 635q-66 0 -107 -57t-41 -162t41 -162t107 -57t107.5 57.5t41.5 161.5t-41.5 161.5t-107.5 57.5z" />
    <glyph glyph-name="one.dnom" horiz-adv-x="542" 
d="M435 845v-845h-222v544l-179 -62v215z" />
    <glyph glyph-name="two.dnom" horiz-adv-x="732" 
d="M170 544l-126 153q128 150 324 150q135 0 217 -73.5t82 -196.5q0 -74 -31 -133t-109 -129l-123 -110h281v-205h-593v174l288 265q58 53 58 110q0 38 -28 62t-69 24q-49 0 -88.5 -24t-82.5 -67z" />
    <glyph glyph-name="three.dnom" horiz-adv-x="731" 
d="M335 847q142 0 232 -66t90 -175q0 -129 -120 -187q66 -26 101.5 -74.5t35.5 -112.5q0 -61 -28 -109t-75.5 -77.5t-106.5 -45t-125 -15.5q-198 0 -305 123l122 142q74 -72 171 -72q51 0 83.5 19t32.5 56q0 36 -37.5 56t-94.5 20h-93v182h96q50 0 82.5 20t32.5 54
q0 68 -103 68q-102 0 -173 -75l-117 145q119 124 299 124z" />
    <glyph glyph-name="four.dnom" horiz-adv-x="743" 
d="M619 554v-224h97v-197h-97v-133h-222v133h-370v152l260 546h241l-241 -501h110v86l66 138h156z" />
    <glyph glyph-name="five.dnom" horiz-adv-x="745" 
d="M632 832v-202h-323l-2 -104h61q150 0 233.5 -66t83.5 -181q0 -132 -92 -213.5t-239 -81.5q-94 0 -175 30t-135 78l102 168q35 -28 92.5 -52t114.5 -24q50 0 76.5 21t26.5 58q0 76 -133 76h-213l12 493h510z" />
    <glyph glyph-name="six.dnom" horiz-adv-x="760" 
d="M611 832l-201 -274q145 -1 225.5 -80t80.5 -198q0 -128 -96.5 -211.5t-241.5 -83.5t-241.5 81.5t-96.5 206.5q0 112 88 242l217 317h266zM378 376q-45 0 -74.5 -28t-29.5 -70q0 -43 29 -70.5t75 -27.5q45 0 75 27.5t30 70.5q0 42 -30 70t-75 28z" />
    <glyph glyph-name="seven.dnom" horiz-adv-x="698" 
d="M664 832v-174l-320 -658h-265l322 627h-361v205h624z" />
    <glyph glyph-name="eight.dnom" horiz-adv-x="805" 
d="M402 847q139 0 231.5 -65.5t92.5 -175.5q0 -126 -126 -186q148 -57 148 -193q0 -111 -99.5 -176.5t-246.5 -65.5t-246 65.5t-99 176.5q0 136 147 193q-126 60 -126 186q0 110 93 175.5t231 65.5zM402 338q-45 0 -73.5 -23t-28.5 -61t28.5 -61t73.5 -23t74 23t29 61
t-29 61t-74 23zM402 661q-39 0 -63.5 -21t-24.5 -56q0 -34 24.5 -54.5t63.5 -20.5t64 20.5t25 54.5q0 35 -25 56t-64 21z" />
    <glyph glyph-name="nine.dnom" horiz-adv-x="759" 
d="M149 0l199 274q-144 1 -224 79.5t-80 197.5q0 128 96 212t241 84t241.5 -81.5t96.5 -206.5q0 -115 -87 -242l-218 -317h-265zM381 455q46 0 75.5 28t29.5 71t-29.5 70.5t-75.5 27.5t-75.5 -27.5t-29.5 -70.5t29.5 -71t75.5 -28z" />
    <glyph glyph-name="space.frac" horiz-adv-x="89" 
 />
    <glyph glyph-name="b.ordn" horiz-adv-x="885" 
d="M498 1293q144 0 239 -107t95 -264q0 -158 -95 -265t-238 -107q-130 0 -204 91v-73h-208v1039h215v-398q75 84 196 84zM452 1091q-70 0 -114.5 -47.5t-44.5 -122.5q0 -74 44.5 -122t114.5 -48t114.5 48.5t44.5 121.5t-44.5 121.5t-114.5 48.5z" />
    <glyph glyph-name="c.ordn" horiz-adv-x="781" 
d="M432 1293q191 0 296 -149l-166 -121q-56 68 -135 68q-65 0 -109.5 -46.5t-44.5 -123.5t44 -123.5t109 -46.5q82 0 138 69l164 -122q-107 -148 -296 -148q-168 0 -273.5 104.5t-105.5 266.5q0 163 105.5 267.5t273.5 104.5z" />
    <glyph glyph-name="d.ordn" horiz-adv-x="886" 
d="M387 1293q121 0 196 -85v399h215v-1039h-208v73q-74 -91 -204 -91q-143 0 -238 107t-95 265q0 157 95 264t239 107zM433 1091q-70 0 -114.5 -48.5t-44.5 -121.5t44.5 -121.5t114.5 -48.5t114.5 48t44.5 122q0 75 -44.5 122.5t-114.5 47.5z" />
    <glyph glyph-name="e.ordn" horiz-adv-x="817" 
d="M414 1293q155 0 252 -103t97 -269q0 -45 -3 -68h-485q28 -122 160 -122q88 0 160 64l136 -132q-116 -113 -308 -113q-166 0 -268 101t-102 266q0 167 100 271.5t261 104.5zM413 1109q-110 0 -137 -117h272q-28 117 -135 117z" />
    <glyph glyph-name="h.ordn" horiz-adv-x="843" 
d="M302 1607v-404q66 90 193 90q117 0 191 -75t74 -197v-453h-216v385q0 66 -30.5 101.5t-86.5 35.5q-55 0 -90 -35.5t-35 -102.5v-384h-215v1039h215z" />
    <glyph glyph-name="l.ordn" horiz-adv-x="389" 
d="M302 1607v-1039h-215v1039h215z" />
    <glyph glyph-name="m.ordn" horiz-adv-x="1300" 
d="M946 1293q124 0 198 -74.5t74 -197.5v-453h-215v385q0 66 -31 101.5t-87 35.5q-55 0 -90 -36t-35 -102v-384h-216v385q0 66 -30.5 101.5t-86.5 35.5q-55 0 -90 -35.5t-35 -102.5v-384h-215v705h208v-80q66 100 200 100q73 0 131 -31t93 -87q70 118 227 118z" />
    <glyph glyph-name="r.ordn" horiz-adv-x="601" 
d="M489 1293q47 0 84 -13l-23 -214q-56 20 -113 20q-63 0 -98.5 -34t-35.5 -102v-382h-216v705h207v-75q61 95 195 95z" />
    <glyph glyph-name="s.ordn" horiz-adv-x="741" 
d="M675 1230l-63 -168q-127 55 -230 55q-89 0 -89 -48q0 -13 7.5 -21.5t26.5 -14.5t33 -8.5t46 -7.5l55 -8q233 -37 233 -213q0 -115 -86.5 -180.5t-239.5 -65.5q-208 0 -322 77l77 166q108 -67 246 -67q107 0 107 51q0 21 -25.5 33t-86.5 21l-46 7q-248 36 -248 219
q0 112 80 174t223 62q83 0 150 -14.5t152 -48.5z" />
    <glyph glyph-name="t.ordn" horiz-adv-x="692" 
d="M621 1273v-190h-245v-220q0 -112 101 -112q52 0 126 44l75 -168q-110 -77 -245 -77q-136 0 -204 75t-68 212v246h-133v190h133v207h215v-207h245z" />
    <glyph glyph-name="u.ordn" horiz-adv-x="851" 
d="M764 1273v-403q0 -158 -95.5 -239t-243.5 -81t-243 81t-95 239v403h215v-384q0 -69 34 -103.5t89 -34.5q57 0 90.5 34.5t33.5 103.5v384h215z" />
    <glyph glyph-name="egrave.ordn" horiz-adv-x="817" 
d="M414 1293q155 0 252 -103t97 -269q0 -45 -3 -68h-485q28 -122 160 -122q88 0 160 64l136 -132q-116 -113 -308 -113q-166 0 -268 101t-102 266q0 167 100 271.5t261 104.5zM351 1365l-198 237h250l151 -237h-203zM413 1109q-110 0 -137 -117h272q-28 117 -135 117z" />
    <glyph glyph-name="zero.osf" horiz-adv-x="1318" 
d="M659 1106q164 0 297 -69t211 -199.5t78 -298.5t-78 -297.5t-211 -198.5t-297 -69t-297 69t-211 198.5t-78 297.5q0 126 45.5 233t124.5 180t186.5 113.5t229.5 40.5zM659 811q-116 0 -193 -75.5t-77 -195.5t77 -195.5t193 -75.5t193 75.5t77 195.5t-77 195.5t-193 75.5z
" />
    <glyph glyph-name="one.osf" horiz-adv-x="773" 
d="M656 1109v-1109h-318v692l-298 -89v307z" />
    <glyph glyph-name="two.osf" horiz-adv-x="1119" 
d="M225 669l-178 208q195 229 496 229q209 0 339.5 -101t130.5 -266q0 -126 -76.5 -222.5t-232.5 -182.5l-88 -49h452v-285h-959v246l378 228q112 67 155 117t43 96q0 60 -50.5 96t-127.5 36q-84 0 -151.5 -40t-130.5 -110z" />
    <glyph glyph-name="three.osf" horiz-adv-x="1117" 
d="M519 1106q225 0 366 -111.5t141 -293.5q0 -108 -52 -188.5t-148 -126.5q109 -46 169 -127.5t60 -190.5q0 -101 -44 -182t-118.5 -130.5t-167.5 -75.5t-197 -26q-156 0 -282 53.5t-209 151.5l179 204q124 -130 296 -130q93 0 152 39.5t59 115.5t-67.5 117.5t-170.5 41.5
h-154v279h156q93 0 152 39t59 110q0 69 -53 107t-140 38q-167 0 -278 -134l-182 206q176 214 474 214z" />
    <glyph glyph-name="four.osf" horiz-adv-x="1166" 
d="M939 616v-320h198v-296h-198v-321h-318v321h-592v225l399 854h339l-369 -783h223v146l80 174h238z" />
    <glyph glyph-name="five.osf" horiz-adv-x="1147" 
d="M997 1079v-294h-550l-5 -226h142q236 0 366.5 -116t130.5 -306q0 -221 -149 -352.5t-380 -131.5q-156 0 -286.5 52.5t-218.5 144.5l162 232q56 -56 151 -97t190 -41q97 0 149 47t52 124q0 163 -251 163h-344l16 801h825z" />
    <glyph glyph-name="six.osf" horiz-adv-x="1176" 
d="M940 1400l-337 -474q9 1 27 1q227 0 363 -133t136 -333q0 -210 -155 -348.5t-388 -138.5q-232 0 -387 136.5t-155 342.5q0 181 139 388l374 559h383zM586 657q-91 0 -150 -56t-59 -142q0 -88 59 -144.5t150 -56.5t150.5 56.5t59.5 144.5q0 86 -59.5 142t-150.5 56z" />
    <glyph glyph-name="seven.osf" horiz-adv-x="1097" 
d="M1053 1079v-250l-555 -1150h-379l556 1104h-631v296h1009z" />
    <glyph glyph-name="eight.osf" horiz-adv-x="1214" 
d="M607 1426q141 0 256.5 -48.5t184.5 -142t69 -214.5q0 -214 -208 -314q111 -45 177 -125.5t66 -199.5q0 -123 -74 -217t-197.5 -142.5t-273.5 -48.5q-151 0 -274 48.5t-197 142.5t-74 217q0 226 242 325q-207 101 -207 314q0 121 69 214.5t184.5 142t256.5 48.5zM607 582
q-84 0 -141.5 -45.5t-57.5 -120.5t57.5 -119.5t141.5 -44.5q83 0 140.5 44.5t57.5 119.5t-57.5 120.5t-140.5 45.5zM607 1142q-74 0 -122.5 -41t-48.5 -110q0 -70 49 -112t122 -42t121.5 42t48.5 112q0 69 -48.5 110t-121.5 41z" />
    <glyph glyph-name="nine.osf" horiz-adv-x="1176" 
d="M236 -320l337 473h-27q-227 0 -363 133t-136 333q0 210 155 348.5t388 138.5q232 0 387 -136.5t155 -342.5q0 -180 -139 -389l-374 -558h-383zM590 422q90 0 149.5 56.5t59.5 142.5q0 88 -59.5 144.5t-149.5 56.5q-91 0 -150.5 -56.5t-59.5 -144.5q0 -86 59.5 -142.5
t150.5 -56.5z" />
    <glyph glyph-name="zero.tf" horiz-adv-x="1200" 
d="M605 1425q118 0 217 -44t175 -131t118.5 -228t42.5 -322q0 -184 -42.5 -325.5t-118.5 -227.5t-175 -129t-217 -43q-121 0 -221.5 43t-178 129t-121 227.5t-43.5 325.5q0 185 43.5 326t121 227t178 129t221.5 43zM605 1115q-102 0 -165.5 -100t-63.5 -315t63.5 -315
t165.5 -100q97 0 158 100t61 315q0 209 -61.5 312t-157.5 103z" />
    <glyph glyph-name="one.tf" horiz-adv-x="1200" 
d="M189 307h307v684l-320 -112v317l644 226v-1115h295v-307h-926v307z" />
    <glyph glyph-name="two.tf" horiz-adv-x="1200" 
d="M266 959l-192 220q202 246 511 246q221 0 353.5 -124t132.5 -328q0 -121 -48 -212.5t-162 -205.5l-254 -254h495v-301h-956v254l485 475q103 100 103 211q0 78 -51.5 126.5t-131.5 48.5q-86 0 -151.5 -41t-133.5 -115z" />
    <glyph glyph-name="three.tf" horiz-adv-x="1200" 
d="M555 1425q229 0 373 -111t144 -293q0 -108 -53 -189t-150 -127q111 -45 171.5 -126.5t60.5 -190.5q0 -82 -29.5 -150.5t-80 -116.5t-119.5 -81t-147 -49t-162 -16q-159 0 -286.5 53t-210.5 152l185 211q121 -126 296 -126q95 0 156 38.5t61 111.5q0 71 -69 110t-174 39
h-158v285h160q94 0 154.5 38t60.5 107q0 67 -54.5 104t-142.5 37q-171 0 -283 -133l-186 211q182 212 483 212z" />
    <glyph glyph-name="four.tf" horiz-adv-x="1200" 
d="M984 908v-368h176v-301h-176v-239h-324v239h-617v227l457 933h356l-426 -859h230v144l108 224h216z" />
    <glyph glyph-name="five.tf" horiz-adv-x="1200" 
d="M1023 1400v-298h-548l-6 -220h138q238 0 369 -115.5t131 -306.5q0 -221 -149.5 -353.5t-382.5 -132.5q-156 0 -286.5 53t-219.5 142l161 238q57 -55 152.5 -96t190.5 -41q96 0 147 45.5t51 122.5q0 158 -247 158h-346l18 804h827z" />
    <glyph glyph-name="six.tf" horiz-adv-x="1200" 
d="M952 1400l-336 -472q8 1 23 1q115 0 210 -36.5t158.5 -99.5t98 -148t34.5 -182q0 -139 -71.5 -251t-196 -174.5t-278.5 -62.5q-153 0 -277.5 61.5t-195.5 171.5t-71 246q0 182 140 390l372 556h390zM594 655q-89 0 -146.5 -55t-57.5 -140q0 -86 57.5 -141t146.5 -55
q90 0 148 55t58 141q0 85 -58.5 140t-147.5 55z" />
    <glyph glyph-name="seven.tf" horiz-adv-x="1200" 
d="M1110 1400v-254l-552 -1146h-386l552 1099h-627v301h1013z" />
    <glyph glyph-name="eight.tf" horiz-adv-x="1200" 
d="M600 1425q146 0 264.5 -47.5t190 -140.5t71.5 -216q0 -216 -211 -314q246 -99 246 -326q0 -124 -76.5 -217.5t-203 -141t-281.5 -47.5t-281.5 47.5t-203 141t-76.5 217.5q0 228 245 326q-210 98 -210 314q0 123 71.5 216t190 140.5t264.5 47.5zM600 582q-88 0 -148 -44
t-60 -121q0 -76 59.5 -118t148.5 -42q88 0 147.5 42t59.5 118q0 77 -59.5 121t-147.5 44zM600 1138q-78 0 -129 -39t-51 -109q0 -71 51 -111.5t129 -40.5q77 0 128 40.5t51 111.5q0 70 -51 109t-128 39z" />
    <glyph glyph-name="nine.tf" horiz-adv-x="1200" 
d="M249 0l335 471h-22q-115 0 -210 36.5t-158.5 99.5t-98 148t-34.5 182q0 139 71 251t195.5 174.5t278.5 62.5q153 0 277.5 -61.5t196 -171.5t71.5 -246q0 -181 -141 -390l-372 -556h-389zM606 745q89 0 146.5 55t57.5 140q0 86 -57.5 141t-146.5 55t-147 -55t-58 -141
q0 -85 58 -140t147 -55z" />
    <glyph glyph-name="uni2007.tf" horiz-adv-x="1200" 
 />
    <glyph glyph-name="zero.tosf" horiz-adv-x="1200" 
d="M600 1106q154 0 278 -67.5t197.5 -198t73.5 -301.5t-73.5 -301t-197.5 -197t-278 -67q-115 0 -215 39.5t-174 111t-117 178.5t-43 236t43 236.5t117 179.5t174 111.5t215 39.5zM600 820q-100 0 -166.5 -76t-66.5 -205q0 -128 66.5 -203.5t166.5 -75.5t166 75.5t66 203.5
q0 129 -66 205t-166 76z" />
    <glyph glyph-name="one.tosf" horiz-adv-x="1200" 
d="M178 293h304v418l-314 -92v310l632 180v-816h295v-293h-917v293z" />
    <glyph glyph-name="two.tosf" horiz-adv-x="1200" 
d="M265 669l-178 208q195 229 496 229q209 0 339.5 -101t130.5 -266q0 -126 -76.5 -222.5t-232.5 -182.5l-88 -49h452v-285h-959v246l378 228q112 67 155 117t43 96q0 60 -50.5 96t-127.5 36q-84 0 -151.5 -40t-130.5 -110z" />
    <glyph glyph-name="three.tosf" horiz-adv-x="1200" 
d="M556 1106q225 0 366 -111.5t141 -293.5q0 -108 -52 -188.5t-148 -126.5q109 -46 169 -127.5t60 -190.5q0 -101 -44 -182t-118.5 -130.5t-167.5 -75.5t-197 -26q-156 0 -282 53.5t-209 151.5l179 204q124 -130 296 -130q93 0 152 39.5t59 115.5t-67.5 117.5t-170.5 41.5
h-154v279h156q93 0 152 39t59 110q0 69 -53 107t-140 38q-167 0 -278 -134l-182 206q176 214 474 214z" />
    <glyph glyph-name="four.tosf" horiz-adv-x="1200" 
d="M967 616v-320h198v-296h-198v-321h-318v321h-592v225l399 854h339l-369 -783h223v146l80 174h238z" />
    <glyph glyph-name="five.tosf" horiz-adv-x="1200" 
d="M1017 1079v-294h-550l-5 -226h142q236 0 366.5 -116t130.5 -306q0 -221 -149 -352.5t-380 -131.5q-156 0 -286.5 52.5t-218.5 144.5l162 232q56 -56 151 -97t190 -41q97 0 149 47t52 124q0 163 -251 163h-344l16 801h825z" />
    <glyph glyph-name="six.tosf" horiz-adv-x="1200" 
d="M951 1400l-337 -474q9 1 27 1q227 0 363 -133t136 -333q0 -210 -155 -348.5t-388 -138.5q-232 0 -387 136.5t-155 342.5q0 181 139 388l374 559h383zM597 657q-91 0 -150 -56t-59 -142q0 -88 59 -144.5t150 -56.5t150.5 56.5t59.5 144.5q0 86 -59.5 142t-150.5 56z" />
    <glyph glyph-name="seven.tosf" horiz-adv-x="1200" 
d="M1115 1079v-250l-555 -1150h-379l556 1104h-631v296h1009z" />
    <glyph glyph-name="eight.tosf" horiz-adv-x="1200" 
d="M604 1426q141 0 256.5 -48.5t184.5 -142t69 -214.5q0 -214 -208 -314q111 -45 177 -125.5t66 -199.5q0 -123 -74 -217t-197.5 -142.5t-273.5 -48.5q-151 0 -274 48.5t-197 142.5t-74 217q0 226 242 325q-207 101 -207 314q0 121 69 214.5t184.5 142t256.5 48.5zM604 582
q-84 0 -141.5 -45.5t-57.5 -120.5t57.5 -119.5t141.5 -44.5q83 0 140.5 44.5t57.5 119.5t-57.5 120.5t-140.5 45.5zM604 1142q-74 0 -122.5 -41t-48.5 -110q0 -70 49 -112t122 -42t121.5 42t48.5 112q0 69 -48.5 110t-121.5 41z" />
    <glyph glyph-name="nine.tosf" horiz-adv-x="1200" 
d="M249 -320l337 473h-27q-227 0 -363 133t-136 333q0 210 155 348.5t388 138.5q232 0 387 -136.5t155 -342.5q0 -180 -139 -389l-374 -558h-383zM603 422q90 0 149.5 56.5t59.5 142.5q0 88 -59.5 144.5t-149.5 56.5q-91 0 -150.5 -56.5t-59.5 -144.5q0 -86 59.5 -142.5
t150.5 -56.5z" />
    <glyph glyph-name="uni2007.tosf" horiz-adv-x="1200" 
 />
    <glyph glyph-name="exclam.sc" horiz-adv-x="580" 
d="M456 1082l-32 -659h-268l-32 659h332zM291 334q72 0 125 -53.5t53 -125.5q0 -73 -53 -127t-125 -54q-73 0 -127 54t-54 127q0 72 54 125.5t127 53.5z" />
    <glyph glyph-name="numbersign.sc" horiz-adv-x="1203" 
d="M211 868h132l47 214h256l-47 -214h147l47 214h257l-47 -214h130l-50 -233h-132l-40 -183h131l-49 -233h-133l-48 -219h-257l48 219h-146l-48 -219h-256l48 219h-131l50 233h132l40 183h-132zM548 635l-40 -183h146l40 183h-146z" />
    <glyph glyph-name="dollar.sc" horiz-adv-x="1200" 
d="M1050 960l-123 -228q-166 84 -314 84q-69 0 -110 -15.5t-41 -46.5q0 -12 6 -21.5t19 -16.5t26 -12t36.5 -9.5t41 -7.5t48 -8t49.5 -8l40 -7q164 -29 251.5 -103t87.5 -188q0 -147 -94 -235.5t-251 -112.5v-145h-219v141q-237 21 -384 120l138 228q182 -104 355 -104
q151 0 151 64q0 37 -42.5 51.5t-160.5 32.5q-4 1 -6 1l-47 7q-177 26 -263 104t-83 209q3 129 95.5 216t246.5 109v138h219v-138q95 -11 170.5 -34.5t157.5 -64.5z" />
    <glyph glyph-name="percent.sc" horiz-adv-x="1610" 
d="M367 1101q137 0 226.5 -85.5t89.5 -215.5t-90 -215.5t-226 -85.5t-225.5 85.5t-89.5 215.5t89.5 215.5t225.5 85.5zM367 901q-43 0 -72 -29.5t-29 -71.5t29 -71.5t72 -29.5q44 0 72.5 29t28.5 72t-28.5 72t-72.5 29zM1353 1082l-832 -1082h-272l832 1082h272zM1242 582
q137 0 226.5 -85.5t89.5 -215.5t-90 -215.5t-226 -85.5q-135 0 -225 85.5t-90 215.5q0 127 90.5 214t224.5 87zM1242 382q-43 0 -72 -29.5t-29 -71.5t29 -71.5t72 -29.5q44 0 73 29t29 72t-29 72t-73 29z" />
    <glyph glyph-name="ampersand.sc" horiz-adv-x="1221" 
d="M1209 0h-364l-92 85q-148 -105 -320 -105q-173 0 -270.5 80.5t-97.5 210.5q0 152 178 286q-62 65 -90 121t-28 125q0 135 99 217t262 82q161 0 259.5 -80t98.5 -210q0 -53 -30.5 -105t-71.5 -88.5t-102 -77.5l116 -111l170 194l197 -149l-187 -216zM458 218q59 0 123 44
l-150 140q-72 -57 -72 -104q0 -36 28 -58t71 -22zM399 804q0 -20 14.5 -40t56.5 -61q51 32 76.5 56.5t25.5 48.5q0 30 -23.5 49t-62.5 19q-41 0 -64 -19.5t-23 -52.5z" />
    <glyph glyph-name="parenleft.sc" horiz-adv-x="696" 
d="M569 1234l81 -244q-290 -134 -290 -449q0 -312 290 -448l-81 -244q-225 72 -364.5 258t-139.5 434q0 249 139.5 434.5t364.5 258.5z" />
    <glyph glyph-name="parenright.sc" horiz-adv-x="696" 
d="M127 -151l-81 244q290 134 290 449q0 312 -290 448l81 244q225 -72 364.5 -258t139.5 -434q0 -249 -139.5 -434.5t-364.5 -258.5z" />
    <glyph glyph-name="asterisk.sc" horiz-adv-x="791" 
d="M127 973l165 -61l-9 170h223l-9 -171l166 62l70 -211l-170 -44l110 -131l-182 -131l-96 144l-97 -144l-180 131l109 131l-169 44z" />
    <glyph glyph-name="slash.sc" horiz-adv-x="954" 
d="M908 1082l-544 -1082h-318l545 1082h317z" />
    <glyph glyph-name="zero.sc" horiz-adv-x="1155" 
d="M578 1101q216 0 358 -152t142 -408q0 -129 -39 -235.5t-106 -177t-158.5 -109.5t-196.5 -39t-196.5 39t-159 109.5t-106.5 177t-39 235.5q0 128 39 234.5t106.5 177t159 109.5t196.5 39zM578 820q-86 0 -140.5 -73t-54.5 -206t54.5 -206t140.5 -73t140 73t54 206t-54 206
t-140 73z" />
    <glyph glyph-name="one.sc" horiz-adv-x="719" 
d="M595 1099v-1099h-295v700l-261 -88v284z" />
    <glyph glyph-name="two.sc" horiz-adv-x="950" 
d="M216 702l-166 204q168 195 428 195q179 0 287 -98.5t108 -265.5q0 -99 -49.5 -177t-140.5 -156l-155 -133h368v-271h-783v230l379 342q76 68 76 139q0 49 -36 78.5t-91 29.5q-64 0 -115.5 -30.5t-109.5 -86.5z" />
    <glyph glyph-name="three.sc" horiz-adv-x="949" 
d="M435 1101q189 0 307.5 -86.5t118.5 -227.5q0 -84 -42 -146.5t-120 -97.5q88 -34 136 -96t48 -144q0 -80 -36.5 -143t-99 -101.5t-141 -58.5t-165.5 -20q-261 0 -402 160l160 190q95 -95 225 -95q68 0 111.5 23t43.5 67q0 47 -49.5 73t-124.5 26h-122v241h125q67 0 109 24
t42 68q0 42 -36 63.5t-99 21.5q-133 0 -225 -96l-158 195q157 160 394 160z" />
    <glyph glyph-name="four.sc" horiz-adv-x="973" 
d="M814 724v-281h128v-272h-128v-171h-293v171h-490v200l342 711h320l-311 -639h139v77l97 204h196z" />
    <glyph glyph-name="five.sc" horiz-adv-x="966" 
d="M825 1082v-269h-424l-3 -129h93q192 0 298.5 -84.5t106.5 -234.5q0 -173 -121.5 -279t-315.5 -106q-123 0 -230 39t-179 99l134 224q46 -36 122 -67t151 -31q135 0 135 102q0 92 -173 92h-282l15 644h673z" />
    <glyph glyph-name="six.sc" horiz-adv-x="986" 
d="M800 1082l-265 -356q95 -1 172 -29.5t126.5 -78t76 -114t26.5 -138.5q0 -167 -127 -276.5t-318 -109.5q-190 0 -317.5 106.5t-127.5 269.5q0 148 117 316l284 410h353zM491 485q-59 0 -97 -34.5t-38 -87.5q0 -54 38 -89t97 -35t97.5 35t38.5 89q0 53 -38.5 87.5
t-97.5 34.5z" />
    <glyph glyph-name="seven.sc" horiz-adv-x="917" 
d="M871 1082v-232l-422 -850h-352l425 810h-476v272h825z" />
    <glyph glyph-name="eight.sc" horiz-adv-x="1040" 
d="M519 1101q118 0 214 -37t154 -109t58 -168q0 -165 -176 -241q205 -74 205 -251q0 -144 -131 -229.5t-324 -85.5t-323.5 85.5t-130.5 229.5q0 177 203 251q-175 74 -175 241q0 96 58 168t154 109t214 37zM519 438q-55 0 -93.5 -28.5t-38.5 -77.5q0 -47 38.5 -74.5
t93.5 -27.5t93.5 27.5t38.5 74.5q0 49 -38.5 77.5t-93.5 28.5zM519 849q-52 0 -84.5 -25t-32.5 -69t33 -70t84 -26t83.5 26t32.5 70q0 45 -32 69.5t-84 24.5z" />
    <glyph glyph-name="nine.sc" horiz-adv-x="985" 
d="M186 0l263 355q-95 1 -171.5 29.5t-125.5 78t-75.5 114t-26.5 138.5q0 168 127 277.5t318 109.5q190 0 317 -106.5t127 -269.5q0 -149 -116 -317l-285 -409h-352zM495 596q58 0 96 35t38 88q0 54 -38 89t-96 35q-59 0 -97.5 -35t-38.5 -89q0 -53 38.5 -88t97.5 -35z" />
    <glyph glyph-name="question.sc" horiz-adv-x="773" 
d="M416 409h-268v280h88q180 0 180 73q0 71 -182 71q-53 0 -114 -7l-18 270q71 12 189 12q201 0 319 -89t118 -226q0 -250 -306 -309zM284 334q72 0 125 -53.5t53 -125.5q0 -73 -53 -127t-125 -54q-73 0 -127 54t-54 127q0 72 54 125.5t127 53.5z" />
    <glyph glyph-name="at.sc" horiz-adv-x="1479" 
d="M1032 822v-336q0 -84 56 -84q88 0 88 177q0 175 -118.5 289.5t-306.5 114.5q-196 0 -318 -124t-122 -321q0 -198 118.5 -321.5t307.5 -123.5q69 0 123 14.5t113 52.5l119 -171q-138 -101 -346 -101q-147 0 -272 49t-212 135t-135.5 206.5t-48.5 259.5q0 185 85.5 333
t239.5 232t348 84q142 0 264 -47t206.5 -128t132 -193t47.5 -239q0 -164 -89.5 -266.5t-233.5 -102.5q-153 0 -220 100q-56 -75 -165 -75q-121 0 -190 86.5t-69 215.5q0 126 68.5 213.5t177.5 87.5q101 0 149 -79v62h203zM740 633q-37 0 -61.5 -27t-24.5 -70q0 -42 25 -69
t61 -27t60.5 27t24.5 69t-24.5 69.5t-60.5 27.5z" />
    <glyph glyph-name="bracketleft.sc" horiz-adv-x="646" 
d="M600 150v-251h-484v1285h484v-251h-199v-783h199z" />
    <glyph glyph-name="backslash.sc" horiz-adv-x="954" 
d="M590 0l-544 1082h317l545 -1082h-318z" />
    <glyph glyph-name="bracketright.sc" horiz-adv-x="646" 
d="M46 933v251h484v-1285h-484v251h199v783h-199z" />
    <glyph glyph-name="a.sc" horiz-adv-x="1226" 
d="M792 1082l422 -1082h-321l-73 201h-420l-72 -201h-316l422 1082h358zM610 784l-118 -328h237z" />
    <glyph glyph-name="b.sc" horiz-adv-x="1137" 
d="M116 1082h500q217 0 325 -82t108 -230q0 -76 -40.5 -135.5t-108.5 -92.5q75 -28 123.5 -91t48.5 -141q0 -147 -107 -228.5t-321 -81.5h-528v1082zM623 427h-204v-189h203q141 0 141 96q0 93 -140 93zM604 842h-185v-185h184q135 0 135 92q0 93 -134 93z" />
    <glyph glyph-name="c.sc" horiz-adv-x="1195" 
d="M648 1102q163 0 297.5 -74t206.5 -205l-269 -146q-77 135 -240 135q-114 0 -188.5 -76t-74.5 -195q0 -130 77.5 -200.5t185.5 -70.5q159 0 248 134l248 -172q-79 -119 -205 -185.5t-286 -66.5q-256 0 -419.5 157t-163.5 404t163.5 404t419.5 157z" />
    <glyph glyph-name="d.sc" horiz-adv-x="1242" 
d="M116 1082h488q259 0 416 -148.5t157 -392.5t-157 -392.5t-416 -148.5h-488v1082zM597 804h-179v-526h179q130 0 197.5 72t67.5 191q0 120 -67.5 191.5t-197.5 71.5z" />
    <glyph glyph-name="e.sc" horiz-adv-x="1080" 
d="M988 257v-257h-872v1082h871v-257h-568v-152h530v-257h-530v-159h569z" />
    <glyph glyph-name="f.sc" horiz-adv-x="1049" 
d="M940 656v-268h-521v-388h-303v1082h864v-269h-561v-157h521z" />
    <glyph glyph-name="g.sc" horiz-adv-x="1255" 
d="M656 1102q252 0 403 -149l-213 -209q-83 76 -208 76q-116 0 -189.5 -78t-73.5 -201q0 -139 78 -213.5t190 -74.5q201 0 247 150h-257v219h550q7 -49 7 -102q0 -106 -31 -196t-83 -152t-120.5 -106t-144 -64.5t-154.5 -20.5q-260 0 -426 157.5t-166 402.5q0 162 75 290.5
t210 199.5t306 71z" />
    <glyph glyph-name="h.sc" horiz-adv-x="1251" 
d="M419 1082v-397h413v397h303v-1082h-303v408h-413v-408h-303v1082h303z" />
    <glyph glyph-name="i.sc" horiz-adv-x="535" 
d="M419 1082v-1082h-303v1082h303z" />
    <glyph glyph-name="j.sc" horiz-adv-x="909" 
d="M799 1082v-663q0 -217 -113 -328t-309 -111q-116 0 -208.5 33t-146.5 84l147 235q81 -63 179 -63q73 0 110.5 41t37.5 134v638h303z" />
    <glyph glyph-name="k.sc" horiz-adv-x="1181" 
d="M419 1082v-403h92l277 403h368l-402 -528l438 -554h-372l-311 411h-90v-411h-303v1082h303z" />
    <glyph glyph-name="l.sc" horiz-adv-x="979" 
d="M956 278v-278h-840v1082h303v-804h537z" />
    <glyph glyph-name="m.sc" horiz-adv-x="1516" 
d="M1400 1082v-1082h-292v706l-201 -606h-299l-200 606v-706h-292v1082h412l230 -667l230 667h412z" />
    <glyph glyph-name="n.sc" horiz-adv-x="1290" 
d="M1174 1082v-1082h-293l-462 593v-593h-303v1082h293l462 -593v593h303z" />
    <glyph glyph-name="o.sc" horiz-adv-x="1297" 
d="M649 1102q255 0 419 -159t164 -402t-164 -402t-419 -159t-419.5 159t-164.5 402t164.5 402t419.5 159zM649 812q-120 0 -194.5 -75.5t-74.5 -195.5q0 -121 74.5 -196t194.5 -75q119 0 194 75.5t75 195.5t-75 195.5t-194 75.5z" />
    <glyph glyph-name="p.sc" horiz-adv-x="1102" 
d="M617 335h-198v-335h-303v1082h497q208 0 320.5 -103t112.5 -275q0 -168 -112 -268.5t-317 -100.5zM610 811h-191v-213h191q58 0 94 28.5t36 77.5q0 50 -36 78.5t-94 28.5z" />
    <glyph glyph-name="q.sc" horiz-adv-x="1313" 
d="M649 1102q255 0 419 -159t164 -402q0 -158 -86 -284l193 -257h-357l-46 60q-132 -80 -287 -80q-255 0 -419.5 159t-164.5 402t164.5 402t419.5 159zM890 505l21 -29q7 35 7 65q0 120 -75 195.5t-194 75.5q-120 0 -194.5 -75.5t-74.5 -195.5q0 -121 74.5 -196t194.5 -75
q59 0 110 20l-164 216z" />
    <glyph glyph-name="r.sc" horiz-adv-x="1121" 
d="M612 1081q209 0 321 -96.5t112 -263.5q0 -124 -71.5 -208.5t-206.5 -114.5l304 -398h-360l-264 383h-29v-383h-302v1081h496zM607 817h-189v-191h189q63 0 100 24t37 71t-37.5 71.5t-99.5 24.5z" />
    <glyph glyph-name="s.sc" horiz-adv-x="1119" 
d="M1030 984l-126 -240q-155 92 -322 92q-152 0 -152 -73q0 -18 11.5 -30.5t41.5 -22t52.5 -14.5t71.5 -14q25 -5 38 -7l53 -10q173 -33 262.5 -112.5t89.5 -201.5q0 -97 -40.5 -171t-110 -116.5t-151.5 -63t-175 -20.5q-148 0 -279 36t-224 104l140 235q83 -52 168.5 -82.5
t200.5 -30.5q147 0 147 75q0 37 -46.5 53.5t-165.5 34.5l-46 7q-176 27 -267.5 110t-91.5 217q0 161 125.5 261.5t329.5 100.5q240 0 466 -117z" />
    <glyph glyph-name="t.sc" horiz-adv-x="984" 
d="M961 1082v-279h-318v-803h-303v803h-317v279h938z" />
    <glyph glyph-name="u.sc" horiz-adv-x="1181" 
d="M1077 1082v-631q0 -225 -124.5 -348t-362.5 -123q-237 0 -361.5 123t-124.5 348v631h304v-623q0 -90 47.5 -140t134.5 -50q88 0 135.5 50t47.5 140v623h304z" />
    <glyph glyph-name="v.sc" horiz-adv-x="1194" 
d="M1182 1082l-407 -1082h-357l-406 1082h321l266 -773l266 773h317z" />
    <glyph glyph-name="w.sc" horiz-adv-x="1767" 
d="M1748 1082l-322 -1082h-350l-193 643l-194 -643h-349l-321 1082h305l196 -736l207 736h316l208 -736l196 736h301z" />
    <glyph glyph-name="x.sc" horiz-adv-x="1113" 
d="M1093 1082l-352 -532l352 -550h-343l-195 325l-195 -325h-340l351 549l-351 533h343l195 -316l195 316h340z" />
    <glyph glyph-name="y.sc" horiz-adv-x="1143" 
d="M1139 1082l-412 -682v-400h-303v398l-420 684h347l226 -405l224 405h338z" />
    <glyph glyph-name="z.sc" horiz-adv-x="1064" 
d="M995 1082v-238l-524 -576h524v-268h-925v237l523 576h-523v269h925z" />
    <glyph glyph-name="braceleft.sc" horiz-adv-x="745" 
d="M699 943h-78q-48 0 -74 -28t-24 -81l2 -49q5 -96 -31.5 -155t-141.5 -88q105 -30 141.5 -89t31.5 -155l-2 -50q-2 -52 24 -80t74 -28h78v-241h-126q-169 0 -255 93.5t-79 257.5l3 59q2 56 -41.5 86t-124.5 30v233q81 0 124.5 30t41.5 86l-3 58q-7 164 79 258t255 94h126
v-241z" />
    <glyph glyph-name="braceright.sc" horiz-adv-x="745" 
d="M124 943h-78v241h126q169 0 255 -94t79 -258l-3 -58q-2 -56 41.5 -86t124.5 -30v-233q-81 0 -124.5 -30t-41.5 -86l3 -59q7 -164 -79 -257.5t-255 -93.5h-126v241h78q48 0 74 28t24 80l-2 50q-5 96 31.5 155t141.5 89q-105 29 -141.5 88t-31.5 155l2 49q2 53 -24 81
t-74 28z" />
    <glyph glyph-name="exclamdown.sc" horiz-adv-x="580" 
d="M124 0l32 659h268l32 -659h-332zM289 748q-72 0 -125 53.5t-53 125.5q0 73 53 127t125 54q73 0 127 -54t54 -127q0 -72 -54 -125.5t-127 -53.5z" />
    <glyph glyph-name="cent.sc" horiz-adv-x="1200" 
d="M223 541q0 147 84.5 252t227.5 138v151h220v-149q154 -37 249 -174l-224 -144q-52 73 -133 73q-59 0 -100.5 -39.5t-41.5 -107.5q0 -70 40 -108.5t99 -38.5q85 0 136 73l225 -146q-95 -138 -250 -173v-148h-220v150q-142 32 -227 137.5t-85 253.5z" />
    <glyph glyph-name="sterling.sc" horiz-adv-x="1200" 
d="M1026 271v-271h-865v271h119v162h-119v215h119v22q0 106 36.5 189.5t100.5 135.5t146 79t177 27q208 0 327 -115l-195 -209q-51 42 -132 42q-72 0 -118.5 -37t-46.5 -112v-22h360v-215h-360v-162h451z" />
    <glyph glyph-name="currency.sc" horiz-adv-x="1200" 
d="M111 866l153 153l133 -131q96 53 204 53t201 -52l132 130l155 -153l-132 -130q53 -90 53 -195q0 -107 -53 -197l132 -129l-154 -152l-132 129q-95 -52 -202 -52q-110 0 -204 53l-132 -130l-154 152l131 130q-51 90 -51 196t51 194zM601 358q80 0 136 53t56 130
q0 76 -56 129t-136 53q-81 0 -136.5 -53t-55.5 -129q0 -77 55 -130t137 -53z" />
    <glyph glyph-name="yen.sc" horiz-adv-x="1200" 
d="M1028 352v-162h-275v-190h-295v190h-275v162h275v70h-275v162h209l-339 498h336l217 -331l215 331h326l-332 -498h213v-162h-275v-70h275z" />
    <glyph glyph-name="section.sc" horiz-adv-x="1046" 
d="M947 1008l-111 -220q-156 72 -286 72q-68 0 -110 -15t-42 -45q0 -17 12 -29.5t44.5 -21.5t53 -12.5t72.5 -11.5q22 -3 33 -5l39 -6q157 -24 241 -90t84 -163q0 -134 -99 -214q83 -69 83 -174q0 -73 -25 -131.5t-67 -97.5t-99.5 -65t-120 -37.5t-131.5 -11.5
q-277 0 -448 108l126 219q51 -26 88.5 -42.5t103 -31.5t133.5 -15q152 0 152 64q0 8 -2 15t-8 12.5t-12 9.5t-17.5 7.5t-21.5 6t-27.5 5.5t-31 5t-37.5 5.5t-41 6.5l-44 7q-334 53 -334 274q0 119 101 194q-87 69 -87 193q0 144 117.5 234t307.5 90q130 0 221 -21.5
t190 -67.5zM490 485l-49 6q-58 -20 -58 -65q0 -12 5.5 -22t18 -17t25 -11.5t35.5 -8.5t38.5 -6.5t45.5 -6.5t46 -6l48 -7q44 21 44 64q0 40 -55 56q-33 11 -144 24z" />
    <glyph glyph-name="copyright.sc" horiz-adv-x="1434" 
d="M717 1168q130 0 248.5 -49t204 -132t136 -197.5t50.5 -240.5t-50.5 -240.5t-136 -197.5t-204 -132.5t-248.5 -49.5t-248.5 49.5t-204 132.5t-136 197.5t-50.5 240.5t50.5 240.5t136 197.5t204 132t248.5 49zM717 950q-169 0 -288 -117.5t-119 -283.5q0 -167 119 -284.5
t288 -117.5q168 0 287.5 118t119.5 284t-119.5 283.5t-287.5 117.5zM1011 678l-173 -81q-33 74 -113 74q-50 0 -82 -33.5t-32 -88.5q0 -62 34.5 -91.5t79.5 -29.5q77 0 118 74l160 -102q-42 -70 -112 -110t-162 -40q-139 0 -226.5 83t-87.5 216t87 216t227 83
q94 0 170.5 -45t111.5 -125z" />
    <glyph glyph-name="ordfeminine.sc" horiz-adv-x="960" 
d="M616 1082l312 -828h-245l-54 155h-303l-53 -155h-241l312 828h272zM477 849l-80 -235h161z" />
    <glyph glyph-name="degree.sc" horiz-adv-x="723" 
d="M362 455q-138 0 -237 94.5t-99 227.5q0 137 99 234.5t237 97.5t236.5 -97.5t98.5 -234.5q0 -133 -98.5 -227.5t-236.5 -94.5zM362 667q48 0 82 33.5t34 81.5q0 46 -34.5 79.5t-81.5 33.5q-48 0 -82 -33t-34 -80q0 -48 34 -81.5t82 -33.5z" />
    <glyph glyph-name="ordmasculine.sc" horiz-adv-x="1002" 
d="M501 1098q191 0 314.5 -122t123.5 -308t-123.5 -307.5t-314.5 -121.5t-314.5 121.5t-123.5 307.5t123.5 308t314.5 122zM501 876q-88 0 -143 -58t-55 -150t55 -150t143 -58t142.5 58t54.5 150t-54.5 150t-142.5 58z" />
    <glyph glyph-name="questiondown.sc" horiz-adv-x="773" 
d="M357 674h268v-280h-88q-180 0 -180 -73q0 -71 182 -71q53 0 114 7l18 -270q-71 -12 -189 -12q-201 0 -319 89t-118 226q0 250 306 309zM489 749q-72 0 -125 53.5t-53 125.5q0 73 53 127t125 54q73 0 127 -54t54 -127q0 -72 -54 -125.5t-127 -53.5z" />
    <glyph glyph-name="germandbls.sc" horiz-adv-x="2196" 
d="M1030 984l-126 -240q-155 92 -322 92q-152 0 -152 -73q0 -18 11.5 -30.5t41.5 -22t52.5 -14.5t71.5 -14q25 -5 38 -7l53 -10q173 -33 262.5 -112.5t89.5 -201.5q0 -97 -40.5 -171t-110 -116.5t-151.5 -63t-175 -20.5q-148 0 -279 36t-224 104l140 235q83 -52 168.5 -82.5
t200.5 -30.5q147 0 147 75q0 37 -46.5 53.5t-165.5 34.5l-46 7q-176 27 -267.5 110t-91.5 217q0 161 125.5 261.5t329.5 100.5q240 0 466 -117zM2107 984l-126 -240q-155 92 -322 92q-152 0 -152 -73q0 -18 11.5 -30.5t41.5 -22t52.5 -14.5t71.5 -14q25 -5 38 -7l53 -10
q173 -33 262.5 -112.5t89.5 -201.5q0 -97 -40.5 -171t-110 -116.5t-151.5 -63t-175 -20.5q-148 0 -279 36t-224 104l140 235q83 -52 168.5 -82.5t200.5 -30.5q147 0 147 75q0 37 -46.5 53.5t-165.5 34.5l-46 7q-176 27 -267.5 110t-91.5 217q0 161 125.5 261.5t329.5 100.5
q240 0 466 -117z" />
    <glyph glyph-name="agrave.sc" horiz-adv-x="1226" 
d="M792 1082l422 -1082h-321l-73 201h-420l-72 -201h-316l422 1082h358zM610 784l-118 -328h237zM523 1206l-278 332h359l212 -332h-293z" />
    <glyph glyph-name="aacute.sc" horiz-adv-x="1226" 
d="M792 1082l422 -1082h-321l-73 201h-420l-72 -201h-316l422 1082h358zM610 784l-118 -328h237zM709 1206h-293l212 332h359z" />
    <glyph glyph-name="acircumflex.sc" horiz-adv-x="1226" 
d="M792 1082l422 -1082h-321l-73 201h-420l-72 -201h-316l422 1082h358zM610 784l-118 -328h237zM1010 1196h-284l-113 144l-114 -144h-284l225 332h344z" />
    <glyph glyph-name="atilde.sc" horiz-adv-x="1226" 
d="M792 1082l422 -1082h-321l-73 201h-420l-72 -201h-316l422 1082h358zM610 784l-118 -328h237zM365 1210l-171 166q107 152 287 152q62 0 113 -18t85.5 -36t55.5 -18q49 0 115 68l171 -165q-106 -152 -287 -152q-61 0 -112 18t-86 36t-56 18q-49 0 -115 -69z" />
    <glyph glyph-name="adieresis.sc" horiz-adv-x="1226" 
d="M792 1082l422 -1082h-321l-73 201h-420l-72 -201h-316l422 1082h358zM610 784l-118 -328h237zM378 1553q80 0 134 -54t54 -133t-54 -133t-134 -54q-79 0 -132.5 54t-53.5 133t53.5 133t132.5 54zM842 1553q79 0 133 -54t54 -133t-54 -133t-133 -54q-80 0 -133.5 53.5
t-53.5 133.5t53.5 133.5t133.5 53.5z" />
    <glyph glyph-name="aring.sc" horiz-adv-x="1226" 
d="M792 1082l422 -1082h-321l-73 201h-420l-72 -201h-316l422 1082h358zM610 784l-118 -328h237zM612 1169q-114 0 -194.5 79.5t-80.5 192.5q0 112 81 191.5t194 79.5q115 0 196 -79.5t81 -191.5q0 -113 -81 -192.5t-196 -79.5zM612 1335q42 0 72.5 30.5t30.5 75.5
q0 43 -30.5 73.5t-72.5 30.5q-41 0 -71.5 -30.5t-30.5 -73.5q0 -44 30.5 -75t71.5 -31z" />
    <glyph glyph-name="ae.sc" horiz-adv-x="1838" 
d="M1746 257v-257h-872v185h-394l-120 -185h-350l733 1082h1002v-257h-568v-152h530v-257h-530v-159h569zM642 434h232v356z" />
    <glyph glyph-name="ccedilla.sc" horiz-adv-x="1195" 
d="M648 1102q163 0 297.5 -74t206.5 -205l-269 -146q-77 135 -240 135q-114 0 -188.5 -76t-74.5 -195q0 -130 77.5 -200.5t185.5 -70.5q159 0 248 134l248 -172q-135 -204 -381 -243l-97 -310h-287l108 321q-190 47 -303.5 192t-113.5 349q0 247 163.5 404t419.5 157z" />
    <glyph glyph-name="egrave.sc" horiz-adv-x="1080" 
d="M988 257v-257h-872v1082h871v-257h-568v-152h530v-257h-530v-159h569zM460 1204l-278 332h359l212 -332h-293z" />
    <glyph glyph-name="eacute.sc" horiz-adv-x="1080" 
d="M988 257v-257h-872v1082h871v-257h-568v-152h530v-257h-530v-159h569zM646 1204h-293l212 332h359z" />
    <glyph glyph-name="ecircumflex.sc" horiz-adv-x="1080" 
d="M988 257v-257h-872v1082h871v-257h-568v-152h530v-257h-530v-159h569zM947 1194h-284l-113 144l-114 -144h-284l225 332h344z" />
    <glyph glyph-name="edieresis.sc" horiz-adv-x="1080" 
d="M988 257v-257h-872v1082h871v-257h-568v-152h530v-257h-530v-159h569zM315 1551q80 0 134 -54t54 -133t-54 -133t-134 -54q-79 0 -132.5 54t-53.5 133t53.5 133t132.5 54zM779 1551q79 0 133 -54t54 -133t-54 -133t-133 -54t-133 53.5t-54 133.5t54 133.5t133 53.5z" />
    <glyph glyph-name="igrave.sc" horiz-adv-x="535" 
d="M419 1082v-1082h-303v1082h303zM178 1206l-278 332h359l212 -332h-293z" />
    <glyph glyph-name="iacute.sc" horiz-adv-x="535" 
d="M419 1082v-1082h-303v1082h303zM364 1206h-293l212 332h359z" />
    <glyph glyph-name="icircumflex.sc" horiz-adv-x="535" 
d="M419 1082v-1082h-303v1082h303zM665 1196h-284l-113 144l-114 -144h-284l225 332h344z" />
    <glyph glyph-name="idieresis.sc" horiz-adv-x="535" 
d="M419 1082v-1082h-303v1082h303zM33 1553q80 0 134 -54t54 -133t-54 -133t-134 -54q-79 0 -132.5 54t-53.5 133t53.5 133t132.5 54zM497 1553q79 0 133 -54t54 -133t-54 -133t-133 -54t-133 53.5t-54 133.5t54 133.5t133 53.5z" />
    <glyph glyph-name="eth.sc" horiz-adv-x="1348" 
d="M222 1082h488q259 0 416 -148.5t157 -392.5t-157 -392.5t-416 -148.5h-488v419h-152v246h152v417zM751 665v-246h-227v-141h179q130 0 197.5 72t67.5 191q0 120 -67.5 191.5t-197.5 71.5h-179v-139h227z" />
    <glyph glyph-name="ntilde.sc" horiz-adv-x="1290" 
d="M1174 1082v-1082h-293l-462 593v-593h-303v1082h293l462 -593v593h303zM389 1210l-171 166q107 152 287 152q62 0 113 -18t85.5 -36t55.5 -18q49 0 115 68l171 -165q-106 -152 -287 -152q-61 0 -112 18t-86 36t-56 18q-49 0 -115 -69z" />
    <glyph glyph-name="ograve.sc" horiz-adv-x="1297" 
d="M649 1102q255 0 419 -159t164 -402t-164 -402t-419 -159t-419.5 159t-164.5 402t164.5 402t419.5 159zM649 812q-120 0 -194.5 -75.5t-74.5 -195.5q0 -121 74.5 -196t194.5 -75q119 0 194 75.5t75 195.5t-75 195.5t-194 75.5zM559 1206l-278 332h359l212 -332h-293z" />
    <glyph glyph-name="oacute.sc" horiz-adv-x="1297" 
d="M649 1102q255 0 419 -159t164 -402t-164 -402t-419 -159t-419.5 159t-164.5 402t164.5 402t419.5 159zM649 812q-120 0 -194.5 -75.5t-74.5 -195.5q0 -121 74.5 -196t194.5 -75q119 0 194 75.5t75 195.5t-75 195.5t-194 75.5zM745 1206h-293l212 332h359z" />
    <glyph glyph-name="ocircumflex.sc" horiz-adv-x="1297" 
d="M649 1102q255 0 419 -159t164 -402t-164 -402t-419 -159t-419.5 159t-164.5 402t164.5 402t419.5 159zM649 812q-120 0 -194.5 -75.5t-74.5 -195.5q0 -121 74.5 -196t194.5 -75q119 0 194 75.5t75 195.5t-75 195.5t-194 75.5zM1046 1196h-284l-113 144l-114 -144h-284
l225 332h344z" />
    <glyph glyph-name="otilde.sc" horiz-adv-x="1297" 
d="M649 1102q255 0 419 -159t164 -402t-164 -402t-419 -159t-419.5 159t-164.5 402t164.5 402t419.5 159zM649 812q-120 0 -194.5 -75.5t-74.5 -195.5q0 -121 74.5 -196t194.5 -75q119 0 194 75.5t75 195.5t-75 195.5t-194 75.5zM401 1210l-171 166q107 152 287 152
q62 0 113 -18t85.5 -36t55.5 -18q49 0 115 68l171 -165q-106 -152 -287 -152q-61 0 -112 18t-86 36t-56 18q-49 0 -115 -69z" />
    <glyph glyph-name="odieresis.sc" horiz-adv-x="1297" 
d="M649 1102q255 0 419 -159t164 -402t-164 -402t-419 -159t-419.5 159t-164.5 402t164.5 402t419.5 159zM649 812q-120 0 -194.5 -75.5t-74.5 -195.5q0 -121 74.5 -196t194.5 -75q119 0 194 75.5t75 195.5t-75 195.5t-194 75.5zM414 1553q80 0 134 -54t54 -133t-54 -133
t-134 -54q-79 0 -132.5 54t-53.5 133t53.5 133t132.5 54zM878 1553q79 0 133 -54t54 -133t-54 -133t-133 -54q-80 0 -133.5 53.5t-53.5 133.5t53.5 133.5t133.5 53.5z" />
    <glyph glyph-name="oslash.sc" horiz-adv-x="1297" 
d="M649 1102q171 0 309 -77l91 91l174 -171l-85 -85q94 -139 94 -319q0 -243 -164 -402t-419 -159q-174 0 -313 78l-92 -92l-174 171l87 87q-92 139 -92 317q0 243 164.5 402t419.5 159zM918 541q0 47 -12 87l-346 -346q40 -12 89 -12q119 0 194 75.5t75 195.5zM649 812
q-120 0 -194.5 -75.5t-74.5 -195.5q0 -47 10 -84l343 343q-39 12 -84 12z" />
    <glyph glyph-name="ugrave.sc" horiz-adv-x="1181" 
d="M1077 1082v-631q0 -225 -124.5 -348t-362.5 -123q-237 0 -361.5 123t-124.5 348v631h304v-623q0 -90 47.5 -140t134.5 -50q88 0 135.5 50t47.5 140v623h304zM501 1206l-278 332h359l212 -332h-293z" />
    <glyph glyph-name="uacute.sc" horiz-adv-x="1181" 
d="M1077 1082v-631q0 -225 -124.5 -348t-362.5 -123q-237 0 -361.5 123t-124.5 348v631h304v-623q0 -90 47.5 -140t134.5 -50q88 0 135.5 50t47.5 140v623h304zM687 1206h-293l212 332h359z" />
    <glyph glyph-name="ucircumflex.sc" horiz-adv-x="1181" 
d="M1077 1082v-631q0 -225 -124.5 -348t-362.5 -123q-237 0 -361.5 123t-124.5 348v631h304v-623q0 -90 47.5 -140t134.5 -50q88 0 135.5 50t47.5 140v623h304zM988 1196h-284l-113 144l-114 -144h-284l225 332h344z" />
    <glyph glyph-name="udieresis.sc" horiz-adv-x="1181" 
d="M1077 1082v-631q0 -225 -124.5 -348t-362.5 -123q-237 0 -361.5 123t-124.5 348v631h304v-623q0 -90 47.5 -140t134.5 -50q88 0 135.5 50t47.5 140v623h304zM356 1553q80 0 134 -54t54 -133t-54 -133t-134 -54q-79 0 -132.5 54t-53.5 133t53.5 133t132.5 54zM820 1553
q79 0 133 -54t54 -133t-54 -133t-133 -54q-80 0 -133.5 53.5t-53.5 133.5t53.5 133.5t133.5 53.5z" />
    <glyph glyph-name="yacute.sc" horiz-adv-x="1143" 
d="M1139 1082l-412 -682v-400h-303v398l-420 684h347l226 -405l224 405h338zM672 1206h-293l212 332h359z" />
    <glyph glyph-name="thorn.sc" horiz-adv-x="1110" 
d="M429 1082v-150h189q209 0 322.5 -104t113.5 -277q0 -170 -112.5 -272t-318.5 -102h-194v-177h-313v1082h313zM616 653h-187v-203h187q53 0 87.5 27t34.5 74q0 46 -35 74t-87 28z" />
    <glyph glyph-name="ydieresis.sc" horiz-adv-x="1143" 
d="M1139 1082l-412 -682v-400h-303v398l-420 684h347l226 -405l224 405h338zM341 1553q80 0 134 -54t54 -133t-54 -133t-134 -54q-79 0 -132.5 54t-53.5 133t53.5 133t132.5 54zM805 1553q79 0 133 -54t54 -133t-54 -133t-133 -54t-133 53.5t-54 133.5t54 133.5t133 53.5z
" />
    <glyph glyph-name="dotlessi.sc" horiz-adv-x="535" 
d="M419 1082v-1082h-303v1082h303z" />
    <glyph glyph-name="ij.sc" horiz-adv-x="1444" 
d="M419 1082v-1082h-303v1082h303zM1334 1082v-663q0 -217 -113 -328t-309 -111q-116 0 -208.5 33t-146.5 84l147 235q81 -63 179 -63q73 0 110.5 41t37.5 134v638h303z" />
    <glyph glyph-name="lslash.sc" horiz-adv-x="1072" 
d="M1049 278v-278h-840v301l-139 -75v289l139 75v492h303v-328l271 147v-289l-271 -147v-187h537z" />
    <glyph glyph-name="oe.sc" horiz-adv-x="1791" 
d="M1699 257v-257h-1056q-261 0 -419.5 148.5t-158.5 392.5t158.5 392.5t419.5 148.5h1055v-257h-568v-152h530v-257h-530v-159h569zM391 541q0 -116 66.5 -185.5t194.5 -69.5h175v509h-175q-128 0 -194.5 -70t-66.5 -184z" />
    <glyph glyph-name="scaron.sc" horiz-adv-x="1119" 
d="M1030 984l-126 -240q-155 92 -322 92q-152 0 -152 -73q0 -18 11.5 -30.5t41.5 -22t52.5 -14.5t71.5 -14q25 -5 38 -7l53 -10q173 -33 262.5 -112.5t89.5 -201.5q0 -97 -40.5 -171t-110 -116.5t-151.5 -63t-175 -20.5q-148 0 -279 36t-224 104l140 235q83 -52 168.5 -82.5
t200.5 -30.5q147 0 147 75q0 37 -46.5 53.5t-165.5 34.5l-46 7q-176 27 -267.5 110t-91.5 217q0 161 125.5 261.5t329.5 100.5q240 0 466 -117zM176 1526h284l114 -144l113 144h284l-226 -332h-344z" />
    <glyph glyph-name="zcaron.sc" horiz-adv-x="1064" 
d="M995 1082v-238l-524 -576h524v-268h-925v237l523 576h-523v269h925zM130 1528h284l114 -144l113 144h284l-226 -332h-344z" />
    <glyph glyph-name="longs.sc" horiz-adv-x="1119" 
d="M1030 984l-126 -240q-155 92 -322 92q-152 0 -152 -73q0 -18 11.5 -30.5t41.5 -22t52.5 -14.5t71.5 -14q25 -5 38 -7l53 -10q173 -33 262.5 -112.5t89.5 -201.5q0 -97 -40.5 -171t-110 -116.5t-151.5 -63t-175 -20.5q-148 0 -279 36t-224 104l140 235q83 -52 168.5 -82.5
t200.5 -30.5q147 0 147 75q0 37 -46.5 53.5t-165.5 34.5l-46 7q-176 27 -267.5 110t-91.5 217q0 161 125.5 261.5t329.5 100.5q240 0 466 -117z" />
    <glyph glyph-name="florin.sc" horiz-adv-x="1200" 
d="M917 668v-216h-186l-16 -161q-32 -311 -309 -311q-150 0 -260 80l124 197q54 -21 96 -21q37 0 53 20t21 68l12 128h-168v216h188l13 132q30 301 309 301q155 0 260 -80l-125 -197q-51 21 -95 21q-36 0 -51.5 -19.5t-20.5 -67.5l-9 -90h164z" />
    <glyph glyph-name="uni02BB.sc" horiz-adv-x="475" 
d="M357 503h-304l143 579h231z" />
    <glyph glyph-name="afii57929.sc" horiz-adv-x="475" 
d="M118 1082h304l-143 -579h-231z" />
    <glyph glyph-name="gravecomb.sc" 
d="M-738 1206l-278 332h359l212 -332h-293z" />
    <glyph glyph-name="acutecomb.sc" 
d="M-552 1206h-293l212 332h359z" />
    <glyph glyph-name="uni0302.sc" 
d="M-251 1196h-284l-113 144l-114 -144h-284l225 332h344z" />
    <glyph glyph-name="tildecomb.sc" 
d="M-896 1210l-171 166q107 152 287 152q62 0 113 -18t85.5 -36t55.5 -18q49 0 115 68l171 -165q-106 -152 -287 -152q-61 0 -112 18t-86 36t-56 18q-49 0 -115 -69z" />
    <glyph glyph-name="uni0304.sc" 
d="M-1000 1237v250h704v-250h-704z" />
    <glyph glyph-name="uni0306.sc" 
d="M-1045 1514l231 66q43 -154 166 -154t166 154l231 -66q-38 -158 -141.5 -244.5t-255.5 -86.5t-255 86.5t-142 244.5z" />
    <glyph glyph-name="uni0307.sc" 
d="M-648 1560q79 0 133 -54.5t54 -133.5t-54 -132.5t-133 -53.5t-133 53.5t-54 132.5q0 80 54 134t133 54z" />
    <glyph glyph-name="uni0308.sc" 
d="M-883 1553q80 0 134 -54t54 -133t-54 -133t-134 -54q-79 0 -132.5 54t-53.5 133t53.5 133t132.5 54zM-419 1553q79 0 133 -54t54 -133t-54 -133t-133 -54t-133 53.5t-54 133.5t54 133.5t133 53.5z" />
    <glyph glyph-name="uni030A.sc" 
d="M-649 1169q-114 0 -194.5 79.5t-80.5 192.5q0 112 81 191.5t194 79.5q115 0 196 -79.5t81 -191.5q0 -113 -81 -192.5t-196 -79.5zM-649 1335q42 0 72.5 30.5t30.5 75.5q0 43 -30.5 73.5t-72.5 30.5q-41 0 -71.5 -30.5t-30.5 -73.5q0 -44 30.5 -75t71.5 -31z" />
    <glyph glyph-name="uni030B.sc" 
d="M-298 1206h-300l235 332h324zM-712 1206h-291l208 332h319z" />
    <glyph glyph-name="uni030C.sc" 
d="M-1046 1528h284l114 -144l113 144h284l-226 -332h-344z" />
    <glyph glyph-name="dotbelowcomb.sc" 
d="M-649 -82q79 0 133 -54.5t54 -133.5t-54 -132.5t-133 -53.5t-133 53.5t-54 132.5q0 80 54 134t133 54z" />
    <glyph glyph-name="uni0326.sc" 
d="M-785 -80h301l-102 -412h-248z" />
    <glyph glyph-name="uni0327.sc" 
d="M-454 7l-103 -328h-287l111 328h279z" />
    <glyph glyph-name="uni0328.sc" 
d="M-527 -153l144 -171q-45 -41 -116 -68.5t-154 -27.5q-112 0 -186.5 54.5t-74.5 148.5q0 53 25 100t70 83.5t87 62t96 50.5l95 -73q-118 -60 -118 -137q0 -52 59 -52q34 0 73 30z" />
    <glyph glyph-name="uni032E.sc" 
d="M-1046 -133l231 65q44 -154 166 -154t166 154l231 -65q-38 -158 -141.5 -244.5t-255.5 -86.5t-255 86.5t-142 244.5z" />
    <glyph glyph-name="uni0331.sc" 
d="M-1001 -384v250h704v-250h-704z" />
    <glyph glyph-name="uni0335.sc" 
d="M-307 644v-246h-681v246h681z" />
    <glyph glyph-name="uni0336.sc" 
d="M-24 506v-219h-1247v219h1247z" />
    <glyph glyph-name="uni1E9E.sc" horiz-adv-x="1194" 
d="M578 403v224l135 177q-48 28 -121 28q-85 0 -129.5 -41t-44.5 -113v-678h-314v676q0 64 15 122.5t51 115t91 97.5t142 66t196 25q307 0 488 -215l-215 -272q123 -34 190 -110.5t67 -182.5q0 -159 -119.5 -250.5t-331.5 -91.5q-115 0 -179 14l34 262q53 -9 105 -9
q170 0 170 79q0 77 -177 77h-53z" />
    <glyph glyph-name="quoteleft.sc" horiz-adv-x="475" 
d="M357 503h-304l143 579h231z" />
    <glyph glyph-name="quoteright.sc" horiz-adv-x="475" 
d="M118 1082h304l-143 -579h-231z" />
    <glyph glyph-name="quotesinglbase.sc" horiz-adv-x="475" 
d="M118 373h304l-143 -579h-231z" />
    <glyph glyph-name="quotedblleft.sc" horiz-adv-x="875" 
d="M757 503h-304l143 579h231zM357 503h-304l143 579h231z" />
    <glyph glyph-name="quotedblright.sc" horiz-adv-x="874" 
d="M517 1082h304l-143 -579h-231zM118 1082h304l-143 -579h-231z" />
    <glyph glyph-name="quotedblbase.sc" horiz-adv-x="874" 
d="M517 373h304l-143 -579h-231zM118 373h304l-143 -579h-231z" />
    <glyph glyph-name="dagger.sc" horiz-adv-x="650" 
d="M431 418h-213v295h-160v205h160v164h213v-164h161v-205h-161v-295z" />
    <glyph glyph-name="daggerdbl.sc" horiz-adv-x="650" 
d="M424 418h-198v114h-168v168h168v101h-168v167h168v114h198v-114h168v-167h-168v-101h168v-168h-168v-114z" />
    <glyph glyph-name="perthousand.sc" horiz-adv-x="2299" 
d="M367 1101q137 0 226.5 -85.5t89.5 -215.5t-90 -215.5t-226 -85.5t-225.5 85.5t-89.5 215.5t89.5 215.5t225.5 85.5zM367 901q-43 0 -72 -29.5t-29 -71.5t29 -71.5t72 -29.5q44 0 72.5 29t28.5 72t-28.5 72t-72.5 29zM1353 1082l-832 -1082h-272l832 1082h272zM1242 582
q137 0 226.5 -85.5t89.5 -215.5t-90 -215.5t-226 -85.5q-135 0 -225 85.5t-90 215.5q0 127 90.5 214t224.5 87zM1242 382q-43 0 -72 -29.5t-29 -71.5t29 -71.5t72 -29.5q44 0 73 29t29 72t-29 72t-73 29zM1931 582q136 0 226 -85.5t90 -215.5t-90 -215.5t-226 -85.5
q-135 0 -225.5 86t-90.5 215q0 127 90.5 214t225.5 87zM1931 382q-44 0 -72.5 -29.5t-28.5 -71.5q0 -43 28.5 -72t72.5 -29t72.5 29t28.5 72t-28.5 72t-72.5 29z" />
    <glyph glyph-name="minute.sc" horiz-adv-x="491" 
d="M171 1082h267l-122 -563h-268z" />
    <glyph glyph-name="second.sc" horiz-adv-x="850" 
d="M530 1082h267l-122 -563h-268zM171 1082h267l-122 -563h-268z" />
    <glyph glyph-name="uni2034.sc" horiz-adv-x="1177" 
d="M514 1082h267l-122 -563h-268zM857 1082h267l-122 -563h-268zM171 1082h267l-122 -563h-268z" />
    <glyph glyph-name="uni2071.sc" horiz-adv-x="402" 
d="M316 1082v-828h-231v828h231z" />
    <glyph glyph-name="uni207F.sc" horiz-adv-x="959" 
d="M874 1082v-828h-225l-333 456v-456h-231v828h226l332 -456v456h231z" />
    <glyph glyph-name="Euro.sc" horiz-adv-x="1200" 
d="M879 506v-163h-323q76 -103 206 -103q118 0 202 64l134 -227q-141 -97 -332 -97q-197 0 -337.5 95.5t-193.5 267.5h-128v163h101q-1 11 -1 35q0 23 1 35h-101v162h128q53 172 193.5 267.5t337.5 95.5q195 0 334 -100l-138 -225q-82 65 -201 65q-129 0 -206 -103h324v-162
h-382q-1 -12 -1 -35q0 -24 1 -35h382z" />
    <glyph glyph-name="uni20BA.sc" horiz-adv-x="1200" 
d="M832 709v-172l-269 -117v-145h90q138 0 225 132l223 -143q-67 -119 -182 -191.5t-283 -72.5h-368v293l-109 -47v170l109 47v69l-109 -47v171l109 47v383h295v-256l269 117v-170l-269 -117v-68z" />
    <glyph glyph-name="afii61352.sc" horiz-adv-x="2138" 
d="M2056 268v-244h-726v244h726zM1693 1102q165 0 273.5 -106t108.5 -266q0 -159 -108.5 -265t-273.5 -106q-164 0 -272.5 106t-108.5 265q0 160 108.5 266t272.5 106zM1693 889q-65 0 -107.5 -45t-42.5 -114t42.5 -113.5t107.5 -44.5t108 44.5t43 113.5q0 70 -43 114.5
t-108 44.5zM1174 1082v-1082h-293l-462 593v-593h-303v1082h293l462 -593v593h303z" />
    <glyph glyph-name="uni2117.sc" horiz-adv-x="1434" 
d="M717 1168q130 0 248.5 -49t204 -132t136 -197.5t50.5 -240.5t-50.5 -240.5t-136 -197.5t-204 -132.5t-248.5 -49.5t-248.5 49.5t-204 132.5t-136 197.5t-50.5 240.5t50.5 240.5t136 197.5t204 132t248.5 49zM717 950q-169 0 -288 -117.5t-119 -283.5q0 -167 119 -284.5
t288 -117.5q168 0 288 118t120 284t-120 283.5t-288 117.5zM764 840q125 0 192.5 -57t67.5 -152q0 -91 -66.5 -147t-189.5 -56h-80v-171h-192v583h268zM766 681h-78v-99h78q30 0 46.5 13.5t16.5 35.5t-16.5 36t-46.5 14z" />
    <glyph glyph-name="uni2E38.sc" horiz-adv-x="650" 
d="M219 1082h213v-295h160v-205h-160v-164h-213v164h-161v205h161v295z" />
    <glyph glyph-name="uniFB00.sc" horiz-adv-x="2098" 
d="M940 656v-268h-521v-388h-303v1082h864v-269h-561v-157h521zM1989 656v-268h-521v-388h-303v1082h864v-269h-561v-157h521z" />
    <glyph glyph-name="fi.sc" horiz-adv-x="1584" 
d="M940 656v-268h-521v-388h-303v1082h864v-269h-561v-157h521zM1468 1082v-1082h-303v1082h303z" />
    <glyph glyph-name="fl.sc" horiz-adv-x="2028" 
d="M940 656v-268h-521v-388h-303v1082h864v-269h-561v-157h521zM2005 278v-278h-840v1082h303v-804h537z" />
    <glyph glyph-name="uniFB03.sc" horiz-adv-x="2633" 
d="M940 656v-268h-521v-388h-303v1082h864v-269h-561v-157h521zM1989 656v-268h-521v-388h-303v1082h864v-269h-561v-157h521zM2517 1082v-1082h-303v1082h303z" />
    <glyph glyph-name="uniFB04.sc" horiz-adv-x="3077" 
d="M940 656v-268h-521v-388h-303v1082h864v-269h-561v-157h521zM1989 656v-268h-521v-388h-303v1082h864v-269h-561v-157h521zM3054 278v-278h-840v1082h303v-804h537z" />
    <glyph glyph-name="uniFB05.sc" horiz-adv-x="2096" 
d="M2073 1082v-279h-318v-803h-303v803h-317v279h938zM1030 984l-126 -240q-155 92 -322 92q-152 0 -152 -73q0 -18 11.5 -30.5t41.5 -22t52.5 -14.5t71.5 -14q25 -5 38 -7l53 -10q173 -33 262.5 -112.5t89.5 -201.5q0 -97 -40.5 -171t-110 -116.5t-151.5 -63t-175 -20.5
q-148 0 -279 36t-224 104l140 235q83 -52 168.5 -82.5t200.5 -30.5q147 0 147 75q0 37 -46.5 53.5t-165.5 34.5l-46 7q-176 27 -267.5 110t-91.5 217q0 161 125.5 261.5t329.5 100.5q240 0 466 -117z" />
    <glyph glyph-name="uniFB06.sc" horiz-adv-x="2096" 
d="M1030 984l-126 -240q-155 92 -322 92q-152 0 -152 -73q0 -18 11.5 -30.5t41.5 -22t52.5 -14.5t71.5 -14q25 -5 38 -7l53 -10q173 -33 262.5 -112.5t89.5 -201.5q0 -97 -40.5 -171t-110 -116.5t-151.5 -63t-175 -20.5q-148 0 -279 36t-224 104l140 235q83 -52 168.5 -82.5
t200.5 -30.5q147 0 147 75q0 37 -46.5 53.5t-165.5 34.5l-46 7q-176 27 -267.5 110t-91.5 217q0 161 125.5 261.5t329.5 100.5q240 0 466 -117zM2073 1082v-279h-318v-803h-303v803h-317v279h938z" />
    <glyph glyph-name="j.latn_NLD.sc" horiz-adv-x="909" 
d="M799 1082v-663q0 -217 -113 -328t-309 -111q-116 0 -208.5 33t-146.5 84l147 235q81 -63 179 -63q73 0 110.5 41t37.5 134v638h303zM744 1206h-293l212 332h359z" />
    <glyph glyph-name="b.ordn.sc" horiz-adv-x="861" 
d="M85 1082h375q164 0 243 -62.5t79 -176.5q0 -59 -29.5 -103.5t-80.5 -70.5q55 -21 90.5 -70t35.5 -107q0 -113 -78 -175.5t-239 -62.5h-396v828zM468 577h-152v-136h152q93 0 93 67q0 69 -93 69zM455 895h-139v-132h139q87 0 87 66t-87 66z" />
    <glyph glyph-name="d.ordn.sc" horiz-adv-x="946" 
d="M453 1082q194 0 311.5 -113.5t117.5 -300.5t-117.5 -300.5t-311.5 -113.5h-368v828h368zM446 870h-130v-404h130q96 0 146 55.5t50 146.5q0 92 -50 147t-146 55z" />
    <glyph glyph-name="e.ordn.sc" horiz-adv-x="809" 
d="M735 459v-205h-650v828h650v-205h-419v-102h389v-205h-389v-111h419z" />
    <glyph glyph-name="h.ordn.sc" horiz-adv-x="929" 
d="M316 1082v-304h296v304h232v-828h-232v313h-296v-313h-231v828h231z" />
    <glyph glyph-name="l.ordn.sc" horiz-adv-x="752" 
d="M710 467v-213h-625v828h231v-615h394z" />
    <glyph glyph-name="m.ordn.sc" horiz-adv-x="1129" 
d="M1044 1082v-828h-231v506l-125 -429h-247l-125 430v-507h-231v828h319l161 -491l160 491h319z" />
    <glyph glyph-name="r.ordn.sc" horiz-adv-x="848" 
d="M456 1082q156 0 239.5 -75t83.5 -203q0 -96 -54 -161.5t-156 -87.5l222 -301h-272l-194 290h-9v-290h-231v828h371zM453 875h-137v-141h137q42 0 67.5 17.5t25.5 52.5t-25.5 53t-67.5 18z" />
    <glyph glyph-name="s.ordn.sc" horiz-adv-x="856" 
d="M769 1019l-94 -191q-124 63 -233 63q-47 0 -77.5 -13t-30.5 -38q0 -14 8.5 -23t28 -15t35 -9t48.5 -7.5t48 -7.5l30 -5q261 -43 261 -238q0 -78 -31 -137t-84 -92.5t-115.5 -50t-132.5 -16.5q-229 0 -367 92l107 191q45 -24 72.5 -37t81 -26.5t110.5 -13.5q107 0 107 54
q0 28 -29.5 38.5t-118.5 23.5l-34 5q-145 21 -209.5 81.5t-64.5 168.5q0 125 94 203t250 78q109 0 183.5 -18.5t156.5 -59.5z" />
    <glyph glyph-name="t.ordn.sc" horiz-adv-x="780" 
d="M738 1082v-213h-233v-615h-230v615h-234v213h697z" />
    <glyph glyph-name="egrave.ordn.sc" horiz-adv-x="809" 
d="M735 459v-205h-650v828h650v-205h-419v-102h389v-205h-389v-111h419zM343 1142l-172 206h240l132 -206h-200z" />
    <glyph glyph-name="parenleft.case" horiz-adv-x="838" 
d="M694 1588l93 -273q-189 -90 -283 -249.5t-94 -365.5t94 -365.5t283 -249.5l-93 -273q-275 99 -443 337t-168 551t168 551t443 337z" />
    <glyph glyph-name="parenright.case" horiz-adv-x="838" 
d="M144 -187l-93 273q189 90 283 249.5t94 365.5t-94 365.5t-283 249.5l93 273q275 -99 443 -337t168 -551t-168 -551t-443 -337z" />
    <glyph glyph-name="hyphen.case" horiz-adv-x="779" 
d="M690 833v-267h-601v267h601z" />
    <glyph glyph-name="slash.case" horiz-adv-x="1136" 
d="M1085 1400l-683 -1400h-351l683 1400h351z" />
    <glyph glyph-name="at.case" horiz-adv-x="1916" 
d="M1320 1074v-440q0 -123 82 -123q65 0 102 58.5t37 178.5q0 240 -165.5 396t-423.5 156q-261 0 -425.5 -166.5t-164.5 -432.5t160.5 -433t414.5 -167q210 0 343 101l143 -189q-198 -145 -486 -145q-182 0 -338.5 63t-266.5 173t-172.5 264.5t-62.5 332.5q0 177 63.5 331.5
t175.5 264.5t271.5 173t344.5 63q184 0 342.5 -60.5t269 -165.5t173 -249.5t62.5 -308.5q0 -207 -112 -336t-297 -129q-197 0 -275 135q-80 -113 -231 -113q-155 0 -250.5 113t-95.5 282q0 166 95.5 280t242.5 114q130 0 203 -97v76h241zM938 861q-62 0 -102 -45.5
t-40 -115.5q0 -69 40 -115t102 -46q61 0 100.5 45.5t39.5 115.5t-39.5 115.5t-100.5 45.5z" />
    <glyph glyph-name="bracketleft.case" horiz-adv-x="756" 
d="M705 149v-280h-578v1663h578v-280h-262v-1103h262z" />
    <glyph glyph-name="backslash.case" horiz-adv-x="928" 
d="M628 0l-683 1400h351l683 -1400h-351z" />
    <glyph glyph-name="bracketright.case" horiz-adv-x="756" 
d="M51 1252v280h578v-1663h-578v280h262v1103h-262z" />
    <glyph glyph-name="braceleft.case" horiz-adv-x="881" 
d="M830 1261h-82q-73 0 -113.5 -42.5t-36.5 -119.5l3 -80q4 -80 -13 -138.5t-66.5 -106t-134.5 -73.5q125 -39 172.5 -118t41.5 -201l-3 -80q-4 -77 36.5 -119t113.5 -42h82v-272h-125q-213 0 -321.5 118.5t-100.5 324.5l4 87q4 81 -52 125t-159 44v265q103 0 159 44t52 125
l-4 87q-8 207 100.5 325t321.5 118h125v-271z" />
    <glyph glyph-name="braceright.case" horiz-adv-x="881" 
d="M51 140h82q73 0 113.5 42.5t36.5 119.5l-3 80q-4 80 13 138.5t66.5 106t134.5 73.5q-125 39 -172.5 118t-41.5 201l3 80q4 77 -36.5 119t-113.5 42h-82v272h125q213 0 321.5 -118.5t100.5 -324.5l-4 -87q-4 -81 52 -125t159 -44v-265q-103 0 -159 -44t-52 -125l4 -87
q8 -207 -100.5 -325t-321.5 -118h-125v271z" />
    <glyph glyph-name="exclamdown.case" horiz-adv-x="580" 
d="M105 -1l38 899h293l38 -899h-369zM289 1012q-83 0 -144 61t-61 144q0 84 61 146t144 62t145 -62t62 -146q0 -82 -62 -143.5t-145 -61.5z" />
    <glyph glyph-name="guillemotleft.case" horiz-adv-x="1112" 
d="M846 700l197 -402h-303l-197 402l197 401h303zM373 700l197 -402h-303l-197 402l197 401h303z" />
    <glyph glyph-name="uni00AD.case" horiz-adv-x="779" 
d="M690 833v-267h-601v267h601z" />
    <glyph glyph-name="periodcentered.case" horiz-adv-x="686" 
d="M344 913q86 0 149.5 -63.5t63.5 -149.5q0 -87 -63.5 -151.5t-149.5 -64.5t-150.5 64.5t-64.5 151.5q0 85 64.5 149t150.5 64z" />
    <glyph glyph-name="guillemotright.case" horiz-adv-x="1112" 
d="M266 700l-197 402h303l197 -402l-197 -401h-303zM739 700l-197 402h303l197 -402l-197 -401h-303z" />
    <glyph glyph-name="questiondown.case" horiz-adv-x="891" 
d="M446 906h293v-358h-102q-259 0 -259 -131q0 -126 257 -128q79 0 145 8l18 -312q-97 -13 -216 -13q-258 0 -403.5 111t-145.5 302q0 165 104.5 272t300.5 145zM593 1012q-83 0 -144 61t-61 144q0 84 61.5 146.5t143.5 62.5q83 0 145 -62t62 -146q0 -83 -62 -144.5
t-145 -61.5z" />
    <glyph glyph-name="gravecomb.case" 
d="M-814 1509l-278 332h359l212 -332h-293z" />
    <glyph glyph-name="acutecomb.case" 
d="M-799 1509h-293l212 332h359z" />
    <glyph glyph-name="uni0302.case" 
d="M-409 1499h-284l-113 144l-114 -144h-284l225 332h344z" />
    <glyph glyph-name="tildecomb.case" 
d="M-1049 1514l-171 165q107 152 287 152q62 0 113 -18t85.5 -36t55.5 -18q49 0 115 69l171 -166q-106 -152 -287 -152q-61 0 -112 18t-86 36t-56 18q-49 0 -115 -68z" />
    <glyph glyph-name="uni0304.case" 
d="M-1159 1540v250h704v-250h-704z" />
    <glyph glyph-name="uni0306.case" 
d="M-1204 1818l231 65q44 -154 166 -154t166 154l231 -65q-38 -158 -141.5 -244.5t-255.5 -86.5t-255 86.5t-142 244.5z" />
    <glyph glyph-name="uni0307.case" 
d="M-807 1872q83 0 140 -57.5t57 -140.5q0 -82 -57 -138.5t-140 -56.5t-139.5 56t-56.5 139t56.5 140.5t139.5 57.5z" />
    <glyph glyph-name="uni0308.case" 
d="M-1039 1853q79 0 133.5 -54t54.5 -133t-54 -133t-134 -54q-79 0 -132.5 54t-53.5 133t53.5 133t132.5 54zM-575 1853q79 0 133 -54t54 -133t-54 -133t-133 -54t-133 53.5t-54 133.5q0 79 54 133t133 54z" />
    <glyph glyph-name="uni030A.case" 
d="M-808 1472q-114 0 -194.5 79.5t-80.5 192.5q0 112 81 191.5t194 79.5q115 0 196 -79.5t81 -191.5q0 -113 -81 -192.5t-196 -79.5zM-808 1639q42 0 72.5 30.5t30.5 74.5q0 43 -30.5 74t-72.5 31q-41 0 -71.5 -31t-30.5 -74q0 -44 30.5 -74.5t71.5 -30.5z" />
    <glyph glyph-name="uni030B.case" 
d="M-584 1509h-300l235 332h324zM-998 1509h-291l208 332h319z" />
    <glyph glyph-name="uni030C.case" 
d="M-1204 1831h284l114 -144l113 144h284l-226 -332h-344z" />
    <glyph glyph-name="dotbelowcomb.case" 
d="M-807 -82q79 0 133 -54.5t54 -133.5t-54 -132.5t-133 -53.5t-133 53.5t-54 132.5q0 80 54 134t133 54z" />
    <glyph glyph-name="uni0326.case" 
d="M-933 -80h301l-102 -412h-248z" />
    <glyph glyph-name="uni0327.case" 
d="M-602 7l-103 -328h-307l112 328h298z" />
    <glyph glyph-name="uni032E.case" 
d="M-1204 -134l231 66q43 -154 166 -154q121 0 166 154l231 -66q-39 -157 -142 -243.5t-255 -86.5t-255.5 86.5t-141.5 243.5z" />
    <glyph glyph-name="uni0331.case" 
d="M-1159 -384v250h704v-250h-704z" />
    <glyph glyph-name="uni0335.case" 
d="M-405 851v-288h-804v288h804z" />
    <glyph glyph-name="uni2010.case" horiz-adv-x="779" 
d="M690 833v-267h-601v267h601z" />
    <glyph glyph-name="uni2011.case" horiz-adv-x="779" 
d="M690 833v-267h-601v267h601z" />
    <glyph glyph-name="figuredash.case" horiz-adv-x="1200" 
d="M1092 828v-257h-985v257h985z" />
    <glyph glyph-name="endash.case" horiz-adv-x="1137" 
d="M1061 828v-257h-985v257h985z" />
    <glyph glyph-name="emdash.case" horiz-adv-x="1576" 
d="M1538 828v-257h-1500v257h1500z" />
    <glyph glyph-name="bullet.case" horiz-adv-x="922" 
d="M460 1045q144 0 246 -101t102 -245t-102 -245.5t-246 -101.5q-143 0 -244.5 101.5t-101.5 245.5t101.5 245t244.5 101z" />
    <glyph glyph-name="guilsinglleft.case" horiz-adv-x="639" 
d="M373 700l197 -402h-303l-197 402l197 401h303z" />
    <glyph glyph-name="guilsinglright.case" horiz-adv-x="639" 
d="M266 699l-197 402h303l197 -402l-197 -401h-303z" />
    <glyph glyph-name="uni2E17.case" horiz-adv-x="838" 
d="M722 1119v-246l-606 -221v246zM722 741v-246l-606 -221v246z" />
    <glyph glyph-name="j.latn_NLD.case" horiz-adv-x="1108" 
d="M988 1400v-874q0 -269 -140 -410.5t-377 -141.5q-151 0 -264.5 50t-181.5 124l174 253q102 -106 247 -106q208 0 208 260v845h334zM905 1509h-293l212 332h359z" />
    <glyph glyph-name="zero.zero" horiz-adv-x="1401" 
d="M700 1425q129 0 241.5 -50t196 -141.5t131.5 -229.5t48 -304t-48 -303.5t-131.5 -229.5t-196 -142t-241.5 -50t-241 50t-195.5 142t-131.5 229.5t-48 303.5t48 304t131.5 229.5t195.5 141.5t241 50zM980 700q0 66 -9 121l-453 -452q74 -84 182 -84q123 0 201.5 109
t78.5 306zM700 1115q-123 0 -201 -109t-78 -306q0 -66 9 -122l452 453q-75 84 -182 84z" />
    <glyph glyph-name="zero.osf.zero" horiz-adv-x="1318" 
d="M659 1106q164 0 297 -69t211 -199.5t78 -298.5t-78 -297.5t-211 -198.5t-297 -69t-297 69t-211 198.5t-78 297.5q0 126 45.5 233t124.5 180t186.5 113.5t229.5 40.5zM929 540q0 62 -24 118l-364 -365q52 -24 118 -24q116 0 193 75.5t77 195.5zM659 811q-116 0 -193 -75.5
t-77 -195.5q0 -62 21 -111l360 360q-53 22 -111 22z" />
    <glyph glyph-name="zero.tf.zero" horiz-adv-x="1200" 
d="M605 1425q118 0 217 -44t175 -131t118.5 -228t42.5 -322q0 -184 -42.5 -325.5t-118.5 -227.5t-175 -129t-217 -43q-121 0 -221.5 43t-178 129t-121 227.5t-43.5 325.5q0 185 43.5 326t121 227t178 129t221.5 43zM824 700q0 34 -4 88l-389 -389q59 -114 174 -114
q97 0 158 100t61 315zM605 1115q-102 0 -165.5 -100t-63.5 -315q0 -46 3 -87l388 389q-58 113 -162 113z" />
    <glyph glyph-name="zero.tosf.zero" horiz-adv-x="1200" 
d="M600 1106q154 0 278 -67.5t197.5 -198t73.5 -301.5t-73.5 -301t-197.5 -197t-278 -67q-115 0 -215 39.5t-174 111t-117 178.5t-43 236t43 236.5t117 179.5t174 111.5t215 39.5zM600 820q-100 0 -166.5 -76t-66.5 -205q0 -49 11 -93l339 340q-53 34 -117 34zM832 539
q0 48 -11 94l-339 -340q51 -33 118 -33q100 0 166 75.5t66 203.5z" />
    <glyph glyph-name="zero.sc.zero" horiz-adv-x="1155" 
d="M578 1101q216 0 358 -152t142 -408q0 -129 -39 -235.5t-106 -177t-158.5 -109.5t-196.5 -39t-196.5 39t-159 109.5t-106.5 177t-39 235.5q0 128 39 234.5t106.5 177t159 109.5t196.5 39zM578 820q-86 0 -140.5 -73t-54.5 -206q0 -35 5 -73l306 306q-49 46 -116 46z
M772 541q0 34 -5 71l-305 -306q49 -44 116 -44q86 0 140 73t54 206z" />
    <glyph glyph-name="a.ss01" horiz-adv-x="1088" 
d="M514 1008q104 0 188.5 -25.5t148.5 -77.5t99 -137t35 -197v-571h-297v86q-114 -112 -282 -112q-159 0 -253.5 84.5t-94.5 227.5t111 223.5t312 80.5h189q-17 145 -186 145q-138 0 -266 -85l-120 234q167 124 416 124zM490 213q113 0 190 86v98h-153q-74 0 -112 -25.5
t-38 -66.5t29.5 -66.5t83.5 -25.5z" />
    <glyph glyph-name="agrave.ss01" horiz-adv-x="1088" 
d="M514 1008q104 0 188.5 -25.5t148.5 -77.5t99 -137t35 -197v-571h-297v86q-114 -112 -282 -112q-159 0 -253.5 84.5t-94.5 227.5t111 223.5t312 80.5h189q-17 145 -186 145q-138 0 -266 -85l-120 234q167 124 416 124zM490 213q113 0 190 86v98h-153q-74 0 -112 -25.5
t-38 -66.5t29.5 -66.5t83.5 -25.5zM454 1105l-278 332h359l212 -332h-293z" />
    <glyph glyph-name="aacute.ss01" horiz-adv-x="1088" 
d="M514 1008q104 0 188.5 -25.5t148.5 -77.5t99 -137t35 -197v-571h-297v86q-114 -112 -282 -112q-159 0 -253.5 84.5t-94.5 227.5t111 223.5t312 80.5h189q-17 145 -186 145q-138 0 -266 -85l-120 234q167 124 416 124zM490 213q113 0 190 86v98h-153q-74 0 -112 -25.5
t-38 -66.5t29.5 -66.5t83.5 -25.5zM640 1105h-293l212 332h359z" />
    <glyph glyph-name="acircumflex.ss01" horiz-adv-x="1088" 
d="M514 1008q104 0 188.5 -25.5t148.5 -77.5t99 -137t35 -197v-571h-297v86q-114 -112 -282 -112q-159 0 -253.5 84.5t-94.5 227.5t111 223.5t312 80.5h189q-17 145 -186 145q-138 0 -266 -85l-120 234q167 124 416 124zM490 213q113 0 190 86v98h-153q-74 0 -112 -25.5
t-38 -66.5t29.5 -66.5t83.5 -25.5zM941 1095h-284l-113 144l-114 -144h-284l225 332h344z" />
    <glyph glyph-name="atilde.ss01" horiz-adv-x="1088" 
d="M514 1008q104 0 188.5 -25.5t148.5 -77.5t99 -137t35 -197v-571h-297v86q-114 -112 -282 -112q-159 0 -253.5 84.5t-94.5 227.5t111 223.5t312 80.5h189q-17 145 -186 145q-138 0 -266 -85l-120 234q167 124 416 124zM490 213q113 0 190 86v98h-153q-74 0 -112 -25.5
t-38 -66.5t29.5 -66.5t83.5 -25.5zM296 1110l-171 165q107 152 287 152q62 0 113 -18t85.5 -36t55.5 -18q49 0 115 69l171 -166q-106 -152 -287 -152q-61 0 -112 18t-86 36t-56 18q-49 0 -115 -68z" />
    <glyph glyph-name="adieresis.ss01" horiz-adv-x="1088" 
d="M514 1008q104 0 188.5 -25.5t148.5 -77.5t99 -137t35 -197v-571h-297v86q-114 -112 -282 -112q-159 0 -253.5 84.5t-94.5 227.5t111 223.5t312 80.5h189q-17 145 -186 145q-138 0 -266 -85l-120 234q167 124 416 124zM490 213q113 0 190 86v98h-153q-74 0 -112 -25.5
t-38 -66.5t29.5 -66.5t83.5 -25.5zM309 1449q79 0 133.5 -54t54.5 -133t-54 -133t-134 -54q-79 0 -132.5 54t-53.5 133t53.5 133t132.5 54zM773 1449q79 0 133 -54t54 -133t-54 -133t-133 -54t-133 53.5t-54 133.5q0 79 54 133t133 54z" />
    <glyph glyph-name="aring.ss01" horiz-adv-x="1088" 
d="M514 1008q104 0 188.5 -25.5t148.5 -77.5t99 -137t35 -197v-571h-297v86q-114 -112 -282 -112q-159 0 -253.5 84.5t-94.5 227.5t111 223.5t312 80.5h189q-17 145 -186 145q-138 0 -266 -85l-120 234q167 124 416 124zM490 213q113 0 190 86v98h-153q-74 0 -112 -25.5
t-38 -66.5t29.5 -66.5t83.5 -25.5zM543 1068q-114 0 -194.5 79.5t-80.5 192.5q0 112 81 191.5t194 79.5q115 0 196 -79.5t81 -191.5q0 -113 -81 -192.5t-196 -79.5zM543 1235q43 0 73 30.5t30 74.5q0 43 -30.5 74t-72.5 31q-41 0 -71.5 -31t-30.5 -74q0 -44 30.5 -74.5
t71.5 -30.5z" />
    <glyph glyph-name="J.ss02" horiz-adv-x="810" 
d="M25 -12l38 316q41 -9 84 -9q208 0 208 260v845h335v-874q0 -269 -140 -410.5t-377 -141.5q-69 0 -148 14z" />
    <glyph glyph-name="IJ.ss02" horiz-adv-x="1398" 
d="M461 1400v-1400h-334v1400h334zM613 -12l38 316q41 -9 84 -9q208 0 208 260v845h335v-874q0 -269 -140 -410.5t-377 -141.5q-69 0 -148 14z" />
    <glyph glyph-name="j.sc.ss02" horiz-adv-x="677" 
d="M23 -10l29 286q28 -7 60 -7q71 0 106.5 38.5t35.5 130.5v644h313v-660q0 -219 -112.5 -330.5t-311.5 -111.5q-58 0 -120 10z" />
    <glyph glyph-name="ij.sc.ss02" horiz-adv-x="1212" 
d="M419 1082v-1082h-303v1082h303zM558 -10l29 286q28 -7 60 -7q71 0 106.5 38.5t35.5 130.5v644h313v-660q0 -219 -112.5 -330.5t-311.5 -111.5q-58 0 -120 10z" />
    <glyph glyph-name="j.latn_NLD.sc.ss02" horiz-adv-x="677" 
d="M23 -10l29 286q28 -7 60 -7q71 0 106.5 38.5t35.5 130.5v644h313v-660q0 -219 -112.5 -330.5t-311.5 -111.5q-58 0 -120 10zM502 1206h-293l212 332h359z" />
    <glyph glyph-name="j.latn_NLD.case.ss02" horiz-adv-x="810" 
d="M25 -12l38 316q41 -9 84 -9q208 0 208 260v845h335v-874q0 -269 -140 -410.5t-377 -141.5q-69 0 -148 14zM606 1509h-293l212 332h359z" />
    <glyph glyph-name="seven.ss03" horiz-adv-x="1105" 
d="M1063 1400v-254l-160 -331h134v-284h-270l-256 -531h-386l271 540h-286v284h429l138 275h-627v301h1013z" />
    <glyph glyph-name="seven.osf.ss03" horiz-adv-x="1097" 
d="M1053 1079v-250l-163 -337h154v-274h-286l-260 -539h-379l276 547h-267v275h405l143 282h-632v296h1009z" />
    <glyph glyph-name="seven.tf.ss03" horiz-adv-x="1200" 
d="M1110 1400v-254l-160 -331h134v-284h-270l-256 -531h-386l271 540h-286v284h429l138 275h-627v301h1013z" />
    <glyph glyph-name="seven.tosf.ss03" horiz-adv-x="1200" 
d="M1115 1079v-250l-163 -337h154v-274h-286l-260 -539h-379l276 547h-267v275h405l143 282h-632v296h1009z" />
    <glyph glyph-name="seven.sc.ss03" horiz-adv-x="917" 
d="M875 1082v-232l-106 -213h92v-254h-218l-190 -383h-352l205 391h-201v254h334l87 165h-476v272h825z" />
    <glyph glyph-name="Z.ss04" horiz-adv-x="1284" 
d="M1105 844v-286h-375l-210 -257h688v-301h-1132v262l266 305h-164v286h384l201 246h-686v301h1131v-262l-253 -294h150z" />
    <glyph glyph-name="z.ss04" horiz-adv-x="1039" 
d="M895 586v-192h-270l-106 -117h443v-277h-885v224l183 179h-114v192h274l100 109h-426v277h858v-231l-164 -164h107z" />
    <glyph glyph-name="Zcaron.ss04" horiz-adv-x="1284" 
d="M1105 844v-286h-375l-210 -257h688v-301h-1132v262l266 305h-164v286h384l201 246h-686v301h1131v-262l-253 -294h150zM245 1831h284l114 -144l113 144h284l-226 -332h-344z" />
    <glyph glyph-name="zcaron.ss04" horiz-adv-x="1039" 
d="M895 586v-192h-270l-106 -117h443v-277h-885v224l183 179h-114v192h274l100 109h-426v277h858v-231l-164 -164h107zM129 1427h284l114 -144l113 144h284l-226 -332h-344z" />
    <glyph glyph-name="z.sc.ss04" horiz-adv-x="1064" 
d="M931 667v-247h-315l-144 -152h523v-268h-925v230l193 198h-124v247h323l130 138h-522v269h925v-231l-173 -184h109z" />
    <glyph glyph-name="zcaron.sc.ss04" horiz-adv-x="1064" 
d="M931 667v-247h-315l-144 -152h523v-268h-925v230l193 198h-124v247h323l130 138h-522v269h925v-231l-173 -184h109zM130 1528h284l114 -144l113 144h284l-226 -332h-344z" />
    <glyph glyph-name="Adieresis.ss05" horiz-adv-x="1497" 
d="M200 1426q79 0 133 -54.5t54 -133.5t-54 -133t-133 -54t-133 54t-54 133q0 80 54 134t133 54zM1297 1426q79 0 133 -54t54 -134q0 -79 -54 -133t-133 -54t-133 54t-54 133t54 133.5t133 54.5zM948 1400l537 -1400h-356l-106 294h-556l-106 -294h-349l537 1400h399z
M745 1068l-170 -472h340z" />
    <glyph glyph-name="Odieresis.ss05" horiz-adv-x="1628" 
d="M168 1426q52 0 94.5 -26t66.5 -69q-70 -49 -132 -123.5t-91 -144.5q-56 18 -90.5 66t-34.5 109q0 80 54 134t133 54zM1460 1426q79 0 133 -54t54 -134q0 -61 -34.5 -109t-90.5 -66q-29 70 -91 144.5t-132 123.5q24 43 66.5 69t94.5 26zM814 1426q159 0 297 -55
t234.5 -151t151.5 -230.5t55 -289.5t-55 -289.5t-151.5 -230.5t-234.5 -151t-297 -55t-297 55t-234.5 151t-151.5 230.5t-55 289.5t55 289.5t151.5 230.5t234.5 151t297 55zM814 1106q-171 0 -280.5 -113t-109.5 -293t109.5 -293t280.5 -113t280.5 113t109.5 293t-109.5 293
t-280.5 113z" />
    <glyph glyph-name="Udieresis.ss05" horiz-adv-x="1453" 
d="M728 1426q74 0 124 -50.5t50 -123.5q0 -74 -50 -124t-124 -50t-123.5 50t-49.5 124q0 73 50 123.5t123 50.5zM728 1006q74 0 124 -50.5t50 -123.5q0 -74 -50 -124t-124 -50t-123.5 50t-49.5 124q0 73 50 123.5t123 50.5zM1339 1400v-835q0 -284 -162 -437.5t-451 -153.5
t-450.5 153t-161.5 438v835h335v-822q0 -140 74 -211.5t203 -71.5q130 0 204 71.5t74 211.5v822h335z" />
    <glyph glyph-name="hyphen.ss06" horiz-adv-x="838" 
d="M722 978v-246l-606 -221v246zM722 600v-246l-606 -221v246z" />
    <glyph glyph-name="hyphen.case.ss06" horiz-adv-x="849" 
d="M722 1119v-246l-606 -221v246zM722 741v-246l-606 -221v246z" />
    <glyph glyph-name="f_t" horiz-adv-x="1540" 
d="M1445 981v-277h-335v-287q0 -151 138 -151q68 0 171 61l108 -244q-77 -53 -157.5 -81t-191.5 -28q-191 0 -286 106.5t-95 296.5v327h-282v-704h-312l-1 704h-169v277h170v47q0 110 35 195t97 137.5t143 79t178 26.5q201 0 327.5 -111t126.5 -327v-47h335zM515 1021v-40
h282v40q0 82 -38 123.5t-103 41.5q-64 0 -102.5 -41.5t-38.5 -123.5z" />
    <glyph glyph-name="longs_t" horiz-adv-x="1441" 
d="M1346 981v-277h-335v-287q0 -151 139 -151q67 0 170 61l108 -244q-77 -54 -157.5 -81.5t-190.5 -27.5q-192 0 -287 106.5t-95 296.5v327h-135v277h135v40q0 82 -38 123.5t-103 41.5q-64 0 -102 -41.5t-38 -123.5v-555h-1v-466h-312v1028q0 146 61.5 246.5t161.5 146
t230 45.5q97 0 178.5 -26.5t143.5 -79t97 -137.5t35 -195v-47h335z" />
    </font>
</defs>
</svg>
