<?xml version="1.0" encoding="UTF-8"?><svg id="Camada_2" xmlns="http://www.w3.org/2000/svg" xmlns:xlink="http://www.w3.org/1999/xlink" viewBox="0 0 1368.06 374.17"><defs><style>.cls-1,.cls-2{fill:#fff;}.cls-2{opacity:.1;}.cls-3{fill:none;stroke:#fff;stroke-miterlimit:10;stroke-width:3px;}.cls-4{mask:url(#mask);}</style><mask id="mask" x="-93.95" y="-218.29" width="1462" height="839.3" maskUnits="userSpaceOnUse"><g><g><path class="cls-1" d="M319.82,259.46c-53.87-1.25-93.7-4.03-131.72-18.61-12.03-4.61-23.77-11.24-33.79-19.33-8.18-6.61-7.58-16.75,1.26-22.35,15.96-10.1,33.61-19.51,51.78-24.01,71.69-17.77,143.45-17.76,214.4,4.99,10.18,3.27,20.14,8.46,29.09,14.55,15.73,10.71,16.31,23.21-.13,32.12-18.3,9.92-38.02,18.57-58.07,22.92-28.35,6.14-57.58,7.83-72.82,9.72Z"/><path class="cls-1" d="M462.76,246.54c0,12.23,1.67,26.15-.64,39.31-1.34,7.6-7.74,17.35-14.24,20.24-21.08,9.35-42.75,18.96-65.1,23.09-60.01,11.09-120.32,10.59-179.58-6.17-14.85-4.2-28.88-12.11-42.74-19.45-7.69-4.07-11.28-11.8-10.88-21.54,.51-12.33,.12-24.7,.12-35.42,104.54,43.8,207.95,43.87,313.05-.06Z"/><path class="cls-1" d="M149.7,324c105.14,43.49,208.33,43.53,312.93-.04,0,12.77,1.82,27.76-.75,41.86-1.34,7.32-9.3,16.04-16.26,19-20.55,8.76-41.64,17.7-63.33,21.64-62.02,11.26-124.14,10.63-185.1-8.04-12.68-3.88-24.67-10.76-36.41-17.38-8.01-4.51-11.75-12.37-11.22-22.6,.62-11.98,.15-24.01,.15-34.45Z"/><path class="cls-1" d="M501.87,89.93c-.18-1.78-.45-3.66-.54-5.55-2.33-48.86-31.86-85.82-78.25-92.46-8.08-1.16-15.95-2.22-23.53-3.98-13.99-13.92-32.88-22.48-53.69-22.48-.36,0-.72,.02-1.08,.03-2.34-1.74-4.31-4.18-6.18-7.47-19.43-34.09-58.27-52.31-93.89-44.92-40.53,8.41-69.74,39.22-75.24,80.77-.18,1.39-.39,2.73-.63,4.03-1.33-.09-2.67-.15-4.03-.15-35.33,0-63.97,30.04-63.97,67.09,0,9.15,1.75,17.87,4.92,25.82-58.32,5.22-90.24,57.38-83.86,108.69,6.56,52.82,56.17,89.2,109.32,79.42,0-20.46,.61-41.16-.19-61.79-.65-16.77,5.83-29.49,18.78-37.42,13.39-8.2,27.58-15.95,42.38-20.45,64.59-19.63,130.21-20.49,196.14-8.31,24.32,4.49,48.03,11.22,69.4,24.83,15.76,10.03,25.02,23.48,23.77,44.3-1.19,19.73-.26,39.61-.26,59.19,55.92,7.26,102.34-26.64,109.23-79.13,6.29-47.94-20.45-102.84-88.61-110.06Z"/></g><ellipse class="cls-3" cx="306.24" cy="201.37" rx="398.68" ry="418.15"/></g></mask></defs><g id="Camada_1-2"><g class="cls-4"><polygon class="cls-2" points="1366.2 374.17 0 374.17 .1 0 1368.06 0 1366.2 374.17"/></g></g></svg>