<svg xmlns:xlink="http://www.w3.org/1999/xlink" xmlns="http://www.w3.org/2000/svg"
   xmlns:svg="http://www.w3.org/2000/svg" version="1.1" x="0px" y="0px" style="enable-background:new 0 0 204.62 204.62;"
   xml:space="preserve" viewBox="50 74.71 104.63 55.19">
   <style type="text/css">
      .lgrad_blue,
      .fill_green {
         fill: antiquewhite;
      }
   </style>
   <g id="symbol">
      <path id="pin" class="lgrad_blue"
         d="M 69.720703 74.710938 C 58.830703 74.710938 50 83.539688 50 94.429688 C 50 97.729687 51.810078 102.65945 54.330078 107.93945 L 54.630859 107.68945 C 54.350859 107.08945 54.189453 106.43 54.189453 105.75 C 54.189453 104.46 54.740937 103.21938 55.710938 102.35938 C 56.670938 101.49938 57.969766 101.08047 59.259766 101.23047 C 61.319766 101.46047 63.009766 103.11969 63.259766 105.17969 C 63.369766 106.05969 63.219375 106.91945 62.859375 107.68945 L 64.289062 108.82031 L 65.720703 107.68945 C 65.440703 107.08945 65.279297 106.43 65.279297 105.75 C 65.279297 104.46 65.830781 103.21937 66.800781 102.35938 C 67.760781 101.49938 69.059609 101.08047 70.349609 101.23047 C 72.409609 101.46047 74.099609 103.11969 74.349609 105.17969 C 74.459609 106.05969 74.309219 106.91945 73.949219 107.68945 L 75.380859 108.82031 L 76.810547 107.68945 C 76.530547 107.08945 76.369141 106.43 76.369141 105.75 C 76.369141 104.46 76.920859 103.21938 77.880859 102.35938 C 78.840859 101.49938 80.139687 101.08047 81.429688 101.23047 C 83.489688 101.46047 85.179688 103.11969 85.429688 105.17969 C 85.539687 106.05969 85.389297 106.91945 85.029297 107.68945 L 85.169922 107.80078 C 87.659922 102.58078 89.439453 97.699687 89.439453 94.429688 C 89.439453 83.539687 80.610703 74.710937 69.720703 74.710938 z M 69.699219 86.439453 C 69.881623 86.439453 70.063047 86.449026 70.240234 86.466797 C 70.242149 86.466989 70.24418 86.466603 70.246094 86.466797 C 70.248748 86.467067 70.251254 86.468476 70.253906 86.46875 C 70.788079 86.523727 71.295696 86.656519 71.767578 86.857422 C 71.925664 86.924727 72.079065 87.00011 72.228516 87.082031 C 72.377966 87.163953 72.524073 87.252002 72.664062 87.347656 C 72.804053 87.443311 72.938655 87.545793 73.068359 87.654297 C 73.198064 87.7628 73.322812 87.877578 73.441406 87.998047 C 73.56 88.118516 73.672639 88.245403 73.779297 88.376953 C 73.885955 88.508503 73.986182 88.645361 74.080078 88.787109 C 74.173975 88.928857 74.261487 89.075501 74.341797 89.226562 C 74.502133 89.528153 74.635073 89.848203 74.736328 90.181641 C 74.736328 90.181641 74.736328 90.183594 74.736328 90.183594 C 74.78699 90.350632 74.830635 90.519658 74.865234 90.693359 C 74.899709 90.866435 74.925649 91.043841 74.943359 91.222656 C 74.943359 91.222656 74.943359 91.224609 74.943359 91.224609 C 74.961072 91.404089 74.970703 91.585156 74.970703 91.769531 C 74.970703 91.952656 74.961072 92.133972 74.943359 92.3125 C 74.925647 92.491028 74.899834 92.666826 74.865234 92.839844 C 74.830635 93.012861 74.78699 93.183015 74.736328 93.349609 C 74.685909 93.515405 74.628012 93.679359 74.5625 93.837891 C 74.5625 93.837891 74.560547 93.839844 74.560547 93.839844 C 74.494648 93.999102 74.422107 94.153678 74.341797 94.304688 C 74.261487 94.455696 74.173975 94.602295 74.080078 94.744141 C 73.986182 94.885986 73.885955 95.022527 73.779297 95.154297 C 73.672639 95.286067 73.56 95.412422 73.441406 95.533203 C 73.322812 95.653984 73.198064 95.770027 73.068359 95.878906 C 72.938655 95.987786 72.804053 96.089482 72.664062 96.185547 C 72.524073 96.281611 72.377966 96.370789 72.228516 96.453125 C 72.079065 96.535461 71.925664 96.611992 71.767578 96.679688 C 71.609492 96.747383 71.447146 96.807234 71.28125 96.859375 C 71.115354 96.911516 70.946318 96.954561 70.773438 96.990234 C 70.60378 97.025243 70.431457 97.052035 70.255859 97.070312 C 70.250634 97.070858 70.245465 97.071735 70.240234 97.072266 C 70.063047 97.090175 69.881623 97.099609 69.699219 97.099609 C 69.516094 97.099609 69.336292 97.090559 69.158203 97.072266 C 69.158203 97.072266 69.15625 97.072266 69.15625 97.072266 C 68.978828 97.053974 68.804385 97.025779 68.632812 96.990234 C 68.632812 96.990234 68.630859 96.990234 68.630859 96.990234 C 68.459306 96.954628 68.289855 96.911328 68.125 96.859375 C 67.959548 96.807234 67.798477 96.747383 67.640625 96.679688 C 67.482773 96.611992 67.329083 96.535461 67.179688 96.453125 C 67.179688 96.453125 67.177734 96.453125 67.177734 96.453125 C 67.028853 96.371011 66.883772 96.281299 66.744141 96.185547 C 66.604053 96.089482 66.469768 95.987786 66.339844 95.878906 C 66.209919 95.770027 66.085703 95.653984 65.966797 95.533203 C 65.847891 95.412422 65.733987 95.286067 65.626953 95.154297 C 65.519919 95.022527 65.418525 94.885986 65.324219 94.744141 C 65.229912 94.602295 65.143225 94.455696 65.0625 94.304688 C 64.985885 94.161366 64.917147 94.014053 64.853516 93.863281 C 64.849866 93.854632 64.845403 93.846563 64.841797 93.837891 C 64.83886 93.830833 64.836892 93.823479 64.833984 93.816406 C 64.640345 93.345097 64.509747 92.839617 64.457031 92.3125 C 64.439177 92.133972 64.429688 91.952656 64.429688 91.769531 C 64.429688 91.585156 64.439177 91.404089 64.457031 91.224609 C 64.457031 91.224609 64.457031 91.222656 64.457031 91.222656 C 64.510717 90.684919 64.643168 90.171263 64.841797 89.693359 C 64.841797 89.693359 64.841797 89.691406 64.841797 89.691406 C 64.90791 89.532487 64.982051 89.377109 65.0625 89.226562 C 65.143225 89.075501 65.229912 88.928857 65.324219 88.787109 C 65.418525 88.645361 65.519919 88.508503 65.626953 88.376953 C 65.733987 88.245403 65.847891 88.118516 65.966797 87.998047 C 66.085703 87.877578 66.209919 87.7628 66.339844 87.654297 C 66.469768 87.545793 66.604053 87.443311 66.744141 87.347656 C 66.883771 87.252315 67.028855 87.163731 67.177734 87.082031 C 67.177734 87.082031 67.179688 87.082031 67.179688 87.082031 C 67.329083 87.00011 67.482773 86.924727 67.640625 86.857422 C 68.113607 86.655752 68.622691 86.521379 69.15625 86.466797 C 69.15625 86.466797 69.158203 86.466797 69.158203 86.466797 C 69.336292 86.448645 69.516094 86.439453 69.699219 86.439453 z M 61.619141 121.33984 C 65.889141 126.15984 69.710937 129.90039 69.710938 129.90039 C 69.710938 129.90039 73.520781 126.15984 77.800781 121.33984 L 61.619141 121.33984 z " />
      <path id="people" class="fill_green"
         d="M86.45,111.16l-4.02-3.17c0.8-0.55,1.3-1.51,1.17-2.58c-0.15-1.23-1.15-2.22-2.38-2.35    c-1.64-0.18-3.02,1.09-3.02,2.69c0,0.93,0.47,1.76,1.19,2.24l-4.02,3.17l-4.02-3.17c0.8-0.55,1.3-1.51,1.17-2.58    c-0.15-1.23-1.15-2.22-2.38-2.35c-1.64-0.18-3.02,1.09-3.02,2.69c0,0.93,0.47,1.76,1.19,2.24l-4.02,3.17l0,0v0l-1.02-0.81v0    l-3-2.36c0.72-0.49,1.19-1.31,1.19-2.24c0-1.6-1.38-2.87-3.02-2.69c-1.23,0.14-2.23,1.13-2.38,2.35    c-0.13,1.07,0.36,2.04,1.17,2.58l-4.02,3.17h0v2.88h0l3.4-2.61c0,0,0,0,0,0l-1.7,8.08v0h2.76c0,0,0,0,0,0l0.32-1.82    c0.05-0.31,1.51-0.31,1.56,0l0.31,1.82v0h2.73c0,0,0,0,0,0l-1.7-8.08v0l3.24,2.49v0l0.16,0.12v0l0,0l3.4-2.61v0l-1.7,8.08    c0,0,0,0,0,0h3.26v0h1.18c0,0,0,0,0,0h3.25v0l-1.7-8.08c0,0,0,0,0,0l3.4,2.61v0l0,0l0,0l0,0h0v0l3.4-2.61v0l-1.7,8.08c0,0,0,0,0,0    h2.73v0l0.31-1.82c0.05-0.31,1.51-0.31,1.56,0l0.32,1.82c0,0,0,0,0,0h2.76v0l-1.7-8.08c0,0,0,0,0,0l3.4,2.61h0L86.45,111.16    L86.45,111.16z" />
   </g>
   <g id="phrase">
      <path id="address" class="lgrad_blue"
         d="M98.91,108.4h-4.83l-0.79,2.33h-2.42l4.23-11.75h2.79l4.23,11.75H99.7L98.91,108.4z M98.22,106.37     l-1.73-5.09l-1.73,5.09H98.22z M111.71,98.99v11.75h-2.13v-0.99c-0.55,0.69-1.39,1.21-2.72,1.21c-2.64,0-4.15-2.23-4.15-4.46     c0-2.23,1.51-4.47,4.15-4.47c1.33,0,2.17,0.5,2.72,1.21v-4.25H111.71z M109.47,106.49c0-1.31-0.82-2.42-2.28-2.42     c-1.46,0-2.3,1.11-2.3,2.42c0,1.31,0.84,2.42,2.3,2.42C108.65,108.91,109.47,107.8,109.47,106.49z M122.22,98.99v11.75h-2.13v-0.99c-0.55,0.69-1.39,1.21-2.72,1.21c-2.64,0-4.15-2.23-4.15-4.46     c0-2.23,1.51-4.47,4.15-4.47c1.33,0,2.17,0.5,2.72,1.21v-4.25H122.22z M119.98,106.49c0-1.31-0.82-2.42-2.28-2.42     c-1.46,0-2.3,1.11-2.3,2.42c0,1.31,0.84,2.42,2.3,2.42C119.16,108.91,119.98,107.8,119.98,106.49z M129.2,102.02v2.32c-2.52-0.3-2.84,1.31-2.84,2.89v3.51h-2.13v-8.51h2.13v1.39     C127,102.56,128.18,102.02,129.2,102.02z M138.62,107.31h-6.31c0.3,1.14,1.24,1.75,2.42,1.75c0.97,0,1.64-0.52,1.9-0.84l1.71,1.01     c-0.69,0.96-2,1.73-3.61,1.73c-2.82,0-4.68-1.88-4.68-4.46c0-2.67,2-4.47,4.35-4.47C136.96,102.02,139,103.95,138.62,107.31z      M136.54,105.67c-0.22-1.11-0.97-1.75-2.11-1.75c-1.04,0-1.86,0.65-2.12,1.75H136.54z M146.69,108.12c0,1.68-1.23,2.84-3.61,2.84c-1.63,0-3.27-0.65-3.66-2.08l2.05-0.64     c0.07,0.35,0.4,0.92,1.64,0.92c0.89,0,1.39-0.32,1.39-0.89c0-0.81-1.22-0.77-2.23-0.99c-1.65-0.34-2.48-1.12-2.48-2.59     c0-1.61,1.34-2.67,3.34-2.67c1.46,0,2.9,0.72,3.26,2.2l-1.93,0.47c-0.1-0.44-0.52-0.87-1.33-0.87c-0.62,0-1.26,0.24-1.26,0.87     c0,0.76,1.14,0.81,1.81,0.96C145.77,106.1,146.69,106.67,146.69,108.12z M154.63,108.12c0,1.68-1.23,2.84-3.61,2.84c-1.63,0-3.27-0.65-3.66-2.08l2.05-0.64     c0.07,0.35,0.4,0.92,1.64,0.92c0.89,0,1.39-0.32,1.39-0.89c0-0.81-1.22-0.77-2.23-0.99c-1.65-0.34-2.48-1.12-2.48-2.59     c0-1.61,1.34-2.67,3.34-2.67c1.46,0,2.9,0.72,3.26,2.2l-1.93,0.47c-0.1-0.44-0.52-0.87-1.33-0.87c-0.62,0-1.26,0.24-1.26,0.87     c0,0.76,1.14,0.81,1.81,0.96C153.71,106.1,154.63,106.67,154.63,108.12z" />
      <path id="forall" class="fill_green"
         d="M91.72,113.32v4.46h5.04v0.89h-5.04v5.49h-0.89v-11.75h6.56v0.91H91.72z M106.6,119.92c0,2.45-1.95,4.46-4.41,4.46c-2.45,0-4.41-2.01-4.41-4.46c0-2.47,1.96-4.47,4.41-4.47     C104.65,115.45,106.6,117.45,106.6,119.92z M105.71,119.92c0-1.96-1.56-3.58-3.53-3.58s-3.53,1.61-3.53,3.58     c0,1.96,1.56,3.56,3.53,3.56S105.71,121.88,105.71,119.92z M111.64,115.45v1.04c-1.88,0-3.02,1.19-3.02,3.34v4.33h-0.91v-8.51h0.91v1.83 C109.21,116.34,110.25,115.45,111.64,115.45z M121.76,121.83h-4.83l-0.79,2.33h-2.42l4.23-11.75h2.79l4.23,11.75h-2.42L121.76,121.83z M121.07,119.8 l-1.73-5.09l-1.73,5.09H121.07z M128.58,112.42v11.75h-2.13v-11.75H128.58z M132.73,112.42v11.75h-2.13v-11.75H132.73z" />
   </g>
</svg>