<svg xmlns="http://www.w3.org/2000/svg" version="1.1" id="Layer_1" x="0" y="0" style="enable-background:new 0 0 395.1 208.4" xml:space="preserve" viewBox="26.9 14.2 341.4 180"><style>.lgrad_blue{fill:url(#lgrad_blue)}.fill_green{fill:#3a9948}</style><defs><linearGradient id="lgrad_blue" x1="0%" y1="0%" x2="100%" y2="100%"><stop offset="0%" style="stop-color:#1b439a;stop-opacity:1"/><stop offset="100%" style="stop-color:#0474a5;stop-opacity:1"/></linearGradient></defs><g id="words"><path id="address" class="lgrad_blue" d="M186.5 109.1h-15.8l-2.6 7.6h-7.9L174 78.4h9.1l13.8 38.3H189l-2.5-7.6zm-2.3-6.6-5.6-16.6-5.6 16.6h11.2zm44-24.1v38.3h-7v-3.2c-1.8 2.2-4.5 3.9-8.9 3.9-8.6 0-13.5-7.3-13.5-14.6s4.9-14.6 13.5-14.6c4.3 0 7.1 1.6 8.9 3.9V78.4h7zm-7.3 24.5c0-4.3-2.7-7.9-7.4-7.9-4.8 0-7.5 3.6-7.5 7.9 0 4.3 2.7 7.9 7.5 7.9s7.4-3.6 7.4-7.9zm41.6-24.5v38.3h-7v-3.2c-1.8 2.2-4.5 3.9-8.9 3.9-8.6 0-13.5-7.3-13.5-14.6s4.9-14.6 13.5-14.6c4.3 0 7.1 1.6 8.9 3.9V78.4h7zm-7.3 24.5c0-4.3-2.7-7.9-7.4-7.9-4.8 0-7.5 3.6-7.5 7.9 0 4.3 2.7 7.9 7.5 7.9 4.7 0 7.4-3.6 7.4-7.9zm30.1-14.6v7.6c-8.2-1-9.3 4.3-9.3 9.4v11.4h-7V89h7v4.5c2.1-3.4 6-5.2 9.3-5.2zm30.7 17.3h-20.6c1 3.7 4.1 5.7 7.9 5.7 3.2 0 5.4-1.7 6.2-2.7l5.6 3.3c-2.2 3.1-6.5 5.6-11.8 5.6-9.2 0-15.3-6.1-15.3-14.6 0-8.7 6.5-14.6 14.2-14.6 8.4 0 15.1 6.3 13.8 17.3zm-6.8-5.4c-.7-3.6-3.2-5.7-6.9-5.7-3.4 0-6.1 2.1-6.9 5.7h13.8zm33.2 8c0 5.5-4 9.3-11.8 9.3-5.3 0-10.7-2.1-11.9-6.8l6.7-2.1c.2 1.2 1.3 3 5.4 3 2.9 0 4.5-1 4.5-2.9 0-2.6-4-2.5-7.3-3.2-5.4-1.1-8.1-3.7-8.1-8.4 0-5.3 4.4-8.7 10.9-8.7 4.8 0 9.5 2.4 10.6 7.2l-6.3 1.5c-.3-1.4-1.7-2.8-4.3-2.8-2 0-4.1.8-4.1 2.8 0 2.5 3.7 2.6 5.9 3.1 6.8 1.4 9.8 3.3 9.8 8zm25.9 0c0 5.5-4 9.3-11.8 9.3-5.3 0-10.7-2.1-11.9-6.8l6.7-2.1c.2 1.2 1.3 3 5.4 3 2.9 0 4.5-1 4.5-2.9 0-2.6-4-2.5-7.3-3.2-5.4-1.1-8.1-3.7-8.1-8.4 0-5.3 4.4-8.7 10.9-8.7 4.8 0 9.5 2.4 10.6 7.2L361 97c-.3-1.4-1.7-2.8-4.3-2.8-2 0-4.1.8-4.1 2.8 0 2.5 3.7 2.6 5.9 3.1 6.8 1.5 9.8 3.4 9.8 8.1z"/><path id="forAll" class="fill_green" d="M163 125.2v14.6h16.4v2.9H163v17.9h-2.9v-38.3h21.4v3H163zm48.5 21.5c0 8-6.4 14.6-14.4 14.6s-14.4-6.6-14.4-14.6c0-8.1 6.4-14.6 14.4-14.6 8.1.1 14.4 6.6 14.4 14.6zm-2.9 0c0-6.4-5.1-11.7-11.5-11.7s-11.5 5.3-11.5 11.7c0 6.4 5.1 11.6 11.5 11.6s11.5-5.2 11.5-11.6zm19.4-14.5v3.4c-6.1 0-9.9 3.9-9.9 10.9v14.1h-3v-27.8h3v6c2-3.7 5.4-6.6 9.9-6.6zm33 20.8h-15.8l-2.6 7.6h-7.9l13.8-38.3h9.1l13.8 38.3h-7.9L261 153zm-2.2-6.7-5.6-16.6-5.6 16.6h11.2zm24.5-24.1v38.3h-7v-38.3h7zm13.5 0v38.3h-7v-38.3h7z"/></g><g id="symbol"><path id="pin" class="lgrad_blue" d="m42.1 124.7 3.8-3c-1.2-2.5-1.6-5.3-1.3-8.2.8-6.8 6.3-12.2 13.1-13 4.2-.5 8.5.9 11.6 3.7 3.2 2.8 5 6.9 5 11.1 0 2.2-.5 4.4-1.4 6.3l5.7 4.5v-.7c0-7 5.7-12.8 12.8-12.9h.2c7 .1 12.8 5.9 12.8 12.9v.7l5.6-4.4c-.9-1.9-1.4-4.1-1.4-6.3 0-4.2 1.8-8.3 5-11.1 3.2-2.8 7.4-4.2 11.6-3.7 6.8.8 12.3 6.2 13.1 13 .3 2.9-.1 5.7-1.3 8.2l3.3 2.6 1.3-2.3c8.1-17 13.9-33 13.9-43.6 0-35.5-28.8-64.3-64.3-64.3S26.9 43 26.9 78.5c0 10.8 5.9 26.9 14.1 44.1l1.1 2.1zm49.1-72.3c9.6 0 17.2 7.8 17.2 17.4 0 9.5-7.6 17.4-17.2 17.4-9.5 0-17.2-7.8-17.2-17.4 0-9.6 7.6-17.4 17.2-17.4zM64.8 166.3c13.9 15.7 26.4 27.9 26.4 27.9s12.4-12.2 26.4-27.9H64.8z"/><path id="family" class="fill_green" d="M140.9 142.1v-9.4l-12.5-9.9c2.6-1.8 4.2-4.9 3.8-8.4-.5-4-3.8-7.2-7.8-7.7-5.3-.6-9.9 3.6-9.9 8.8 0 3 1.5 5.7 3.9 7.3l-12.6 9.9-10.6-1.6c1.8-1.2 3-3.3 3-5.7 0-3.8-3-6.8-6.8-6.8-3.7.1-6.8 3.1-6.8 6.8 0 2.4 1.2 4.4 3 5.7L77 132.7l-3-2.4-9.8-7.7c2.3-1.6 3.9-4.3 3.9-7.3 0-5.2-4.5-9.4-9.9-8.8-4 .4-7.3 3.7-7.8 7.7-.4 3.5 1.2 6.6 3.8 8.4l-13.1 10.3v9.4l11.1-8.5-5.5 26.4h9l1-5.9c.2-1 4.9-1 5.1 0l1 5.9H72L66.4 134l10.7 6.1 9.1-.2-4.3 20.4h6.9l.8-4.6c.1-.4 1-.6 1.9-.6.9 0 1.9.2 1.9.6l.8 4.6h6.9l-4.3-20.4 9.1.2 10.6-6-5.5 26.4h25l-5.5-26.4 10.4 8z"/></g></svg>