<svg version="1.1" id="Camada_1" xmlns="http://www.w3.org/2000/svg" viewBox="0 0 935.3 727.4" xml:space="preserve">
	<style type="text/css">
		.arrow {
			fill: #E5E5E5;
		}

		.level-1 {
			fill: #129389;
		}

		.level-2 {
			fill: #02D48D;
		}

		.level-3 {
			fill: #67E9B7;
		}

		.l-title {
			font-size: 4rem;
			font-family: 'Raleway-Medium';
			fill: #088;
		}

		.l-label {
			font-family: 'Raleway-ExtraBold';
			font-size: 4rem;
			fill: #FEFEFE;
			;
		}

		.dash-line {
			stroke: #E5E5E5;
			stroke-width: 6;
			stroke-dasharray: 15;
		}

		.circle-text {
			font-size: 5rem;
			font-family: sans-serif;
			font-weight: 500;
			fill: #FEFEFE;
		}
	</style>

	<g class="level-1">
		<circle cx="782" cy="142" r="40" />
		<path
			d="M0,67.6c0,2.2,1.4,3.6,2.2,5.2c26.7,46.3,53.3,92.5,79.9,138.7c2,3.4,4.2,4.6,8.2,4.6 c169.8-0.1,339.6,0,509.3,0.2c10,0,15.2-2.9,19.8-11.6c11-20.7,23.3-40.6,35.1-60.9l3.4-5.9l40.2-70.3H0z M397.5,107.1 c0.2,0.4,0.5,0.8,0.7,1.2C397.9,107.9,397.7,107.5,397.5,107.1c-0.2-0.4-0.5-0.8-0.8-1.2C396.9,106.3,397.2,106.7,397.5,107.1z M383.5,122.9c-0.4-1.6-0.8-3.3-1-4.9C382.7,119.6,383,121.3,383.5,122.9c0.1,0.4,0.2,0.7,0.3,1 C383.7,123.6,383.6,123.2,383.5,122.9L383.5,122.9z" />
	</g>

	<g class="level-3">
		<circle cx="782" cy="477" r="40" />
		<path
			d="M499.2,400.9H197.4c-5.8,0-5.8,0-2.9,5.1c30.3,52.4,60.6,104.9,90.8,157.4c1.8,3.1,3.6,4.5,7.4,4.5 c37.6-0.1,75.3-0.1,112.9,0c3.1,0,4.9-1,6.4-3.6c6.7-11.9,13.5-23.7,20.3-35.5c9.8-17,19.7-33.9,29.7-50.8c0.6-1.9,1.2-3.7,3-4.9 c1-2.1,1.9-4.2,3.1-6.2c11.5-19.9,23-39.8,34.5-59.6C506,400.9,506,400.9,499.2,400.9z" />
	</g>

	<g class="level-2">
		<circle cx="782" cy="310" r="40" />
		<path
			d="M598.9,234.1c-166.2,0-332.5,0-498.8-0.1c-4.2,0-4.3,0.9-2.3,4.2c27.2,46.9,54.2,93.9,81.3,140.9 c1.8,3.2,4,3.7,7.2,3.7c108.4-0.1,216.9,0,325.3,0c3.7,0,5.6-1.2,7.4-4.3c13.2-23.1,26.4-46.2,39.8-69.2c0.8-1.4,0.9-3.6,3.2-3.7 l0,0c-1.2-1.9,0.7-3,1.4-4.3c11.6-20.2,23.2-40.4,34.9-60.5c1.2-2.1,2.4-4.2,3.8-6.9L598.9,234.1z M318.6,306.1 c0.7,0.1,1.3,0.2,2,0.4C319.9,306.3,319.3,306.2,318.6,306.1c-0.8-0.1-1.6-0.1-2.4-0.1l0,0C317,305.9,317.8,306,318.6,306.1 L318.6,306.1z M388.9,308.3c-0.2-0.6-0.5-1.2-0.9-1.8C388.4,307.1,388.7,307.7,388.9,308.3L388.9,308.3z M376.5,303.8 c-0.6,0.3-1.1,0.6-1.6,1C375.4,304.4,375.9,304.1,376.5,303.8L376.5,303.8z M373.6,306.1c-0.4,0.5-0.7,1.1-1,1.7 C372.9,307.2,373.3,306.7,373.6,306.1L373.6,306.1z M383.2,325.7c-0.7,0.1-1.3,0.2-2,0.2l0,0C381.9,325.9,382.6,325.8,383.2,325.7 c0.6-0.1,1.2-0.3,1.8-0.6C384.4,325.3,383.8,325.6,383.2,325.7L383.2,325.7z" />
	</g>

	<g class="dash-line">
		<path d="M660 140 l80 0" />
		<path d="M565 310 l175 0" />
		<path d="M465 480 l275 0" />
	</g>

	<g class="arrow">
		<path
			d="M348.5,0.1c11.6,0,23.3,0.1,35-0.1c3.2,0,4.8,0.6,4.7,4.3c-0.2,13.5-0.2,27,0,40.4c0,3.2-0.9,4.4-4.2,4.3 c-23.6-0.1-47.3-0.1-70.9,0c-3.1,0-4-1.1-4-4.1c0.1-13.6,0.1-27.3,0-40.9C309,0.6,310.5,0,313.6,0C325.2,0.1,336.9,0.1,348.5,0.1z" />

		<path
			d="M348.4,585.9c11.8,0,23.6,0.1,35.5-0.1c3.2,0,4.4,1,4.3,4.3c-0.2,11.2,0.1,22.3-0.1,33.5 c-0.1,4,0.9,5.7,5.2,5.4c5-0.4,10-0.1,15-0.1c2.2,0,3.1,0.4,1.6,2.8c-12,19.1-23.9,38.2-35.8,57.3c-7.7,12.2-15.5,24.3-23.2,36.5 c-1.9,3-2.7,1.8-4-0.3c-8.8-14.1-17.7-28.1-26.5-42.1c-10.5-16.7-20.9-33.4-31.4-50c-1.8-2.9-2-4.5,2.2-4.3c3.8,0.2,7.7,0,11.5,0 c6.6,0,6.6,0,6.6-6.8c0-10.5,0.1-21-0.1-31.5c-0.1-3.8,1.2-4.8,4.9-4.8C325.4,586,336.9,585.9,348.4,585.9z" />
	</g>


	<g class="circle-text">
		<text x="765" y="160">1</text>
		<text x="765" y="330">2</text>
		<text x="765" y="498">3</text>
	</g>

	<g class="l-title">
		<text x="840" y="160">${l1_tit}</text>
		<text x="840" y="330">${l2_tit}</text>
		<text x="840" y="498">${l3_tit}</text>
	</g>

	<g class="l-label">
		<text x="270" y="155">${l1_v}</text>
		<text x="270" y="315">${l2_v}</text>
		<text x="270" y="495">${l3_v}</text>
	</g>
</svg>