<?xml version="1.0" encoding="UTF-8"?><svg xmlns="http://www.w3.org/2000/svg" viewBox="0 0 953.69 461.92"><defs><style>.d{isolation:isolate;}.e{fill:#47ac51;mix-blend-mode:hard-light;}.f{fill:none;stroke:#fff;stroke-linecap:round;stroke-linejoin:round;stroke-width:3px;}</style></defs><g class="d"><g id="a"/><g id="b"><g id="c"><g><g><polygon class="f" points="86.37 76.98 86.43 76.79 87.75 72.76 87.85 72.45 87.43 72.45 84.8 72.45 84.54 72.45 84.48 72.64 83.16 76.67 83.06 76.98 83.48 76.98 86.11 76.98 86.37 76.98"/><polygon class="f" points="15.92 66.91 15.75 66.66 15.45 66.81 11.61 68.77 11.28 68.94 11.56 69.15 12.84 70.13 12.98 70.24 13.17 70.19 17.01 69.21 17.36 69.12 17.2 68.87 15.92 66.91"/><polygon class="f" points="1.83 70.94 1.5 70.94 1.5 71.19 1.5 72.2 1.5 72.45 1.83 72.45 7.1 72.45 7.23 72.45 7.33 72.38 8.64 71.37 9.21 70.94 8.41 70.94 1.83 70.94"/><path class="f" d="M441.32,269.33c-1.77,0-3.2,1.09-3.2,2.45s1.44,2.45,3.2,2.45,3.2-1.1,3.2-2.45-1.44-2.45-3.2-2.45Z"/><polygon class="f" points="778.35 200.77 778.26 200.9 775.7 204.82 775.56 205.04 775.84 205.15 778.4 206.12 778.61 206.2 778.77 206.08 782.62 203.14 782.71 203.07 782.71 202.97 782.71 201.01 782.71 200.77 782.39 200.77 778.54 200.77 778.35 200.77"/><polygon class="f" points="272.47 118.49 272.8 118.49 274.09 118.49 274.23 118.49 274.32 118.42 276.9 116.41 277 116.33 277 116.23 277 115.22 277 115.07 276.82 114.99 274.49 114.09 275.69 111.28 275.78 111.07 275.53 110.97 270.71 109.1 275.63 104.31 276.19 103.77 275.32 103.9 268.85 104.91 268.77 104.92 268.7 104.96 259.65 111 259.39 111.18 259.63 111.37 260.79 112.27 259.56 115.14 259.44 115.41 259.8 115.47 266.11 116.45 267.33 118.35 267.42 118.49 267.62 118.49 268.92 118.49 269.09 118.49 269.19 118.38 271.67 115.47 272.47 115.47 272.47 118.24 272.47 118.49"/><polygon class="f" points="254.36 117.13 254.36 116.25 253.76 117 249.92 121.89 249.63 122.27 250.19 122.27 254.04 122.27 254.17 122.27 254.26 122.2 255.54 121.22 255.77 121.04 255.54 120.87 254.36 119.96 254.36 118.11 254.36 117.13"/><polygon class="f" points="175.9 30.18 176 30.18 176.08 30.14 184.76 25.4 190.94 24.46 191.39 24.39 191.14 24.09 188.64 21.23 188.55 21.12 188.38 21.12 180.89 21.12 180.79 21.12 180.71 21.17 171.97 25.94 171.91 25.97 171.88 26.02 169.38 29.84 169.15 30.18 169.66 30.18 175.9 30.18"/><polygon class="f" points="192.33 17.97 192.42 18.11 192.62 18.11 193.9 18.11 193.95 18.11 194.01 18.09 208.1 14.18 208.31 14.12 208.31 13.95 208.31 11.99 208.31 11.72 207.96 11.75 196.43 12.72 196.34 12.73 196.27 12.77 191.14 15.71 190.93 15.83 191.05 16.01 192.33 17.97"/><polygon class="f" points="220.76 22.63 220.85 22.18 223.41 20.22 223.64 20.05 223.41 19.88 222.13 18.9 222.04 18.86 221.91 18.86 220.76 18.86 219.8 18.09 220.85 17.29 221.4 16.6 220.62 16.6 219.34 16.6 219.29 16.6 219.24 16.88 211.68 18.81 206.68 16.89 206.55 16.84 206.41 16.88 200.01 18.84 200.01 18.91 200.01 19.07 200.01 20.05 200.01 20.23 200.03 20.28 203.37 21.13 201.18 22.81 199.9 23.79 199.35 24.14 200.13 24.14 203.97 24.14 204.04 24.14 204.11 24.18 209.17 22.63 220.62 22.63 220.76 22.63"/><polygon class="f" points="220.11 14.4 220.23 14.44 220.36 14.41 224.2 13.43 224.27 13.41 224.32 13.37 226.89 11.42 227.2 11.18 226.8 11.02 224.24 10.05 224.03 9.97 223.87 10.09 221.45 11.94 217.79 11.01 217.37 10.9 217.37 11.24 217.37 13.2 217.37 13.35 217.55 13.42 220.11 14.4"/><polygon class="f" points="234.55 23.19 234.8 23.31 234.97 23.13 238.82 19.22 238.99 19.05 238.79 18.9 236.23 16.94 236 16.77 235.77 16.94 233.44 18.72 229.82 15.96 229.42 15.66 229.28 16.08 228 19.99 227.94 20.17 228.15 20.26 234.55 23.19"/><polygon class="f" points="240.81 15.21 241.05 16.11 241.43 15.23 242.71 12.3 242.74 12.23 242.72 12.16 241.44 8.25 241.22 7.61 240.84 8.2 239.56 10.16 239.51 10.23 239.53 10.31 240.81 15.21"/><polygon class="f" points="266.86 14.33 267.19 14.33 267.19 14.09 267.19 8.22 267.19 8.15 267.14 8.09 263.26 3.2 262.66 2.44 262.66 3.32 262.66 4.22 258.85 8.07 258.8 8.12 258.79 8.18 257.5 14.05 257.43 14.33 257.81 14.33 266.86 14.33"/><polygon class="f" points="248.32 22.09 248.32 23.96 248.32 24.12 248.5 24.19 256.26 27.15 256.37 27.19 256.48 27.17 261.58 26.19 267.98 27.17 268.26 27.21 268.35 27.01 269.65 24.04 269.74 23.82 269.46 23.73 262.99 21.76 262.86 21.72 262.73 21.77 260.26 22.71 252.85 20.82 252.85 19.07 252.85 18.87 252.59 18.83 246.3 17.87 245.09 16.94 244.54 16.53 244.54 17.16 244.54 20.04 244.54 20.17 244.68 20.24 248.32 22.09"/><polygon class="f" points="223.09 33.01 223.18 32.99 223.24 32.95 227.09 30.01 227.18 29.94 227.18 29.83 227.18 26.9 227.18 26.61 226.81 26.66 219.12 27.64 218.9 27.66 218.86 27.84 217.58 33.71 217.5 34.08 217.97 33.99 223.09 33.01"/><polygon class="f" points="237.45 25.51 237.26 25.48 237.14 25.6 233.59 29.22 233.43 29.37 233.61 29.51 234.8 30.42 234.97 30.55 235.17 30.45 238.66 28.67 242.12 28.67 242.3 28.67 242.39 28.55 243.57 26.74 243.78 26.41 243.31 26.41 242.15 26.41 237.45 25.51"/><polygon class="f" points="177.88 35.47 175.71 35.47 176.11 35.87 180.06 39.89 180.16 39.99 180.33 39.99 194.77 39.99 200 40.99 200.09 41.01 200.17 40.99 209.39 38.98 209.68 38.92 209.62 38.69 208.31 33.68 208.31 29.83 208.31 29.43 207.81 29.43 204.06 29.43 197.73 26.69 197.51 26.59 197.34 26.73 195.14 28.4 194.02 25.84 193.93 25.62 193.63 25.68 184.35 27.64 184.09 27.7 184.11 27.9 184.4 30.18 180.91 30.18 181.14 30.18 181.14 31.16 181.14 32.97 181.14 33.2 181.44 33.2 187.16 33.2 188.15 35.47 177.88 35.47"/><polygon class="f" points="232.51 54.64 232.35 54.6 228.4 53.59 228.34 53.58 228.29 53.58 226.98 53.58 226.79 53.58 226.69 53.7 222.74 58.73 222.64 58.85 222.73 58.98 224.04 60.99 224.13 61.13 224.34 61.13 226.98 61.13 227.05 61.13 227.12 61.1 229.65 60.14 234.8 61.12 235.38 61.23 235.19 60.8 232.56 54.76 232.51 54.64"/><polygon class="f" points="277.95 58.54 278.22 58.37 285.71 53.61 285.96 53.45 285.75 53.26 277.13 45.75 279.56 41.12 279.63 40.98 279.51 40.87 272.02 34.2 271.97 34.16 271.9 34.13 265.66 32.23 265.46 32.17 265.32 32.28 264.1 33.21 255.87 36.8 255.87 35.87 263.46 30.07 263.69 29.9 263.46 29.72 262.18 28.74 262.03 28.63 261.83 28.69 255.43 30.65 255.32 30.68 255.26 30.75 250.44 37.21 249.5 35.78 254.54 29.04 254.82 28.67 254.26 28.67 246.58 28.67 246.45 28.67 246.35 28.74 242.51 31.68 242.45 31.72 242.43 31.78 241.15 34.71 241.11 34.8 241.16 34.88 243.72 39.77 243.77 39.87 243.91 39.91 261.48 44.7 256.55 51.3 256.53 51.33 256.52 51.36 255.29 55.09 248.07 55.09 247.94 55.09 247.84 55.16 246.6 56.11 246.54 56.15 246.52 56.21 245.27 59.07 245.1 59.46 245.63 59.38 251.75 58.44 257.68 61.16 256.51 63.83 256.43 64.01 256.63 64.11 264.12 67.92 264.52 68.12 264.6 67.76 265.77 62.41 269.11 64.11 269.19 64.15 269.28 64.15 270.53 64.15 270.73 64.15 270.81 64.02 274.56 58.3 274.66 58.14 274.5 58.02 272.13 56.21 273.16 53.05 277.76 58.32 277.95 58.54"/><polygon class="f" points="271.72 16.28 270.69 17.86 265.77 16.92 265.66 16.9 265.55 16.94 260.38 18.91 259.8 19.13 260.38 19.36 262.96 20.34 263.03 20.37 263.79 20.37 269.87 20.37 273.5 22.22 273.71 22.32 273.89 22.19 281.21 16.6 283.55 16.6 283.6 16.6 283.65 16.58 287.36 15.64 287.57 15.59 287.57 15.59 287.57 13.78 293.5 12.82 298.44 12.82 298.57 12.82 298.66 12.75 299.86 11.78 319.68 5.76 319.74 5.74 319.79 5.7 323.52 2.69 324.05 2.25 323.3 2.25 277.31 2.25 277 2.25 277 2.36 277 5.32 277 5.47 277.18 5.54 282.35 7.51 282.42 7.54 282.49 7.54 292.05 7.54 290.1 9.03 279.99 10 276.21 8.07 275.95 7.94 275.77 8.14 269.31 15.04 269.09 15.28 269.43 15.41 271.72 16.28"/><polygon class="f" points="82.48 92.28 82.32 92.78 81.03 96.69 81 96.79 81.07 96.88 84.91 101.77 85.01 101.89 85.19 101.89 86.47 101.89 86.79 101.89 86.79 101.64 86.79 96.75 86.79 96.67 86.73 96.6 82.88 92.69 82.48 92.28"/><polygon class="f" points="79.15 81.52 78.84 81.76 79.24 81.92 81.8 82.89 82.26 83.07 82.26 82.67 82.26 79.74 82.26 79.15 81.71 79.57 79.15 81.52"/><polygon class="f" points="78.51 87.74 81.07 85.79 81.3 85.61 81.07 85.44 79.79 84.46 79.24 84.04 79.24 84.63 79.24 85.56 78 87.46 78.51 87.74"/><polygon class="f" points="191.13 212.09 191.71 212.12 191.71 212.09 201.41 212.09 201.93 212.09 201.69 211.73 200.41 209.77 200.36 209.7 200.27 209.67 195.14 207.71 195.12 207.7 195.1 207.7 191.71 206.77 191.71 206.8 191.21 206.8 190.95 206.61 190.95 206.8 188.6 206.8 188.52 206.8 188.45 206.73 185.89 207.71 183.33 208.69 182.75 208.91 183.33 209.13 185.2 209.84 182.09 210.63 182.14 211.11 190.95 212.05 190.95 212.09 191.13 212.09"/><polygon class="f" points="373.25 65.15 373.26 65.17 373.26 65.16 381.94 68 394.75 63.1 394.75 61.15 390.9 57.23 379.37 59.19 376.81 57.23 372.05 58.14 371.91 58.04 371.86 58.18 371.69 58.21 371.81 58.31 371.76 58.45 371.95 58.41 375.53 61.15 373.11 64.84 373.1 64.84 373.1 64.86 372.97 65.06 373.25 65.15"/><polygon class="f" points="174.3 190.95 174.5 190.95 177.06 190.95 177.51 190.95 177.37 190.24 176.09 187.3 176.01 187.18 175.78 187.18 173.22 187.18 172.84 187.18 172.84 187.38 172.84 188.36 172.84 188.42 172.93 188.47 174.21 190.42 174.3 190.95"/><polygon class="f" points="168.49 211.34 168.38 211.42 167.1 212.4 166.78 212.64 167.18 212.79 172.3 214.75 172.42 214.8 172.55 214.77 176.39 213.79 176.61 213.73 176.61 213.55 176.61 212.57 176.61 212.37 176.34 212.33 168.66 211.35 168.49 211.34"/><polygon class="f" points="232.06 244.64 232.47 244.7 232.47 244.4 232.47 241.56 235.05 239.68 235.63 239.26 234.81 239.26 226.76 239.26 226.43 239.26 226.43 239.51 226.43 242.34 225.19 243.25 224.74 243.57 225.36 243.66 232.06 244.64"/><polygon class="f" points="269.54 444.56 268.7 444.14 268.7 444.73 268.7 448.65 268.7 448.75 269.08 448.82 270.37 449.8 270.96 450.22 270.96 449.62 270.96 445.71 270.96 445.61 270.82 445.54 269.54 444.56"/><polygon class="f" points="265.28 447.26 265.14 447.58 265.58 447.58 266.87 447.58 267.19 447.58 267.19 447.34 267.19 444.4 266.56 444.33 265.28 447.26"/><polygon class="f" points="399.64 103.47 399.58 103.51 399.56 103.57 398.32 106.59 398.14 107.02 398.69 106.91 403.66 105.91 403.69 105.9 403.73 105.89 408.69 103.88 408.83 103.82 408.86 103.7 410.05 98.87 411.04 98.87 411.35 98.87 411.35 98.62 411.35 96.61 411.35 96.5 411.26 96.43 408.77 94.41 408.69 94.34 408.96 94.34 406.65 94.34 406.62 94.06 406.33 94.34 405.99 94.34 406.03 94.29 403.7 95.18 403.65 95.19 403.61 95.22 402.43 96.6 401.28 96.6 401.14 96.6 401.05 96.2 399.77 97.18 399.28 97.25 399.28 97.35 399.28 99.31 399.28 99.41 399.77 99.48 400.79 100.39 400.79 102.54 399.64 103.47"/><polygon class="f" points="526.86 159.28 527.01 159.21 530.86 157.25 530.62 156.8 524.21 157.78 523.29 157.92 524.13 158.24 526.69 159.22 526.86 159.28"/><polygon class="f" points="590.7 325.68 591.17 325.79 591.12 325.42 589.82 314.66 589.81 314.57 589.73 314.5 587.13 312.55 587.03 312.48 586.9 312.48 585.59 312.48 585.4 312.48 585.31 312.6 577.52 323.34 576.3 324.25 569.86 326.2 569.71 326.24 569.66 326.35 567.06 333.2 567.04 333.26 567.05 333.32 568.35 338.19 568.35 339.06 563.22 343.88 563.12 343.97 563.15 344.08 565.76 353.87 565.78 353.97 565.89 354.02 569.79 355.98 569.93 356.05 570.08 356.01 577.89 354.05 578.05 354.01 578.1 353.89 587.21 331.39 587.22 331.35 587.22 331.32 587.22 324.8 590.7 325.68"/><path class="f" d="M689.99,241.08l-.4-.53-.19,.59s-1.28,3.92-1.27,3.9l-1.28,2.93-.02,.06v.06l1.29,5.87,.08,.36,.4-.19,6.4-2.93,.15-.07v-3.14l-.04-.06-5.13-6.85Z"/><path class="f" d="M740.46,214.85l2.53,3.85,1.28,3.9v.02l.02,.02,3.85,6.82,1.28,9.69-1.27,2.89-.04,.1,.06,.09,1.29,1.96,.02,.04,.04,.03,3.77,2.87v1.98l.13,.07,1,.57,.15,3.88h-1.63l.44,.47,6.39,5.85,3.83,4.88,.06,.08,.11,.03,3.84,.98-.04-.02,2.56,.98,.51,.18v-2.41l-.08-.05-1.43-1.9v-1.65l-1.29-5.87v-.04l-.03-.03-1-1.53,.37,.05-.67-.51-.05-.07h-.06l-5.06-3.87-.1-.07h-1.25l-3.69-3.75v-1.26l.15-.06-2.41-2.88v-13.52l.99-1.17h.92l1.2,3.11,.07-.09h3.92l8.92,6.81,1.21,1.85-1.26,3.86-.1,.31h1.79l.09-.06,12.74-8.76,.12-.08v-.12l-1.29-11.67v-.07l-.06-.06-13.92-13.53,1.24-4.72,3.7-4.71h3.45l1.19,1.71,.09,.56h2.92v-3.51l12.54-4.79h5.18l.09-.07,1.28-.98,.03-.02,.02-.03,7.68-10.75,.03-.04v-.05l1.28-9.77v-.08l-.04-.07-10.23-13.67-.02-.03-.03-.02-6.28-4.8,1.23-9.43h2.9l-.14-.36-1.28-2.94-.07-.48h-5.49l-.1,.38-2.38,1.81-7.21-3.67,6.09-7.44,2.47,.81v2.96l-.12,.06,3.84,.98,.15,.04,.13-.07,3.84-1.96,.46-.07v-.29l.68,1.03,.09,.14h3.76v3.98l.09,.07,1.27,.96,.23,.17,.22-.17,1.08-.82,4.1,2.22,.62,4.22v.08l.09,.06,2.48,1.88,1.24,2.83,.03,.05,.05,.04,1.27,.96,.09,.07h2.8l.09-.07,3.8-2.88,.09-.07v-3.05l-.05-.06-6.16-7.13h.01l-.19-.2-.18-.2h-.01l-1.09-1.13v-.02h-.03l-1.27-.97-.09-.07h-1.87l-1.15-3.64,1.18-1.87,.05-.08-.03-.09-1.21-3.84,1.21-2.87,.05-.11-.08-.1-1.06-1.36,.89-.24,.34-.09h0l3.28-.87,4.85,.96,.32,.06,.06-.25,2.47-9.78v-.07l-1.23-10.76v-.06l-.04-.05-11.12-14.68-.05-.07-.1-.03-8.65-2.94-.16-.05-.13,.07-3.53,1.86-8.18-4.62,3.45-2.73,.1-.08v-.11l-1.22-10.56,18.11-3.82,2.35,1.86,.18,.14,.21-.11,7.42-3.91,.52-.28-.6-.16-3.42-.9,2.27-6.28,4.58,2.72,.5,.29v-5.55l6.79,8.07v7.91l.06,.06,8.85,9.66,.02,.02,.03,.02,13.91,9.66,.53,.37v-4.38l.19-.04-2.45-5.83v-2.97l-.15-.06-2.42-2.77,1.1-.84,.28-.21-.33-.17-3.85-1.96-.08-.18h-2.1v-1.81l-.12-.07-4.74-2.84-1.14-4.57,5.78-2.78h2.6l.04-.21,1.2-7.68,2.37-2.85,.05-.06v-2.53l-.42,.11-3.74,.95-7.36-2.81,1.2-2.75,.04-.1-.06-.09-1.05-1.61h4.6l14.14,1.96,.68,.09-.34-.46-5.16-6.89-.1-.14-.21,.02-11.52,.98-23.12-5.89-.07-.02h-.07l-15.46,.99-.29,.02v2l-4.66,.89-1.17-1.79-.12-.18-.25,.05-15.32,2.92-8.9-4.85-.12-.06-.14,.02-11.51,1.95-12.8-2.94h-15.08l-.07,.02-12.72,4.89-.18,.07v1.82l-28.89-3.86s-15.3-.98-15.3-.98l-.35-.02v2.9l-7.01-2.68-.18-.07-.16,.1-7.85,5.14,.89-2.04,.1-.23-.3-.07-3.02-.77,6.79-2.59,.17-.07v-5.11l-.18-.07-7.9-2.94-.13-.05-.14,.04-6.38,1.9-3.8-2.82-.1-.07h-4.26l-.1,.11-2.63,2.94-.06,.06v1.3l.03,.05,1.05,1.58h-16.23l-.08,.04-15.37,7.71-.24,.12,.12,.19,1.27,1.91,1.28,2.88,.06,.13,.18,.03,6.26,.94,3.32,4.17-3.02-.76-.26-.07-.13,.19-.99,1.5-2.27-3.43-.06-.09-.14-.03-8.97-1.93-.18-.04-.13,.1-1.13,.85-6.21-1.87-.44-.13v5.27l.09,.07,6.4,4.82,.09,.07h6.46l17.9,7.73v1.38l-5.58-2.71-.46-.22v3.8l-6.02-5.52-.05-.05-.08-.02-6.61-2.02-.2-.06-.15,.12-2.64,2.02-.1,.07v2.63l-5.19,.84,2.14-3.48,.03-.05v-2.17l-.17-.07-2.34-.95-3.58-4.84-.02-.02-.02-.02-1.17-.95-3.6-5.85-.09-.14h-6.44l-.08,.16-2.42,4.91-.07,.14,.12,.11,6.96,6.59-3.05,.83-4.71-2.87-.08-.05h-7.92v2.97l-1.05,.81h-1.35l-1.25-.91-.16-.11-.2,.05-10.52,2.88-2.53-1.85-.2-.15-.23,.12-13.18,6.73-1.04-.76v-1.98l-.13-.07-5.37-2.94-.54-.29v8.33h-3.59l-.09,.07-3.77,2.91-.09,.07v1.74l-5.91-.91-.16-.02-.12,.09-1.26,.97-.27,.21,.32,.16,3.45,1.78-2.07,1.6-6-2.78-4.66-7.2,11.88,2.75,.12,.03,.11-.04,2.52-.97,.08-.03,.05-.05,2.51-2.91,.17-.19-.24-.14-10.06-5.82-.06-.04h-.07l-7.55-.98h-.1l-.09,.02-2.39,.92-6.1-1.88-2.47-1.91-.07-.05h-.1l-6.29-.98h-4.36l-.09,.04-5.23,2.87-6.53,.96h-.1l-.07,.07-1.31,.96-3.93,1.91h-.03l-.02,.03-1.31,.95-3.92,1.91-.08,.03-.04,.06-1.3,1.91-9.24,9.66-.06,.06v2.73h-3.75l-.09,.06-9.25,5.8-.15,.09,.04,.14,2.64,9.64v2.29l.24,.05,5.12,.98,.17,.03,.13-.1,6.07-4.64,6.2,10.43,.11,.19,.26-.05,5.12-.98,.16-.03,.06-.12,2.53-4.83,2.52-1.92h.01v-.02l5.13-4.88,.21-.2-.26-.15-4.93-2.83,2.45-5.62,6.33-3.86,.06-.04,.03-.06,3.76-7.66h2.14l1.12,1.71-2.49,3.8v.02l-.02,.02-1.26,2.88-2.5,1.91-.11,.09,.03,.12,1.28,6.84,.02,.13,.15,.06,5.12,1.95,.12,.05,.13-.04,10.18-2.92h2.6l1.08,1.65-4.89,2.8-6.37,.97-.26,.04v2.35l.22,.05,3.56,.91-1.11,2.55h-3.51l-.02,.23-.16,2.19-.47,1.9-1.92,2.78-.1,.14-3.95,.9-.54-1.13-.09-.19-.27,.03-7.77,.98h-.05l-7.77,1.97-.22,.05v.86l-6.08-.92h-.16l-3.74,.95-3.6-1.82v-2.46l1.02-2.89,.49-.04v-4.76l-.57,.44-4.02,3.07-.04,.03-.02,.04-2.69,4.1-.07,.11,.07,.12,1.3,1.99v1.26l.09,.07,1.04,.83-.99,.79-3.71,.99-.21,.06h0l-3.56,.95-.07,.02-.05,.04-3.69,2.95h-1.26l-.09,.07-1.04,.83-.05-.04-.2,.24-.2,.16,.04,.03-2.33,2.79-2.44,.97-.08,.03-.05,.06-2.48,2.98-3.57,1.9-2.35-.94-.07-.03h-2.27l-.08,.17-1.24,2.84h-2.16l-1.19-.91-.09,.15h-2.05l-.07,.16-1.26,2.88-.02,.04v2.2h4.48l5.11,4.69-1.28,2.81-.02,.04v5.51c-1.59-.24-5.67-.87-5.68-.87l-7.56-.96s-3.56-.59-3.56-.59l-.24-.04-.12,.16-1.24,1.67-2.47,.45-.25,.04,.75,.07v3.61h0v.75h0v3.56l-2.64,6.7,.38,.03v1.09l-.3,.07,1.14,.91,1.19,4.73,.07,.26,.33-.07,4.62-.92,2.3,2.73,.05,.06,.07,.03,2.42,.96,.26,.1,.16-.19,2.35-2.79,5.42-.72h.09l.07-.06,3.98-2.73s2.96-2.42,2.96-2.42l.11-.09-.03-.12-1.03-4.41,1.59-2.57,3.67-1.14h1.22l.07-.17,2.42-.96,.13-.05,.03-.11,1.12-3.99h.85l.09-.13,1.11-1.7,7.08,.9h.12l.1-.04,3.65-1.86,.18-.09-.03-.1h2.25l2.64-1.01,2.63,1.01,6.59,7.05,7.9,4.02,1.32,1.01,1.32,6.04h.99l2.54-2.91-1.27-2.91,2.54-.97h2.43v-.94l-5.49-2.83h-1.37l-1.37-.94-6.86-2.83-2.74-5.66,1.26-2.6,.59,.31,.14,.07,.16-.03h.05l1.63,1.45,.24,.21,.28-.19,1.03-.71,1.34,1.94,.02,.04,.04,.03,2.92,2s2.42,1.43,2.42,1.43h.02l.02,.02,5.24,2.21h0l.07,.03,1.12,.47-.1-.12,.37,.13h.02l2.71,.99v3.83l1.24,3.78,.06,.18h1.28l2.39,3.64,.09,.13h3.99l.96,.53-.96,.22h-1.6l.14,.83,1.28,2.94h2.96l.08,.13,3.84-1.96,.08-.07v-1.26l-3.77-3.84v-3.03l3.77-2.79h6.8v-.13h-.31l1.89-.97,3.5-1.1,.37-.12-.22-.25-2.96-3.36v-2.38h1.16l.07-.4,1.23-2.81,.99-.17,.13,.28,.28-.35,.2-.03-.06-.15,4.93-6.12,5.55,.89-.41,1.47-.04,.12,.11,.09,3.04,2.57,.18,.15,.23-.11,5.12-2.45,.29-.14-.2-.21-3.23-3.47,9.11-1.11-1.81,5.88-.05,.17,.19,.09,8.16,4.15h0l5.31,2.98-.16,3.05v.03l-13.77,.96-3.85-1.96-15.38,2.94-3.52-.12-2.88,2.08-5.12,3.91,3.84,4.89,1.28,4h2.56l2.56,1.87,5.12-.98,1.28-.98,6.4,1.96,7.69-.98,1.12,2.12h-.5v5.65l-.81,1.9h-.09l-.23,.75h-.08l-3.34,6.79h-1.16l-.07,.17-2.28,.87-1.14-1.74-.07-.11-.15-.02-6.41-.98-.17-.03-.12,.09-3.7,2.83-11.13-2.83v-.52h-.37l-.38,.36v-.36h-5.87l-1.19-1.37-.09-.14h-6.68l-.07,.04-2.56,.98-.12,.05-.04,.1-1.28,2.94-.04,.1,.06,.09,1.14,1.74-2.12,.81-12.66-5.8-.04-.02h-.05l-10.21-1.96-5.73-1.9v-1.64l1.91-.91,.36-.07v-7.13l-.32-.07-3.84-1.96-.13-.07-.15,.04-3.81,.97-19.18,.98h-.05l-.05,.02-12.75,3.64h-11.6l-.1,.33-11.53,8.81-.06,.05-.02,.07-2.54,7.75-8.86,5.8-2.45,.93h-.13l-.05,.07-.91,.35,.66,.04-8.76,13.38h0v.02l-3.77,7.69h-.17v.19l-.07,.57h.07v1.49l.1,.05,1.26,1.92,1.27,8.7-2.53,4.83-2.56,4.89-.08,.15,.15,.11,2.4,1.89v4.64h-.13l.13,.21v.55h.19l1.19,1.46h0v.02l2.56,2.91h0l5,6.69-.05,.04,.2,.15,.19,.25,.07-.05,3.59,2.74,2.55,2.92,.02,.02,.02,.02,1.16,.89v.03l.14,.08,.4,.31,.02-.08,8.54,4.66,2.55,1.94,.17,.12,.21-.08,2.52-.96,6.32-.69h8.68v-.25l.28,.25h.37v-.31l9.72-.91v.18l.27-.22,.49-.02v.11l3.49-1.84h3.3v.07l.34-.07h.31v-.25l4.58-.88,3.74,6.66,.1,.18,.25-.03,7.5-.96,4.98,4.75,1.22,1.86-1.24,3.79v.03l-2.57,6.85-.04,.1,.07,.09,7.68,9.77h0l2.07,2.82,.88,2.02-.04,.03,.11,.15,.14,.33,.07-.05,.32,.43,.11,.16s1.44,1.96,1.44,1.95l1.17,1.9v4.85l.08,.02,2.54,12.62-3.76,3.83-.37,.07v5.8l-2.08,.91-.18,.07v7.44l.06,.06,5.09,5.83,8.79,26.94v.02l.02,.02,1.44,2.31,2.55,5.84s2.25,6.87,2.53,7.71l-1.23,1.87-.06,.09,.03,.09,2.57,6.84,.07,.18h4.22l.09-.07,2.5-1.9,17.84-2.91h.04l.03-.02,2.57-.98h.03l.02-.02,5.12-2.93h.02l.02-.02,1.28-.98,.02-.02,.02-.03,6.41-7.81s3.83-3.89,3.83-3.89l.05-.05v-.06l1.29-6.81,1.25-2.86,2.41-1.84h3.91l.09-.14,1.28-1.96h0v-.03l2.58-5.86,.03-.07-.02-.07-2.56-7.79v-2.12l1.1-.84h2.64l.09-.14,1.26-1.92,1.25-.96s9.23-6.17,10.17-6.8h2.25l.09-.13,1.27-1.94,.02-.04v-.04l1.28-9.73v-.07l-.03-.06-2.51-3.84v-6.85l-.09-.07-1.2-.91-1.26-7.7v-.05l-1.25-2.83,2.49-4.74,1.22-.93,.09-.07v-3.94l2.51-3.84,2.43-2.78h1.7l.09-.11,8.74-9.76,4.92-.96,.14-.03,.07-.1,5.03-7.87s6.28-8.84,6.28-8.84l.03-.04v-.04l3.78-14.75,.03-.13-.12-.09-1.25-.98-.14-.11-.19,.05-18.68,4.87-2.2-1.72,.05-.06-.27-.1-.24-.19-.06,.07-2.09-.82v-1.87l-.04-.05-1.14-1.78h0l-.12-.19-.16-.25h0l-1.1-1.72-.04-.06-.07-.04-3.74-1.95-5.02-3.92-.09-.07h-2.4l-2.4-7.52h.02l-.08-.16-.11-.35-.05,.03-2.34-4.58v-1.98l-.35-.05-3.83-5.85-1.14-2.94h-.15l-.06,.75h.3l-13.85-20.17-.98-3.15,4.27,3.42,.42,.33,.12-.47,1.22-4.88h1.96v8.04l.18,.07,2.44,.98,6.3,10.09,.05,.08,.09,.04,2.41,.96,2.51,9.03,.02,.06,.05,.05,13.89,14.16v2.13l-.21,.06,.21,.09v.64l.11-.25,2.16,3.52v2.24l.04,.05,1.28,1.96,.02,.04,.03,.03,1.29,.98,.09,.07h1.53l14.13-3.93h.04l.03-.03,11.56-5.87,.15-.07v-2.09l1.1-.84h2.22l.06,.14,.27-.14h.36l-.06-.15,7.57-3.85,.06-.03,.04-.04,11.67-13.86,.13-.16-.17-.14-10.37-8.91s-1.31-1-1.31-1l-2.59-1.98-.09-.07h-2.77l-.09,.11-3.47,4.42h-7.83v-3.54l-.1-.07-2.65-1.89-.38-.27-.17,.36-1.99,4.28v-2.39l-.06-.06-1.72-1.85,2.32,.21,.41,.04-.04-.29-.25-2-.02-.18-.25-.03-2.73-.35-.44-.06,.05,.32,.25,1.62-.21-.22-5.26-7.52-1.21-3.46h4.68l5.18,5.56,.04,.04,.06,.03,3.96,1.89,.08,.04h2.06l6.5,3.97,.2,.12,.2-.12,5.04-2.89,1.08,.82,2.61,3.99,.09,.14h6.76l7.59,.96v-.21h.2l.55,.18v-.18h13.44l6.11,4.8-.23-.27h.26l.17,.13,.13-.13h3.77l1.02,.78-2.48,1.89-.24,.18,.24,.19,6.79,5.19,.1,.08h2.55l.09-.07,1.23-.94,.05-.04,.02-.05,1.17-2.67h1.83l1.25,10.55v.03l.02,.03,7.7,15.67s2.37,5.43,2.54,5.83v3.03l.14,.07,3.74,1.91,2.54,7.74,.02,.07,.06,.05,1.28,.98,.09,.07h3.8l.09-.12,3.75-4.87,1.23-.96,.08-.06v-.09l1.27-9.78s0-1,0-1v-.03l-1.23-7.65,2.32-.9,.05-.02,.04-.03,1.26-.98,.02-.02,.02-.02,2.5-2.92,1.24-.96,.04-.03,.02-.04,5.01-7.79,2.26-1.76,1.04,.81,.31,.24,.2-.3,2.49-3.87,1.23-.96,.09-.07v-1.87h7.55v-3.02h2.26l2.27,.88v3.82l.04,.05,1.16,1.8-.05,.04,.14,.12,.12,.38,.16-.13,9.76,8.54v5.85l.22,.06,3.86,.98,.22,.06,.14-.14,3.64-3.69,.99,.75Zm-157.28-63.9h-4.91l-3.69-4.7,1.26-6.89,.02-.09-.07-.08-3.18-3.52v-.02l-7.03-9.01-1.22-3.73,2.86-1.73,8.14-3.11,7.29,3.02-1.55,3.01-3.4-.79-.2-.05-.14,.12-3.52,3.06-.18,.15,.16,.16,7.04,7.09,1.27,1.46,.12,.13,.21-.03,2.54-.34,3,2.83-3.02,1.21-.22,.09,.06,.19,3.44,10.64-5.09,.92Zm20.54-25.01l-.11-.02-.04,.22-.19,.25,.14,.02-.55,2.83-5.33-.77,.3-4.48,1.21-1.15,2.42-1.63,3.05,3.55-.9,1.18Zm-65.5,150.18l-.1,.16-.31,.24,.13,.04-2.36,3.6-2.4,1.37h-3.54l-1.15-3.08,1.05-.69h.06l.06-.2,.52-.55h-.26l2.27-3.31,3.59-.91,2.35,.9,1.13,1.72-.97,.74-.08-.02Zm-17.41,9.13l.04-.56,2.22,.7v5.75l-.38,.03,2.11,6.45-3.99-4.63v-7.74Z"/><polygon class="f" points="816.71 184.39 816.68 184.28 816.53 184.22 813.97 183.25 813.62 183.11 813.52 183.41 812.24 187.32 812.22 187.38 812.24 187.44 813.52 191.35 813.52 191.38 813.54 191.4 814.82 193.36 815.11 193.8 815.4 193.36 817.96 189.44 818.01 189.37 817.99 189.29 816.71 184.39"/><polygon class="f" points="413.76 95.68 413.83 95.85 414.09 95.85 415.88 95.85 415.88 98.33 415.88 98.37 416.35 98.41 417.49 101.13 414.09 101.13 413.62 101.13 413.62 101.27 413.62 105.18 413.62 105.33 413.95 105.4 416.04 106.2 411.34 108.9 411.27 108.93 411.24 108.99 409.96 110.94 409.72 111.7 410.24 111.7 411.53 111.7 411.6 111.7 411.67 111.27 416.72 109.44 419.21 109.44 419.66 109.44 419.66 109.1 419.66 108.68 425.62 108.68 425.75 108.68 425.85 108.29 427.13 107.31 427.17 107.28 427.2 107.23 429.76 102.34 429.82 102.22 429.73 102.11 420.84 91.44 422.09 87.63 421.92 87.6 421.92 87.55 421.92 86.54 421.92 86.41 421.78 86.33 418.15 84.4 418.15 82.52 418.15 82.26 417.83 82.26 415.31 82.26 415.11 82.26 415.03 82.42 411.25 89.46 411.2 89.55 411.24 89.64 413.76 95.68"/><polygon class="f" points="451.36 138.87 451.55 138.87 451.63 138.74 452.83 136.78 452.87 136.73 452.87 136.67 452.87 134.71 452.87 134.12 452.35 134.54 449.94 136.5 449.85 136.57 449.85 136.67 449.85 138.63 449.85 138.87 450.15 138.87 451.36 138.87"/><polygon class="f" points="914.09 300.14 916.53 296.23 916.65 296.05 916.44 295.92 910.27 291.98 910.27 289.08 910.27 288.97 910.18 288.9 906.41 285.88 906.38 285.85 906.34 285.84 895.2 280.89 895.21 280.77 894.95 280.77 894.6 280.62 894.58 280.77 891.16 280.77 888.76 279.81 886.28 277.83 886.19 277.76 885.58 277.76 884.3 277.76 884.14 277.76 884.05 278.23 879.07 282.98 873.29 281.15 873.29 276.42 873.29 276.3 872.96 276.23 867.83 273.29 867.56 273.14 867.37 273.35 864.81 276.29 864.99 276.35 864.99 276.42 864.99 278.38 864.99 278.48 864.85 278.56 867.41 280.51 867.51 280.77 867.8 280.77 868.76 280.77 868.76 281.36 866.37 282.27 865.97 282.42 866.28 282.66 868.69 284.49 867.51 286.29 867.4 286.45 867.57 286.57 868.85 287.55 869.08 287.73 869.31 287.55 871.7 285.73 885.48 292.41 886.91 301.47 886.93 301.62 887.11 301.67 892.06 303.25 898.46 306.18 898.95 306.4 898.95 306.18 898.95 304.31 902.57 302.38 904.89 301.44 909.71 304.34 913.45 310.32 913.52 310.44 913.68 310.46 921.23 311.46 921.87 311.55 921.56 311.09 914.09 300.14"/><polygon class="f" points="926.43 287.57 926.12 287.57 926.12 287.81 926.12 288.69 922.8 291.38 921.81 290.57 921.64 290.43 921.43 290.54 917.81 292.5 917.38 292.73 917.84 292.92 920.25 293.9 920.27 293.91 920.29 293.92 923.92 294.89 924.12 294.95 924.25 294.82 929.08 289.92 929.14 289.86 929.14 289.77 929.14 287.81 929.14 287.57 928.84 287.57 926.43 287.57"/><polygon class="f" points="928.18 282.12 927.63 281.7 927.63 282.3 927.63 284.25 927.63 284.33 927.69 284.39 930.25 287.33 930.56 287.68 930.81 287.3 932.08 285.34 932.19 285.18 932.03 285.06 928.18 282.12"/><polygon class="f" points="219.63 439.73 219.54 439.28 219.34 439.28 218.9 439.28 218.35 438.75 218.13 438.86 218.13 439.84 218.13 440.04 218.06 440.04 218.5 440.04 220.34 442.89 221.15 442.78 221.15 441.8 221.15 441.74 220.91 441.69 219.63 439.73"/><polygon class="f" points="214.82 421.17 214.48 420.78 211.92 417.85 211.35 418.06 212.63 421 212.71 421.17 212.94 421.17 214.22 421.17 214.82 421.17"/><polygon class="f" points="216.16 428.84 215.8 428.02 214.52 425.08 214.19 424.33 213.91 425.1 213.27 426.81 213.21 426.96 213.37 427.06 215.3 428.29 216.16 428.84"/><polygon class="f" points="233.22 456.24 232.64 456.33 233.06 456.65 236.9 459.59 237 459.66 237.13 459.66 239.69 459.66 240.02 459.66 240.02 459.41 240.02 456.48 240.02 455.5 240.02 455.2 239.63 455.26 233.22 456.24"/><polygon class="f" points="227.26 449.16 227.17 449.09 227.03 449.09 224.47 449.09 223.69 449.09 224.24 449.51 228.08 452.45 228.31 452.62 228.54 452.45 229.82 451.47 230.05 451.29 229.82 451.12 227.26 449.16"/><polygon class="f" points="243.96 458.98 243.87 458.91 243.73 458.91 241.1 458.91 240.77 458.91 240.77 459.16 240.77 460.16 240.77 460.42 241.1 460.42 245.05 460.42 245.84 460.42 245.28 459.98 243.96 458.98"/><polygon class="f" points="245.34 451.66 245.3 451.48 245.08 451.54 244.61 451.32 244.67 451.64 241 452.55 240.77 452.61 240.77 452.79 240.77 453.77 240.77 453.83 240.8 453.88 242.01 455.67 240.87 456.53 240.7 456.65 240.8 456.81 242.12 458.77 242.21 458.91 242.41 458.91 246.07 458.91 246.07 458.94 246.36 458.91 246.73 458.91 246.72 458.87 255.58 457.92 255.87 457.89 255.87 457.68 255.87 456.7 255.87 456.57 255.71 456.49 245.34 451.66"/><polygon class="f" points="475.41 15.05 475.49 15.09 475.59 15.09 483.28 15.09 483.45 15.09 483.54 14.98 486.1 12.04 486.3 11.81 485.98 11.69 483.42 10.71 483.32 10.67 483.22 10.69 475.54 11.66 475.51 11.67 475.49 11.67 471.64 12.65 471.02 12.81 471.57 13.09 475.41 15.05"/><polygon class="f" points="457.06 15.89 457.08 15.92 457.13 15.95 459.69 17.91 459.85 18.04 460.06 17.96 462.41 17.05 463.43 17.84 463.43 19.66 462.17 22.55 462.08 22.75 462.33 22.85 467.46 24.81 467.81 24.94 467.91 24.65 469.18 20.78 472.98 16.9 473.17 16.71 472.93 16.57 466.52 12.65 466.36 12.55 466.18 12.62 463.68 13.58 456.07 13.58 455.55 13.58 455.78 13.93 457.06 15.89"/><polygon class="f" points="476.66 17.55 476.59 18.08 476.59 18.11 476.27 18.11 476.27 20.86 476.23 21.12 476.59 21.12 480.55 21.12 481.35 21.12 480.78 20.69 477.16 17.93 476.66 17.55"/><path class="f" d="M799.67,260.9h-.01l-6.2,4.78h-3.96v1.11l-2.42,1.86-.13,.1,.04,.13,1.26,3.87s3.78,8.73,3.78,8.73l.05,.11,.15,.04,3.65,.94,1.2,1.84,.09,.13h8.83l1.19,.86,.1-.1h2.83l.1,.1,5.12-3.91-.17-.07v-2.98l1.51-1.9,.02-.02v-.03l2.57-7.83,.02-.05v-.06l-2.54-9.65,3.72-2.85,.04-.03,.02-.03,1.28-1.96,.12-.17-.2-.13-7.69-4.89-.25-.16-.21,.2-4.96,4.74-.24-.09v.7l-.18,.17,.18,.07v1.64l-2.24,.86h-.04l-.09,.05-.74,.28,.21,.04-5.79,3.56h-.01Z"/><polygon class="f" points="911.03 362.78 911.03 358.62 911.03 358.55 911.47 358.48 908.76 355.61 908.76 346.88 908.76 346.78 908.87 346.71 902.73 341.88 902.73 326.33 902.73 326.15 902.33 326.1 898.69 325.17 897.43 313.59 897.42 313.45 897.25 313.39 894.69 312.41 894.34 312.28 894.24 312.57 886.61 335.12 884.42 335.12 871.88 326.27 878.18 316.65 878.35 316.39 877.98 316.31 865.17 313.37 864.91 313.32 864.79 313.5 863.58 315.35 858.59 316.31 858.47 316.33 858.4 316.41 850.87 325.05 842.14 322.19 841.93 322.12 841.78 322.25 820.09 341.16 816.03 341.16 815.96 341.16 815.89 341.18 796.19 348.71 794.64 348.71 794.41 348.71 794.33 348.88 789.15 360.77 789.12 360.83 789.14 360.9 790.34 364.56 788.21 364.56 787.98 364.56 787.91 364.72 786.63 367.64 786.61 367.7 786.62 367.77 789.16 376.47 786.63 387.06 781.59 391.87 781.39 392.07 781.65 392.22 786.75 395.13 786.87 395.21 787.02 395.17 795.88 393.24 807.87 393.24 807.94 393.24 808.01 393.21 820.65 388.52 834.48 387.58 843.1 390.32 843.1 397.72 843.1 398.14 843.58 397.92 852.57 393.75 846.96 400.43 846.65 400.79 847.23 400.79 851.03 400.79 851.19 400.79 851.29 400.69 854.4 397.61 853.27 405.16 850.81 406.99 850.59 407.16 850.81 407.32 859.7 413.93 859.93 414.1 860.15 413.93 862.41 412.24 864.74 414.84 864.87 414.98 865.09 414.93 877.79 412.1 877.89 412.08 877.95 412.02 894.4 396.04 898.11 395.11 898.21 395.09 898.27 395.02 909.7 382.76 909.74 382.71 909.75 382.66 912.29 371.34 912.3 371.31 912.29 371.27 911.03 362.78"/><path class="f" d="M860.27,422.68l-1.36-2.3-.17-.29-.32,.2-2.4,1.47-.08,.05-.03,.08-1.28,3.91s-1.28,2.92-1.28,2.92l-.06,.14,.14,.11,2.56,1.96,.16,.13,.21-.08,2.56-.98h.03l.02-.02,5.13-2.94,.13-.07v-4.28h-3.96Z"/><polygon class="f" points="948.35 418.32 949.63 410.51 948.35 407.58 947.08 407.58 945.8 418.32 939.4 424.19 936.9 424.19 934.26 433.24 934.26 433.24 934.32 432.8 934.26 433.24 934.34 433.24 934.4 433.3 934.41 433.24 935.39 433.24 947.26 424.19 950.91 424.19 952.19 421.25 948.35 418.32"/><polygon class="f" points="850.71 147.27 850.76 147.13 851.95 143.4 853.81 143.4 855.1 144.31 855.44 144.55 855.66 144.25 857.06 142.29 857.11 142.21 857.09 142.13 855.69 137.24 855.67 137.16 855.6 137.11 852.91 135.23 852.91 134.45 854.2 133.54 854.37 133.43 854.27 133.27 850.09 126.42 850.07 126.38 850.02 126.35 843.05 121.45 842.61 121.15 842.46 121.57 841.07 125.48 841.04 125.56 841.09 125.63 843.85 130.48 843.85 136.2 840.17 139.07 840.08 139.14 840.08 139.24 840.08 141.1 837.68 142.96 835.22 143.92 835.16 143.94 835.12 143.98 830.09 148.87 829.5 149.44 830.41 149.26 840.22 147.36 841.37 149.14 841.48 149.32 841.74 149.26 850.54 147.31 850.71 147.27"/><polygon class="f" points="833.2 151.87 832.97 151.91 827.84 152.89 828 152.94 828 153.13 828 156.07 828 156.23 827.92 156.23 830.27 156.23 830.27 159 830.27 159.06 830.2 159.11 831.48 161.07 831.6 161.26 831.87 161.19 835.71 160.21 835.86 160.17 835.92 160.06 837.2 157.12 837.24 157.01 837.17 156.92 833.32 152.03 833.2 151.87"/><polygon class="f" points="838.4 150.02 838.17 149.85 837.94 150.02 835.38 151.98 835.2 152.12 835.35 152.29 837.91 155.22 838.31 155.68 838.49 155.15 839.77 151.23 839.81 151.1 839.68 151 838.4 150.02"/><polygon class="f" points="837.06 116.82 837.06 116.92 837.06 120.84 837.06 121.51 836.89 121.51 839.45 121.51 839.65 121.51 839.74 120.95 840.93 119.25 845.86 119.25 846.02 119.25 846.12 119.03 849.96 115.11 850.13 114.94 849.93 114.79 844.81 110.88 844.75 110.84 844.67 110.82 835.7 108.86 835.55 108.77 835.55 109.1 835.55 112.03 835.55 112.09 835.33 112.14 837.78 115.89 836.66 116.75 837.06 116.82"/><polygon class="f" points="379.39 45.47 378.41 45.32 366.22 43.47 371.89 40.02 372.98 40.84 373 40.86 373.02 40.87 380.75 44.79 381.03 44.93 381.2 44.71 385.07 39.82 385.22 39.63 384.98 39.49 379.83 36.56 379.67 36.47 379.5 36.53 377.39 37.33 377.39 34.71 387.06 34.71 387.26 34.71 387.34 34.57 392.33 25.99 392.53 25.65 392.48 25.65 384.48 25.65 386.62 21.19 393.59 23.12 393.99 23.24 393.99 22.89 393.99 16.85 393.99 16.6 393.69 16.6 387.96 16.6 387.96 15.33 398.81 12.45 399.28 12.4 399.28 12.22 399.28 11.35 400.13 10.56 402.49 10.56 404.98 11.46 405.14 11.53 405.3 11.45 409.14 9.49 409.56 9.27 409.13 9.07 402.73 6.14 402.6 6.08 402.46 6.12 387.27 9.98 386.5 9.39 393.69 7.56 393.59 7.54 379 7.54 395.18 4.01 395.56 3.93 395.38 3.65 394.07 1.64 393.97 1.5 393.59 1.5 335.94 1.5 335.82 1.5 335.73 1.56 328.18 6.22 324.5 5.31 324.36 5.27 324.22 5.34 308.92 12.89 294.91 13.84 294.5 13.86 294.63 14.15 295.92 16.99 295.94 17.05 295.99 17.09 297.27 18.04 297.37 18.11 297.71 18.11 302.66 18.11 302.66 19.62 297.71 19.62 297.38 19.62 297.38 19.86 297.38 21.88 297.38 21.94 297.41 21.99 298.73 24 298.82 24.14 299.03 24.14 306.9 24.14 311.96 25.11 314.5 29.96 313.2 36.94 313.12 37.34 313.63 37.21 317.23 36.3 318.39 40.75 314.15 40.75 313.64 40.75 313.87 40.71 315.15 42.67 315.2 42.74 315.29 42.78 317.61 43.66 316.42 46.37 315.24 48.3 310.31 48.3 310.15 48.3 310.05 48.28 306.21 52.19 305.68 52.26 305.68 52.34 305.68 57.23 305.68 57.34 306.24 57.41 307.19 58.31 307.19 62.04 304.8 62.96 304.55 63.05 304.63 63.24 308.49 73.03 308.56 73.21 308.8 73.21 312.47 73.21 314.96 76.98 315.08 77.17 315.35 77.11 319.21 76.13 319.32 76.1 319.38 76.03 330.92 62.39 338.57 59.48 338.62 59.46 338.65 59.43 341.07 57.6 343.43 58.5 343.64 58.58 343.8 58.45 347.64 55.54 356.53 50.72 361.53 51.67 361.64 51.69 361.74 51.65 378.49 45.78 379.39 45.47"/><polygon class="f" points="460.42 94.76 460.42 94.42 460.42 92.46 460.42 92.36 460.32 92.29 457.76 90.33 457.39 90.05 457.23 90.43 455.95 93.36 455.85 93.6 456.15 93.67 459.99 94.65 460.42 94.76"/><polygon class="f" points="469.37 154.55 469.49 154.17 470.93 149.52 471.01 149.27 470.68 149.22 461.55 148 461.17 147.95 461.17 148.24 461.17 149.21 461.17 149.33 461.29 149.4 468.97 154.3 469.37 154.55"/><polygon class="f" points="449.85 141.38 449.85 145.3 449.85 145.66 450.29 145.53 453.17 144.67 453.39 144.6 453.37 144.42 453.06 141.36 453.03 141.14 452.74 141.14 450.17 141.14 449.85 141.14 449.85 141.38"/><polygon class="f" points="497.61 157.63 497.79 157.65 505.64 158.75 505.95 158.8 506.01 158.56 506.49 156.85 506.57 156.58 506.2 156.56 497.39 156.07 496.91 156.04 497.06 156.39 497.55 157.49 497.61 157.63"/><polygon class="f" points="820.17 205.67 820.01 205.8 818.73 206.78 818.94 206.85 818.94 206.95 818.94 215.65 817.45 216.56 817.25 216.72 817.43 216.89 822.55 221.78 822.56 221.79 822.57 221.8 823.85 222.78 823.87 222.8 823.9 222.81 827.75 224.77 827.83 224.92 827.92 224.92 833.05 224.92 833.49 224.92 833.35 224.49 832.07 221.55 832 221.15 831.77 221.15 829.28 221.15 826.92 220.48 825.71 216.78 828.19 213.94 828.28 213.83 828.23 213.72 825.67 207.85 825.62 207.75 825.5 207.71 820.38 205.75 820.17 205.67"/><polygon class="f" points="828.76 229.84 828.76 230.43 828.76 234.35 828.76 234.94 829.3 234.52 831.87 232.56 832.09 232.39 831.87 232.22 829.3 230.26 828.76 229.84"/><polygon class="f" points="832.48 229.38 832.49 229.39 834.25 230.61 834.79 230.99 834.79 230.43 834.79 229.46 834.79 229.4 834.76 229.35 833.47 227.39 833.27 227.08 832.96 227.32 831.68 228.3 831.47 228.46 831.66 228.63 832.46 229.37 832.48 229.38"/><polygon class="f" points="840.08 230.43 840.08 227.5 840.08 227.1 839.61 227.28 837.05 228.26 836.74 228.38 836.92 228.6 837.4 229.22 837.43 229.25 837.47 229.28 839.55 230.62 840.08 230.96 840.08 230.43"/><polygon class="f" points="834.19 239.46 834.81 239.7 834.64 239.18 833.36 235.27 833.09 234.45 832.74 235.25 831.46 238.18 831.38 238.39 831.63 238.48 834.19 239.46"/><polygon class="f" points="837.81 249.91 838.07 249.96 843.43 250.94 843.85 251.02 843.85 250.7 843.85 248.16 845.99 248.97 846.28 249.08 846.43 248.86 847.74 246.9 847.8 246.82 847.77 246.73 845.15 238.9 845.12 238.79 844.98 238.74 842.36 237.76 842.12 237.67 841.95 237.83 838.09 241.69 834.26 242.64 834.04 242.7 834.04 242.87 834.04 245.81 834.04 246.05 834.13 246.05 837.81 246.05 837.81 249.72 837.81 249.91"/><polygon class="f" points="818.94 232.56 818.94 233.37 818.94 237.18 813.91 241.02 813.75 241.15 813.85 241.31 815.13 243.26 815.37 243.62 815.68 243.3 819.52 239.39 819.54 239.37 819.55 239.35 820.81 237.43 822.05 236.48 822.24 236.34 822.09 236.17 819.53 233.23 818.94 232.56"/><polygon class="f" points="838.5 231.88 838.2 232.27 837.08 233.73 836.97 233.88 837.1 234.01 839.5 236.45 840.08 237.04 840.08 236.31 840.08 234.35 840.08 234.29 840.04 234.24 838.76 232.28 838.5 231.88"/><path class="f" d="M772.45,292.42l.22-.11,3.86-1.96,.14-.07v-7.15l-.06-.06-13.98-15.53s-6.37-5.84-6.37-5.84l-.04-.04-.06-.02-2.46-.94-3.77-4.8-.08-.1-.15-.02-8.9-.97-.37-.04v1.27l.09,.07,7.45,5.69v3.18l.18,.07,2.4,.92,2.48,4.72v.02l.03,.02,6.24,7.63v4.05l.09,.07,12.86,9.82,.19,.14Z"/><polygon class="f" points="776.52 276.78 776.36 277.35 775.88 279.06 775.83 279.25 776.04 279.33 779.09 280.56 779.5 280.2 776.94 277.27 776.52 276.78"/><polygon class="f" points="836.18 275.13 835.55 275.05 828.1 274.12 829.29 271.46 830.47 269.67 838.05 270.63 838.18 270.64 838.28 270.59 842.19 268.62 842.34 268.55 842.34 268.42 842.34 266.45 842.34 266.05 841.87 266.23 839.34 267.19 828.97 267.19 828.9 267.19 828.83 267.21 826.24 268.19 826.14 268.23 826.1 268.3 823.5 272.22 823.47 272.27 823.47 272.33 823.47 274.24 819.6 284 819.55 284.14 819.69 284.24 822.2 286.14 823.48 292.91 823.54 293.25 823.94 293.09 826.53 292.12 826.68 292.06 826.71 291.93 828 284.1 828 284.16 828 284.14 828 284.05 831.3 288.2 831.4 288.32 831.59 288.32 832.89 288.32 833.17 288.32 833.21 288.11 834.52 282.22 834.55 282.09 834.43 282 830.75 279.23 835.73 275.47 836.18 275.13"/><path class="f" d="M851.97,273.52s.81,2.95,.81,2.95l.2,.73,.41-.68,1.76-2.94,.03-.05v-4.02l-.02-.04-2.57-4.89-.18-.35-.35,.26-1.28,.98-.11,.09,.02,.12,1.28,7.83Z"/><polygon class="f" points="856.12 283.01 856.01 283.04 852.16 284.02 851.67 284.15 852.04 284.43 853.32 285.41 853.42 285.48 853.56 285.48 857.02 285.36 861.13 286.44 861.32 286.49 861.46 286.38 862.74 285.41 863.09 285.14 862.64 285 856.23 283.05 856.12 283.01"/><polygon class="f" points="820.45 302.11 820.45 301.63 814.05 300.65 813.66 300.59 813.66 300.89 813.66 302.85 813.66 303.14 814.05 303.09 820.45 302.11"/><polygon class="f" points="831.77 303.42 831.77 303.17 831.77 302.16 831.77 301.91 831.44 301.91 823.54 301.91 823.4 301.91 823.31 301.98 821.99 302.99 821.43 303.42 822.22 303.42 831.44 303.42 831.77 303.42"/><polygon class="f" points="819.9 306.56 819.94 306.69 820.09 306.74 823.78 307.96 824.23 308.11 824.23 307.74 824.23 306.76 824.23 306.58 824.01 306.53 820.17 305.55 819.66 305.42 819.75 305.82 819.9 306.56"/><polygon class="f" points="780.33 280.77 780.53 280.77 781.85 280.77 782.38 280.77 782.14 280.41 779.51 276.39 779.43 276.25 779.22 276.25 777.9 276.25 777.37 276.25 777.61 276.61 780.24 280.63 780.33 280.77"/><polygon class="f" points="797.62 301.65 797.72 301.69 797.82 301.67 803.9 300.74 803.98 300.73 804.05 300.68 805.26 299.75 805.36 299.68 805.36 299.59 805.36 298.66 805.36 298.47 805.12 298.43 800.4 297.53 799.25 295.77 799.2 295.7 799.11 295.66 794.24 293.8 794.11 293.75 793.97 293.8 791.63 294.7 779.58 292.86 779.55 292.85 779.52 292.85 778.31 292.85 778.18 292.85 778.09 292.92 774.44 295.71 774.06 296 774.59 296.1 779.31 297 780.47 298.76 780.55 298.89 780.74 298.89 790.4 298.89 797.62 301.65"/><polygon class="f" points="848.74 286.34 848.97 286.17 850.25 285.19 850.48 285.02 850.25 284.84 848.97 283.87 848.88 283.79 848.74 283.79 846.18 283.79 845.41 283.79 845.95 284.21 848.52 286.17 848.74 286.34"/><polygon class="f" points="847.53 304.05 848.65 303.67 847.43 303.58 844.07 303.34 843.97 303.33 843.89 303.36 835.73 306.54 835.55 306.61 835.55 306.76 835.55 307.74 835.55 308.12 836 307.96 847.53 304.05"/><polygon class="f" points="593.14 342.95 593.1 342.58 592.68 342.75 590.11 343.72 589.91 343.8 589.94 343.97 590.26 346.17 590.29 346.37 590.54 346.39 593.1 346.63 593.49 346.67 593.46 346.37 593.14 342.95"/><polygon class="f" points="608.98 331.98 608.6 331.84 608.52 332.15 607.72 335.21 607.65 335.47 608 335.5 610.56 335.75 610.77 335.77 610.88 335.62 612.32 333.54 612.47 333.32 612.18 333.21 608.98 331.98"/><polygon class="f" points="565.14 314.93 565.39 314.95 567.96 315.2 568.15 315.22 568.26 315.09 570.34 312.77 570.67 312.4 570.08 312.39 565.12 312.27 564.75 312.25 564.79 312.54 565.11 314.74 565.14 314.93"/><polygon class="f" points="463.93 156.88 464.06 157.34 464.7 159.54 464.85 160.03 465.27 159.65 466.87 158.18 467.14 157.93 466.75 157.8 464.5 157.07 463.93 156.88"/><path class="f" d="M310.3,300.92l-1.3-9.78v-.12l-.14-.06-15.55-7.83-.06-.03h-.07l-14.21-1.96-5.1-1.92-5.15-3.89-.04-.03-.05-.02-2.59-.98-.17-.07-.16,.08-3.81,1.92h-3.87l-.07,.03-2.12,.8v-.48l2.5-1.88,.04-.03,.02-.04,1.25-1.88,5.09-1.92,.4-.15-.32-.24-3.85-2.91-5.06-7.64,.12-.1-.26-.12-.17-.26-.14,.13-8.8-3.8-2.56-1.93-.12-.09-.17,.02-6.3,.95-8.7-7.51h.02l-.28-.22h0l-.17-.15h-.01l-10.18-7.68-.07-.05h-.1l-6.48-.99-.11-.02-.1,.04-2.49,.94-10.15-1.91-5.12-4.83-.23-.21-.26,.19-1.3,.98-.1,.07v1.13l.09,.07,.9,.69-3.29,.84-.12,.03-.06,.09-1.26,1.92-.03,.05v2.89l-1.51,.73v-5.42l2.5-2.87,.2-.23-.32-.12-2.55-.98-.14-.05-.14,.05-10.22,3.9-.08,.03-.05,.06-6.22,7.6-6.12-2.8-.09-.04h-.11l-10.01,.97-3.67-4.67,2.52-14.43,.22-.1-.18-.14,.07-.38-.36,.16-4.93-3.77-.07-.06h-.11l-8.94-.99h0l-1.85-.35,.81-1.24,.03-.05v-3.69l7.51-11.67,.26-.4-.57,.04-12.58,.98-.22,.02-.05,.17-1.26,3.91s-.93,2.17-1.19,2.76l-10.94,.94-7.36-7.62,2.49-11.61,2.49-5.8,12.45-12.57h8.56l8.73,3.88,.38,.17,.09-.33,1.19-4.63,4.71,.91,9.86,1.91,2.49,14.49,.04,.21h2.92l.09-.07,2.52-1.95,.07-.05,.02-.07,1.26-4.89v-9.2l5.09-8.67h2.5l.09-.05,15.6-8.87,.13-.07v-6.96l3.26-4.94h0l1.3,3.95,.17,.52,.41-.44,6.5-6.9,.03-.03,.02-.03,1.23-2.81,11.5-.97,.17-.02,.08-.12,1.3-1.97,.1-.16-.17-.13-1.15-.87,2.44-4.62h3.39l.08,.34,10.17-4.87h2.19v.69l-1.28,1.91-.23,.05v3.35l.45-.18,12.35-4.89,.38-.15-.3-.24-6.08-4.82v-3.87l-.03-.05-1.01-1.6h3.93l.09-.09,1.28-1.96,.18-.27-.39-.07-5.13-.98-.14-.03-.12,.06-16.65,8.8-2.2,.84-1.09-2.49,20.22-10.61h19.2l.07-.04,14.1-5.87,.11-.05,.04-.09,1.28-2.94,.12-.26-.36-.05-6.41-.98-.13-.02-.11,.06-3.63,1.84-.89-.68,4.94-4.72-.11-.07v-4.22l-2.26-.91v-3.81s-1.28-9.75-1.28-9.75l-.06-.46-.46,.29-7.44,4.74-5.96-3.64,2.43-3.71,.11-.17-.2-.12-7.64-4.86-.03-.02h-.03l-7.64-2.93-.31-.12-.13,.24-6.32,11.58-4.98,1.9-.16,.06-.02,.13-1.25,8.61-11.29,3.83-.19,.06v6.04l-2.69,5.15-1.28,.98-2.47,.94-1.1-.84v-3.68l-.09-.07-2.4-1.83,3.75-6.66,.1-.17-.19-.12-6.36-3.88-6.36-5.82-.1-.09h-5.06l-1.1-1.68,2.45-2.8,.15-.17-.19-.14-1.18-.9v-1.76l6.27-5.73,14-5.82,.64-.27-.7-.18-7.51-1.91-1.04-2.36,8.36,1.82h9.43l.09-.13,1.24-2.01,.14-.23-.28-.11-4.49-1.82,3.13-1.69,4.81,1.95,.12,.05,.13-.04,6.16-1.99h1.26l9.94-2.02,.15-.03,.06-.12,3.73-7.04,.15-.29-.38-.06-6.22-1.01-.16-.03-.12,.1-7.12,5.76-3.49-7.53,2.34-1.9,.09-.07v-6.57l-.46,.21-11.19,5.03-.23,.1,.08,.2,1.23,2.98v1.65l-8.3,7.27v-3.37l-.09-.07-1.28-.98-.05-.04-.07-.02-3.83-.98-.19-.05-.14,.11-2.41,1.85-10.03-2.88-.05-.02h-6.76l-.09-.1-4.85,3.7-2.34-2.69-.08-.09-.14-.02-7.2-.92,2.29-2.62,.19-.22-.3-.13-11.53-4.89-.12-.05-.13,.03-3.61,.92-2.43-2.78-.22-.25-.28,.21-1.15,.88-4.95-.95h-.13l-16.52,1.94-4.7-2.69,.04-.03-.37-.17-.19-.11h-.02l-15.18-6.75-.09-.04h-.1l-16.66,.98h-.05l-.05,.02-12.64,3.86-6.26-3.82-.31-.19-.18,.27-1.28,1.96-.09,.05v6.78l-3.38,1.75-2.38-2.73-.18-.2-.27,.14-11.53,5.87-.58,.3,.67,.15,8.44,1.84-4.62,3.53-6.24-.95-.11-.02-.1,.04-12.81,4.89-.12,.05-.04,.1-3.84,8.81-.1,.22,.28,.09,5.8,1.77-12.21,5.6-10.21,1.95-.09,.02-.06,.05-1.28,.98-.55,.85h13.66l.07-.46,23.06-8.81-.17-.07v-1.95l12.64-3.81h1.09l.86,.65-8.59,2.77-.11,.03-.05,.08-1.29,1.94-.14,.22,.29,.11,2.58,.97,.14,.05,.14-.05,10.16-3.83,8.79,3.78,3.83,6.72,.13,.24,.31-.11,4.69-1.77v1.52l-2.57,7.74s-1.11,4.16-1.26,4.75h0l-.03,.12h0l-.13,.48h.02l-1.18,5.35s-1.29,6.81-1.29,6.81l-.02,.08,.05,.07,5.07,6.68-4.81,6.34-2.29-2.59-.1-.11h-2.76l-.09,.46-19.22,26.42-.35,.06v6.95l.32,.04,1.18,2.7-3.54,.9-.23,.06v8.99l.07,.06,5.97,5.47v10.02l1.29,7.89-2.43,.93-.33,.13,.21,.24,2.64,3.03s3.55,3.61,3.91,3.98v8.44l.03,.05,2.41,3.69,.19,.29,.3-.23,2.41-1.85,.13-.1-.06-.14-2.4-5.5v-9.14l-3.87-9.71,2.35-5.32,2.19,2.47,2.58,11.69v.02h0l3.89,9.8h0v.03l5.16,8.74-1.29,8.74v.1l.07,.08,12.96,11.74,.04,.04,.06,.02,10.37,3.91,.12,.04,.13-.03,3.89-.98s3.95-.74,4.94-.93l4.95,5.61-.02,.03,.14,.1,.3,.34,.05-.07,2.27,1.72,.02,.02h.03l3.65,1.85-.03,.04,.3,.09,.28,.14,.03-.05,6.2,1.87,.14,.04,.13-.05,2.12-.8v.52l-1.26,1.91-.06,.1,.05,.1,3.89,7.82,1.29,2.93,.02,.05,.05,.04,1.29,.98,.17,.12,.21-.08,2.38-.9,4.83,3.65-.19,.21h.61l.17,.14,.12-.14h.92l3.61,3.82,.15,.16,.23-.09,2.47-.98,.17-.07v-1.93l3.26-.86,3.53,4.67v14.91l-2.41,3.68s-2.44,2.8-2.46,2.82l-4.91,6.56-.04,.05v5.45l2.26-.78v2.09l-2.29,1.75-.37-.19,.07,.41-.17,.13,.21,.1,1.26,7.72v.08l.09,.06,7.65,5.83,2.54,5.82s10.27,18.61,10.27,18.61l.04,.07,.08,.04,11.55,5.87s5.79,3.53,6.34,3.87l1.23,1.87,3.84,25.4,6.42,43.05v.03l.02,.03,2.54,4.85v4.05l.22,.06,3.83,.97,2.4,.91,3.73,13.29h-2.52l-.09,.14-1.26,1.96-.12,.18,.21,.12,4.9,2.86v2.88l.05,.06,2.49,2.9,1.24,3.87,.02,.06,.06,.05,3.68,2.87v1.15l.09,.07,2.42,1.89,.09,.07h2.35l1.09,1.71v1.03l.17,.07,2.42,.94,.06,.03h3.39v-2.7l2.62-1.88-.35-.07v-2.12l.41-.05-2.5-3.82,3.8-8.71-.2-.04v-3.13l.04-.07-7.22-2.76,4.71-2.7,.21-.07v-10.99l-.17-.07-1.28-.98-.1,.15h-2.44l-1.12-3.77h3.3l1.19,1.04,.23,.17,.23-.17,2.56-1.96-.12-.07v-2.16l.12-.07-1.63-.91v-1.91h5.34l.08,.26,6.4-2.93,.1-.05,.04-.09,2.56-5.87,.08-.19-.22-.1-6.31-2.89-2.51-5.76-.61-2.78,1.27,2.91v.02h.02l1.28,1.97,.06,.09,.13,.03,3.84,.98,.05,.05h3.06l3.89-.99,.11-.03,.06-.08,3.87-4.87,1.08-.81,.08,.04,.14-.21,.24-.18-.09-.04,3.74-5.64,1.26-.95,.06-.05,.02-.07,1.27-3.85,1.23-.93,.11-.08v-.11l-1.29-13.55,20.57-9.71,.11-.06,.03-.1,5.19-17.61v-.07l-1.28-12.63,2.48-2.81,2.51-.95,.1-.04,.05-.08,7.78-12.72,.04-.06v-.07Zm-111.83,27.7l-2.24-1.71v-1.61h.86l3.44,1.75-2.06,1.57Z"/><polygon class="f" points="260.47 273.04 260.42 273.09 258.66 274.67 258.14 275.15 258.94 275.08 260.38 274.96 260.41 274.95 260.44 274.94 264.29 273.97 264.41 273.94 264.48 273.84 265.75 271.89 266.13 271.31 265.35 271.55 260.54 273.02 260.47 273.04"/><path class="f" d="M566.16,40.3l-.16,.13-1.28,.98-.23,.17,.23,.17,3.84,2.93,.55,.42v-3.68l-.18-.07-2.56-.98-.21-.08Zm.77,.6l2.18,.83v2.19l-3.07-2.34,.89-.68Z"/><path class="f" d="M832.53,96.6v-1.36l-.13-.08-6.47-3.97s-4.76-2.74-5.15-2.96l-9.03-8.9-.1-.1h-1.77v4.3l.07,.07,5.18,4.96h0v.02l6.44,4.93,5.16,8.88,.03,.06,.06,.04,6.47,3.97,.39,.24,.13-.38,1.29-3.97,.04-.12-.11-.1-6.03-5.54h3.51Z"/><path class="f" d="M811.33,19.57h.1l.07-.07,1.28-.98,.55-.42h-6.03l-.1,.07-2.56,1.96-.75,.57,1.04-.16,6.41-.98Zm-3.77-1.46h4.21l-.66,.51-5.27,.81,1.72-1.31Z"/><polygon class="f" points="554.82 41.77 554.93 41.84 555.08 41.82 562.77 40.84 563.9 40.7 562.83 40.37 556.58 38.46 555.34 33.7 555.3 33.58 555.17 33.53 552.6 32.55 552.4 32.47 552.23 32.6 547.11 36.51 546.86 36.7 547.13 36.87 554.82 41.77"/><polygon class="f" points="557.48 31.05 557.67 31.1 557.81 30.99 565.45 25.16 574.33 23.22 574.99 23.07 574.42 22.78 570.57 20.82 570.44 20.75 570.28 20.8 563.98 22.72 560.25 21.77 560.01 21.71 559.88 21.88 553.47 29.7 553.25 29.97 553.64 30.07 557.48 31.05"/><polygon class="f" points="614.95 12.33 615.03 12.44 615.18 12.46 621.59 13.44 621.82 13.48 621.93 13.31 624.5 9.4 624.6 9.24 624.44 9.11 621.88 7.15 621.71 7.03 621.5 7.11 619.11 8.03 615.42 6.15 615.2 6.03 615.01 6.18 612.45 8.14 612.29 8.26 612.39 8.42 614.95 12.33"/><polygon class="f" points="630.39 14.36 630.62 14.53 630.84 14.36 635.97 10.45 636.19 10.27 635.97 10.1 634.69 9.12 634.59 9.05 634.46 9.05 629.33 9.05 629.1 9.05 629.03 9.22 627.75 12.15 627.69 12.3 627.83 12.4 630.39 14.36"/><polygon class="f" points="734.59 16.38 735.07 16.43 734.95 16.08 733.67 12.16 733.59 11.94 733.3 11.98 725.62 12.96 725.35 12.99 725.35 13.2 725.35 15.16 725.35 15.37 725.62 15.4 734.59 16.38"/><polygon class="f" points="714.65 18.27 714.79 18.37 714.98 18.33 718.82 17.35 719.22 17.24 718.99 16.98 716.42 14.04 716.27 13.86 716.02 13.96 713.45 14.94 713.27 15 713.27 15.16 713.27 17.11 713.27 17.22 713.37 17.29 714.65 18.27"/><path class="f" d="M157.2,206.28c0,1.49,1.58,2.69,3.53,2.69s3.52-1.21,3.52-2.69-1.58-2.69-3.52-2.69-3.53,1.21-3.53,2.69Z"/><polygon class="f" points="182.4 206.2 182.47 206.08 183.76 204.12 183.89 203.91 183.62 203.8 160.56 194.02 160.46 193.97 160.36 193.99 152.67 194.96 152.51 194.99 152.43 195.1 149.87 199.01 149.64 199.26 150.16 199.26 154 199.26 154.1 199.26 154.18 199.33 157.94 196.99 159.03 196.99 171.33 204.14 171.33 206.95 171.33 207.23 171.98 207.19 182.23 206.21 182.4 206.2"/><polygon class="f" points="153.04 200.29 152.75 200.72 151.47 202.68 151.42 202.77 151.45 202.86 151.77 203.71 151.88 204 152.22 203.87 154.46 203.01 154.75 202.9 154.61 202.68 153.33 200.72 153.04 200.29"/><polygon class="f" points="226.46 236.18 226.81 236.13 226.71 235.87 226.07 234.15 226.01 233.98 225.76 233.98 224.49 233.98 224.16 233.98 224.16 234.22 224.16 236.18 224.16 236.47 224.54 236.42 226.46 236.18"/><polygon class="f" points="225.24 230.2 224.92 230.2 224.92 230.45 224.92 232.41 224.92 232.69 225.29 232.65 227.22 232.4 227.57 232.36 227.47 232.09 226.83 230.38 226.76 230.2 226.52 230.2 225.24 230.2"/><polygon class="f" points="226.46 229.39 226.81 229.34 226.72 229.07 226.08 227.36 226.01 227.18 225.77 227.18 224.49 227.18 224.16 227.18 224.16 227.43 224.16 229.39 224.16 229.68 224.54 229.63 226.46 229.39"/><polygon class="f" points="225.68 221.85 226.08 221.7 225.77 221.46 223.2 219.5 222.66 219.08 222.66 219.67 222.66 222.6 222.66 223 223.12 222.82 225.68 221.85"/><polygon class="f" points="227.47 218.51 226.83 216.79 226.76 216.62 226.52 216.62 225.24 216.62 224.92 216.62 224.92 216.86 224.92 218.82 224.92 219.11 225.29 219.06 227.22 218.82 227.57 218.77 227.47 218.51"/><polygon class="f" points="227.47 225.3 226.83 223.59 226.76 223.41 226.52 223.41 225.24 223.41 224.92 223.41 224.92 223.66 224.92 225.61 224.92 225.9 225.29 225.85 227.21 225.61 227.57 225.56 227.47 225.3"/><polygon class="f" points="223.55 215.86 223.68 215.86 223.78 215.79 225.1 214.78 225.66 214.35 224.86 214.35 222.23 214.35 221.9 214.35 221.9 214.6 221.9 215.61 221.9 215.86 222.23 215.86 223.55 215.86"/><polygon class="f" points="220.69 212.58 214.28 211.6 213.24 211.44 213.99 212.01 216.56 213.97 216.7 214.08 216.88 214.03 220.73 213.05 221.87 212.76 220.69 212.58"/><polygon class="f" points="205.29 209.17 205.29 209.66 205.29 212.6 205.29 212.84 205.62 212.84 210.74 212.84 211.7 212.84 210.93 212.4 205.81 209.46 205.29 209.17"/><polygon class="f" points="188.6 202.28 189.11 202.28 188.88 201.92 187.6 199.96 187.31 199.53 187.03 199.96 185.75 201.92 185.51 202.28 186.03 202.28 188.6 202.28"/></g><path class="e" d="M308.73,289.94v-.12l-.14-.06-15.55-7.83-.06-.03h-.07l-14.21-1.96-5.1-1.92-5.15-3.89-.04-.03-.05-.02-2.59-.98-.17-.07-.16,.08-3.81,1.92h-3.87l-.07,.03-2.12,.8v-.48l2.5-1.88,.04-.03,.02-.04,1.25-1.88,5.09-1.92,.4-.15-.32-.24-3.85-2.91-5.06-7.64,.12-.1-.26-.12-.17-.26-.14,.13-8.8-3.8-2.56-1.93-.12-.09-.17,.02-6.3,.95-8.7-7.51h.02l-.28-.22h0l-.17-.15h-.01l-10.18-7.68-.07-.05h-.1l-6.48-.99-.11-.02-.1,.04-2.48,.94-10.15-1.91-5.12-4.83-.23-.21-.26,.19-1.3,.98-.1,.07v1.13l.09,.07,.9,.69-3.29,.84-.12,.03-.06,.09-1.26,1.92-.03,.05v2.89l-1.51,.73v-5.42l2.5-2.87,.2-.23-.33-.12-2.55-.98-.14-.05-.14,.05-10.22,3.9-.08,.03-.05,.06-6.22,7.6-6.12-2.8-.09-.04h-.11l-10.01,.97-3.67-4.67,.63-3.63c-3.34,1.61-6.65,3.26-9.94,4.95l1.18,2.68,.02,.05,.05,.04,1.29,.98,.17,.12,.21-.08,2.38-.9,4.83,3.65-.19,.21h.61l.17,.14,.12-.14h.92l3.61,3.82,.16,.16,.23-.09,2.47-.98,.17-.07v-1.93l3.26-.86,3.53,4.67v14.91l-2.41,3.68s-2.44,2.8-2.46,2.82l-4.91,6.56-.04,.05v5.45l2.26-.78v2.09l-2.29,1.75-.37-.19,.07,.41-.17,.13,.2,.1,1.26,7.72v.08l.09,.06,7.64,5.83,2.54,5.82s10.27,18.61,10.27,18.61l.04,.07,.08,.04,11.55,5.87s5.79,3.53,6.34,3.87l1.23,1.87,3.84,25.4,6.42,43.05v.03l.02,.03,2.54,4.85v4.05l.22,.06,3.83,.97,2.4,.91,3.73,13.29h-2.52l-.09,.14-1.26,1.96-.12,.18,.21,.12,4.9,2.86v2.88l.05,.06,2.49,2.9,1.24,3.87,.02,.06,.06,.05,3.68,2.87v1.15l.09,.07,2.42,1.89,.09,.07h2.35l1.09,1.71v1.03l.17,.07,2.42,.94,.06,.03h3.39v-2.7l2.62-1.88-.35-.07v-2.12l.41-.05-2.5-3.82,3.8-8.71-.2-.04v-3.13l.04-.07-7.22-2.76,4.71-2.7,.21-.07v-10.99l-.17-.07-1.28-.98-.1,.15h-2.45l-1.12-3.77h3.3l1.19,1.04,.23,.17,.23-.17,2.56-1.96-.12-.07v-2.16l.12-.07-1.63-.91v-1.91h5.34l.08,.26,6.4-2.93,.1-.05,.04-.09,2.56-5.87,.08-.19-.22-.1-6.31-2.89-2.51-5.76-.61-2.78,1.27,2.91v.02h.02l1.28,1.97,.06,.09,.13,.03,3.84,.98,.05,.05h3.06l3.89-.99,.11-.03,.06-.08,3.87-4.87,1.08-.81,.08,.04,.14-.21,.24-.18-.09-.04,3.74-5.64,1.26-.95,.06-.05,.02-.07,1.27-3.85,1.23-.93,.1-.08v-.11l-1.29-13.55,20.57-9.71,.11-.06,.03-.1,5.19-17.61v-.07l-1.28-12.63,2.48-2.81,2.51-.95,.1-.04,.05-.08,7.78-12.72,.04-.06v-.07l-1.31-9.78Z"/></g></g></g></g></svg>