<?xml version="1.0" encoding="UTF-8"?><svg xmlns="http://www.w3.org/2000/svg" xmlns:xlink="http://www.w3.org/1999/xlink" viewBox="0 0 819.2 819.2"><defs><style>.e{fill:#fff;}.f{opacity:.05;}.g{fill:none;stroke:#000;stroke-miterlimit:10;stroke-width:3px;}.h{mask:url(#d);}</style><mask id="d" x="-1277.55" width="2186.2" height="819.2" maskUnits="userSpaceOnUse"><rect class="e" x="-1277.55" y="214.09" width="2186.2" height="388.89"/></mask></defs><g id="a"/><g id="b"><g id="c"><g class="h"><g class="f"><circle class="g" cx="409.6" cy="409.6" r="408.1"/><g><path d="M312.41,667.59c-6.11-3.54-12.39-6.82-18.3-10.66-18.26-11.85-33.05-27.02-41.24-47.43-12.11-30.22-6.77-58.25,13.25-83.34,21.49-26.93,50.72-40.83,83.81-47.78,4.61-.97,8.31-.34,12.51,1.92,32.02,17.28,64.11,16.9,95.89-.67,3.82-2.11,7.29-3.02,11.56-2.27,31.4,5.55,59.63,17.58,82.36,40.59,37.27,37.71,34.75,91.48-5.4,127.2-10.63,9.46-22.48,17.05-35.48,22.84-1.52,.68-3.09,1.23-5.31,2.1-.19-2.66-.47-4.78-.49-6.91-.15-23.86-.14-47.71-.56-71.56-.04-2.56-1.9-6.2-3.99-7.32-2.15-1.15-6.4-.82-8.3,.67-1.93,1.52-2.9,5.25-2.94,8.03-.37,25.73-.58,51.46-.5,77.19,.01,4.57-1.05,6.89-5.79,7.45-12.3,1.45-24.55,4.15-36.87,4.55-22.81,.75-45.66,.27-68.49,.19-14.91-.05-29.42-2.76-43.76-6.74-3.4-.94-4.11-2.57-4.11-5.73-.07-25.9-.26-51.8-.48-77.7-.05-5.92-2.19-8.6-6.82-9.05-5.34-.53-8.62,2.71-8.66,8.73-.15,22.66-.25,45.33-.37,67.99-.01,2.18,0,4.36,0,6.54l-1.51,1.16Z"/><path d="M500.16,368.37c-1.25,38.5-17.38,69.13-49.65,90.39-29.02,19.12-65.45,15.62-92.65-7.95-21.61-18.73-34.93-42.31-38.35-70.58-6.77-55.9,33.2-96.69,77.95-102.31,50.91-6.39,96.05,28.27,102.64,78.72,.5,3.85,.07,7.82,.07,11.74Z"/><path d="M166.74,518.33c-9.15-5.05-18.72-9.47-27.35-15.29-13.83-9.32-25.09-21.44-29.73-37.79-6.61-23.32-2.52-44.77,14.28-63.1,18.34-20.02,41.8-29.69,67.96-34.22,5.62-.97,10.45-.06,15.74,1.93,18.42,6.93,36.98,6.59,55.24-.87,11.22-4.58,21.69-.04,32.34,2.28,.76,.17,1.51,2.13,1.61,3.32,2.98,34.1,16.85,63.1,40.74,87.44,.23,.23,.34,.57,.93,1.62-8.56,2.63-16.95,5.21-26.67,8.2,0-6.65,.29-12.53-.15-18.36-.16-2.15-1.51-5.12-3.22-6.05-3.35-1.82-6.25,.79-6.38,5.3-.18,6.47-.31,12.95-.16,19.42,.07,3.18-1.12,4.91-3.95,6.29-21.48,10.44-39.82,24.72-53.9,44.23-.93,1.28-3,2.55-4.49,2.49-18-.69-35.99-1.62-53.98-2.51-4.81-.24-6.83-2.23-6.75-7.64,.3-20.27,.03-40.55-.18-60.82-.02-2.06-.61-4.54-1.87-6.01-.86-.99-3.85-1.31-5.03-.56-1.38,.87-2.54,3.21-2.57,4.93-.26,14.14-.24,28.28-.28,42.42-.02,7.25,0,14.51,0,21.76l-2.18,1.59Z"/><path d="M507.61,469.64c-9.17-2.46-17.1-4.59-25.77-6.91,2.14-2.57,3.77-4.66,5.53-6.63,20.73-23.26,32.47-50.37,35.31-81.41,.15-1.59,2.1-3.94,3.61-4.3,6.1-1.48,12.31-2.73,18.56-3.24,3.38-.28,7.1,.57,10.32,1.83,19.62,7.65,39.04,7.61,58.71-.04,3.8-1.48,8.62-1.43,12.77-.78,25.48,3.99,48.35,13.53,66.73,32.35,25.74,26.35,25.5,65.4-.36,91.67-10.61,10.78-23.07,18.42-36.98,23.95-.95,.38-1.93,.68-2.92,.9-.45,.1-.97-.09-2.09-.22-.12-1.94-.34-3.9-.36-5.86-.12-19.25-.22-38.51-.29-57.76,0-2.94-.34-5.53-3.94-6.05-3.81-.55-5.69,1.43-5.73,6.39-.12,16.36-.16,32.71-.23,49.07-.02,4.26-.3,8.54,.03,12.77,.34,4.33-.93,6.78-5.56,7.04-16.45,.92-32.9,1.99-49.36,2.75-1.44,.07-3.44-1.39-4.4-2.71-15.56-21.32-36.02-36.35-59.95-46.94-2.74-1.21-3.79-2.91-3.72-5.87,.13-5.45-.07-10.9-.12-16.35-.03-3.38-.74-6.21-4.97-6.16-4.27,.05-4.82,2.99-4.82,6.32,0,5.07,0,10.15,0,16.19Z"/><path d="M234.26,206.29c39.53,0,70.98,31.42,70.82,71.06-.12,29.38-13.01,52.45-36.43,69.49-20.76,15.11-46.81,15.53-67.88,.81-27.43-19.17-40.89-45.88-37.24-79.41,3.93-36.12,34.3-61.95,70.73-61.95Z"/><path d="M513.18,277.44c-1.15-32.39,24.28-66.58,62.81-70.84,37.69-4.17,71.47,20.68,78.6,57.01,7.67,39.09-19.15,83.25-56.78,92.84-19.81,5.05-37.58-.45-52.9-13.21-20.44-17.02-31.07-39.11-31.73-65.81Z"/></g></g></g></g></g></svg>