<?xml version="1.0" encoding="UTF-8"?><svg xmlns="http://www.w3.org/2000/svg" viewBox="0 0 73.51 63.89"><defs><style>.d{fill:#fff;}</style></defs><g id="a"/><g id="b"><g id="c"><g transform="translate(0.000000,511.000000) scale(0.100000,-0.100000)"><path class="d" d="M24.84,.15c-.18,.08-.91,.15-1.63,.15-.96,.02-1.44,.1-1.79,.31C20.15,1.39,.98,14.9,.55,15.33l-.49,.47L.01,37.21c-.03,21.23-.03,21.39,.29,21.93,.47,.77,1.06,.95,3.83,1.14,1.35,.11,12.72,.99,25.27,1.99,22.14,1.73,22.83,1.78,23.4,1.5,.41-.2,3.37-3.62,10.53-12.15,5.49-6.52,10.03-12.03,10.08-12.23s.1-8.28,.1-17.97c0-16.43-.02-17.64-.29-18.18-.55-1.14,.26-1.06-17.4-1.71-8.79-.31-16.21-.65-16.48-.73C38.85,.64,27.85-.02,26.07,0c-.49,0-1.04,.07-1.22,.15Zm7.42,2.12c3.36,.18,6.24,.38,6.39,.42,.52,.16,.67,.73,.64,2.35-.02,.85-.05,1.55-.07,1.57s-1.68-.07-3.7-.16c-3.62-.2-3.68-.21-4.37-.67-.68-.46-.83-.47-3.59-.64l-2.89-.18,.03-1.14c.02-1.01,.07-1.17,.46-1.5,.23-.21,.55-.38,.7-.38,.15,0,3.03,.15,6.39,.33Zm23.07,3.26c5.38,.2,9.91,.41,10.08,.47,.24,.08,.05,.31-1.13,1.24l-1.42,1.13-9.64-.54c-5.3-.28-10.17-.57-10.81-.62l-1.19-.1v-.93c0-.51,.05-.98,.13-1.06,.07-.07,1.03-.08,2.15-.03,1.13,.07,6.44,.26,11.82,.44Zm-31.63,1.39c3.05,.15,5.71,.29,5.92,.34,.83,.18,1.01,.59,1.01,2.38v1.65l-1.66-.1c-.93-.05-4.22-.23-7.34-.38l-5.67-.29v-1.57c0-1.42,.03-1.6,.38-1.91,.46-.42,.72-.51,1.34-.44,.28,.03,2.98,.18,6.03,.31Zm45.73,16.35v14.79l-7.6,9.05c-4.17,4.97-7.66,9.07-7.74,9.1-.08,.03-.15-7.08-.15-17.77V20.59l7.63-6.06c4.19-3.33,7.66-6.05,7.74-6.05,.07-.02,.11,6.64,.11,14.79Zm-22.74-13.83c6.81,.36,12.68,.72,13.04,.78l.65,.11-1.71,1.34-1.7,1.34-.99-.08c-.96-.08-22.61-1.21-23.14-1.21-.23,0-.26-.23-.26-1.57v-1.55l.86,.08c.46,.05,6.42,.39,13.24,.75Zm-12.65,4.34c11.25,.57,20.48,1.08,20.49,1.09,.03,.02-.67,.6-1.53,1.3-1.55,1.22-1.6,1.26-2.48,1.26-1.39,0-42.24-2.41-42.34-2.49-.03-.05,.65-.59,1.53-1.22l1.6-1.16,1.14,.08c.64,.05,10.35,.55,21.59,1.14Zm-7.24,6.34c11.76,.67,21.75,1.27,22.22,1.32l.85,.08V59.85l-.93-.1c-.52-.07-7.99-.65-16.6-1.32-8.61-.67-18.41-1.45-21.78-1.71-3.37-.28-6.23-.49-6.33-.49-.13,0-.18-5.02-.18-18.67V18.9h.7c.37,0,10.3,.56,22.04,1.22Z"/><path class="d" d="M17.15,26.09c-2.69,1.32-2.67,4.99,.02,6.37,.55,.28,1.53,.38,8.07,.8,8.48,.54,9.44,.55,10.17,.24,.7-.28,1.57-1.17,1.88-1.89,.29-.72,.29-2.05-.02-2.79-.29-.72-1.17-1.6-1.86-1.89-.36-.15-3.08-.38-8.17-.7-9.18-.59-9.21-.59-10.09-.15Zm9.59,2.1c4.22,.28,7.83,.57,7.99,.65,1.44,.78,.82,2.93-.86,2.93-1.97-.02-15.64-.98-15.93-1.13-1.08-.59-1.08-2.12,0-2.72,.51-.28,.02-.29,8.8,.26Z"/></g></g></g></svg>