<?xml version="1.0" encoding="UTF-8"?><svg xmlns="http://www.w3.org/2000/svg" xmlns:xlink="http://www.w3.org/1999/xlink" viewBox="0 0 305.16 305.16"><defs><style>.f,.g{fill:#fff;}.h{mask:url(#e);}.g{stroke:#e3e3e3;stroke-miterlimit:10;stroke-width:3px;}.i{opacity:.15;}.j{mask:url(#d);}</style><mask id="d" x="-502.63" y="-19.06" width="809.34" height="382.24" maskUnits="userSpaceOnUse"><rect class="f" x="-502.63" y="-19.06" width="809.34" height="382.24"/></mask><mask id="e" x="-503.73" y="-19.06" width="809.34" height="382.24" maskUnits="userSpaceOnUse"><rect class="f" x="-503.73" y="-19.06" width="809.34" height="382.24"/></mask></defs><g id="a"/><g id="b"><g id="c"><g class="j"><circle class="g" cx="152.58" cy="152.58" r="151.08"/></g><g class="h"><g class="i"><g><path d="M115.51,248.09c-2.26-1.31-4.59-2.52-6.78-3.95-6.76-4.39-12.24-10-15.27-17.56-4.48-11.19-2.51-21.56,4.91-30.85,7.96-9.97,18.78-15.12,31.03-17.69,1.71-.36,3.08-.13,4.63,.71,11.85,6.4,23.73,6.26,35.5-.25,1.41-.78,2.7-1.12,4.28-.84,11.63,2.05,22.07,6.51,30.49,15.03,13.8,13.96,12.86,33.87-2,47.09-3.93,3.5-8.32,6.31-13.13,8.46-.56,.25-1.14,.45-1.97,.78-.07-.98-.17-1.77-.18-2.56-.06-8.83-.05-17.66-.21-26.49-.02-.95-.7-2.29-1.48-2.71-.8-.43-2.37-.31-3.07,.25-.71,.56-1.07,1.94-1.09,2.97-.14,9.52-.21,19.05-.19,28.57,0,1.69-.39,2.55-2.14,2.76-4.56,.54-9.09,1.54-13.65,1.69-8.44,.28-16.9,.1-25.36,.07-5.52-.02-10.89-1.02-16.2-2.5-1.26-.35-1.52-.95-1.52-2.12-.03-9.59-.1-19.18-.18-28.76-.02-2.19-.81-3.18-2.52-3.35-1.98-.2-3.19,1-3.21,3.23-.05,8.39-.09,16.78-.14,25.17,0,.81,0,1.61,0,2.42l-.56,.43Z"/><path d="M185.02,137.32c-.46,14.25-6.43,25.59-18.38,33.46-10.74,7.08-24.23,5.78-34.3-2.94-8-6.93-12.93-15.66-14.2-26.13-2.51-20.7,12.29-35.8,28.86-37.88,18.85-2.37,35.56,10.46,38,29.14,.19,1.43,.02,2.9,.02,4.35Z"/><path d="M61.58,192.83c-3.39-1.87-6.93-3.51-10.12-5.66-5.12-3.45-9.29-7.94-11.01-13.99-2.45-8.63-.93-16.57,5.28-23.36,6.79-7.41,15.47-10.99,25.16-12.67,2.08-.36,3.87-.02,5.83,.71,6.82,2.57,13.69,2.44,20.45-.32,4.15-1.7,8.03-.01,11.97,.84,.28,.06,.56,.79,.6,1.23,1.1,12.62,6.24,23.36,15.08,32.37,.08,.09,.12,.21,.35,.6-3.17,.97-6.27,1.93-9.87,3.04,0-2.46,.11-4.64-.06-6.8-.06-.8-.56-1.89-1.19-2.24-1.24-.67-2.31,.29-2.36,1.96-.07,2.4-.11,4.79-.06,7.19,.03,1.18-.42,1.82-1.46,2.33-7.95,3.86-14.74,9.15-19.95,16.37-.34,.47-1.11,.94-1.66,.92-6.66-.26-13.32-.6-19.98-.93-1.78-.09-2.53-.82-2.5-2.83,.11-7.5,.01-15.01-.07-22.52,0-.76-.22-1.68-.69-2.23-.32-.37-1.43-.48-1.86-.21-.51,.32-.94,1.19-.95,1.82-.09,5.23-.09,10.47-.1,15.71,0,2.69,0,5.37,0,8.06l-.81,.59Z"/><path d="M187.77,174.81c-3.4-.91-6.33-1.7-9.54-2.56,.79-.95,1.4-1.72,2.05-2.45,7.67-8.61,12.02-18.65,13.07-30.14,.05-.59,.78-1.46,1.34-1.59,2.26-.55,4.56-1.01,6.87-1.2,1.25-.1,2.63,.21,3.82,.68,7.26,2.83,14.45,2.82,21.73-.01,1.41-.55,3.19-.53,4.73-.29,9.43,1.48,17.9,5.01,24.7,11.97,9.53,9.75,9.44,24.21-.13,33.94-3.93,3.99-8.54,6.82-13.69,8.87-.35,.14-.71,.25-1.08,.33-.17,.04-.36-.03-.77-.08-.05-.72-.13-1.44-.13-2.17-.04-7.13-.08-14.25-.11-21.38,0-1.09-.13-2.05-1.46-2.24-1.41-.21-2.11,.53-2.12,2.36-.04,6.06-.06,12.11-.09,18.17,0,1.58-.11,3.16,.01,4.73,.13,1.6-.35,2.51-2.06,2.61-6.09,.34-12.18,.74-18.27,1.02-.53,.02-1.27-.51-1.63-1-5.76-7.89-13.34-13.46-22.19-17.38-1.01-.45-1.4-1.08-1.38-2.17,.05-2.02-.03-4.04-.04-6.05-.01-1.25-.27-2.3-1.84-2.28-1.58,.02-1.78,1.11-1.78,2.34,0,1.88,0,3.76,0,5.99Z"/><path d="M86.58,77.32c14.63,0,26.28,11.63,26.22,26.31-.04,10.88-4.81,19.42-13.49,25.73-7.69,5.59-17.33,5.75-25.13,.3-10.16-7.1-15.14-16.99-13.79-29.4,1.46-13.37,12.7-22.93,26.18-22.93Z"/><path d="M189.84,103.65c-.43-11.99,8.99-24.65,23.25-26.22,13.95-1.54,26.46,7.66,29.1,21.11,2.84,14.47-7.09,30.82-21.02,34.37-7.33,1.87-13.91-.17-19.59-4.89-7.57-6.3-11.5-14.48-11.74-24.36Z"/></g></g></g></g></g></svg>