<?xml version="1.0" encoding="UTF-8"?><svg xmlns="http://www.w3.org/2000/svg" xmlns:xlink="http://www.w3.org/1999/xlink" viewBox="0 0 305.16 305.16"><defs><style>.e,.f{fill:#fff;}.f{stroke:#e3e3e3;stroke-miterlimit:10;stroke-width:3px;}.g{opacity:.15;}.h{mask:url(#d);}</style><mask id="d" x="-502.63" y="-19.06" width="809.34" height="382.24" maskUnits="userSpaceOnUse"><rect class="e" x="-502.63" y="-19.06" width="809.34" height="382.24"/></mask></defs><g id="a"/><g id="b"><g id="c"><g class="h"><circle class="f" cx="152.58" cy="152.58" r="151.08"/></g><g class="g"><path d="M73.9,249.39c-1.76-1.15-3.84-2-5.21-3.51-2.24-2.46-2.54-5.59-1.21-8.68,1.31-3.06,3.67-4.89,7.04-5.28,3.62-.42,3.69-.41,4.15-4.09,1.94-15.42,7.36-29.61,15.03-43.02,6.19-10.81,13.65-20.71,21.56-30.3,.48-.58,.95-1.18,1.57-1.95-.53-.67-1.05-1.34-1.6-2-8.99-10.91-17.4-22.21-24-34.77-6.74-12.83-11.36-26.32-12.8-40.81-.13-1.29-.63-1.64-1.89-1.66-4.91-.09-8.13-2.26-9.35-6.17-1.67-5.35,1.99-10.83,7.6-11.38,.63-.06,1.26-.06,1.89-.06,50.61,0,101.23,0,151.84,0,4.95,0,8.38,2.32,9.54,6.42,1.55,5.47-2.13,10.53-8.12,11.14-2.92,.3-2.94,.3-3.31,3.22-1.91,15.47-7.21,29.78-14.87,43.28-6.27,11.05-13.89,21.16-21.97,30.93-.47,.57-.93,1.16-1.44,1.79,3.04,3.84,6.04,7.56,8.95,11.35,8.83,11.47,16.59,23.58,22.04,37.07,3.75,9.27,6.35,18.84,7.34,28.8,.16,1.59,.62,2.15,2.27,2.1,3.68-.1,6.63,1.35,8.41,4.71,1.58,2.99,1.35,5.94-.37,8.81-1.31,2.19-3.47,3.19-5.72,4.05H73.9Zm135.28-17.75c.02-.32,.07-.5,.04-.68-1.83-14.97-7.39-28.56-15.3-41.26-6.58-10.57-14.37-20.23-22.39-29.71-.33-.38-.65-.77-.97-1.16-3.43-4.2-3.42-8.27-.04-12.49,5.78-7.23,11.76-14.32,17.24-21.78,8.78-11.95,15.8-24.86,19.39-39.4,.94-3.81,1.54-7.69,2.31-11.62H95.89c1.48,13.47,6.03,25.72,12.59,37.27,7.13,12.55,16.15,23.73,25.44,34.7,4.37,5.16,4.29,8.88,.06,14.1-5.71,7.04-11.51,14.04-16.87,21.35-7.53,10.24-13.79,21.25-17.49,33.5-1.68,5.56-2.78,11.3-4.19,17.19h113.75Z"/><path d="M152.58,225.18c-14.37,0-28.74-.01-43.12,.01-1.96,0-3.63-.45-4.68-2.24-1.06-1.8-.57-3.46,.42-5.15,6.52-11.13,15.17-20.39,25.04-28.57,2.81-2.33,5.75-4.51,8.58-6.82,5.2-4.26,8.93-9.33,9.34-16.37,.16-2.7,1.46-4.07,3.56-4.47,1.95-.37,3.72,.39,4.6,2.13,.38,.76,.63,1.67,.67,2.52,.35,6.75,3.99,11.63,8.86,15.84,6.67,5.76,13.52,11.33,19.93,17.37,5.7,5.37,10.29,11.74,14.23,18.53,2.2,3.78,.25,7.2-4.15,7.2-14.44,.02-28.87,0-43.31,0Z"/><path d="M152.61,99.95c6.93,0,13.87,0,20.8,0,4.46,0,6.35,2.69,4.79,6.83-3.33,8.85-7.97,16.96-13.84,24.37-2.9,3.66-5.81,7.33-6.75,12.08-.36,1.85-.48,3.74-.82,5.6-.4,2.2-2.1,3.64-4.16,3.67-2.1,.04-3.95-1.45-4.28-3.74-.51-3.55-.68-7.2-2.6-10.35-1.57-2.57-3.3-5.06-5.15-7.44-5.71-7.37-10.34-15.34-13.62-24.07-1.61-4.28,.23-6.93,4.81-6.94,6.93,0,13.87,0,20.8,0Z"/></g></g></g></svg>