<?xml version="1.0" encoding="UTF-8"?><svg xmlns="http://www.w3.org/2000/svg" viewBox="0 0 186.17 240.05"><defs><style>.d{fill:#144693;opacity:.1;}</style></defs><g id="a"/><g id="b"><g id="c"><path class="d" d="M156.22,24.58C127.79-1.58,93.84-6.86,57.97,8.75,23.77,23.64,5.99,51.73,1.69,88.37c-6.15,52.2,5.45,101.93,19.26,151.68,1.25-.18,1.78-.14,2.23-.32,41.05-15.57,80.47-34.41,115.28-61.97,18.85-14.91,35.42-31.98,42.67-55.88,11.44-37.8,3.49-71.17-24.92-97.31Zm-34.03,67.18c-6.04,12.22-20.74,17.47-33.05,11.38-12.22-6.04-17.04-20.94-11-33.16,6.09-12.31,20.81-17.43,33.03-11.38,12.31,6.09,17.1,20.86,11.01,33.17Z"/></g></g></svg>