<?xml version="1.0" encoding="UTF-8"?><svg xmlns="http://www.w3.org/2000/svg" viewBox="0 0 118.05 102.6"><defs><style>.d{fill:#134994;}</style></defs><g id="a"/><g id="b"><g id="c"><g transform="translate(0.000000,511.000000) scale(0.100000,-0.100000)"><path class="d" d="M39.9,.24c-.29,.13-1.47,.24-2.62,.24-1.54,.03-2.3,.16-2.88,.5C32.36,2.23,1.57,23.93,.89,24.61l-.79,.76L.02,59.75c-.05,34.09-.05,34.35,.47,35.22,.76,1.23,1.7,1.52,6.15,1.83,2.17,.18,20.42,1.6,40.58,3.19,35.55,2.78,36.65,2.85,37.57,2.41,.65-.31,5.42-5.81,16.91-19.51,8.82-10.47,16.1-19.32,16.18-19.64s.16-13.3,.16-28.85c0-26.39-.03-28.33-.47-29.19-.89-1.83,.42-1.7-27.94-2.75-14.11-.5-26.03-1.05-26.47-1.18C62.39,1.02,44.72-.03,41.86,0c-.79,0-1.68,.1-1.96,.24Zm11.91,3.4c5.39,.29,10.03,.6,10.26,.68,.84,.26,1.07,1.18,1.02,3.77-.03,1.36-.08,2.49-.1,2.51s-2.7-.1-5.94-.26c-5.81-.31-5.92-.34-7.02-1.07-1.1-.73-1.34-.76-5.76-1.02l-4.63-.29,.05-1.83c.03-1.62,.1-1.89,.73-2.41,.37-.34,.89-.6,1.13-.6,.23,0,4.87,.23,10.26,.52Zm37.05,5.24c8.64,.31,15.92,.65,16.18,.76,.39,.13,.08,.5-1.81,1.99l-2.28,1.81-15.47-.86c-8.51-.45-16.34-.92-17.36-.99l-1.91-.16v-1.49c0-.81,.08-1.57,.21-1.7,.1-.1,1.65-.13,3.46-.05,1.81,.1,10.34,.42,18.98,.71Zm-50.79,2.23c4.9,.24,9.16,.47,9.5,.55,1.34,.29,1.62,.94,1.62,3.82v2.64l-2.67-.16c-1.49-.08-6.78-.37-11.78-.6l-9.11-.47v-2.51c0-2.28,.05-2.57,.6-3.06,.73-.68,1.15-.81,2.15-.71,.45,.05,4.79,.29,9.69,.5Zm73.44,26.26v23.75l-12.2,14.53c-6.7,7.99-12.31,14.56-12.44,14.61-.13,.05-.24-11.36-.24-28.54v-28.64l12.25-9.74c6.73-5.34,12.3-9.71,12.44-9.71,.1-.03,.18,10.66,.18,23.75ZM74.98,15.16c10.94,.58,20.37,1.15,20.95,1.26l1.05,.18-2.75,2.15-2.72,2.15-1.6-.13c-1.55-.13-36.31-1.94-37.15-1.94-.37,0-.42-.37-.42-2.51v-2.49l1.39,.13c.73,.08,10.32,.63,21.26,1.21Zm-20.32,6.96c18.07,.92,32.88,1.73,32.91,1.75,.05,.03-1.07,.97-2.46,2.09-2.49,1.96-2.57,2.02-3.98,2.02-2.22,0-67.84-3.88-67.99-4.01-.05-.08,1.05-.94,2.46-1.96l2.57-1.86,1.83,.13c1.02,.08,16.63,.89,34.67,1.83Zm-11.62,10.18c18.88,1.07,34.93,2.04,35.69,2.12l1.36,.13v61.55l-1.49-.16c-.84-.1-12.83-1.05-26.65-2.12-13.82-1.07-29.56-2.33-34.98-2.75-5.42-.45-10-.79-10.16-.79-.21,0-.29-8.06-.29-29.98V30.34h1.13c.6,0,16.55,.89,35.4,1.96Z"/><path class="d" d="M27.54,41.89c-4.32,2.12-4.29,8.01,.03,10.24,.89,.45,2.46,.6,12.96,1.28,13.61,.86,15.16,.89,16.34,.39,1.13-.45,2.51-1.89,3.01-3.04,.47-1.15,.47-3.3-.03-4.48-.47-1.15-1.89-2.57-2.98-3.04-.58-.24-4.95-.6-13.12-1.13-14.74-.94-14.79-.94-16.21-.23Zm15.39,3.38c6.78,.45,12.57,.92,12.83,1.05,2.3,1.26,1.31,4.71-1.39,4.71-3.17-.03-25.11-1.57-25.58-1.81-1.73-.94-1.73-3.4,0-4.37,.81-.44,.03-.47,14.14,.42Z"/></g></g></g></svg>