<?xml version="1.0" encoding="UTF-8"?><svg xmlns="http://www.w3.org/2000/svg" viewBox="0 0 566.32 720.85"><defs><style>.d{fill:#fff;}.e{opacity:.15;}</style></defs><g id="a"/><g id="b"><g id="c"><g class="e"><path class="d" d="M566.3,360.49c0,85.25,.02,170.49,0,255.74-.02,59.11-45.29,104.54-104.36,104.57-118.75,.06-237.51,.07-356.26,0-60.81-.04-105.55-44.82-105.58-105.76C.02,471.35,.11,327.67,0,183.98c-.01-13.68,4.65-25.71,11.34-37.16,15.46-26.46,36.33-48.37,58.9-68.71,30.18-27.21,62.49-51.4,99.73-68.36C184.56,3.1,199.67-.07,215.88,0c81.49,.34,162.98,.18,244.48,.16,60.83-.01,105.91,44.76,105.93,105.4,.04,84.98,.01,169.96,0,254.94Zm-51.47-.11c0-85.22,.03-170.45-.02-255.67-.02-29.89-21.9-52.93-50.99-53-83.62-.2-167.23,0-250.85-.18-5.76-.01-7.21,1.79-7.11,7.3,.29,16.61,.32,33.24-.06,49.84-1.02,45.08-26.32,70.49-71.48,71.46-24.11,.52-48.24,.09-72.36,.21-11.72,.06-10.4-1.25-10.41,10.23-.04,140.7-.04,281.4-.02,422.1,0,35.87,20.96,56.67,57.1,56.68,117.12,.01,234.23,0,351.35,0,33.11,0,54.83-21.76,54.83-54.9,0-84.69,0-169.38,0-254.06Z"/><path class="d" d="M168.15,231.8c16.07,0,32.14,.26,48.2-.11,8.24-.19,12.52,3.69,14.16,11.15,.74,3.36,1.13,6.87,1.14,10.31,.1,24.37,.1,48.74,.01,73.11-.01,3.44-.41,6.95-1.16,10.32-1.65,7.46-5.94,11.21-14.17,11.14-31.33-.28-62.66-.11-94-.12-14.02,0-19.17-4.98-19.27-19.35-.16-23.57-.07-47.13-.02-70.7,0-4.8-.37-9.6,1.04-14.35,2.25-7.61,6.63-11.66,15.06-11.5,16.33,.31,32.67,.09,49.01,.09Z"/><path class="d" d="M283.12,424.83c-54.13,0-108.26,0-162.39,0-12.32,0-17.69-5.96-17.66-19.39,.03-13.47,5.33-19.2,17.85-19.2,108.52,0,217.05,0,325.57,0,12.06,0,16.75,5.34,16.84,19,.09,14.1-4.67,19.6-17.03,19.6-54.4,0-108.79,0-163.19,0Z"/><path class="d" d="M283.17,502.05c-54.13,0-108.25,.01-162.38,0-12.31,0-17.72-5.92-17.72-19.36,0-13.34,5.43-19.24,17.82-19.24,108.52,0,217.04,0,325.56,0,12.06,0,16.83,5.38,16.9,18.93,.07,14.13-4.65,19.64-17,19.64-54.39,.02-108.79,0-163.18,.02Z"/><path class="d" d="M283.12,540.65c54.39,0,108.79,.13,163.18-.13,8.47-.04,13.8,2.49,16.01,11,2.62,10.08,.14,22.07-5.71,26.08-2.39,1.64-5.01,1.65-7.7,1.65-110.13,0-220.26-.03-330.38,.06-7.67,0-11.89-3.67-14.11-10.57-1.6-4.98-1.85-10-.71-15.06,2.15-9.56,6.45-13.03,16.24-13.03,54.39-.02,108.79-.01,163.18,0Z"/><path class="d" d="M367.33,270.42c-26.52,0-53.04,.02-79.56,0-12.19-.01-17.53-6.07-17.44-19.62,.09-13.12,5.34-18.97,17.25-18.97,53.04-.03,106.09-.02,159.13,0,10.48,0,14.5,3.32,16.23,13.6,.85,5.06,.64,10.11-.93,15.1-2.1,6.67-6.08,10.06-13.51,10-27.06-.23-54.11-.09-81.17-.09Z"/><path class="d" d="M367.43,347.62c-26.25,0-52.51,.02-78.76,0-13.09-.01-18.43-5.71-18.36-19.5,.06-13.6,5.47-19.1,18.79-19.1,52.51,0,105.01,0,157.52,0,11.95,0,16.66,5.42,16.72,19.12,.06,13.78-4.68,19.47-16.34,19.48-26.52,.02-53.04,0-79.56,0Z"/></g></g></g></svg>