<?xml version="1.0" encoding="UTF-8"?><svg xmlns="http://www.w3.org/2000/svg" viewBox="0 0 102.34 55.31"><defs><style>.d{fill:#fff;}</style></defs><g id="a"/><g id="b"><g id="c"><path class="d" d="M102.34,36.51v-9.68l-12.85-10.13c2.7-1.83,4.36-5.07,3.92-8.66-.5-4.11-3.86-7.43-7.97-7.89-5.49-.61-10.13,3.67-10.13,9.03,0,3.13,1.58,5.88,3.99,7.52l-12.96,10.22v.03l-10.92-1.64c1.86-1.27,3.09-3.4,3.09-5.83,0-3.86-3.1-6.98-6.94-7.03-3.84,.05-6.94,3.18-6.94,7.03,0,2.42,1.22,4.56,3.09,5.83l-10.92,1.64-3.06-2.42h0l-10.04-7.92c2.41-1.63,3.99-4.39,3.99-7.52C27.67,3.72,23.02-.55,17.53,.06c-4.11,.46-7.47,3.78-7.97,7.89-.44,3.59,1.22,6.83,3.92,8.66L0,27.23h0v9.67H0l11.4-8.75h0l-5.7,27.08H14.97l1.07-6.11c.18-1.03,5.05-1.03,5.23,0l1.05,6.1h9.15l-5.7-27.08h0l11.03,6.29,9.31-.19-4.42,20.98h7.09l.81-4.73c.07-.39,1.02-.59,1.98-.6,.96,0,1.91,.21,1.98,.6l.81,4.73h7.09l-4.42-20.98,9.31,.19,10.88-6.2h0l-5.7,27.08h25.76l-5.7-27.08h0l10.77,8.27Z"/></g></g></svg>