<?xml version="1.0" encoding="UTF-8"?><svg xmlns="http://www.w3.org/2000/svg" viewBox="0 0 37.43 37.43"><defs><style>.d{fill:#fff;}.e{fill:#144693;}</style></defs><g id="a"/><g id="b"><g id="c"><circle class="e" cx="18.71" cy="18.71" r="18.71"/><path class="d" d="M19.08,31.14h-.65c-.45-.14-.79-.42-1.11-.75-.39-.42-.81-.81-1.22-1.21-3.07-3.07-6.15-6.15-9.22-9.22-.81-.81-.8-1.73,0-2.53,2.36-2.36,4.71-4.71,7.07-7.07,.08-.08,.17-.16,.27-.25,.92,.92,1.82,1.82,2.71,2.73,.06,.06,.05,.22,.02,.32-.21,.87,.11,1.71,.88,2.15,.2,.11,.23,.24,.23,.44,0,2.08,0,4.15,0,6.23,0,.21-.05,.32-.24,.43-.75,.44-1.09,1.28-.87,2.12,.2,.78,.93,1.37,1.72,1.39,.91,.02,1.64-.48,1.91-1.31,.26-.8-.04-1.66-.75-2.13-.16-.11-.23-.22-.23-.41,0-2.07,0-4.13,0-6.2,0-.08,.02-.16,.03-.29,.81,.81,1.57,1.57,2.34,2.33,.15,.15,.21,.27,.15,.5-.25,.88,.2,1.79,1.04,2.18,.82,.38,1.81,.12,2.33-.63,.44-.63,.46-1.46,.05-2.11-.41-.65-1.16-.97-1.93-.85-.14,.02-.34,.01-.43-.07-.84-.81-1.66-1.64-2.48-2.47-.07-.07-.11-.21-.09-.3,.27-1.46-.83-2.57-2.29-2.31-.09,.02-.24-.02-.3-.09-.89-.88-1.78-1.77-2.66-2.66-.02-.02-.02-.06-.04-.1,.77-.76,1.52-1.53,2.3-2.29,.16-.15,.37-.27,.58-.33,.7-.22,1.28,.02,1.79,.53,3.45,3.46,6.91,6.92,10.37,10.37,.34,.34,.65,.69,.79,1.16v.65c-.16,.48-.48,.82-.83,1.17-3.36,3.35-6.72,6.71-10.07,10.07-.35,.35-.7,.67-1.17,.83Z"/></g></g></svg>