<?xml version="1.0" encoding="UTF-8"?><svg xmlns="http://www.w3.org/2000/svg" viewBox="0 0 205.77 197.2"><defs><style>.d{fill:#134994;}.e{fill:#fff;}</style></defs><g id="a"/><g id="b"><g id="c"><ellipse class="d" cx="102.89" cy="98.6" rx="102.89" ry="98.6"/><g><path class="e" d="M81.81,137.78c0,3.32-.15,6.31,.04,9.27,.27,4.19-1.74,6.84-5.26,8.61-6.77,3.4-14.04,4.1-21.36,3.1-4.09-.56-8.16-1.89-12-3.46-3.4-1.39-4.89-4.35-4.85-8.23,.13-12.02,.13-24.05,0-36.07-.04-4.03,1.59-7.03,5.12-8.37,4.89-1.86,10.04-3.05,15.07-4.53l.71,.76c0-1.05,0-2.09,0-3.14,0-15.43,0-30.86,0-46.29,0-5.2,1.81-6.99,7.08-6.99,27.04,0,54.08,0,81.12,0,5.34,0,7.02,1.82,7.02,7.24-.03,26.75-.01,53.5-.02,80.26,0,6.33-1.49,7.84-7.74,7.84-20.33,0-40.66,0-60.99,0-1.18,0-2.36,0-3.94,0Zm27.12-78.53v74.86h3.11c11.61,0,23.23,0,34.84,0,4.06,0,4.21-.15,4.21-4.22,0-22.44,0-44.88,0-67.32,0-1.05-.09-2.11-.14-3.32h-42.02Zm-45.76,39.55c1.89,.29,3.66,.52,5.42,.83,10.79,1.89,13.48,5.08,13.48,15.89,0,6.08,0,12.17,0,18.38h23.12V59.49H63.16v39.32Zm87.93-43.31c0-1.73,0-3.21,0-4.69q0-4.74-4.61-4.74c-26.15,0-52.29,0-78.44,0-.9,0-1.94-.28-2.67,.08-.91,.44-2.12,1.34-2.23,2.16-.3,2.32-.11,4.71-.11,7.19h88.06ZM42.07,128.53c0,2.05,.17,3.76-.03,5.42-.4,3.36,1.22,5.4,4.13,6.45,2.52,.92,5.12,1.83,7.76,2.17,6.91,.9,13.84,.85,20.27-2.27,1.59-.77,3.31-2.49,3.76-4.11,.64-2.3,.16-4.92,.16-7.57-12.03,5.17-23.81,5.3-36.04-.09Zm18.1-11.9c5.1-1.38,10.23-2.31,14.98-4.21,4.07-1.62,4.01-4.76-.01-6.6-9.89-4.54-19.96-4.45-29.88-.03-1.27,.57-2.84,2.25-2.83,3.4,.01,1.16,1.61,2.93,2.87,3.35,4.78,1.58,9.71,2.71,14.88,4.09Zm18.23-.98c-12.26,5.27-24.03,5.22-36.06,.05,0,1.39,0,2.58,0,3.76,0,4.63,.58,5.72,4.98,7.3,2.7,.97,5.56,1.66,8.4,2,6.33,.76,12.59,.27,18.5-2.34,1.99-.88,4.09-1.92,4.17-4.6,.06-1.98,.01-3.96,.01-6.18Zm-.47,27.43c-11.95,5.2-23.72,5.18-35.49,.06-1.25,6.46-.09,8.63,5.94,10.58,7.33,2.37,14.77,2.37,22.18,.47,7.08-1.82,8.06-3.39,7.37-11.11Z"/><path class="e" d="M133.03,75.72c-.6,.72-1.7,1.44-1.72,2.18-.15,5.5-.08,11-.08,16.73h2.7c.05-.8,.17-1.49,.13-2.18-.1-2.14,.81-3.09,3.02-3.04,10.72,.23,8.86-1.54,8.99,8.71,.08,6.45,.56,5.91-6.04,5.92q-5.49,0-6.25-5.16c-1.71-.72-2.6-.33-2.58,1.72,.04,4.91,.05,9.82,0,14.72-.03,2.1,.93,2.35,2.68,1.73,.07-.65,.22-1.25,.17-1.83-.28-2.73,1.11-3.55,3.59-3.36,1.59,.12,3.21,.13,4.8,0,2.66-.23,3.89,.7,3.69,3.55-.2,2.79-.08,5.61-.03,8.41,.03,1.9-.8,2.78-2.7,2.71-1.2-.04-2.4,0-3.6,0q-5.34,0-5.97-5.08c-.17-.1-.33-.28-.5-.3q-5.8-.46-5.8-6.32c0-4.71,.06-9.42-.07-14.12-.02-.72-.86-1.42-1.33-2.13-.49,.67-1.43,1.37-1.38,2.01,.19,2.93-1.28,3.5-3.84,3.49-8.26-.03-8.28,.05-8.26-8.25,.02-7.09-.73-6.38,6.46-6.41,.1,0,.2,0,.3,0q5.01,0,5.41,5.09c1.78,.77,2.74,.44,2.71-1.78-.05-5.11-.02-10.22-.01-15.32q0-4.81,4.68-4.9c.49,0,.98-.05,1.38-.07,.18-.3,.35-.45,.37-.61,.35-4.75,.35-4.79,5.23-4.74,7.74,.08,6.9-1.12,6.88,6.82-.01,8.75,1.03,7.49-7.4,7.57-4.34,.04-4.34,0-4.78-4.99l-.88-.78Zm4.87,1.94h4.34v-6.89h-4.34v6.89Zm-17.28,15.65h-4.31v6.83h4.31v-6.83Zm21.58,6.91v-7.02h-4.25v7.02h4.25Zm-4.24,15.5v6.94h4.24v-6.94h-4.24Z"/><path class="e" d="M83.9,70.71c-4.51,0-9.02,.12-13.52-.09-1.06-.05-2.07-1.24-3.1-1.91,1.02-.54,2.03-1.55,3.06-1.56,9.21-.12,18.43-.12,27.64,0,.96,.01,1.91,1.11,2.86,1.71-.94,.61-1.86,1.72-2.82,1.76-4.7,.18-9.41,.08-14.12,.08Z"/><path class="e" d="M84.26,78.96c4.61,0,9.22-.11,13.82,.09,.94,.04,1.84,1.19,2.75,1.83-.89,.58-1.78,1.64-2.68,1.65-9.41,.12-18.83,.12-28.24,0-.89-.01-1.76-1.14-2.63-1.75,.85-.6,1.69-1.7,2.56-1.73,4.8-.17,9.61-.08,14.42-.08Z"/><path class="e" d="M84.26,94.36c-4.71,0-9.42,.1-14.12-.08-.98-.04-1.91-1.13-2.86-1.74,.98-.61,1.95-1.74,2.93-1.75,9.21-.14,18.43-.14,27.64,0,1.01,.02,1.99,1.28,2.99,1.97-1.02,.53-2.02,1.48-3.06,1.52-4.5,.17-9.01,.07-13.52,.07Z"/><path class="e" d="M123.62,52.67c-6.4,0-12.79,.03-19.19-.04-.91-.01-1.89-.4-2.69-.87-.3-.18-.42-1.43-.19-1.59,.74-.52,1.67-1.07,2.54-1.08,7.69-.08,15.39-.05,23.09-.05,5.4,0,10.8-.09,16.19,.08,.99,.03,1.94,1.11,2.91,1.7-.96,.62-1.9,1.74-2.87,1.77-6.59,.16-13.19,.08-19.79,.08Z"/><path class="e" d="M70.52,53.71l-2.7-3.07c1.03-.53,2.05-1.46,3.09-1.47,.89-.01,1.79,1.02,2.69,1.58l-3.08,2.96Z"/><path class="e" d="M79.19,48.17l2.94,2.62c-.93,.63-1.86,1.73-2.8,1.75-.97,.01-1.95-1.05-2.92-1.64l2.78-2.73Z"/><path class="e" d="M88.05,48.14l2.58,2.81c-.97,.57-1.95,1.61-2.89,1.58-.92-.03-1.8-1.16-2.7-1.81l3.01-2.57Z"/></g></g></g></svg>