<?xml version="1.0" encoding="UTF-8"?><svg xmlns="http://www.w3.org/2000/svg" viewBox="0 0 37.43 37.43"><defs><style>.d{fill:#144693;}.e{fill:#fbfcfe;}</style></defs><g id="a"/><g id="b"><g id="c"><circle class="d" cx="18.71" cy="18.71" r="18.71"/><g><path class="e" d="M15.4,8.52c-.33,.17-.64,.32-.95,.49-1.01,.55-1.84,1.31-2.54,2.21-.14,.18-.16,.29,.06,.42,.41,.24,.79,.51,1.19,.78,.14,.1,.26,.11,.43,.04,1.42-.63,2.84-1.25,4.26-1.87,.1-.04,.2-.07,.22-.19,.02-.14-.11-.19-.2-.25-.7-.47-1.4-.93-2.11-1.4-.09-.06-.18-.13-.28-.2,.14-.14,.34-.13,.5-.25-.47-.31-.93-.62-1.38-.93-.1-.07-.24-.11-.22-.27,.02-.13,.15-.15,.25-.2,1.4-.61,2.8-1.22,4.2-1.84,.17-.07,.3-.07,.46,.03,1.29,.86,2.59,1.71,3.88,2.57,.1,.07,.24,.11,.22,.27-.02,.15-.17,.17-.27,.21-.36,.17-.73,.32-1.15,.5l.85,.48c-.22,.1-.39,.18-.56,.26-.77,.34-1.54,.67-2.31,1.01-.1,.05-.25,.06-.26,.23,0,.14,.11,.18,.21,.24,1.27,.84,2.54,1.68,3.8,2.52,.21,.14,.38,.17,.62,.06,.49-.24,1-.44,1.49-.66,.16-.07,.27-.09,.31,.12,.04,.2,.15,.22,.33,.13,.68-.33,1.37-.64,2.06-.96,.31-.14,.41-.07,.38,.27-.13,1.14-.26,2.29-.39,3.43-.04,.38-.09,.76-.13,1.13-.01,.13-.05,.23-.18,.29-.5,.24-.99,.5-1.51,.76-.03-.28,.05-.52,.08-.76,.15-1.31,0-2.58-.43-3.82-.07-.19-.12-.23-.31-.13-.42,.22-.85,.41-1.28,.6-.19,.08-.28,.19-.3,.41-.12,1.53-.27,3.05-.4,4.58-.03,.39,.04,.43,.39,.26,.72-.36,1.43-.71,2.15-1.07,.08,.13-.06,.23,.02,.36,.42-.22,.85-.44,1.27-.65,.09-.05,.18-.12,.29-.05,.1,.07,.08,.18,.07,.28-.2,1.42-.4,2.85-.6,4.27-.02,.14-.08,.22-.2,.29-1.14,.68-2.27,1.37-3.41,2.05-.09,.05-.17,.13-.28,.05-.1-.07-.08-.18-.07-.28,.04-.55,.09-1.1,.13-1.71-.47,.34-.9,.64-1.36,.89-1.15,.6-2.37,.93-3.66,.97-.24,0-.31,.07-.31,.31,0,.85-.01,1.71-.02,2.56,0,.11,.03,.24-.1,.3-.12,.06-.21-.03-.31-.09-1.29-.86-2.59-1.71-3.88-2.56-.15-.1-.23-.21-.22-.4,0-.49,0-.98,0-1.5,.43,.24,.84,.49,1.28,.68,.95,.42,1.95,.64,2.98,.7,.22,.01,.28-.05,.28-.26,0-.54,0-1.09,.02-1.63,0-.15-.04-.25-.17-.33-1.36-.86-2.73-1.72-4.09-2.58-.27-.17-.36-.11-.36,.22,0,.96,.02,1.91,.03,2.87,0,.08,0,.16,0,.28-.29-.13-.48-.35-.75-.51,0,.44,0,.85,0,1.26,0,.13,.05,.28-.09,.37-.15,.1-.25-.05-.35-.11-1.28-.84-2.55-1.69-3.83-2.53-.16-.11-.24-.22-.24-.42-.01-1.55-.04-3.1-.05-4.66,0-.11-.05-.26,.09-.33,.13-.06,.21,.04,.3,.1,.34,.22,.67,.44,1.01,.66,.08,.05,.15,.15,.28,.12v-.45c.12-.05,.18,.04,.25,.09,.76,.5,1.53,1.01,2.29,1.51,.08,.06,.17,.14,.28,.08,.12-.06,.09-.17,.09-.27-.02-1.59-.04-3.19-.06-4.78,0-.15-.06-.24-.19-.32-.42-.27-.83-.53-1.23-.82-.17-.12-.25-.09-.35,.08-.7,1.24-1.07,2.57-1.09,4,0,.1,0,.2,0,.36-.53-.36-1.02-.68-1.5-1.01-.1-.07-.08-.18-.09-.28-.02-1.56-.04-3.13-.06-4.69,0-.11-.02-.24,.09-.31,.13-.09,.23,.03,.33,.09,.76,.49,1.51,.99,2.26,1.5,.16,.11,.23,.09,.32-.07,.08-.14,.16-.23-.04-.35-.77-.49-1.53-1-2.29-1.51-.09-.06-.21-.1-.21-.24,0-.15,.14-.16,.24-.21,1.41-.62,2.82-1.23,4.23-1.85,.11-.05,.22-.11,.35-.03,.5,.34,1.01,.67,1.53,1.02Zm3.05,10.61h.13c0-.76,0-1.52,0-2.28,0-.13,0-.25-.14-.35-1.41-.92-2.81-1.85-4.22-2.78-.24-.16-.35-.1-.35,.2,.02,1.59,.04,3.18,.06,4.78,0,.14,.04,.23,.16,.31,1.33,.88,2.65,1.75,3.98,2.63,.27,.18,.36,.13,.36-.2,0-.77,0-1.54,0-2.31Zm4.9-5.27c0-.09-.07-.14-.14-.18-1.34-.88-2.67-1.77-4.01-2.65-.11-.08-.21-.08-.34-.03-1.44,.63-2.88,1.26-4.31,1.89-.27,.12-.28,.25-.04,.41,1.39,.93,2.79,1.85,4.19,2.78,.11,.08,.22,.09,.34,.03,1.38-.68,2.76-1.36,4.15-2.04,.09-.04,.16-.09,.17-.2Zm-4.28,7.38c.02,.11-.08,.27,.07,.37,.17,.11,.29-.05,.41-.12,1.21-.68,2.42-1.36,3.63-2.03,.15-.09,.23-.19,.24-.36,.11-1.45,.23-2.91,.33-4.36,.02-.3-.08-.36-.34-.22-1.3,.7-2.6,1.4-3.91,2.1-.13,.07-.19,.16-.2,.31-.07,1.43-.15,2.85-.24,4.31Zm-8.79-4.16c.28,2.17,1.18,3.93,2.76,5.35,.03-.05,.05-.07,.05-.09,0-1.08-.02-2.16-.03-3.23,0-.13-.04-.21-.15-.28-.86-.56-1.71-1.13-2.64-1.75Zm5.74-8.76c.9,.59,1.74,1.14,2.57,1.7,.12,.08,.22,.02,.32-.02,.47-.2,.94-.41,1.41-.62,.52-.23,1.03-.45,1.61-.71-1.95-.84-3.87-.95-5.91-.35Zm7.76,14.23c1.05-.62,2.68-3.15,2.65-4.09-.75,.39-1.5,.77-2.24,1.16-.12,.06-.19,.13-.2,.28-.06,.87-.14,1.74-.21,2.65Z"/><path class="e" d="M19.12,29.91c0-.72,0-1.44,0-2.16,0-.19,.05-.32,.22-.43,1.24-.75,2.47-1.51,3.7-2.27,.09-.06,.19-.15,.31-.09,.12,.07,.09,.2,.09,.31-.03,1.45-.07,2.9-.1,4.34,0,.18-.08,.28-.22,.37-1.2,.77-2.4,1.54-3.61,2.31-.09,.06-.18,.16-.3,.08-.11-.08-.09-.2-.09-.31,0-.72,0-1.44,0-2.16h0Z"/><path class="e" d="M22.87,9.12c.44-.19,.87-.38,1.3-.57,.12-.05,.23-.06,.34,.02,1.34,.89,2.69,1.78,4.03,2.67,.21,.14,.16,.27-.03,.36-.79,.35-1.59,.69-2.38,1.05-.1,.05-.15,.01-.19-.08-.7-1.42-1.73-2.53-3.06-3.39,0,0,0-.02-.02-.06Z"/></g></g></g></svg>