<?xml version="1.0" encoding="UTF-8"?><svg xmlns="http://www.w3.org/2000/svg" viewBox="0 0 205.77 197.2"><defs><style>.d{fill:#134994;}.e{fill:#fff;}</style></defs><g id="a"/><g id="b"><g id="c"><ellipse class="d" cx="102.89" cy="98.6" rx="102.89" ry="98.6"/><path class="e" d="M89.61,50.92c1-1.72,1.85-3.24,2.74-4.72,1.76-2.93,5.05-3.93,8.01-2.26,9.92,5.62,19.89,11.17,29.64,17.08,1.95,1.18,3.12,1.07,4.82,.14,1.97-1.07,4.02-2.01,6.06-2.94,3.21-1.46,6.43-.35,7.96,2.8,4.88,10.05,9.74,20.12,14.56,30.21,1.68,3.5,.48,6.66-3.09,8.39-6.42,3.11-12.85,6.2-19.27,9.3-.49,.24-.97,.5-1.42,1.15,.96,0,1.92-.02,2.88,0,4.48,.1,7.11,4.03,5.46,8.22-3.69,9.35-7.35,18.71-11.14,28.02-1.8,4.41-5.27,6.88-9.95,7.61-.99,.15-2.02,.15-3.03,.15-21.08,0-42.16,0-63.24,0-3.02,0-3.37-.35-3.37-3.41,0-15.8,0-31.59-.02-47.39,0-1.05-.17-2.13-.47-3.14-3.37-11.3-6.79-22.59-10.16-33.88-1.13-3.78,.42-6.73,4.18-7.88,10.57-3.25,21.16-6.44,31.74-9.67,2.79-.85,5.07-.05,7.12,2.23Zm-27.22,99.07c.97,0,1.68,0,2.39,0,12.87,0,25.74,0,38.62,0,7.19,0,14.39,.03,21.58-.01,3.65-.02,6.56-1.65,7.95-4.99,3.88-9.33,7.53-18.76,11.23-28.16,.62-1.57-.16-2.62-1.88-2.72-.39-.02-.79-.01-1.18-.01-19.73,0-39.46,0-59.19,0-3.41,0-4.86,.98-6.19,4.13-3.88,9.21-7.77,18.42-11.65,27.63-.54,1.28-1.05,2.57-1.68,4.14Zm64.7-39.95c0-3.91,0-7.56,0-11.2q0-2.23-2.25-2.24c-11.58,0-23.16,0-34.73-.01-3.56,0-5.41-1.89-5.4-5.41,0-.56-.07-1.13,0-1.68,.2-1.53-.49-1.88-1.93-1.87-6.46,.06-12.93,.07-19.39-.03-1.73-.03-2.18,.53-2.18,2.21,.06,16.52,.03,33.05,.03,49.57,0,.47,.05,.94,.08,1.41,.69-.64,1.01-1.38,1.33-2.12,3.12-7.4,6.27-14.78,9.35-22.2,1.83-4.4,5.02-6.48,9.81-6.46,14.44,.07,28.89,.02,43.33,.01,.55,0,1.1,0,1.93,0Zm-69.94-22.78c1.14-2.4,2.56-3.69,4.76-3.7,7.36-.04,14.72-.05,22.09,0,2.71,.02,4.63,1.96,4.79,4.68,.06,1.01-.1,2.04,.08,3.02,.09,.49,.7,1.24,1.1,1.25,2.62,.11,5.26,.06,7.99,.06-.09-.5-.11-.83-.2-1.14-3.77-12.41-7.54-24.82-11.33-37.22-.54-1.75-1.23-2.07-3.06-1.51-6.18,1.87-12.35,3.76-18.52,5.65-1,.3-1.99,.62-3.13,.98,.88,2.88,1.71,5.55,2.51,8.23,.66,2.2,.24,2.98-1.9,3.63-2.31,.7-4.62,1.4-6.93,2.11-.72,.22-1.43,.5-2.22,.79l3.97,13.19Zm74,21.61c.53-.1,.71-.1,.86-.17,8.9-4.28,17.8-8.56,26.7-12.85,1.39-.67,1.6-1.68,.92-3.06-2.71-5.55-5.38-11.12-8.06-16.68-.6-1.24-1.21-2.49-1.86-3.83-2.61,1.26-5.03,2.42-7.45,3.58-2.52,1.21-3.15,.99-4.33-1.47-.8-1.67-1.6-3.34-2.41-5-.53-1.08-1.08-2.15-1.78-3.56-5.14,9.06-10.08,17.76-15.02,26.46,.25,.15,.29,.2,.34,.2,2.41,.03,4.82,.04,7.24,.08,2.86,.05,4.72,1.86,4.85,4.73,.06,1.29,.02,2.58,.02,3.87,0,2.51,0,5.01,0,7.69Zm-23.37-56c-.2,.18-.31,.23-.36,.32-1.41,2.43-2.8,4.86-4.22,7.28-1.02,1.74-1.83,1.97-3.59,1.02-1.13-.62-2.24-1.28-3.37-1.92-1.42-.8-2.84-1.6-4.49-2.54,.12,.7,.14,1.04,.24,1.36,3.35,11.01,6.71,22.01,10.03,33.02,.29,.97,.79,1.18,1.69,1.17,2.98-.04,5.96,.04,8.93-.07,.62-.02,1.46-.55,1.77-1.09,4.62-7.96,9.18-15.96,13.74-23.96,1.03-1.8,.82-2.49-.99-3.52-4.97-2.85-9.94-5.68-14.92-8.52-1.5-.86-3-1.71-4.46-2.54Zm-47.81,14.74l-1.4-4.61c-1.27,2.19-2.28,3.94-3.54,6.12l4.94-1.51Zm36.49-13.13l-.11,.42,4.01,2.3,2.32-4.14-6.23,1.42Zm43.06,12.89l-.29,.29,2.03,4.16,4.22-2.11-5.96-2.34Zm-38.66-18.13c-2.96-2.96-4.77-2.54-6.08,1.37,.6-.09,1.14-.14,1.67-.27,1.45-.34,2.89-.72,4.41-1.1Zm45.33,16.32c-.93-4.2-2.58-4.84-5.85-2.26l5.85,2.26Zm-94.81,1.68l3.16-5.47c-4.22,.19-5.14,1.75-3.16,5.47Z"/></g></g></svg>