<?xml version="1.0" encoding="UTF-8"?><svg xmlns="http://www.w3.org/2000/svg" viewBox="0 0 198.36 190.1"><defs><style>.d{fill:#134994;}.e{fill:#fff;}</style></defs><g id="a"/><g id="b"><g id="c"><ellipse class="d" cx="99.18" cy="95.05" rx="99.18" ry="95.05"/><g><path class="e" d="M95.86,76.38l-10.88,6.66c-3.58-5.48-9.33-8.74-16.4-8.74-11.51,0-20.03,8.43-20.03,20.76,.04,12.73,8.83,20.75,20.03,20.75,7.03,0,12.74-3.17,16.54-8.7l10.33,7.43c-5.62,8.25-15.18,13.42-26.78,13.42-19.53,0-33.3-13.82-33.3-32.9s13.78-32.9,33.3-32.9c11.7,0,22.03,5.35,27.19,14.23Z"/><path class="e" d="M163,76.38l-10.88,6.66c-3.58-5.48-9.33-8.74-16.4-8.74-11.51,0-20.03,8.43-20.03,20.76,.04,12.73,8.83,20.75,20.03,20.75,7.03,0,12.74-3.17,16.54-8.7l10.33,7.43c-5.62,8.25-15.18,13.42-26.78,13.42-19.53,0-33.3-13.82-33.3-32.9s13.78-32.9,33.3-32.9c11.7,0,22.03,5.35,27.19,14.23Z"/></g></g></g></svg>