<?xml version="1.0" encoding="UTF-8"?><svg xmlns="http://www.w3.org/2000/svg" viewBox="0 0 261.57 137.95"><defs><style>.d{fill:#fff;}</style></defs><g id="a"/><g id="b"><g id="c"><g><g><path class="d" d="M122.29,72.77h-12.08l-1.97,5.83h-6.04l10.57-29.37h6.97l10.57,29.37h-6.04l-1.97-5.83Zm-1.72-5.08l-4.32-12.71-4.32,12.71h8.64Z"/><path class="d" d="M154.27,49.23v29.37h-5.33v-2.48c-1.38,1.72-3.48,3.02-6.8,3.02-6.59,0-10.36-5.58-10.36-11.16s3.78-11.16,10.36-11.16c3.31,0,5.41,1.26,6.8,3.02v-10.62h5.33Zm-5.58,18.76c0-3.27-2.06-6.04-5.71-6.04s-5.75,2.77-5.75,6.04,2.1,6.04,5.75,6.04,5.71-2.77,5.71-6.04Z"/><path class="d" d="M180.54,49.23v29.37h-5.33v-2.48c-1.38,1.72-3.48,3.02-6.8,3.02-6.59,0-10.36-5.58-10.36-11.16s3.78-11.16,10.36-11.16c3.31,0,5.41,1.26,6.8,3.02v-10.62h5.33Zm-5.58,18.76c0-3.27-2.06-6.04-5.71-6.04s-5.75,2.77-5.75,6.04,2.1,6.04,5.75,6.04,5.71-2.77,5.71-6.04Z"/><path class="d" d="M198,56.83v5.79c-6.29-.76-7.09,3.27-7.09,7.22v8.77h-5.33v-21.27h5.33v3.48c1.59-2.64,4.53-3.99,7.09-3.99Z"/><path class="d" d="M221.54,70.04h-15.78c.76,2.85,3.11,4.36,6.04,4.36,2.43,0,4.11-1.3,4.74-2.1l4.28,2.52c-1.72,2.39-4.99,4.32-9.02,4.32-7.05,0-11.71-4.7-11.71-11.16s4.99-11.16,10.87-11.16c6.42,0,11.54,4.83,10.57,13.22Zm-5.2-4.11c-.54-2.77-2.43-4.36-5.29-4.36-2.6,0-4.66,1.64-5.29,4.36h10.57Z"/><path class="d" d="M241.72,72.06c0,4.2-3.06,7.09-9.02,7.09-4.07,0-8.18-1.64-9.15-5.2l5.12-1.6c.17,.88,1.01,2.31,4.11,2.31,2.22,0,3.48-.8,3.48-2.22,0-2.01-3.06-1.93-5.58-2.48-4.11-.84-6.21-2.81-6.21-6.46,0-4.03,3.36-6.67,8.35-6.67,3.65,0,7.26,1.8,8.14,5.5l-4.82,1.17c-.25-1.09-1.3-2.18-3.32-2.18-1.55,0-3.15,.59-3.15,2.18,0,1.89,2.85,2.02,4.53,2.39,5.2,1.13,7.51,2.56,7.51,6.17Z"/><path class="d" d="M261.57,72.06c0,4.2-3.06,7.09-9.02,7.09-4.07,0-8.18-1.64-9.15-5.2l5.12-1.6c.17,.88,1.01,2.31,4.11,2.31,2.22,0,3.48-.8,3.48-2.22,0-2.01-3.06-1.93-5.58-2.48-4.11-.84-6.21-2.81-6.21-6.46,0-4.03,3.36-6.67,8.35-6.67,3.65,0,7.26,1.8,8.14,5.5l-4.82,1.17c-.25-1.09-1.3-2.18-3.32-2.18-1.55,0-3.15,.59-3.15,2.18,0,1.89,2.85,2.02,4.53,2.39,5.2,1.13,7.51,2.56,7.51,6.17Z"/></g><g><path class="d" d="M104.32,85.07v11.16h12.59v2.22h-12.59v13.72h-2.22v-29.37h16.4v2.27h-14.18Z"/><path class="d" d="M141.5,101.56c0,6.13-4.87,11.16-11.04,11.16s-11.04-5.03-11.04-11.16,4.91-11.16,11.04-11.16,11.04,4.99,11.04,11.16Zm-2.22,0c0-4.91-3.9-8.94-8.81-8.94s-8.81,4.03-8.81,8.94,3.9,8.89,8.81,8.89,8.81-3.99,8.81-8.89Z"/><path class="d" d="M154.11,90.4v2.6c-4.7,0-7.55,2.98-7.55,8.35v10.83h-2.27v-21.27h2.27v4.57c1.47-2.85,4.07-5.08,7.55-5.08Z"/><path class="d" d="M179.39,106.34h-12.08l-1.97,5.83h-6.04l10.57-29.37h6.97l10.57,29.37h-6.04l-1.97-5.83Zm-1.72-5.08l-4.32-12.71-4.32,12.71h8.64Z"/><path class="d" d="M196.44,82.8v29.37h-5.33v-29.37h5.33Z"/><path class="d" d="M206.81,82.8v29.37h-5.33v-29.37h5.33Z"/></g></g><g><path class="d" d="M29.07,116.55c10.68,12.04,20.22,21.4,20.22,21.4,0,0,9.53-9.36,20.22-21.4H29.07Z"/><path class="d" d="M87.4,98v-7.22l-9.58-7.55c2.01-1.36,3.25-3.78,2.92-6.46-.37-3.06-2.87-5.54-5.94-5.88-4.09-.46-7.55,2.73-7.55,6.73,0,2.33,1.18,4.39,2.97,5.61l-9.66,7.62v.02l-8.14-1.22c1.39-.94,2.3-2.54,2.3-4.34,0-2.87-2.31-5.21-5.18-5.24-2.87,.04-5.18,2.37-5.18,5.24,0,1.81,.91,3.4,2.3,4.34l-8.14,1.22-2.28-1.8h0l-7.49-5.9c1.79-1.22,2.97-3.27,2.97-5.61,0-4-3.46-7.19-7.55-6.73-3.07,.34-5.57,2.82-5.94,5.88-.33,2.68,.91,5.09,2.92,6.46l-10.05,7.92h0v7.21h0l8.5-6.53h0l-4.25,20.19h6.91l.79-4.55c.13-.77,3.76-.77,3.9,0l.78,4.55h6.82l-4.25-20.19h0l8.22,4.69,6.94-.14-3.29,15.64h5.29l.61-3.53c.05-.29,.76-.44,1.47-.45,.72,0,1.42,.15,1.47,.45l.61,3.53h5.29l-3.29-15.64,6.94,.14,8.11-4.62h0l-4.25,20.19h19.2l-4.25-20.19h0l8.03,6.17Z"/><path class="d" d="M11.72,84.68l2.88-2.27c-.89-1.91-1.25-4.07-.99-6.26,.63-5.19,4.86-9.37,10.05-9.95,3.25-.37,6.5,.67,8.92,2.84,2.42,2.17,3.81,5.27,3.81,8.52,0,1.7-.38,3.35-1.07,4.84l4.4,3.47c-.01-.19-.02-.37-.02-.56,0-5.39,4.39-9.83,9.78-9.91h.13c5.39,.07,9.78,4.52,9.78,9.91,0,.18,0,.36-.01,.54l4.29-3.38c-.7-1.49-1.07-3.14-1.07-4.84,0-3.25,1.39-6.36,3.81-8.52,2.42-2.17,5.67-3.21,8.92-2.84,5.19,.58,9.42,4.76,10.06,9.95,.27,2.19-.09,4.35-.99,6.26l2.55,2.01,.97-1.78c6.21-13.05,10.66-25.24,10.66-33.41C98.57,22.07,76.51,0,49.29,0S0,22.07,0,49.29c0,8.24,4.53,20.57,10.83,33.76l.89,1.63ZM49.29,29.3c7.36,0,13.17,5.96,13.17,13.32s-5.81,13.32-13.17,13.32-13.17-6.01-13.17-13.32,5.86-13.32,13.17-13.32Z"/></g></g></g></svg>