<?xml version="1.0" encoding="UTF-8"?><svg xmlns="http://www.w3.org/2000/svg" viewBox="0 0 205.77 197.2"><defs><style>.d{fill:#134994;}.e{fill:#fff;}</style></defs><g id="a"/><g id="b"><g id="c"><ellipse class="d" cx="102.89" cy="98.6" rx="102.89" ry="98.6"/><g><path class="e" d="M89.14,53.71h-14.76v24.22c4.86,.79,9.72,1.58,14.77,2.4,0-1.86,.06-3.89-.02-5.92-.08-1.91,.67-2.76,2.64-2.75,22.5,.03,45.01,.03,67.51,0,1.8,0,2.58,.7,2.57,2.52-.04,6.31-.08,12.63,0,18.94,.03,2.52-1.45,2.59-3.31,2.59-19.12-.03-38.25-.01-57.37-.01-1.05,0-2.1,0-3.33,0v6.88c4.7,0,9.47,.04,14.23-.05,.6-.01,1.21-.67,1.76-1.09,6.98-5.23,15.55-5.17,22.5,.07,.83,.63,2.05,1.02,3.09,1.04,6.49,.1,12.99,.12,19.48,.02,2.29-.04,3.21,.71,3.18,3.05-.09,6.05-.08,12.1,0,18.14,.03,2.22-.89,2.94-3.04,2.9-5.69-.1-11.38-.04-17.08-.02-.85,0-1.7,.08-3.27,.16,2,2.77,3.21,6.33,5.45,7.19,6.52,2.5,7.88,9.05,11.87,13.44,2.23,2.46,1.21,6.49-1.41,8.53-2.57,2-6.6,1.84-8.68-.77-3.16-3.95-6.03-8.14-9-12.24-.25-.35-.55-.87-.46-1.21,1.14-4.17-2.89-5.82-4.31-8.73-.16-.34-1.43-.37-2.1-.19-7.11,1.89-13.13,.02-18.31-5.06-.63-.62-1.59-1.24-2.42-1.27-3.73-.14-7.46-.06-11.64-.06,0,1.59,0,3.05,0,4.52,0,4-.18,8.02,.05,12.01,.31,5.49-2.37,8.87-7.07,11.07-5.26,2.47-10.87,3.14-16.6,3.24-7.43,.13-14.75-.54-21.7-3.39-1.95-.8-3.8-1.92-5.52-3.15-2.13-1.53-3.14-3.69-3.14-6.42,.05-17.7,.06-35.4,0-53.1-.02-3.73,2.07-5.94,4.9-7.66,5.28-3.21,11.21-4.32,17.26-4.96,1.49-.16,2.99-.23,4.73-.36,0-7.74,0-15.29,0-22.84q0-5.34,5.39-5.31c4.33,.01,8.67,0,13.18,0,0-2.21,.13-4.09-.03-5.93-.23-2.53,.93-3.22,3.27-3.21,12.72,.06,25.44,.03,38.16,.03,8.98,0,17.97,0,26.95,0q4.33,0,4.34,4.44c0,5.51-.06,11.03,.03,16.54,.03,2.07-.73,2.83-2.81,2.83-22.41-.04-44.83-.03-67.24,0-1.93,0-2.73-.78-2.67-2.72,.08-2.73,.02-5.46,.02-8.34Zm3.75,7.2h65.2v-16.22H92.89v16.22Zm4.81,30.82h60.39v-16.22H92.76c0,1.7-.12,3.22,.04,4.7,.11,1.06,.26,2.46,.96,3.05,2.61,2.23,4.07,4.88,3.94,8.46Zm-50.5,23.72c0,3,.26,5.68-.06,8.29-.57,4.67,1.85,7.13,5.73,8.73,6.88,2.85,14.08,3.44,21.41,2.98,5.34-.33,10.68-1,15.36-3.77,1.7-1.01,3.76-2.82,4.04-4.52,.61-3.75,.19-7.67,.19-11.65-15.29,7.37-31.8,7.37-46.66-.07Zm.22,18.18c0,3.63,.08,6.91-.03,10.19-.07,2.1,.71,3.66,2.45,4.68,1.68,.98,3.39,1.97,5.22,2.6,7.15,2.46,14.58,3.26,22.05,2.45,4.17-.46,8.35-1.6,12.27-3.1,1.82-.69,4.04-2.79,4.33-4.54,.65-3.91,.2-8,.2-12.2-11.1,7.26-35.72,7.16-46.5-.07Zm46.58-35.81c-15.75,6.95-31.08,6.98-46.58-.06,0,3.16,.11,6.27-.04,9.37-.12,2.42,.87,4.17,2.8,5.35,1.58,.96,3.27,1.81,5.01,2.41,7.55,2.6,15.37,2.89,23.15,1.71,4.13-.62,8.22-2.08,12.09-3.72,1.52-.64,3.18-2.7,3.41-4.3,.51-3.55,.16-7.22,.16-10.76Zm45.33,17.97c.06-8.07-6.37-14.65-14.38-14.7-7.8-.05-14.39,6.52-14.45,14.41-.06,8,6.21,14.56,14.1,14.74,7.84,.18,14.67-6.52,14.73-14.44Zm-68.45-33.33l-.7-1c-4.33,.76-8.7,1.34-12.97,2.34-2.38,.56-4.72,1.61-6.84,2.84-4.16,2.41-4.16,5.5-.1,8.16,1.39,.91,2.95,1.66,4.52,2.21,6.74,2.32,13.73,2.76,20.76,2.16,5.22-.44,10.4-1.31,14.99-4.15,4.38-2.72,4.49-6.34,.15-9.16-4.93-3.21-10.55-3.78-16.59-3.65,.3,1.13,.71,2.2,1.48,2.81,2.35,1.87,3.25,4.09,2.45,6.75-.78,2.57-3.15,4.38-5.78,4.24-2.63-.14-4.55-1.45-5.48-3.96-.96-2.59,.05-5.15,2.39-7.02,.77-.61,1.15-1.7,1.71-2.57Zm87.27,40.31v-16.32h-17.57c2.93,5.41,3.13,10.76,1.06,16.32h16.52Zm-49.76,0c-2.25-5.58-1.93-10.97,.91-16.34h-11.44v16.34h10.54Zm32.22,19.17c2.68,3.7,5.12,7.17,7.68,10.55,1.03,1.36,2.49,1.74,3.98,.69,1.33-.93,1.83-2.28,.88-3.69-2.51-3.69-5.14-7.31-7.8-11.06-1.68,1.24-3.09,2.28-4.74,3.51Zm-64.88-51.99c-1.61-1.05-2.6-2.21-3.43-2.11-.85,.11-2.19,1.5-2.14,2.25,.06,.82,1.41,2.09,2.28,2.17,.81,.07,1.75-1.16,3.29-2.31Zm59.6,40.25l-.17,.72c1.39,1.94,2.75,3.91,4.2,5.82,.25,.32,.82,.4,1.25,.59,0-.52,.21-1.16-.03-1.53-1.16-1.78-2.4-3.52-3.72-5.19-.26-.33-1.01-.28-1.53-.4Z"/><path class="e" d="M116.93,54.66c-5.77,0-11.54,.07-17.31-.07-.86-.02-2.29-.86-2.43-1.54-.38-1.76,1.13-1.85,2.44-1.85,11.63,0,23.26-.01,34.88-.01,1.32,0,2.8,.18,2.49,1.86-.13,.68-1.61,1.54-2.49,1.56-5.86,.14-11.72,.07-17.57,.07h0Z"/><path class="e" d="M146.32,53.06c-1.12,.71-1.93,1.61-2.43,1.46-.7-.21-1.18-1.19-1.75-1.85,.65-.48,1.3-1.32,1.94-1.32,.62,0,1.23,.89,2.24,1.71Z"/><path class="e" d="M154.45,52.75c-1,.87-1.67,1.85-2.14,1.76-.71-.13-1.29-1.01-1.92-1.57,.55-.57,1.04-1.49,1.66-1.59,.57-.09,1.29,.71,2.41,1.4Z"/><path class="e" d="M116.95,85.53c-5.6,0-11.2,0-16.8,0-1.47,0-3.23,.02-2.94-1.97,.1-.71,1.88-1.68,2.91-1.69,11.29-.12,22.58-.07,33.87-.08,1.49,0,3.22,.05,2.99,1.98-.08,.69-1.9,1.65-2.95,1.68-5.68,.17-11.38,.08-17.06,.08Z"/><path class="e" d="M144.02,81.2c.73,1.15,1.57,1.9,1.55,2.62-.02,.57-1.08,1.12-1.68,1.68-.59-.66-1.52-1.25-1.64-1.99-.09-.53,.9-1.24,1.77-2.31Z"/><path class="e" d="M151.87,86.23c-.67-1.26-1.41-2.04-1.35-2.75,.05-.58,1.06-1.07,1.65-1.6,.53,.67,1.4,1.31,1.49,2.03,.06,.54-.88,1.21-1.79,2.32Z"/><path class="e" d="M113.17,116.46c.24-4.66,1.54-7.72,4.37-9.9,.63-.49,1.88-.19,2.84-.25-.15,.94,.05,2.24-.5,2.76-3.46,3.32-3.98,6.9-1.69,11.08,.34,.63-.16,1.72-.27,2.6-.91-.28-2.34-.3-2.65-.89-1.03-2.01-1.67-4.22-2.1-5.41Z"/><path class="e" d="M152.21,117.89c-.83-1.02-1.71-1.63-1.71-2.23,0-.62,.87-1.24,1.35-1.85,.64,.56,1.6,1.03,1.82,1.72,.15,.47-.75,1.27-1.47,2.37Z"/></g></g></g></svg>