<?xml version="1.0" encoding="UTF-8"?><svg xmlns="http://www.w3.org/2000/svg" viewBox="0 0 86.06 120.44"><defs><style>.d{fill:#134994;}</style></defs><g id="a"/><g id="b"><g id="c"><g><path class="d" d="M25.38,101.76c9.33,10.51,17.65,18.68,17.65,18.68,0,0,8.32-8.17,17.65-18.68H25.38Z"/><path class="d" d="M76.31,85.57v-6.3l-8.36-6.59c1.75-1.19,2.84-3.3,2.55-5.64-.33-2.68-2.51-4.83-5.19-5.13-3.57-.4-6.59,2.39-6.59,5.88,0,2.04,1.03,3.83,2.6,4.89l-8.44,6.65v.02l-7.11-1.06c1.21-.82,2.01-2.21,2.01-3.79,0-2.51-2.02-4.54-4.52-4.58-2.5,.03-4.52,2.07-4.52,4.58,0,1.58,.8,2.97,2.01,3.79l-7.11,1.06-1.99-1.57h0l-6.54-5.15c1.57-1.06,2.6-2.86,2.6-4.89,0-3.49-3.02-6.27-6.59-5.88-2.68,.3-4.86,2.46-5.19,5.13-.28,2.34,.8,4.44,2.55,5.64l-8.77,6.92h0v6.29h0l7.42-5.7h0l-3.71,17.63h6.03l.69-3.97c.12-.67,3.29-.67,3.4,0l.68,3.97h5.96l-3.71-17.63h0l7.18,4.09,6.06-.12-2.87,13.66h4.62l.53-3.08c.04-.26,.66-.38,1.29-.39,.63,0,1.24,.13,1.29,.39l.53,3.08h4.62l-2.87-13.66,6.06,.12,7.08-4.04h0l-3.71,17.63h16.76l-3.71-17.63h0l7.01,5.38Z"/><path class="d" d="M10.23,73.93l2.52-1.98c-.78-1.67-1.09-3.55-.86-5.46,.55-4.53,4.24-8.18,8.78-8.69,2.84-.32,5.68,.59,7.79,2.48,2.11,1.89,3.33,4.61,3.33,7.44,0,1.48-.33,2.92-.94,4.23l3.84,3.03c0-.16-.02-.33-.02-.49,0-4.71,3.83-8.59,8.54-8.65h.11c4.71,.06,8.54,3.94,8.54,8.65,0,.16,0,.31-.01,.47l3.74-2.95c-.61-1.3-.94-2.74-.94-4.23,0-2.84,1.21-5.55,3.33-7.44,2.11-1.89,4.95-2.8,7.79-2.48,4.54,.51,8.23,4.16,8.78,8.69,.23,1.91-.08,3.8-.86,5.46l2.23,1.76,.85-1.56c5.42-11.4,9.31-22.04,9.31-29.17C86.06,19.27,66.8,0,43.03,0S0,19.27,0,43.03c0,7.19,3.95,17.96,9.45,29.48l.77,1.42ZM43.03,25.58c6.43,0,11.5,5.2,11.5,11.63s-5.07,11.63-11.5,11.63-11.5-5.25-11.5-11.63,5.12-11.63,11.5-11.63Z"/></g></g></g></svg>