<?xml version="1.0" encoding="UTF-8"?><svg xmlns="http://www.w3.org/2000/svg" viewBox="0 0 75.61 68.48"><defs><style>.d{fill:#fff;}</style></defs><g id="a"/><g id="b"><g id="c"><g><path class="d" d="M36.78,27.45c.02-7.09,.02-14.19-.06-21.28,0-.75-.75-1.88-1.43-2.18-3.2-1.4-6.51-2.57-10.21-3.99-1,8.69-2.01,16.94-2.89,25.19-.56,5.27,.29,6.81,5.06,9.11,1.06,.51,2.2,.89,3.34,1.23,1.3-2.61,3.04-5.03,5.19-7.15,.33-.32,.66-.63,1-.93Z"/><path class="d" d="M10.35,22.72c-1.32-.41-2.69-.67-4.46-1.1C3.88,31.67,1.94,41.31,0,50.94c.44,.12,.64,.25,.8,.21,4.62-1.25,9.22-2.63,13.88-3.73,1.85-.44,2.39-1.43,2.55-3.08,.29-3.08,.58-6.17,1.01-9.24,1.13-8.12,.03-9.91-7.87-12.37Z"/><path class="d" d="M10.44,4.3c-.6,.23-1.22,1.05-1.36,1.71-.91,4.17-1.7,8.38-2.48,12.37,4.59,1.82,8.77,3.47,12.99,5.14,.87-7.6,1.75-15.32,2.68-23.43-4.18,1.47-8.03,2.77-11.82,4.21Z"/><path class="d" d="M53.59,19.01c-.05-2.02-.87-2.94-2.67-4.03-2.54-1.55-4.72-3.87-6.64-6.2-1.11-1.35-1.42-3.36-2.09-5.08-.29-.12-.59-.24-.88-.36-.56,1.01-1.59,2.01-1.61,3.03-.1,6.33-.09,12.65-.08,18.87,4.16-2.82,9.01-4.39,14.07-4.48-.05-.58-.09-1.16-.1-1.75Z"/><path class="d" d="M69.32,15.76c-4.63,.53-8.76,1-13.12,1.49,.14,1.22,.29,2.45,.43,3.61,5.73,.53,11.01,3.03,15.14,6.79-.81-3.96-1.66-8.06-2.45-11.9Z"/><path class="d" d="M29.45,38.2c-.76-.25-1.53-.52-2.27-.85-1.97-.9-3.75-2.21-5.98-3.56-.49,4.08-1.01,7.82-1.34,11.58-.06,.71,.4,1.86,.96,2.16,2.45,1.28,4.96,2.46,7.38,3.6-.21-1.37-.31-2.77-.3-4.19,.02-3.02,.56-5.96,1.56-8.73Z"/><path class="d" d="M56.98,13.83c3.96,.53,7.91,.47,11.65-1.68-.45-2.2-.78-4.27-1.33-6.28-.17-.64-.81-1.39-1.41-1.62-3.72-1.41-7.49-2.69-11.64-4.15,.46,4.24,.78,7.92,1.3,11.57,.11,.8,.85,2.09,1.43,2.17Z"/><path class="d" d="M52.83,12.36c-.48-4.04-.95-8.03-1.46-12.35-2.25,.86-4.15,1.59-5.98,2.29,.54,5.59,3.12,9.04,7.44,10.06Z"/><path class="d" d="M54.25,44.94c1.54,0,2.75-1.25,2.75-2.78s-1.21-2.78-2.75-2.78-2.75,1.24-2.75,2.78,1.22,2.78,2.75,2.78Z"/><path class="d" d="M39.29,31.94c-4.09,4.03-6.36,9.36-6.4,15.02-.04,5.73,2.16,11.13,6.19,15.2,4.01,4.05,9.35,6.29,15.04,6.31h.07c5.7,0,11.09-2.25,15.18-6.33,4.05-4.04,6.26-9.36,6.25-14.96-.04-11.53-9.71-21.35-21.12-21.44-.06,0-.12,0-.18,0-.91,0-1.81,.08-2.7,.19-3.33,1.33-6.54,2.6-9.78,3.89-.89,.64-1.74,1.34-2.54,2.12Zm17.79,1.8c4.14,1.21,6.6,4.16,7.32,8.52,.46,2.76-.36,5.29-1.51,7.72-2.12,4.49-5.14,8.33-8.49,11.93-.04,.04-.09,.06-.21,.14-3.85-4.3-7.48-8.71-9.45-14.25-1.39-3.89-1-7.59,1.69-10.78,2.82-3.34,6.49-4.5,10.64-3.28Z"/><path class="d" d="M51.61,25.94c-3.53,.45-6.87,1.78-9.78,3.89,3.23-1.29,6.44-2.56,9.78-3.89Z"/></g></g></g></svg>