<?xml version="1.0" encoding="UTF-8"?><svg xmlns="http://www.w3.org/2000/svg" viewBox="0 0 96.24 92.21"><defs><style>.d{fill:#134994;}.e{fill:#fff;}</style></defs><g id="a"/><g id="b"><g id="c"><g><path class="e" d="M35.37,36.06c-2.05,3.96-4.1,7.92-6.24,12.05,3.59,1.96,6.99,3.82,10.46,5.72,1.8-4.35,3.49-8.47,5.16-12.52-3.13-1.75-6.13-3.44-9.39-5.26Z"/><path class="e" d="M46.9,42.26c-1.7,4.12-3.41,8.24-5.17,12.5,3.15,1.19,6.25,2.36,9.58,3.62,.93-2.74,1.84-5.41,2.74-8.05-1.48-2.22-2.88-4.53-4.17-6.94-1-.38-1.99-.75-2.99-1.13Z"/><path class="e" d="M27.46,62.26c2.29,1.23,4.61,2.39,7.01,3.64,1.44-3.38,2.81-6.61,4.15-9.75-3.48-1.89-6.83-3.72-10.32-5.62-.83,2.63-1.69,5.21-2.47,7.81-.78,2.59-.76,2.63,1.63,3.92Z"/><path class="e" d="M33.54,34.74c-1.92-1.51-3.86-3.03-5.86-4.6-2.96,3.44-5.43,7.2-7.46,11.4,2.38,1.79,4.72,3.55,7.01,5.27,2.16-4.14,4.24-8.12,6.31-12.07Z"/><path class="e" d="M53.51,59.01c2.56,.54,5.16,1.1,7.77,1.6,.09,.02,.24-.07,.38-.2-2.06-2.48-4.08-5.05-5.99-7.75-.71,2.09-1.43,4.2-2.16,6.34Z"/><path class="e" d="M18.3,39.64c2.54-3.78,5.04-7.5,7.53-11.21-1.46-1.63-3.03-3.37-4.63-5.15-3.33,2.84-6.17,6.12-8.47,9.85-.11,.18-.02,.62,.14,.79,1.7,1.87,3.42,3.71,5.15,5.54,.12,.13,.31,.2,.28,.18Z"/><path class="e" d="M36.6,66.86c2.69,.97,5.29,1.92,7.91,2.83,.19,.07,.6-.08,.7-.25,1.68-2.9,3.33-5.81,5.01-8.77-3.27-1.24-6.33-2.41-9.46-3.6-1.37,3.22-2.73,6.43-4.16,9.8Z"/><path class="e" d="M43.64,24.96c-2.24,2.95-4.49,5.92-6.85,9.04,3.09,1.73,5.97,3.34,8.92,4.99,.33-.82,.66-1.63,.98-2.43-.35-.87-.69-1.75-1.01-2.64-1.09-3.05-1.76-6.04-2.05-8.96Z"/><path class="e" d="M26.25,49.76c.17-.51,0-.71-.37-.97-1.93-1.4-3.84-2.81-5.75-4.22-.31-.23-.6-.48-1.12-.9-.92,2.96-1.82,5.7-2.61,8.48-.67,2.37-.63,2.41,1.37,3.87,1.71,1.24,3.46,2.42,5.24,3.67,.12-.26,.2-.38,.24-.51,1-3.14,1.97-6.28,3-9.4Z"/><path class="e" d="M23.14,74.78c0,.19,.11,.48,.26,.56,1.83,.99,3.67,1.94,5.58,2.94,1.54-3.46,3.02-6.77,4.5-10.08-2.99-1.55-5.9-3.06-8.89-4.6-.74,3.73-1.3,7.43-1.45,11.18Z"/><path class="e" d="M13.9,52.58c1.09-3.28,2.2-6.56,3.25-9.86,.08-.26-.07-.71-.27-.91-1.29-1.35-2.63-2.64-3.93-3.97-.62-.63-1.17-1.32-1.81-2.03-1.73,3.26-2.98,6.6-3.78,10.11-.05,.24,.13,.61,.31,.81,1.18,1.29,2.37,2.57,3.6,3.82,.78,.79,1.63,1.5,2.44,2.24,.11-.12,.17-.16,.18-.21Z"/><path class="e" d="M52.41,61.26c-1.69,3.1-3.35,6.17-5.09,9.37,2.57,.54,5.09,1.08,7.61,1.6,.17,.03,.46-.08,.56-.22,2.01-2.77,3.75-5.7,5.16-8.85-2.8-.65-5.55-1.28-8.24-1.9Z"/><path class="e" d="M47.84,39.94c.14,.05,.27,.1,.41,.15-.08-.18-.17-.36-.25-.54l-.16,.39Z"/><path class="e" d="M64.35,63.57c-.3-.02-.6-.04-.9-.06-.19-.01-.48,.17-.58,.34-1.59,2.92-3.16,5.85-4.76,8.84,2.77,.44,5.67,.46,8.56,.26,.32-.02,.74-.35,.91-.65,.6-1.02,1.19-2.05,1.77-3.09l-1.79-2c-1.07-1.2-2.14-2.41-3.21-3.64Z"/><path class="e" d="M15.43,57.45c-.05,.1-.11,.17-.12,.25-.57,3.88-.68,7.78-.34,11.69,.03,.32,.28,.7,.54,.89,1.16,.85,2.35,1.65,3.54,2.45,.55,.37,1.13,.71,1.8,1.12,.1-1.03,.15-1.89,.27-2.74,.4-2.72,.85-5.44,1.24-8.17,.04-.29,0-.76-.19-.89-2.21-1.55-4.45-3.05-6.74-4.6Z"/><path class="e" d="M54.72,84.73c2.94-1.82,5.64-3.95,8.04-6.43,.81-.84,1.56-1.73,2.47-2.75-.35,0-.48,0-.61,0-2.54-.14-5.09-.23-7.63-.44-.63-.05-.98,.07-1.35,.55-2.28,2.93-4.87,5.56-7.71,7.96-.19,.16-.36,.34-.76,.72,2.42,.27,4.6,.52,6.79,.73,.24,.02,.53-.19,.77-.34Z"/><path class="e" d="M13,55.38c-2.09-1.96-4.2-3.9-6.36-5.89-.46,3.31-.39,6.62-.31,9.95,.06,2.58,1.12,4.38,3.05,5.89,1.05,.82,2.01,1.75,3.04,2.65,.09-.17,.13-.22,.13-.26-.23-3.91,.03-7.79,.67-11.66,.03-.21-.07-.53-.22-.67Z"/><path class="e" d="M36.66,80.63c1.43-1.73,2.91-3.41,4.31-5.15,.88-1.08,1.66-2.24,2.52-3.41-2.68-1-5.24-1.96-7.87-2.94-1.48,3.33-2.96,6.65-4.48,10.07,1.48,.59,2.92,1.15,4.34,1.75,.51,.21,.83,.11,1.18-.31Z"/><path class="e" d="M44.79,83.17c1.81-1.54,3.62-3.1,5.33-4.74,1.2-1.16,2.26-2.48,3.42-3.77-2.55-.65-4.93-1.27-7.32-1.83-.22-.05-.6,.22-.78,.45-1.01,1.32-1.94,2.7-2.97,4.01-1.24,1.57-2.55,3.09-3.92,4.75,1.74,.48,3.41,.96,5.1,1.37,.35,.08,.88-.02,1.14-.24Z"/><path class="e" d="M38.06,20.86c-3.15,2.17-6.04,4.59-8.69,7.46,1.93,1.51,3.77,2.95,5.56,4.35,2.35-3.09,4.59-6.06,6.85-9.03-1.21-.91-2.43-1.82-3.72-2.78Z"/><path class="e" d="M23.13,21.7c1.56,1.74,3,3.36,4.38,4.91,2.92-2.53,5.73-4.96,8.43-7.3-.77-.83-1.66-1.73-2.48-2.68-.38-.44-.71-.46-1.18-.22-2.12,1.13-4.27,2.22-6.37,3.39-.93,.52-1.78,1.2-2.79,1.9Z"/><path class="e" d="M66.51,77.49c-2.22,2.91-4.99,5.3-7.9,7.64,.96-.12,1.94-.21,2.89-.38,3.18-.55,6.08-1.63,8.19-4.27,.82-1.03,1.76-1.97,2.57-3.01,.9-1.16,1.71-2.38,2.61-3.66-1.44,.38-2.69,.91-3.98,1.02-1.97,.17-3.21,1.13-4.38,2.65Z"/><path class="e" d="M10.99,31.49c2.58-3.96,5.54-7.28,8.95-10.18-.52-.9-.99-1.72-1.49-2.58-3.62,2.33-6.73,5.14-9.41,8.44-.11,.13-.2,.41-.13,.53,.65,1.23,1.33,2.43,2.08,3.79Z"/><path class="e" d="M3.46,58.64c.1,.18,.27,.31,.44,.5,.05-.15,.09-.2,.08-.25-.18-3.82-.07-7.62,.64-11.39,.05-.27-.05-.63-.21-.87-.98-1.45-1.99-2.87-3.08-4.42C.6,44.89,.24,47.54,.03,50.22c-.11,1.31,.12,2.52,.72,3.65,.85,1.62,1.8,3.19,2.71,4.77Z"/><path class="e" d="M5.24,43.85c.09-.03,.18-.07,.27-.1,.94-3.38,2.27-6.61,3.94-9.69,.08-.15,.04-.45-.05-.6-.74-1.19-1.51-2.36-2.34-3.65-1.89,2.71-3.36,5.55-4.49,8.57-.06,.15-.1,.36-.03,.49,.89,1.67,1.8,3.33,2.7,5Z"/><path class="e" d="M70.39,72.27c.18,.03,.27,.07,.35,.06,.39-.08,.77-.18,1.15-.29l-.83-.93c-.21,.38-.44,.76-.67,1.16Z"/><path class="e" d="M5.28,66.56c-.45-1.68-1.06-3.13-2.26-4.4-.95-1.02-1.71-2.22-2.62-3.42,.64,4.04,1.8,7.8,3.49,11.4,.96,2.04,2.72,3.32,4.32,4.8-.11-.25-.23-.5-.32-.76-.89-2.54-1.92-5.04-2.62-7.63Z"/><path class="e" d="M20.68,76.95c0-.14-.13-.33-.25-.41-1.63-1.04-3.28-2.07-4.92-3.1l-.25,.08c.74,2.78,1.47,5.55,2.22,8.33,.04,.15,.15,.33,.28,.41,.92,.56,1.85,1.09,2.93,1.72,0-2.46,0-4.74-.01-7.02Z"/><path class="e" d="M54.62,87.62c-.14,0-.28,.06-.4,.12-3.12,1.72-6.4,3.08-9.83,4.05,.01,.11,.02,.23,.04,.34,1.56,0,3.16,.21,4.68-.05,1.93-.34,3.84-.96,5.68-1.67,2.07-.8,4.05-1.82,6.18-2.79-2.24,0-4.29,0-6.34,0Z"/><path class="e" d="M12.59,71.27c-1.5-1.24-3.01-2.46-4.57-3.73-.02,.12-.05,.18-.03,.23,1.21,4.1,3,7.92,5.4,11.46,.23,.34,.64,.55,.99,.83-.5-2.85-.98-5.58-1.48-8.3-.03-.18-.16-.37-.31-.49Z"/><path class="e" d="M23.11,78.09c0,2.24,0,4.42,.01,6.59,0,.23,.1,.56,.26,.66,.55,.33,1.15,.58,1.8,.9,.95-1.97,1.84-3.81,2.77-5.72-1.7-.86-3.29-1.66-4.83-2.43Z"/><path class="e" d="M36.89,84.1c-.19-.05-.51,.15-.69,.32-.99,.92-1.95,1.87-2.92,2.8-.55,.52-1.11,1.04-1.65,1.55,1.49,.96,2.9,1.03,4.31,.03,.18-.13,.41-.2,.61-.31,1.63-.93,3.27-1.87,5.09-2.91-1.75-.55-3.24-1.04-4.75-1.47Z"/><path class="e" d="M43.81,17.48c-.73,.37-1.45,.73-2.18,1.1-.44,.23-.85,.52-1.36,.84,1.16,.85,2.2,1.61,3.12,2.28l.1-.1c.01-1.4,.12-2.77,.32-4.12Z"/><path class="e" d="M31.21,14.13c-.23-.62-.72-.73-1.39-.49-1.11,.38-2.26,.65-3.34,1.09-1.95,.79-3.86,1.67-5.9,2.57,.51,.93,.92,1.67,1.25,2.25,3.18-1.83,6.28-3.62,9.39-5.42Z"/><path class="e" d="M46.51,86.61c-1.29-.36-2.39-.32-3.47,.63-.81,.71-1.81,1.2-2.75,1.77-.89,.53-1.8,1.03-2.7,1.54l.08,.21c4.21-.51,8.25-1.65,12.13-3.55-1.1-.19-2.22-.3-3.29-.6Z"/><path class="e" d="M30.08,81.48c-.93,1.92-1.83,3.77-2.76,5.7,.39,.17,.69,.34,1.02,.43,.3,.08,.77,.23,.93,.08,1.66-1.44,3.27-2.94,4.99-4.52-1.49-.61-2.8-1.14-4.17-1.7Z"/><path class="e" d="M44.31,13.34c-2.94,.26-5.82,.87-8.79,1.86,.93,.86,1.71,1.61,2.53,2.33,.15,.13,.5,.21,.65,.13,1.88-1.03,3.77-2.08,5.71-3.17,.09-.35,.18-.7,.29-1.05-.13-.06-.27-.11-.39-.1Z"/><path class="e" d="M18.95,86.04c.71,.64,1.31,1.19,2.04,1.85-.04-1.03-.58-1.5-2.04-1.85Z"/><path class="e" d="M35.91,12.5c-.77,.11-1.53,.22-2.3,.33,.02,.1,.03,.21,.05,.31,.82,.23,1.5-.4,2.25-.65Z"/><path class="d" d="M53.02,27.1l.07,.03-.03-.14-.04,.11Z"/><path class="e" d="M95.96,19.12c-1.55-9.27-6.76-15.54-15.57-18.12-8.82-2.58-16.61-.13-22.62,6.99-1.97,2.33-3.34,4.79-4.2,7.36-.07,.2-.14,.4-.2,.6-.25,.84-.44,1.7-.58,2.56-.19,1.18-.28,2.37-.27,3.58,.01,1.61,.2,3.25,.55,4.91l.03,.14c.22,1.01,.5,2.03,.84,3.06,.08,.23,.15,.47,.23,.7,.82,2.31,1.78,4.52,2.85,6.67,.58,1.16,1.19,2.3,1.84,3.42,.63,1.1,1.29,2.17,1.97,3.24,.65,1.01,1.32,2.01,2.01,2.99,.63,.89,1.27,1.76,1.93,2.63,.59,.79,1.2,1.57,1.81,2.34,2.11,2.66,4.33,5.24,6.6,7.8,.36,.41,.73,.82,1.09,1.23,.25-.17,.36-.22,.44-.3,.33-.35,.64-.71,.96-1.06,1.7-1.86,3.36-3.76,4.96-5.7,4.71-5.71,8.9-11.81,12.12-18.61,2.45-5.17,4.18-10.55,3.21-16.41Zm-21.59,8.42c-3.26,0-5.91-2.65-5.91-5.91s2.65-5.91,5.91-5.91,5.91,2.65,5.91,5.91-2.65,5.91-5.91,5.91Z"/></g></g></g></svg>