<?xml version="1.0" encoding="UTF-8"?><svg xmlns="http://www.w3.org/2000/svg" viewBox="0 0 150.74 144.46"><defs><style>.d{fill:#134994;}.e{fill:#fff;}</style></defs><g id="a"/><g id="b"><g id="c"><ellipse class="d" cx="75.37" cy="72.23" rx="75.37" ry="72.23"/><g><path class="e" d="M121.39,70.25c-.36,1.57-.65,3.16-1.08,4.72-1.33,4.82-4.24,8.48-8.52,10.98-4.33,2.53-8.91,4.25-14.08,3.91-2.33-.15-4.67-.03-7.13-.03v-5.5c2.9,0,5.75,0,8.6,0,10.68,0,18.21-8.79,16.59-19.32-.61-3.97-1.96-7.55-5-10.33-4.4-4.03-10.82-4.72-16.98-1.61-2.25,1.14-4.3,2.67-6.63,4.14l-3.65-4.15,9.06-5.83c-3.5-7.07-12.65-11.98-21.09-11.22-11.49,1.03-17.41,6.63-21.11,19.88-2.48,.75-4.98,1.28-7.3,2.23-6.2,2.54-9.33,8.42-8.01,14.63,1.53,7.21,6.6,11.58,13.43,11.59,3.84,0,7.69,0,11.67,0v5.79c-5.52-.32-11.13-.03-16.46-1.09-7.9-1.58-12.11-7.35-13.93-14.97-.15-.62-.27-1.24-.41-1.86v-4.31c.53-1.8,.88-3.67,1.63-5.37,2.54-5.82,7.35-8.94,13.23-10.65,.98-.29,1.65-.57,2.03-1.74,3.64-11.29,11.46-17.98,23.15-19.33,11.89-1.37,21.45,3.11,27.85,13.49,.82,1.34,1.6,1.65,3.08,1.56,9.22-.56,16.66,4.49,19.6,13.27,.65,1.95,1,4.01,1.49,6.02v5.09Z"/><path class="e" d="M58.26,96.16h10.89v-18.34h12.17v18.28h11.03l-17.05,17.79c-5.61-5.83-11.14-11.59-17.05-17.73Z"/></g></g></g></svg>