<?xml version="1.0" encoding="UTF-8"?><svg xmlns="http://www.w3.org/2000/svg" viewBox="0 0 127.64 65.8"><defs><style>.d{fill:#fff;}</style></defs><g id="a"/><g id="b"><g id="c"><g><path class="d" d="M60.5,14.23l-10.88,6.66c-3.58-5.48-9.33-8.74-16.4-8.74-11.51,0-20.03,8.43-20.03,20.76,.04,12.73,8.83,20.75,20.03,20.75,7.03,0,12.74-3.17,16.54-8.7l10.33,7.43c-5.62,8.25-15.18,13.42-26.78,13.42C13.78,65.8,0,51.98,0,32.9S13.78,0,33.3,0c11.7,0,22.03,5.35,27.19,14.23Z"/><path class="d" d="M127.64,14.23l-10.88,6.66c-3.58-5.48-9.33-8.74-16.4-8.74-11.51,0-20.03,8.43-20.03,20.76,.04,12.73,8.83,20.75,20.03,20.75,7.03,0,12.74-3.17,16.54-8.7l10.33,7.43c-5.62,8.25-15.18,13.42-26.78,13.42-19.53,0-33.3-13.82-33.3-32.9S80.92,0,100.45,0c11.7,0,22.03,5.35,27.19,14.23Z"/></g></g></g></svg>