<svg width="1200" height="301" viewBox="0 0 1200 301" fill="none" xmlns="http://www.w3.org/2000/svg">
<path fill-rule="evenodd" clip-rule="evenodd" d="M442 57.9295C442 33.1156 498.051 13 567.194 13H1067.96C1101.16 13 1133 17.7336 1156.48 26.1595C1179.96 34.5854 1193.15 46.0134 1193.15 57.9295V243.071C1193.15 267.884 1137.1 288 1067.96 288H567.194C498.051 288 442 267.884 442 243.071V57.9295Z" fill="#F4F4F4" stroke="#666666" stroke-width="2" stroke-miterlimit="10" stroke-linejoin="round" stroke-dasharray="8 6"/>
<path fill-rule="evenodd" clip-rule="evenodd" d="M958.179 111.283C958.179 117.968 1001.41 123.387 1054.73 123.387C1108.05 123.387 1151.28 117.968 1151.28 111.283V183.906C1151.28 190.59 1108.05 196.009 1054.73 196.009C1001.41 196.009 958.179 190.59 958.179 183.906V111.283Z" fill="#CFE2F3"/>
<path fill-rule="evenodd" clip-rule="evenodd" d="M958.179 111.283C958.179 104.599 1001.41 99.1797 1054.73 99.1797C1108.05 99.1797 1151.28 104.599 1151.28 111.283C1151.28 117.968 1108.05 123.387 1054.73 123.387C1001.41 123.387 958.179 117.968 958.179 111.283Z" fill="#E2EDF7"/>
<path d="M1151.28 111.283C1151.28 117.968 1108.05 123.387 1054.73 123.387C1001.41 123.387 958.179 117.968 958.179 111.283M1151.28 111.283C1151.28 104.599 1108.05 99.1797 1054.73 99.1797C1001.41 99.1797 958.179 104.599 958.179 111.283M1151.28 111.283V183.906C1151.28 190.591 1108.05 196.01 1054.73 196.01C1001.41 196.01 958.179 190.591 958.179 183.906V111.283" stroke="black" stroke-miterlimit="10" stroke-linejoin="round"/>
<path d="M1006.27 146.319C1008.13 146.319 1009.78 145.689 1010.9 144.465L1010.05 143.619C1009.03 144.681 1007.77 145.131 1006.33 145.131C1003.29 145.131 1001 142.899 1001 139.911C1001 136.923 1003.29 134.691 1006.33 134.691C1007.77 134.691 1009.03 135.141 1010.05 136.185L1010.9 135.339C1009.78 134.115 1008.13 133.503 1006.29 133.503C1002.49 133.503 999.687 136.221 999.687 139.911C999.687 143.601 1002.49 146.319 1006.27 146.319ZM1016.92 146.301C1019.69 146.301 1021.72 144.285 1021.72 141.477C1021.72 138.669 1019.69 136.671 1016.92 136.671C1014.15 136.671 1012.09 138.669 1012.09 141.477C1012.09 144.285 1014.15 146.301 1016.92 146.301ZM1016.92 145.167C1014.9 145.167 1013.39 143.691 1013.39 141.477C1013.39 139.263 1014.9 137.787 1016.92 137.787C1018.93 137.787 1020.43 139.263 1020.43 141.477C1020.43 143.691 1018.93 145.167 1016.92 145.167ZM1029.16 136.671C1027.52 136.671 1026.24 137.337 1025.56 138.489V136.743H1024.33V146.211H1025.61V141.243C1025.61 139.083 1026.89 137.823 1028.92 137.823C1030.72 137.823 1031.77 138.849 1031.77 140.847V146.211H1033.05V140.721C1033.05 138.003 1031.46 136.671 1029.16 136.671ZM1039.05 146.301C1041.52 146.301 1042.96 145.239 1042.96 143.601C1042.96 139.965 1036.82 141.891 1036.82 139.335C1036.82 138.435 1037.58 137.769 1039.29 137.769C1040.26 137.769 1041.25 138.003 1042.08 138.579L1042.64 137.553C1041.84 137.013 1040.51 136.671 1039.29 136.671C1036.88 136.671 1035.54 137.823 1035.54 139.371C1035.54 143.115 1041.68 141.171 1041.68 143.637C1041.68 144.573 1040.94 145.185 1039.14 145.185C1037.81 145.185 1036.53 144.717 1035.78 144.123L1035.2 145.131C1035.98 145.797 1037.49 146.301 1039.05 146.301ZM1049.19 146.301C1051.96 146.301 1054 144.285 1054 141.477C1054 138.669 1051.96 136.671 1049.19 136.671C1046.42 136.671 1044.37 138.669 1044.37 141.477C1044.37 144.285 1046.42 146.301 1049.19 146.301ZM1049.19 145.167C1047.18 145.167 1045.66 143.691 1045.66 141.477C1045.66 139.263 1047.18 137.787 1049.19 137.787C1051.21 137.787 1052.7 139.263 1052.7 141.477C1052.7 143.691 1051.21 145.167 1049.19 145.167ZM1056.61 146.211H1057.89V132.855H1056.61V146.211ZM1062.09 134.673C1062.63 134.673 1063.03 134.259 1063.03 133.737C1063.03 133.251 1062.61 132.855 1062.09 132.855C1061.57 132.855 1061.15 133.269 1061.15 133.755C1061.15 134.259 1061.57 134.673 1062.09 134.673ZM1061.44 146.211H1062.72V136.743H1061.44V146.211ZM1073.64 132.855V138.543C1072.85 137.319 1071.55 136.671 1070.04 136.671C1067.34 136.671 1065.32 138.615 1065.32 141.477C1065.32 144.339 1067.34 146.301 1070.04 146.301C1071.6 146.301 1072.92 145.617 1073.69 144.339V146.211H1074.92V132.855H1073.64ZM1070.15 145.167C1068.13 145.167 1066.62 143.691 1066.62 141.477C1066.62 139.263 1068.13 137.787 1070.15 137.787C1072.14 137.787 1073.66 139.263 1073.66 141.477C1073.66 143.691 1072.14 145.167 1070.15 145.167ZM1081.79 136.671C1080.29 136.671 1078.89 137.139 1077.93 137.949L1078.51 138.903C1079.28 138.219 1080.44 137.787 1081.66 137.787C1083.42 137.787 1084.34 138.669 1084.34 140.289V140.865H1081.34C1078.62 140.865 1077.68 142.089 1077.68 143.547C1077.68 145.185 1079 146.301 1081.14 146.301C1082.7 146.301 1083.82 145.707 1084.4 144.735V146.211H1085.62V140.343C1085.62 137.895 1084.23 136.671 1081.79 136.671ZM1081.34 145.293C1079.82 145.293 1078.94 144.609 1078.94 143.511C1078.94 142.539 1079.54 141.819 1081.37 141.819H1084.34V143.367C1083.84 144.609 1082.78 145.293 1081.34 145.293ZM1096.49 132.855V138.543C1095.7 137.319 1094.4 136.671 1092.89 136.671C1090.19 136.671 1088.17 138.615 1088.17 141.477C1088.17 144.339 1090.19 146.301 1092.89 146.301C1094.45 146.301 1095.77 145.617 1096.54 144.339V146.211H1097.77V132.855H1096.49ZM1093 145.167C1090.98 145.167 1089.47 143.691 1089.47 141.477C1089.47 139.263 1090.98 137.787 1093 137.787C1094.99 137.787 1096.51 139.263 1096.51 141.477C1096.51 143.691 1094.99 145.167 1093 145.167ZM1105.2 146.301C1107.97 146.301 1110 144.285 1110 141.477C1110 138.669 1107.97 136.671 1105.2 136.671C1102.42 136.671 1100.37 138.669 1100.37 141.477C1100.37 144.285 1102.42 146.301 1105.2 146.301ZM1105.2 145.167C1103.18 145.167 1101.67 143.691 1101.67 141.477C1101.67 139.263 1103.18 137.787 1105.2 137.787C1107.21 137.787 1108.71 139.263 1108.71 141.477C1108.71 143.691 1107.21 145.167 1105.2 145.167ZM1037.47 171.703H1038.7C1037.27 169.237 1036.64 166.483 1036.64 163.279C1036.64 160.075 1037.27 157.321 1038.7 154.855H1037.47C1036.14 156.997 1035.38 159.967 1035.38 163.279C1035.38 166.591 1036.14 169.525 1037.47 171.703ZM1045.09 168.301C1047.86 168.301 1049.89 166.285 1049.89 163.477C1049.89 160.669 1047.86 158.671 1045.09 158.671C1042.32 158.671 1040.26 160.669 1040.26 163.477C1040.26 166.285 1042.32 168.301 1045.09 168.301ZM1045.09 167.167C1043.07 167.167 1041.56 165.691 1041.56 163.477C1041.56 161.263 1043.07 159.787 1045.09 159.787C1047.1 159.787 1048.6 161.263 1048.6 163.477C1048.6 165.691 1047.1 167.167 1045.09 167.167ZM1059.76 158.743V163.711C1059.76 165.871 1058.51 167.149 1056.53 167.149C1054.73 167.149 1053.69 166.123 1053.69 164.107V158.743H1052.41V164.233C1052.41 166.951 1054 168.301 1056.41 168.301C1057.92 168.301 1059.14 167.635 1059.81 166.483V168.211H1061.03V158.743H1059.76ZM1069.15 166.717C1068.79 167.041 1068.27 167.203 1067.75 167.203C1066.68 167.203 1066.11 166.591 1066.11 165.475V159.823H1068.99V158.743H1066.11V156.673H1064.83V158.743H1063.14V159.823H1064.83V165.547C1064.83 167.293 1065.82 168.301 1067.6 168.301C1068.34 168.301 1069.1 168.085 1069.6 167.635L1069.15 166.717ZM1072.09 171.703C1073.44 169.525 1074.19 166.591 1074.19 163.279C1074.19 159.967 1073.44 156.997 1072.09 154.855H1070.86C1072.3 157.321 1072.93 160.075 1072.93 163.279C1072.93 166.483 1072.3 169.237 1070.86 171.703H1072.09Z" fill="black"/>
<path d="M697.498 147.289H938.87" stroke="black" stroke-width="2" stroke-miterlimit="10" stroke-linejoin="round"/>
<path fill-rule="evenodd" clip-rule="evenodd" d="M931.977 147.291L928.249 151.828L938.492 147.291L928.249 142.754L931.977 147.291Z" fill="black" stroke="black" stroke-width="2" stroke-miterlimit="10"/>
<path fill-rule="evenodd" clip-rule="evenodd" d="M485.09 93.127C485.09 103.154 528.317 111.283 581.639 111.283C634.962 111.283 678.188 103.154 678.188 93.127V202.062C678.188 212.089 634.962 220.218 581.639 220.218C528.317 220.218 485.09 212.089 485.09 202.062V93.127Z" fill="#CFE2F3"/>
<path fill-rule="evenodd" clip-rule="evenodd" d="M485.09 93.1285C485.09 83.1013 528.317 74.9727 581.639 74.9727C634.962 74.9727 678.188 83.1013 678.188 93.1285C678.188 103.156 634.962 111.284 581.639 111.284C528.317 111.284 485.09 103.156 485.09 93.1285Z" fill="#E2EDF7"/>
<path d="M678.188 93.1285C678.188 103.156 634.962 111.284 581.639 111.284C528.317 111.284 485.09 103.156 485.09 93.1285C485.09 83.1013 528.317 74.9727 581.639 74.9727C634.962 74.9727 678.188 83.1013 678.188 93.1285ZM678.188 93.1285V202.063C678.188 212.09 634.962 220.219 581.639 220.219C528.317 220.219 485.09 212.09 485.09 202.063V93.1285" stroke="black" stroke-miterlimit="10" stroke-linejoin="round"/>
<path d="M536.427 142.956V141.676H526.827V155.676H528.307V149.736H535.547V148.456H528.307V142.956H536.427ZM539.708 142.856C540.308 142.856 540.748 142.396 540.748 141.816C540.748 141.276 540.288 140.836 539.708 140.836C539.128 140.836 538.668 141.296 538.668 141.836C538.668 142.396 539.128 142.856 539.708 142.856ZM538.988 155.676H540.408V145.156H538.988V155.676ZM544.359 155.676H545.779V140.836H544.359V155.676ZM554.809 154.016C554.409 154.376 553.829 154.556 553.249 154.556C552.069 154.556 551.429 153.876 551.429 152.636V146.356H554.629V145.156H551.429V142.856H550.009V145.156H548.129V146.356H550.009V152.716C550.009 154.656 551.109 155.776 553.089 155.776C553.909 155.776 554.749 155.536 555.309 155.036L554.809 154.016ZM559.254 147.216V145.156H557.894V155.676H559.314V150.316C559.314 147.836 560.654 146.436 562.854 146.436C562.954 146.436 563.074 146.456 563.194 146.456V145.076C561.254 145.076 559.914 145.816 559.254 147.216ZM569.426 145.076C567.766 145.076 566.206 145.596 565.146 146.496L565.786 147.556C566.646 146.796 567.926 146.316 569.286 146.316C571.246 146.316 572.266 147.296 572.266 149.096V149.736H568.926C565.906 149.736 564.866 151.096 564.866 152.716C564.866 154.536 566.326 155.776 568.706 155.776C570.446 155.776 571.686 155.116 572.326 154.036V155.676H573.686V149.156C573.686 146.436 572.146 145.076 569.426 145.076ZM568.926 154.656C567.246 154.656 566.266 153.896 566.266 152.676C566.266 151.596 566.926 150.796 568.966 150.796H572.266V152.516C571.706 153.896 570.526 154.656 568.926 154.656ZM585.762 140.836V147.156C584.882 145.796 583.442 145.076 581.762 145.076C578.762 145.076 576.522 147.236 576.522 150.416C576.522 153.596 578.762 155.776 581.762 155.776C583.502 155.776 584.962 155.016 585.822 153.596V155.676H587.182V140.836H585.762ZM581.882 154.516C579.642 154.516 577.962 152.876 577.962 150.416C577.962 147.956 579.642 146.316 581.882 146.316C584.102 146.316 585.782 147.956 585.782 150.416C585.782 152.876 584.102 154.516 581.882 154.516ZM595.436 155.776C598.516 155.776 600.776 153.536 600.776 150.416C600.776 147.296 598.516 145.076 595.436 145.076C592.356 145.076 590.076 147.296 590.076 150.416C590.076 153.536 592.356 155.776 595.436 155.776ZM595.436 154.516C593.196 154.516 591.516 152.876 591.516 150.416C591.516 147.956 593.196 146.316 595.436 146.316C597.676 146.316 599.336 147.956 599.336 150.416C599.336 152.876 597.676 154.516 595.436 154.516ZM611.33 159.556H612.69C611.11 156.816 610.41 153.756 610.41 150.196C610.41 146.636 611.11 143.576 612.69 140.836H611.33C609.85 143.216 609.01 146.516 609.01 150.196C609.01 153.876 609.85 157.136 611.33 159.556ZM616.212 142.856C616.812 142.856 617.252 142.396 617.252 141.816C617.252 141.276 616.792 140.836 616.212 140.836C615.632 140.836 615.172 141.296 615.172 141.836C615.172 142.396 615.632 142.856 616.212 142.856ZM615.492 155.676H616.912V145.156H615.492V155.676ZM626.223 145.076C624.403 145.076 622.983 145.816 622.223 147.096V145.156H620.863V155.676H622.283V150.156C622.283 147.756 623.703 146.356 625.963 146.356C627.963 146.356 629.123 147.496 629.123 149.716V155.676H630.543V149.576C630.543 146.556 628.783 145.076 626.223 145.076ZM634.578 159.556C636.078 157.136 636.918 153.876 636.918 150.196C636.918 146.516 636.078 143.216 634.578 140.836H633.218C634.818 143.576 635.518 146.636 635.518 150.196C635.518 153.756 634.818 156.816 633.218 159.556H634.578Z" fill="black"/>
<path d="M224.407 147.773H465.779" stroke="black" stroke-width="2" stroke-miterlimit="10" stroke-linejoin="round"/>
<path fill-rule="evenodd" clip-rule="evenodd" d="M458.887 147.291L455.159 151.828L465.401 147.291L455.159 142.754L458.887 147.291Z" fill="black" stroke="black" stroke-width="2" stroke-miterlimit="10"/>
<path fill-rule="evenodd" clip-rule="evenodd" d="M12 74.9727C12 88.3422 55.2264 99.1804 108.549 99.1804C161.871 99.1804 205.098 88.3422 205.098 74.9727V220.219C205.098 233.588 161.871 244.427 108.549 244.427C55.2264 244.427 12 233.588 12 220.219V74.9727Z" fill="#CFE2F3"/>
<path fill-rule="evenodd" clip-rule="evenodd" d="M12 74.9714C12 61.6018 55.2264 50.7637 108.549 50.7637C161.871 50.7637 205.098 61.6018 205.098 74.9714C205.098 88.3409 161.871 99.1791 108.549 99.1791C55.2264 99.1791 12 88.3409 12 74.9714Z" fill="#E2EDF7"/>
<path d="M205.098 74.9714C205.098 88.3409 161.871 99.1791 108.549 99.1791C55.2264 99.1791 12 88.3409 12 74.9714C12 61.6018 55.2264 50.7637 108.549 50.7637C161.871 50.7637 205.098 61.6018 205.098 74.9714ZM205.098 74.9714V220.218C205.098 233.587 161.871 244.425 108.549 244.425C55.2264 244.425 12 233.587 12 220.218V74.9714" stroke="black" stroke-miterlimit="10" stroke-linejoin="round"/>
<path d="M77.3201 151.375L73.9001 146.575C75.9401 145.915 77.1001 144.375 77.1001 142.175C77.1001 139.175 74.9401 137.375 71.3801 137.375H66.1401V151.375H67.6201V146.935H71.3801C71.7801 146.935 72.1401 146.915 72.5001 146.875L75.7001 151.375H77.3201ZM71.3401 145.675H67.6201V138.655H71.3401C74.1401 138.655 75.6201 139.935 75.6201 142.175C75.6201 144.375 74.1401 145.675 71.3401 145.675ZM89.4732 146.115C89.4732 142.955 87.3332 140.775 84.3732 140.775C81.4132 140.775 79.2332 142.995 79.2332 146.115C79.2332 149.235 81.4732 151.475 84.7532 151.475C86.4132 151.475 87.8732 150.875 88.8132 149.755L88.0132 148.835C87.2132 149.755 86.0732 150.215 84.7932 150.215C82.4932 150.215 80.8132 148.755 80.6532 146.555H89.4532C89.4532 146.395 89.4732 146.235 89.4732 146.115ZM84.3732 141.995C86.4332 141.995 87.9332 143.435 88.1132 145.495H80.6532C80.8332 143.435 82.3332 141.995 84.3732 141.995ZM96.7235 151.475C98.5035 151.475 100.004 150.755 100.844 149.395L99.7835 148.675C99.0635 149.735 97.9435 150.215 96.7235 150.215C94.4235 150.215 92.7435 148.595 92.7435 146.115C92.7435 143.655 94.4235 142.015 96.7235 142.015C97.9435 142.015 99.0635 142.515 99.7835 143.575L100.844 142.855C100.004 141.475 98.5035 140.775 96.7235 140.775C93.5835 140.775 91.3035 142.975 91.3035 146.115C91.3035 149.255 93.5835 151.475 96.7235 151.475ZM107.757 151.475C110.837 151.475 113.097 149.235 113.097 146.115C113.097 142.995 110.837 140.775 107.757 140.775C104.677 140.775 102.397 142.995 102.397 146.115C102.397 149.235 104.677 151.475 107.757 151.475ZM107.757 150.215C105.517 150.215 103.837 148.575 103.837 146.115C103.837 143.655 105.517 142.015 107.757 142.015C109.997 142.015 111.657 143.655 111.657 146.115C111.657 148.575 109.997 150.215 107.757 150.215ZM117.356 142.915V140.855H115.996V151.375H117.416V146.015C117.416 143.535 118.756 142.135 120.956 142.135C121.056 142.135 121.176 142.155 121.296 142.155V140.775C119.356 140.775 118.016 141.515 117.356 142.915ZM129.357 149.715C128.957 150.075 128.377 150.255 127.797 150.255C126.617 150.255 125.977 149.575 125.977 148.335V142.055H129.177V140.855H125.977V138.555H124.557V140.855H122.677V142.055H124.557V148.415C124.557 150.355 125.657 151.475 127.637 151.475C128.457 151.475 129.297 151.235 129.857 150.735L129.357 149.715ZM141.251 146.115C141.251 142.955 139.111 140.775 136.151 140.775C133.191 140.775 131.011 142.995 131.011 146.115C131.011 149.235 133.251 151.475 136.531 151.475C138.191 151.475 139.651 150.875 140.591 149.755L139.791 148.835C138.991 149.755 137.851 150.215 136.571 150.215C134.271 150.215 132.591 148.755 132.431 146.555H141.231C141.231 146.395 141.251 146.235 141.251 146.115ZM136.151 141.995C138.211 141.995 139.711 143.435 139.891 145.495H132.431C132.611 143.435 134.111 141.995 136.151 141.995ZM54.3488 161.375H49.1088V175.375H50.5888V170.955H54.3488C57.9088 170.955 60.0688 169.155 60.0688 166.175C60.0688 163.175 57.9088 161.375 54.3488 161.375ZM54.3088 169.655H50.5888V162.655H54.3088C57.1088 162.655 58.5888 163.935 58.5888 166.175C58.5888 168.375 57.1088 169.655 54.3088 169.655ZM64.0555 166.915V164.855H62.6955V175.375H64.1155V170.015C64.1155 167.535 65.4555 166.135 67.6555 166.135C67.7555 166.135 67.8755 166.155 67.9955 166.155V164.775C66.0555 164.775 64.7155 165.515 64.0555 166.915ZM79.649 170.115C79.649 166.955 77.509 164.775 74.549 164.775C71.589 164.775 69.409 166.995 69.409 170.115C69.409 173.235 71.649 175.475 74.929 175.475C76.589 175.475 78.049 174.875 78.989 173.755L78.189 172.835C77.389 173.755 76.249 174.215 74.969 174.215C72.669 174.215 70.989 172.755 70.829 170.555H79.629C79.629 170.395 79.649 170.235 79.649 170.115ZM74.549 165.995C76.609 165.995 78.109 167.435 78.289 169.495H70.829C71.009 167.435 72.509 165.995 74.549 165.995ZM85.3593 175.475C88.0993 175.475 89.6993 174.295 89.6993 172.475C89.6993 168.435 82.8793 170.575 82.8793 167.735C82.8793 166.735 83.7193 165.995 85.6193 165.995C86.6993 165.995 87.7993 166.255 88.7193 166.895L89.3393 165.755C88.4593 165.155 86.9793 164.775 85.6193 164.775C82.9393 164.775 81.4593 166.055 81.4593 167.775C81.4593 171.935 88.2793 169.775 88.2793 172.515C88.2793 173.555 87.4593 174.235 85.4593 174.235C83.9793 174.235 82.5593 173.715 81.7193 173.055L81.0793 174.175C81.9393 174.915 83.6193 175.475 85.3593 175.475ZM101.504 170.115C101.504 166.955 99.3644 164.775 96.4044 164.775C93.4444 164.775 91.2644 166.995 91.2644 170.115C91.2644 173.235 93.5044 175.475 96.7844 175.475C98.4444 175.475 99.9044 174.875 100.844 173.755L100.044 172.835C99.2444 173.755 98.1044 174.215 96.8244 174.215C94.5244 174.215 92.8444 172.755 92.6844 170.555H101.484C101.484 170.395 101.504 170.235 101.504 170.115ZM96.4044 165.995C98.4644 165.995 99.9644 167.435 100.144 169.495H92.6844C92.8644 167.435 94.3644 165.995 96.4044 165.995ZM105.755 166.915V164.855H104.395V175.375H105.815V170.015C105.815 167.535 107.155 166.135 109.355 166.135C109.455 166.135 109.575 166.155 109.695 166.155V164.775C107.755 164.775 106.415 165.515 105.755 166.915ZM120.155 164.855L116.175 173.815L112.235 164.855H110.755L115.415 175.375H116.875L121.555 164.855H120.155ZM126.922 164.775C125.262 164.775 123.702 165.295 122.642 166.195L123.282 167.255C124.142 166.495 125.422 166.015 126.782 166.015C128.742 166.015 129.762 166.995 129.762 168.795V169.435H126.422C123.402 169.435 122.362 170.795 122.362 172.415C122.362 174.235 123.822 175.475 126.202 175.475C127.942 175.475 129.182 174.815 129.822 173.735V175.375H131.182V168.855C131.182 166.135 129.642 164.775 126.922 164.775ZM126.422 174.355C124.742 174.355 123.762 173.595 123.762 172.375C123.762 171.295 124.422 170.495 126.462 170.495H129.762V172.215C129.202 173.595 128.022 174.355 126.422 174.355ZM143.258 160.535V166.855C142.378 165.495 140.938 164.775 139.258 164.775C136.258 164.775 134.018 166.935 134.018 170.115C134.018 173.295 136.258 175.475 139.258 175.475C140.998 175.475 142.458 174.715 143.318 173.295V175.375H144.678V160.535H143.258ZM139.378 174.215C137.138 174.215 135.458 172.575 135.458 170.115C135.458 167.655 137.138 166.015 139.378 166.015C141.598 166.015 143.278 167.655 143.278 170.115C143.278 172.575 141.598 174.215 139.378 174.215ZM152.933 175.475C156.013 175.475 158.273 173.235 158.273 170.115C158.273 166.995 156.013 164.775 152.933 164.775C149.853 164.775 147.573 166.995 147.573 170.115C147.573 173.235 149.853 175.475 152.933 175.475ZM152.933 174.215C150.693 174.215 149.013 172.575 149.013 170.115C149.013 167.655 150.693 166.015 152.933 166.015C155.173 166.015 156.833 167.655 156.833 170.115C156.833 172.575 155.173 174.215 152.933 174.215Z" fill="black"/>
</svg>
